G04 #@! TF.GenerationSoftware,KiCad,Pcbnew,5.99.0-unknown-acdfeee~88~ubuntu18.04.1*
G04 #@! TF.CreationDate,2020-05-13T21:49:14+03:00*
G04 #@! TF.ProjectId,LoRaNode,4c6f5261-4e6f-4646-952e-6b696361645f,1.1*
G04 #@! TF.SameCoordinates,Original*
G04 #@! TF.FileFunction,Copper,L4,Bot*
G04 #@! TF.FilePolarity,Positive*
%FSLAX46Y46*%
G04 Gerber Fmt 4.6, Leading zero omitted, Abs format (unit mm)*
G04 Created by KiCad (PCBNEW 5.99.0-unknown-acdfeee~88~ubuntu18.04.1) date 2020-05-13 21:49:14*
%MOMM*%
%LPD*%
G01*
G04 APERTURE LIST*
G04 #@! TA.AperFunction,ComponentPad*
%ADD10R,1.700000X1.700000*%
G04 #@! TD*
G04 #@! TA.AperFunction,ComponentPad*
%ADD11O,1.700000X1.700000*%
G04 #@! TD*
G04 #@! TA.AperFunction,ComponentPad*
%ADD12O,1.998980X1.998980*%
G04 #@! TD*
G04 #@! TA.AperFunction,ComponentPad*
%ADD13R,1.998980X1.998980*%
G04 #@! TD*
G04 #@! TA.AperFunction,ComponentPad*
%ADD14O,1.800000X1.100000*%
G04 #@! TD*
G04 #@! TA.AperFunction,ComponentPad*
%ADD15O,2.200000X1.100000*%
G04 #@! TD*
G04 #@! TA.AperFunction,SMDPad,CuDef*
%ADD16R,1.350000X4.200000*%
G04 #@! TD*
G04 #@! TA.AperFunction,ViaPad*
%ADD17C,0.800000*%
G04 #@! TD*
G04 #@! TA.AperFunction,Conductor*
%ADD18C,0.200000*%
G04 #@! TD*
G04 #@! TA.AperFunction,Conductor*
%ADD19C,1.000000*%
G04 #@! TD*
G04 APERTURE END LIST*
D10*
X103980000Y-114800000D03*
D11*
X101440000Y-114800000D03*
X98900000Y-114800000D03*
X96360000Y-114800000D03*
X93820000Y-114800000D03*
D12*
X130120000Y-139600000D03*
D13*
X127580000Y-139600000D03*
D12*
X125040000Y-139600000D03*
D13*
X117420000Y-139600000D03*
D12*
X119960000Y-139600000D03*
X122500000Y-139600000D03*
X114880000Y-139600000D03*
D13*
X107260000Y-139600000D03*
D12*
X109800000Y-139600000D03*
X112340000Y-139600000D03*
D14*
X134500000Y-139150000D03*
X140100000Y-139150000D03*
D15*
X137300000Y-141300000D03*
D16*
X94175000Y-140900000D03*
X99825000Y-140900000D03*
D17*
X101400000Y-142400000D03*
X101400000Y-140600000D03*
X101400000Y-139600000D03*
X101400000Y-138600000D03*
X101400000Y-137600000D03*
X100400000Y-137600000D03*
X99400000Y-137600000D03*
X92500000Y-140600000D03*
X92500000Y-139600000D03*
X92500000Y-138600000D03*
X92500000Y-137600000D03*
X93500000Y-137600000D03*
X94500000Y-137600000D03*
X110800000Y-126000000D03*
X105199990Y-124500000D03*
X103900000Y-119200000D03*
X98400000Y-137200000D03*
X98400000Y-136100000D03*
X98400000Y-135100000D03*
X98400000Y-134100000D03*
X95600000Y-137200000D03*
X95600000Y-136100000D03*
X95600000Y-135100000D03*
X95600000Y-134100000D03*
X98400000Y-138400000D03*
X98400000Y-139400000D03*
X98400000Y-140400000D03*
X98400000Y-141400000D03*
X98400000Y-142400000D03*
X95600000Y-138400000D03*
X95600000Y-139400000D03*
X95600000Y-140400000D03*
X95600000Y-141400000D03*
X95600000Y-142400000D03*
X92600000Y-142400000D03*
X91000000Y-117000000D03*
X86000000Y-113000000D03*
X86000000Y-118000000D03*
X86000000Y-120000000D03*
X86000000Y-124000000D03*
X86000000Y-126000000D03*
X86000000Y-128000000D03*
X87297038Y-130909703D03*
X85800000Y-134900000D03*
X86000000Y-138000000D03*
X91000000Y-142000000D03*
X107000000Y-142000000D03*
X109000000Y-142000000D03*
X111000000Y-142000000D03*
X113000000Y-142000000D03*
X115000000Y-142000000D03*
X117000000Y-142000000D03*
X119000000Y-142000000D03*
X121000000Y-142000000D03*
X123000000Y-142000000D03*
X125000000Y-142000000D03*
X127000000Y-142000000D03*
X131000000Y-142000000D03*
X129000000Y-142000000D03*
X133000000Y-142000000D03*
X135000000Y-142000000D03*
X139000000Y-142000000D03*
X141000000Y-142000000D03*
X143000000Y-142000000D03*
X147000000Y-138000000D03*
X147000000Y-142000000D03*
X147000000Y-136000000D03*
X147000000Y-134000000D03*
X147000000Y-132000000D03*
X147000000Y-130000000D03*
X147000000Y-128000000D03*
X147000000Y-126000000D03*
X147000000Y-124000000D03*
X147000000Y-122000000D03*
X147000000Y-120000000D03*
X147000000Y-118000000D03*
X147000000Y-113000000D03*
X142000000Y-113000000D03*
X138000000Y-113000000D03*
X133000000Y-113000000D03*
X131000000Y-113000000D03*
X129000000Y-113000000D03*
X127000000Y-113000000D03*
X125000000Y-113000000D03*
X123000000Y-113000000D03*
X121000000Y-113000000D03*
X119000000Y-113000000D03*
X117000000Y-113000000D03*
X115000000Y-113000000D03*
X113000000Y-113000000D03*
X111000000Y-113000000D03*
X109000000Y-113000000D03*
X107000000Y-113000000D03*
X105000000Y-113000000D03*
X103000000Y-113000000D03*
X101000000Y-113000000D03*
X99000000Y-113000000D03*
X97000000Y-113000000D03*
X95000000Y-113000000D03*
X93000000Y-113000000D03*
X91000000Y-113000000D03*
X113900000Y-125300000D03*
X117800000Y-127500000D03*
X106300000Y-120400000D03*
X108100000Y-118600000D03*
X105000000Y-122200000D03*
X104200000Y-121500000D03*
X105200000Y-125700000D03*
X138300000Y-126800000D03*
X134000000Y-126100000D03*
X110300000Y-121900000D03*
X109100000Y-122700010D03*
X137300009Y-135773539D03*
X92043750Y-118812500D03*
X90200000Y-133100000D03*
X90730000Y-135435000D03*
X88500000Y-118800000D03*
X93500000Y-121200000D03*
X119900000Y-124100000D03*
X112600000Y-124500000D03*
X116000000Y-127500000D03*
X106400000Y-133600000D03*
X103000000Y-131700000D03*
X122000000Y-131700000D03*
X120800000Y-131700000D03*
X104200000Y-131700000D03*
X116300000Y-131100000D03*
X117800000Y-131100000D03*
X120600000Y-136500000D03*
X106500000Y-135700000D03*
X112500000Y-133900000D03*
X111000000Y-137800000D03*
X111000000Y-136700000D03*
X98200000Y-131700000D03*
X95700000Y-131700000D03*
X92500000Y-131900000D03*
X93600000Y-129600000D03*
X108500000Y-121100000D03*
X108500000Y-119900000D03*
X106400000Y-129500000D03*
X110100000Y-128300000D03*
X109200000Y-131000000D03*
X131565485Y-130250010D03*
X134650000Y-129150000D03*
X109200000Y-125800021D03*
X102600000Y-140900000D03*
X128400000Y-132700000D03*
X128400000Y-131900000D03*
X127600000Y-132300000D03*
X127600000Y-131500000D03*
X133800000Y-131600000D03*
X134200000Y-130400000D03*
X131600000Y-131000000D03*
D18*
X112600000Y-124500000D02*
X105199990Y-124500000D01*
X103900000Y-119200000D02*
X103900000Y-114880000D01*
X103900000Y-114880000D02*
X103980000Y-114800000D01*
X105900000Y-125000000D02*
X111700000Y-125000000D01*
X112000000Y-125300000D02*
X113900000Y-125300000D01*
X111700000Y-125000000D02*
X112000000Y-125300000D01*
X105200000Y-125700000D02*
X105900000Y-125000000D01*
D19*
X117800000Y-127500000D02*
X116200000Y-127500000D01*
D18*
X106300000Y-120400000D02*
X108100000Y-118600000D01*
X105700000Y-121900000D02*
X105300000Y-121500000D01*
X110300000Y-121900000D02*
X105700000Y-121900000D01*
X105300000Y-121500000D02*
X104200000Y-121500000D01*
X109100000Y-122700010D02*
X105500010Y-122700010D01*
X105500010Y-122700010D02*
X105000000Y-122200000D01*
X90200000Y-134905000D02*
X90730000Y-135435000D01*
X90200000Y-133100000D02*
X90200000Y-134905000D01*
D19*
X116200000Y-127500000D02*
X116000000Y-127500000D01*
X120750000Y-129150000D02*
X119100000Y-127500000D01*
X134650000Y-129150000D02*
X120750000Y-129150000D01*
X119100000Y-127500000D02*
X117800000Y-127500000D01*
D18*
X103800000Y-132500000D02*
X103000000Y-131700000D01*
X121200000Y-132500000D02*
X103800000Y-132500000D01*
X122000000Y-131700000D02*
X121200000Y-132500000D01*
X120500000Y-132000000D02*
X104500000Y-132000000D01*
X104500000Y-132000000D02*
X104200000Y-131700000D01*
X120800000Y-131700000D02*
X120500000Y-132000000D01*
X108300000Y-133900000D02*
X106500000Y-135700000D01*
X112500000Y-133900000D02*
X108300000Y-133900000D01*
G36*
X147701000Y-142701000D02*
G01*
X127103138Y-142701000D01*
X127118530Y-142698562D01*
X127314712Y-142634819D01*
X127328596Y-142627744D01*
X127495478Y-142506497D01*
X127506497Y-142495478D01*
X127627744Y-142328596D01*
X127634819Y-142314712D01*
X127698562Y-142118530D01*
X127701000Y-142103138D01*
X127701000Y-141896862D01*
X127698562Y-141881470D01*
X127634819Y-141685288D01*
X127627744Y-141671404D01*
X127528200Y-141534393D01*
X135612869Y-141534393D01*
X135670688Y-141730848D01*
X135674316Y-141739826D01*
X135774929Y-141932282D01*
X135780232Y-141940385D01*
X135916311Y-142109632D01*
X135923086Y-142116551D01*
X136089446Y-142256145D01*
X136097436Y-142261616D01*
X136287742Y-142366237D01*
X136296643Y-142370052D01*
X136503811Y-142435769D01*
X136513629Y-142437820D01*
X136693527Y-142456729D01*
X136698705Y-142457000D01*
X137087007Y-142457000D01*
X137145000Y-142399007D01*
X137145000Y-141512993D01*
X137455000Y-141512993D01*
X137455000Y-142399007D01*
X137512993Y-142457000D01*
X137904627Y-142457000D01*
X137909460Y-142456764D01*
X138070974Y-142440927D01*
X138080473Y-142439046D01*
X138288373Y-142376277D01*
X138297326Y-142372587D01*
X138489074Y-142270633D01*
X138497140Y-142265274D01*
X138665433Y-142128017D01*
X138672304Y-142121194D01*
X138810733Y-141953863D01*
X138816148Y-141945835D01*
X138919438Y-141754802D01*
X138923191Y-141745876D01*
X138988313Y-141535503D01*
X138928961Y-141455000D01*
X137512993Y-141455000D01*
X137455000Y-141512993D01*
X137145000Y-141512993D01*
X137087007Y-141455000D01*
X135672263Y-141455000D01*
X135612869Y-141534393D01*
X127528200Y-141534393D01*
X127506497Y-141504522D01*
X127495478Y-141493503D01*
X127328596Y-141372256D01*
X127314712Y-141365181D01*
X127118530Y-141301438D01*
X127103138Y-141299000D01*
X126896862Y-141299000D01*
X126881470Y-141301438D01*
X126685288Y-141365181D01*
X126671404Y-141372256D01*
X126504522Y-141493503D01*
X126493503Y-141504522D01*
X126372256Y-141671404D01*
X126365181Y-141685288D01*
X126301438Y-141881470D01*
X126299000Y-141896862D01*
X126299000Y-142103138D01*
X126301438Y-142118530D01*
X126365181Y-142314712D01*
X126372256Y-142328596D01*
X126493503Y-142495478D01*
X126504522Y-142506497D01*
X126671404Y-142627744D01*
X126685288Y-142634819D01*
X126881470Y-142698562D01*
X126896862Y-142701000D01*
X101114837Y-142701000D01*
X101114837Y-141112993D01*
X101056844Y-141055000D01*
X98593156Y-141055000D01*
X98535163Y-141112993D01*
X98535163Y-142701000D01*
X95464837Y-142701000D01*
X95464837Y-141112993D01*
X95406844Y-141055000D01*
X92943156Y-141055000D01*
X92885163Y-141112993D01*
X92885163Y-142701000D01*
X85299000Y-142701000D01*
X85299000Y-139987684D01*
X86097970Y-139987684D01*
X86098322Y-139995022D01*
X86131822Y-140267858D01*
X86133255Y-140275064D01*
X86206715Y-140539953D01*
X86209198Y-140546867D01*
X86321004Y-140797987D01*
X86324481Y-140804458D01*
X86472177Y-141036295D01*
X86476573Y-141042181D01*
X86656914Y-141249640D01*
X86662131Y-141254813D01*
X86871156Y-141433336D01*
X86877081Y-141437680D01*
X87110197Y-141583347D01*
X87116699Y-141586768D01*
X87368786Y-141696379D01*
X87375722Y-141698801D01*
X87641240Y-141769946D01*
X87648458Y-141771317D01*
X87921577Y-141802434D01*
X87928918Y-141802723D01*
X88203636Y-141793129D01*
X88210939Y-141792330D01*
X88481221Y-141742236D01*
X88488326Y-141740365D01*
X88748235Y-141650871D01*
X88754986Y-141647971D01*
X88998812Y-141521044D01*
X89005060Y-141517178D01*
X89227447Y-141355603D01*
X89233054Y-141350857D01*
X89429116Y-141158187D01*
X89433960Y-141152663D01*
X89599391Y-140933130D01*
X89603365Y-140926951D01*
X89673997Y-140796862D01*
X101899000Y-140796862D01*
X101899000Y-141003138D01*
X101901438Y-141018530D01*
X101965181Y-141214712D01*
X101972256Y-141228596D01*
X102093503Y-141395478D01*
X102104522Y-141406497D01*
X102271404Y-141527744D01*
X102285288Y-141534819D01*
X102481470Y-141598562D01*
X102496862Y-141601000D01*
X102703138Y-141601000D01*
X102718530Y-141598562D01*
X102914712Y-141534819D01*
X102928596Y-141527744D01*
X103095478Y-141406497D01*
X103106497Y-141395478D01*
X103227744Y-141228596D01*
X103234819Y-141214712D01*
X103298562Y-141018530D01*
X103301000Y-141003138D01*
X103301000Y-140796862D01*
X103298562Y-140781470D01*
X103234819Y-140585288D01*
X103227744Y-140571404D01*
X103106497Y-140404522D01*
X103095478Y-140393503D01*
X102928596Y-140272256D01*
X102914712Y-140265181D01*
X102718530Y-140201438D01*
X102703138Y-140199000D01*
X102496862Y-140199000D01*
X102481470Y-140201438D01*
X102285288Y-140265181D01*
X102271404Y-140272256D01*
X102104522Y-140393503D01*
X102093503Y-140404522D01*
X101972256Y-140571404D01*
X101965181Y-140585288D01*
X101901438Y-140781470D01*
X101899000Y-140796862D01*
X89673997Y-140796862D01*
X89734529Y-140685377D01*
X89737546Y-140678679D01*
X89831563Y-140420371D01*
X89833557Y-140413300D01*
X89888490Y-140143297D01*
X89889469Y-140134707D01*
X89899162Y-139764501D01*
X89898634Y-139755873D01*
X89857909Y-139483365D01*
X89856287Y-139476199D01*
X89775918Y-139213324D01*
X89773255Y-139206477D01*
X89654915Y-138958370D01*
X89651269Y-138951991D01*
X89545835Y-138795678D01*
X92885163Y-138795678D01*
X92885163Y-140687007D01*
X92943156Y-140745000D01*
X93962007Y-140745000D01*
X94020000Y-140687007D01*
X94020000Y-138243156D01*
X94330000Y-138243156D01*
X94330000Y-140687007D01*
X94387993Y-140745000D01*
X95406844Y-140745000D01*
X95464837Y-140687007D01*
X95464837Y-138795678D01*
X98535163Y-138795678D01*
X98535163Y-140687007D01*
X98593156Y-140745000D01*
X99612007Y-140745000D01*
X99670000Y-140687007D01*
X99670000Y-138243156D01*
X99980000Y-138243156D01*
X99980000Y-140687007D01*
X100037993Y-140745000D01*
X101056844Y-140745000D01*
X101114837Y-140687007D01*
X101114837Y-138793511D01*
X101113143Y-138780645D01*
X101063573Y-138595647D01*
X105957592Y-138595647D01*
X105957592Y-140604353D01*
X105958545Y-140614034D01*
X105976918Y-140706403D01*
X105984381Y-140724420D01*
X106039420Y-140806791D01*
X106053209Y-140820580D01*
X106135580Y-140875619D01*
X106153597Y-140883082D01*
X106245966Y-140901455D01*
X106255647Y-140902408D01*
X108264353Y-140902408D01*
X108274034Y-140901455D01*
X108366403Y-140883082D01*
X108384420Y-140875619D01*
X108466791Y-140820580D01*
X108480580Y-140806791D01*
X108535619Y-140724420D01*
X108543082Y-140706403D01*
X108561455Y-140614034D01*
X108562408Y-140604353D01*
X108562408Y-139995346D01*
X108614219Y-140141654D01*
X108618019Y-140149898D01*
X108732784Y-140348676D01*
X108738023Y-140356089D01*
X108887089Y-140530624D01*
X108893592Y-140536958D01*
X109071970Y-140681406D01*
X109079517Y-140686449D01*
X109281230Y-140795971D01*
X109289571Y-140799554D01*
X109507866Y-140870482D01*
X109516720Y-140872486D01*
X109744285Y-140902444D01*
X109753356Y-140902801D01*
X109982569Y-140890789D01*
X109991553Y-140889486D01*
X110214739Y-140835904D01*
X110223336Y-140832986D01*
X110433021Y-140739628D01*
X110440941Y-140735192D01*
X110630101Y-140605186D01*
X110637080Y-140599381D01*
X110799381Y-140437080D01*
X110805186Y-140430101D01*
X110935192Y-140240941D01*
X110939628Y-140233021D01*
X111032986Y-140023336D01*
X111035904Y-140014739D01*
X111069056Y-139876652D01*
X111075366Y-139916493D01*
X111077600Y-139925291D01*
X111154219Y-140141654D01*
X111158019Y-140149898D01*
X111272784Y-140348676D01*
X111278023Y-140356089D01*
X111427089Y-140530624D01*
X111433592Y-140536958D01*
X111611970Y-140681406D01*
X111619517Y-140686449D01*
X111821230Y-140795971D01*
X111829571Y-140799554D01*
X112047866Y-140870482D01*
X112056720Y-140872486D01*
X112284285Y-140902444D01*
X112293356Y-140902801D01*
X112522569Y-140890789D01*
X112531553Y-140889486D01*
X112754739Y-140835904D01*
X112763336Y-140832986D01*
X112973021Y-140739628D01*
X112980941Y-140735192D01*
X113170101Y-140605186D01*
X113177080Y-140599381D01*
X113339381Y-140437080D01*
X113345186Y-140430101D01*
X113432278Y-140303381D01*
X113442432Y-140328015D01*
X113446043Y-140335101D01*
X113577321Y-140548489D01*
X113582017Y-140554907D01*
X113745724Y-140744563D01*
X113751386Y-140750147D01*
X113943309Y-140911188D01*
X113949791Y-140915795D01*
X114164992Y-141044081D01*
X114172127Y-141047592D01*
X114405072Y-141139822D01*
X114412677Y-141142147D01*
X114651068Y-141194560D01*
X114725000Y-141135117D01*
X114725001Y-139812992D01*
X114725000Y-139812991D01*
X114725000Y-139387008D01*
X115034999Y-139387008D01*
X115035000Y-139387009D01*
X115034999Y-141133207D01*
X115100510Y-141192194D01*
X115172509Y-141184628D01*
X115180327Y-141183165D01*
X115422099Y-141117476D01*
X115429581Y-141114782D01*
X115657741Y-141011285D01*
X115664697Y-141007430D01*
X115873375Y-140868784D01*
X115879624Y-140863866D01*
X116063451Y-140693641D01*
X116068834Y-140687787D01*
X116120150Y-140622105D01*
X116136918Y-140706403D01*
X116144381Y-140724420D01*
X116199420Y-140806791D01*
X116213209Y-140820580D01*
X116295580Y-140875619D01*
X116313597Y-140883082D01*
X116405966Y-140901455D01*
X116415647Y-140902408D01*
X118424353Y-140902408D01*
X118434034Y-140901455D01*
X118526403Y-140883082D01*
X118544420Y-140875619D01*
X118626791Y-140820580D01*
X118640580Y-140806791D01*
X118695619Y-140724420D01*
X118703082Y-140706403D01*
X118721455Y-140614034D01*
X118722408Y-140604353D01*
X118722408Y-139995346D01*
X118774219Y-140141654D01*
X118778019Y-140149898D01*
X118892784Y-140348676D01*
X118898023Y-140356089D01*
X119047089Y-140530624D01*
X119053592Y-140536958D01*
X119231970Y-140681406D01*
X119239517Y-140686449D01*
X119441230Y-140795971D01*
X119449571Y-140799554D01*
X119667866Y-140870482D01*
X119676720Y-140872486D01*
X119904285Y-140902444D01*
X119913356Y-140902801D01*
X120142569Y-140890789D01*
X120151553Y-140889486D01*
X120374739Y-140835904D01*
X120383336Y-140832986D01*
X120593021Y-140739628D01*
X120600941Y-140735192D01*
X120790101Y-140605186D01*
X120797080Y-140599381D01*
X120959381Y-140437080D01*
X120965186Y-140430101D01*
X121095192Y-140240941D01*
X121099628Y-140233021D01*
X121192986Y-140023336D01*
X121195904Y-140014739D01*
X121229056Y-139876652D01*
X121235366Y-139916493D01*
X121237600Y-139925291D01*
X121314219Y-140141654D01*
X121318019Y-140149898D01*
X121432784Y-140348676D01*
X121438023Y-140356089D01*
X121587089Y-140530624D01*
X121593592Y-140536958D01*
X121771970Y-140681406D01*
X121779517Y-140686449D01*
X121981230Y-140795971D01*
X121989571Y-140799554D01*
X122207866Y-140870482D01*
X122216720Y-140872486D01*
X122444285Y-140902444D01*
X122453356Y-140902801D01*
X122682569Y-140890789D01*
X122691553Y-140889486D01*
X122914739Y-140835904D01*
X122923336Y-140832986D01*
X123133021Y-140739628D01*
X123140941Y-140735192D01*
X123330101Y-140605186D01*
X123337080Y-140599381D01*
X123499381Y-140437080D01*
X123505186Y-140430101D01*
X123592278Y-140303381D01*
X123602432Y-140328015D01*
X123606043Y-140335101D01*
X123737321Y-140548489D01*
X123742017Y-140554907D01*
X123905724Y-140744563D01*
X123911386Y-140750147D01*
X124103309Y-140911188D01*
X124109791Y-140915795D01*
X124324992Y-141044081D01*
X124332127Y-141047592D01*
X124565072Y-141139822D01*
X124572677Y-141142147D01*
X124811068Y-141194560D01*
X124885000Y-141135117D01*
X124885000Y-141133207D01*
X125194999Y-141133207D01*
X125260510Y-141192194D01*
X125332509Y-141184628D01*
X125340327Y-141183165D01*
X125582099Y-141117476D01*
X125589581Y-141114782D01*
X125817741Y-141011285D01*
X125824697Y-141007430D01*
X126033375Y-140868784D01*
X126034170Y-140868159D01*
X126040961Y-140893505D01*
X126050974Y-140912739D01*
X126178665Y-141064915D01*
X126191935Y-141076050D01*
X126362084Y-141174285D01*
X126378362Y-141180210D01*
X126567576Y-141213574D01*
X126576188Y-141214327D01*
X127367007Y-141214327D01*
X127425000Y-141156334D01*
X127425000Y-139812993D01*
X127367007Y-139755000D01*
X126032510Y-139755000D01*
X125252993Y-139754999D01*
X125195000Y-139812992D01*
X125194999Y-141133207D01*
X124885000Y-141133207D01*
X124885001Y-139812992D01*
X124885000Y-139812991D01*
X124885000Y-139387007D01*
X125194999Y-139387007D01*
X125252992Y-139445000D01*
X126073517Y-139445001D01*
X126073518Y-139445000D01*
X127367007Y-139445000D01*
X127425000Y-139387007D01*
X127425000Y-138043666D01*
X127735000Y-138043666D01*
X127735000Y-141156334D01*
X127792993Y-141214327D01*
X128585979Y-141214327D01*
X128598845Y-141212633D01*
X128873505Y-141139038D01*
X128892739Y-141129026D01*
X128969641Y-141064497D01*
X135611687Y-141064497D01*
X135671039Y-141145000D01*
X137087007Y-141145000D01*
X137145000Y-141087007D01*
X137145000Y-140200993D01*
X137455000Y-140200993D01*
X137455000Y-141087007D01*
X137512993Y-141145000D01*
X138927737Y-141145000D01*
X138987131Y-141065607D01*
X138929312Y-140869152D01*
X138925684Y-140860174D01*
X138825071Y-140667718D01*
X138819768Y-140659615D01*
X138683689Y-140490368D01*
X138676914Y-140483449D01*
X138510554Y-140343855D01*
X138502564Y-140338384D01*
X138312258Y-140233763D01*
X138303357Y-140229948D01*
X138096189Y-140164231D01*
X138086371Y-140162180D01*
X137906473Y-140143271D01*
X137901295Y-140143000D01*
X137512993Y-140143000D01*
X137455000Y-140200993D01*
X137145000Y-140200993D01*
X137087007Y-140143000D01*
X136695373Y-140143000D01*
X136690540Y-140143236D01*
X136529026Y-140159073D01*
X136519527Y-140160954D01*
X136311627Y-140223723D01*
X136302674Y-140227413D01*
X136110926Y-140329367D01*
X136102860Y-140334726D01*
X135934567Y-140471983D01*
X135927696Y-140478806D01*
X135789267Y-140646137D01*
X135783852Y-140654165D01*
X135680562Y-140845198D01*
X135676809Y-140854124D01*
X135611687Y-141064497D01*
X128969641Y-141064497D01*
X129044915Y-141001335D01*
X129056050Y-140988065D01*
X129154285Y-140817916D01*
X129160210Y-140801638D01*
X129193574Y-140612424D01*
X129194327Y-140603812D01*
X129194327Y-140515682D01*
X129207089Y-140530624D01*
X129213592Y-140536958D01*
X129391970Y-140681406D01*
X129399517Y-140686449D01*
X129601230Y-140795971D01*
X129609571Y-140799554D01*
X129827866Y-140870482D01*
X129836720Y-140872486D01*
X130064285Y-140902444D01*
X130073356Y-140902801D01*
X130302569Y-140890789D01*
X130311553Y-140889486D01*
X130534739Y-140835904D01*
X130543336Y-140832986D01*
X130753021Y-140739628D01*
X130760941Y-140735192D01*
X130950101Y-140605186D01*
X130957080Y-140599381D01*
X131119381Y-140437080D01*
X131125186Y-140430101D01*
X131255192Y-140240941D01*
X131259628Y-140233021D01*
X131352986Y-140023336D01*
X131355904Y-140014739D01*
X131409638Y-139790921D01*
X131410992Y-139780633D01*
X131418676Y-139487180D01*
X131417862Y-139476835D01*
X131400730Y-139384393D01*
X133012869Y-139384393D01*
X133070688Y-139580848D01*
X133074316Y-139589826D01*
X133174929Y-139782282D01*
X133180232Y-139790385D01*
X133316311Y-139959632D01*
X133323086Y-139966551D01*
X133489446Y-140106145D01*
X133497436Y-140111616D01*
X133687742Y-140216237D01*
X133696643Y-140220052D01*
X133903811Y-140285769D01*
X133913629Y-140287820D01*
X134093527Y-140306729D01*
X134098705Y-140307000D01*
X134287007Y-140307000D01*
X134345000Y-140249007D01*
X134345000Y-139362993D01*
X134655000Y-139362993D01*
X134655000Y-140249007D01*
X134712993Y-140307000D01*
X134904627Y-140307000D01*
X134909460Y-140306764D01*
X135070974Y-140290927D01*
X135080473Y-140289046D01*
X135288373Y-140226277D01*
X135297326Y-140222587D01*
X135489074Y-140120633D01*
X135497140Y-140115274D01*
X135665433Y-139978017D01*
X135672304Y-139971194D01*
X135810733Y-139803863D01*
X135816148Y-139795835D01*
X135919438Y-139604802D01*
X135923191Y-139595876D01*
X135988313Y-139385503D01*
X135987495Y-139384393D01*
X138612869Y-139384393D01*
X138670688Y-139580848D01*
X138674316Y-139589826D01*
X138774929Y-139782282D01*
X138780232Y-139790385D01*
X138916311Y-139959632D01*
X138923086Y-139966551D01*
X139089446Y-140106145D01*
X139097436Y-140111616D01*
X139287742Y-140216237D01*
X139296643Y-140220052D01*
X139503811Y-140285769D01*
X139513629Y-140287820D01*
X139693527Y-140306729D01*
X139698705Y-140307000D01*
X139887007Y-140307000D01*
X139945000Y-140249007D01*
X139945000Y-139362993D01*
X140255000Y-139362993D01*
X140255000Y-140249007D01*
X140312993Y-140307000D01*
X140504627Y-140307000D01*
X140509460Y-140306764D01*
X140670974Y-140290927D01*
X140680473Y-140289046D01*
X140888373Y-140226277D01*
X140897326Y-140222587D01*
X141089074Y-140120633D01*
X141097140Y-140115274D01*
X141253580Y-139987684D01*
X143097970Y-139987684D01*
X143098322Y-139995022D01*
X143131822Y-140267858D01*
X143133255Y-140275064D01*
X143206715Y-140539953D01*
X143209198Y-140546867D01*
X143321004Y-140797987D01*
X143324481Y-140804458D01*
X143472177Y-141036295D01*
X143476573Y-141042181D01*
X143656914Y-141249640D01*
X143662131Y-141254813D01*
X143871156Y-141433336D01*
X143877081Y-141437680D01*
X144110197Y-141583347D01*
X144116699Y-141586768D01*
X144368786Y-141696379D01*
X144375722Y-141698801D01*
X144641240Y-141769946D01*
X144648458Y-141771317D01*
X144921577Y-141802434D01*
X144928918Y-141802723D01*
X145203636Y-141793129D01*
X145210939Y-141792330D01*
X145481221Y-141742236D01*
X145488326Y-141740365D01*
X145748235Y-141650871D01*
X145754986Y-141647971D01*
X145998812Y-141521044D01*
X146005060Y-141517178D01*
X146227447Y-141355603D01*
X146233054Y-141350857D01*
X146429116Y-141158187D01*
X146433960Y-141152663D01*
X146599391Y-140933130D01*
X146603365Y-140926951D01*
X146734529Y-140685377D01*
X146737546Y-140678679D01*
X146831563Y-140420371D01*
X146833557Y-140413300D01*
X146888490Y-140143297D01*
X146889469Y-140134707D01*
X146899162Y-139764501D01*
X146898634Y-139755873D01*
X146857909Y-139483365D01*
X146856287Y-139476199D01*
X146775918Y-139213324D01*
X146773255Y-139206477D01*
X146654915Y-138958370D01*
X146651269Y-138951991D01*
X146497555Y-138724101D01*
X146493006Y-138718331D01*
X146307297Y-138515664D01*
X146301945Y-138510630D01*
X146088319Y-138337640D01*
X146082282Y-138333452D01*
X145845433Y-138193937D01*
X145838844Y-138190688D01*
X145583974Y-138087714D01*
X145576977Y-138085474D01*
X145309687Y-138021303D01*
X145302436Y-138020122D01*
X145028596Y-137996165D01*
X145021250Y-137996068D01*
X144746878Y-138012849D01*
X144739598Y-138013840D01*
X144470718Y-138070992D01*
X144463665Y-138073048D01*
X144206188Y-138169315D01*
X144199516Y-138172391D01*
X143959096Y-138305658D01*
X143952952Y-138309686D01*
X143734870Y-138477025D01*
X143729389Y-138481917D01*
X143538437Y-138679654D01*
X143533740Y-138685303D01*
X143374113Y-138909091D01*
X143370302Y-138915372D01*
X143245507Y-139160297D01*
X143242666Y-139167072D01*
X143155443Y-139427752D01*
X143153635Y-139434873D01*
X143105901Y-139705582D01*
X143105165Y-139712892D01*
X143097970Y-139987684D01*
X141253580Y-139987684D01*
X141265433Y-139978017D01*
X141272304Y-139971194D01*
X141410733Y-139803863D01*
X141416148Y-139795835D01*
X141519438Y-139604802D01*
X141523191Y-139595876D01*
X141588313Y-139385503D01*
X141528961Y-139305000D01*
X140312993Y-139305000D01*
X140255000Y-139362993D01*
X139945000Y-139362993D01*
X139887007Y-139305000D01*
X138672263Y-139305000D01*
X138612869Y-139384393D01*
X135987495Y-139384393D01*
X135928961Y-139305000D01*
X134712993Y-139305000D01*
X134655000Y-139362993D01*
X134345000Y-139362993D01*
X134287007Y-139305000D01*
X133072263Y-139305000D01*
X133012869Y-139384393D01*
X131400730Y-139384393D01*
X131375916Y-139250511D01*
X131373452Y-139241774D01*
X131291196Y-139027491D01*
X131287181Y-139019350D01*
X131222928Y-138914497D01*
X133011687Y-138914497D01*
X133071039Y-138995000D01*
X134287007Y-138995000D01*
X134345000Y-138937007D01*
X134345000Y-138050993D01*
X134655000Y-138050993D01*
X134655000Y-138937007D01*
X134712993Y-138995000D01*
X135927737Y-138995000D01*
X135987131Y-138915607D01*
X135986805Y-138914497D01*
X138611687Y-138914497D01*
X138671039Y-138995000D01*
X139887007Y-138995000D01*
X139945000Y-138937007D01*
X139945000Y-138050993D01*
X140255000Y-138050993D01*
X140255000Y-138937007D01*
X140312993Y-138995000D01*
X141527737Y-138995000D01*
X141587131Y-138915607D01*
X141529312Y-138719152D01*
X141525684Y-138710174D01*
X141425071Y-138517718D01*
X141419768Y-138509615D01*
X141283689Y-138340368D01*
X141276914Y-138333449D01*
X141110554Y-138193855D01*
X141102564Y-138188384D01*
X140912258Y-138083763D01*
X140903357Y-138079948D01*
X140696189Y-138014231D01*
X140686371Y-138012180D01*
X140506473Y-137993271D01*
X140501295Y-137993000D01*
X140312993Y-137993000D01*
X140255000Y-138050993D01*
X139945000Y-138050993D01*
X139887007Y-137993000D01*
X139695373Y-137993000D01*
X139690540Y-137993236D01*
X139529026Y-138009073D01*
X139519527Y-138010954D01*
X139311627Y-138073723D01*
X139302674Y-138077413D01*
X139110926Y-138179367D01*
X139102860Y-138184726D01*
X138934567Y-138321983D01*
X138927696Y-138328806D01*
X138789267Y-138496137D01*
X138783852Y-138504165D01*
X138680562Y-138695198D01*
X138676809Y-138704124D01*
X138611687Y-138914497D01*
X135986805Y-138914497D01*
X135929312Y-138719152D01*
X135925684Y-138710174D01*
X135825071Y-138517718D01*
X135819768Y-138509615D01*
X135683689Y-138340368D01*
X135676914Y-138333449D01*
X135510554Y-138193855D01*
X135502564Y-138188384D01*
X135312258Y-138083763D01*
X135303357Y-138079948D01*
X135096189Y-138014231D01*
X135086371Y-138012180D01*
X134906473Y-137993271D01*
X134901295Y-137993000D01*
X134712993Y-137993000D01*
X134655000Y-138050993D01*
X134345000Y-138050993D01*
X134287007Y-137993000D01*
X134095373Y-137993000D01*
X134090540Y-137993236D01*
X133929026Y-138009073D01*
X133919527Y-138010954D01*
X133711627Y-138073723D01*
X133702674Y-138077413D01*
X133510926Y-138179367D01*
X133502860Y-138184726D01*
X133334567Y-138321983D01*
X133327696Y-138328806D01*
X133189267Y-138496137D01*
X133183852Y-138504165D01*
X133080562Y-138695198D01*
X133076809Y-138704124D01*
X133011687Y-138914497D01*
X131222928Y-138914497D01*
X131167253Y-138823644D01*
X131161821Y-138816370D01*
X131008236Y-138645798D01*
X131001570Y-138639636D01*
X130819474Y-138499908D01*
X130811796Y-138495064D01*
X130607285Y-138390860D01*
X130598853Y-138387496D01*
X130378776Y-138322307D01*
X130369873Y-138320536D01*
X130141602Y-138296543D01*
X130132525Y-138296424D01*
X129903705Y-138314433D01*
X129894758Y-138315971D01*
X129673051Y-138375376D01*
X129664534Y-138378518D01*
X129457365Y-138477333D01*
X129449563Y-138481975D01*
X129263871Y-138616888D01*
X129257046Y-138622873D01*
X129194327Y-138688965D01*
X129194327Y-138594021D01*
X129192633Y-138581155D01*
X129119038Y-138306496D01*
X129109026Y-138287262D01*
X128981335Y-138135085D01*
X128968065Y-138123950D01*
X128797916Y-138025715D01*
X128781638Y-138019790D01*
X128592424Y-137986426D01*
X128583812Y-137985673D01*
X127792993Y-137985673D01*
X127735000Y-138043666D01*
X127425000Y-138043666D01*
X127367007Y-137985673D01*
X126574021Y-137985673D01*
X126561155Y-137987367D01*
X126286496Y-138060962D01*
X126267262Y-138070974D01*
X126115085Y-138198665D01*
X126103950Y-138211935D01*
X126033455Y-138334036D01*
X125853999Y-138209313D01*
X125847126Y-138205313D01*
X125621185Y-138097060D01*
X125613760Y-138094210D01*
X125373416Y-138023472D01*
X125365631Y-138021846D01*
X125262060Y-138008762D01*
X125195000Y-138067884D01*
X125194999Y-139387007D01*
X124885000Y-139387007D01*
X124885001Y-138066706D01*
X124812678Y-138007299D01*
X124605075Y-138048405D01*
X124597423Y-138050570D01*
X124362599Y-138137901D01*
X124355392Y-138141262D01*
X124137551Y-138265012D01*
X124130973Y-138269482D01*
X123935720Y-138426470D01*
X123929942Y-138431934D01*
X123762300Y-138618119D01*
X123757470Y-138624437D01*
X123621752Y-138835030D01*
X123617994Y-138842039D01*
X123593243Y-138898693D01*
X123547253Y-138823644D01*
X123541821Y-138816370D01*
X123388236Y-138645798D01*
X123381570Y-138639636D01*
X123199474Y-138499908D01*
X123191796Y-138495064D01*
X122987285Y-138390860D01*
X122978853Y-138387496D01*
X122758776Y-138322307D01*
X122749873Y-138320536D01*
X122521602Y-138296543D01*
X122512525Y-138296424D01*
X122283705Y-138314433D01*
X122274758Y-138315971D01*
X122053051Y-138375376D01*
X122044534Y-138378518D01*
X121837365Y-138477333D01*
X121829563Y-138481975D01*
X121643871Y-138616888D01*
X121637046Y-138622873D01*
X121479049Y-138789367D01*
X121473429Y-138796496D01*
X121348419Y-138988995D01*
X121344192Y-138997029D01*
X121256355Y-139209086D01*
X121253663Y-139217755D01*
X121230255Y-139327880D01*
X121215916Y-139250511D01*
X121213452Y-139241774D01*
X121131196Y-139027491D01*
X121127181Y-139019350D01*
X121007253Y-138823644D01*
X121001821Y-138816370D01*
X120848236Y-138645798D01*
X120841570Y-138639636D01*
X120659474Y-138499908D01*
X120651796Y-138495064D01*
X120447285Y-138390860D01*
X120438853Y-138387496D01*
X120218776Y-138322307D01*
X120209873Y-138320536D01*
X119981602Y-138296543D01*
X119972525Y-138296424D01*
X119743705Y-138314433D01*
X119734758Y-138315971D01*
X119513051Y-138375376D01*
X119504534Y-138378518D01*
X119297365Y-138477333D01*
X119289563Y-138481975D01*
X119103871Y-138616888D01*
X119097046Y-138622873D01*
X118939049Y-138789367D01*
X118933429Y-138796496D01*
X118808419Y-138988995D01*
X118804192Y-138997029D01*
X118722408Y-139194473D01*
X118722408Y-138595647D01*
X118721455Y-138585966D01*
X118703082Y-138493597D01*
X118695619Y-138475580D01*
X118640580Y-138393209D01*
X118626791Y-138379420D01*
X118544420Y-138324381D01*
X118526403Y-138316918D01*
X118434034Y-138298545D01*
X118424353Y-138297592D01*
X116415647Y-138297592D01*
X116405966Y-138298545D01*
X116313597Y-138316918D01*
X116295580Y-138324381D01*
X116213209Y-138379420D01*
X116199420Y-138393209D01*
X116144381Y-138475580D01*
X116136918Y-138493597D01*
X116120473Y-138576273D01*
X116091354Y-138537349D01*
X116086095Y-138531384D01*
X115905874Y-138357345D01*
X115899729Y-138352297D01*
X115693999Y-138209313D01*
X115687126Y-138205313D01*
X115461185Y-138097060D01*
X115453760Y-138094210D01*
X115213416Y-138023472D01*
X115205631Y-138021846D01*
X115102060Y-138008762D01*
X115035000Y-138067884D01*
X115034999Y-139387008D01*
X114725000Y-139387008D01*
X114725001Y-138066706D01*
X114652678Y-138007299D01*
X114445075Y-138048405D01*
X114437423Y-138050570D01*
X114202599Y-138137901D01*
X114195392Y-138141262D01*
X113977551Y-138265012D01*
X113970973Y-138269482D01*
X113775720Y-138426470D01*
X113769942Y-138431934D01*
X113602300Y-138618119D01*
X113597470Y-138624437D01*
X113461752Y-138835030D01*
X113457994Y-138842039D01*
X113433243Y-138898693D01*
X113387253Y-138823644D01*
X113381821Y-138816370D01*
X113228236Y-138645798D01*
X113221570Y-138639636D01*
X113039474Y-138499908D01*
X113031796Y-138495064D01*
X112827285Y-138390860D01*
X112818853Y-138387496D01*
X112598776Y-138322307D01*
X112589873Y-138320536D01*
X112361602Y-138296543D01*
X112352525Y-138296424D01*
X112123705Y-138314433D01*
X112114758Y-138315971D01*
X111893051Y-138375376D01*
X111884534Y-138378518D01*
X111677365Y-138477333D01*
X111669563Y-138481975D01*
X111483871Y-138616888D01*
X111477046Y-138622873D01*
X111319049Y-138789367D01*
X111313429Y-138796496D01*
X111188419Y-138988995D01*
X111184192Y-138997029D01*
X111096355Y-139209086D01*
X111093663Y-139217755D01*
X111070255Y-139327880D01*
X111055916Y-139250511D01*
X111053452Y-139241774D01*
X110971196Y-139027491D01*
X110967181Y-139019350D01*
X110847253Y-138823644D01*
X110841821Y-138816370D01*
X110688236Y-138645798D01*
X110681570Y-138639636D01*
X110499474Y-138499908D01*
X110491796Y-138495064D01*
X110287285Y-138390860D01*
X110278853Y-138387496D01*
X110058776Y-138322307D01*
X110049873Y-138320536D01*
X109821602Y-138296543D01*
X109812525Y-138296424D01*
X109583705Y-138314433D01*
X109574758Y-138315971D01*
X109353051Y-138375376D01*
X109344534Y-138378518D01*
X109137365Y-138477333D01*
X109129563Y-138481975D01*
X108943871Y-138616888D01*
X108937046Y-138622873D01*
X108779049Y-138789367D01*
X108773429Y-138796496D01*
X108648419Y-138988995D01*
X108644192Y-138997029D01*
X108562408Y-139194473D01*
X108562408Y-138595647D01*
X108561455Y-138585966D01*
X108543082Y-138493597D01*
X108535619Y-138475580D01*
X108480580Y-138393209D01*
X108466791Y-138379420D01*
X108384420Y-138324381D01*
X108366403Y-138316918D01*
X108274034Y-138298545D01*
X108264353Y-138297592D01*
X106255647Y-138297592D01*
X106245966Y-138298545D01*
X106153597Y-138316918D01*
X106135580Y-138324381D01*
X106053209Y-138379420D01*
X106039420Y-138393209D01*
X105984381Y-138475580D01*
X105976918Y-138493597D01*
X105958545Y-138585966D01*
X105957592Y-138595647D01*
X101063573Y-138595647D01*
X101039548Y-138505986D01*
X101029536Y-138486752D01*
X100901845Y-138334575D01*
X100888575Y-138323440D01*
X100718426Y-138225205D01*
X100702148Y-138219280D01*
X100512934Y-138185916D01*
X100504322Y-138185163D01*
X100037993Y-138185163D01*
X99980000Y-138243156D01*
X99670000Y-138243156D01*
X99612007Y-138185163D01*
X99143511Y-138185163D01*
X99130645Y-138186857D01*
X98855986Y-138260452D01*
X98836752Y-138270464D01*
X98684575Y-138398155D01*
X98673440Y-138411425D01*
X98575205Y-138581574D01*
X98569280Y-138597852D01*
X98535916Y-138787066D01*
X98535163Y-138795678D01*
X95464837Y-138795678D01*
X95464837Y-138793511D01*
X95463143Y-138780645D01*
X95389548Y-138505986D01*
X95379536Y-138486752D01*
X95251845Y-138334575D01*
X95238575Y-138323440D01*
X95068426Y-138225205D01*
X95052148Y-138219280D01*
X94862934Y-138185916D01*
X94854322Y-138185163D01*
X94387993Y-138185163D01*
X94330000Y-138243156D01*
X94020000Y-138243156D01*
X93962007Y-138185163D01*
X93493511Y-138185163D01*
X93480645Y-138186857D01*
X93205986Y-138260452D01*
X93186752Y-138270464D01*
X93034575Y-138398155D01*
X93023440Y-138411425D01*
X92925205Y-138581574D01*
X92919280Y-138597852D01*
X92885916Y-138787066D01*
X92885163Y-138795678D01*
X89545835Y-138795678D01*
X89497555Y-138724101D01*
X89493006Y-138718331D01*
X89307297Y-138515664D01*
X89301945Y-138510630D01*
X89088319Y-138337640D01*
X89082282Y-138333452D01*
X88845433Y-138193937D01*
X88838844Y-138190688D01*
X88583974Y-138087714D01*
X88576977Y-138085474D01*
X88309687Y-138021303D01*
X88302436Y-138020122D01*
X88028596Y-137996165D01*
X88021250Y-137996068D01*
X87746878Y-138012849D01*
X87739598Y-138013840D01*
X87470718Y-138070992D01*
X87463665Y-138073048D01*
X87206188Y-138169315D01*
X87199516Y-138172391D01*
X86959096Y-138305658D01*
X86952952Y-138309686D01*
X86734870Y-138477025D01*
X86729389Y-138481917D01*
X86538437Y-138679654D01*
X86533740Y-138685303D01*
X86374113Y-138909091D01*
X86370302Y-138915372D01*
X86245507Y-139160297D01*
X86242666Y-139167072D01*
X86155443Y-139427752D01*
X86153635Y-139434873D01*
X86105901Y-139705582D01*
X86105165Y-139712892D01*
X86097970Y-139987684D01*
X85299000Y-139987684D01*
X85299000Y-135809771D01*
X86171378Y-135809771D01*
X86171378Y-135822229D01*
X86193348Y-135996141D01*
X86196446Y-136008207D01*
X86260977Y-136171193D01*
X86266978Y-136182110D01*
X86370014Y-136323927D01*
X86378542Y-136333008D01*
X86513609Y-136444745D01*
X86524127Y-136451420D01*
X86682740Y-136526057D01*
X86694587Y-136529906D01*
X86866777Y-136562754D01*
X86879210Y-136563536D01*
X87054160Y-136552529D01*
X87066396Y-136550194D01*
X87233112Y-136496026D01*
X87244384Y-136490722D01*
X87392391Y-136396793D01*
X87401989Y-136388852D01*
X87521987Y-136261068D01*
X87529309Y-136250990D01*
X87613758Y-136097378D01*
X87618344Y-136085795D01*
X87661939Y-135916007D01*
X87663500Y-135903648D01*
X87663500Y-135728352D01*
X87661939Y-135715993D01*
X87618344Y-135546205D01*
X87613758Y-135534622D01*
X87529309Y-135381010D01*
X87521987Y-135370932D01*
X87401989Y-135243148D01*
X87392391Y-135235207D01*
X87244384Y-135141278D01*
X87233112Y-135135974D01*
X87066396Y-135081806D01*
X87054160Y-135079471D01*
X86879210Y-135068464D01*
X86866777Y-135069246D01*
X86694587Y-135102094D01*
X86682740Y-135105943D01*
X86524127Y-135180580D01*
X86513609Y-135187255D01*
X86378542Y-135298992D01*
X86370014Y-135308073D01*
X86266978Y-135449890D01*
X86260977Y-135460807D01*
X86196446Y-135623793D01*
X86193348Y-135635859D01*
X86171378Y-135809771D01*
X85299000Y-135809771D01*
X85299000Y-133777771D01*
X86171378Y-133777771D01*
X86171378Y-133790229D01*
X86193348Y-133964141D01*
X86196446Y-133976207D01*
X86260977Y-134139193D01*
X86266978Y-134150110D01*
X86370014Y-134291927D01*
X86378542Y-134301008D01*
X86513609Y-134412745D01*
X86524127Y-134419420D01*
X86682740Y-134494057D01*
X86694587Y-134497906D01*
X86866777Y-134530754D01*
X86879210Y-134531536D01*
X87054160Y-134520529D01*
X87066396Y-134518194D01*
X87233112Y-134464026D01*
X87244384Y-134458722D01*
X87392391Y-134364793D01*
X87401989Y-134356852D01*
X87521987Y-134229068D01*
X87529309Y-134218990D01*
X87613758Y-134065378D01*
X87618344Y-134053795D01*
X87661939Y-133884007D01*
X87663500Y-133871648D01*
X87663500Y-133696352D01*
X87661939Y-133683993D01*
X87618344Y-133514205D01*
X87613758Y-133502622D01*
X87529309Y-133349010D01*
X87521987Y-133338932D01*
X87401989Y-133211148D01*
X87392391Y-133203207D01*
X87244384Y-133109278D01*
X87233112Y-133103974D01*
X87066396Y-133049806D01*
X87054160Y-133047471D01*
X86879210Y-133036464D01*
X86866777Y-133037246D01*
X86694587Y-133070094D01*
X86682740Y-133073943D01*
X86524127Y-133148580D01*
X86513609Y-133155255D01*
X86378542Y-133266992D01*
X86370014Y-133276073D01*
X86266978Y-133417890D01*
X86260977Y-133428807D01*
X86196446Y-133591793D01*
X86193348Y-133603859D01*
X86171378Y-133777771D01*
X85299000Y-133777771D01*
X85299000Y-132996862D01*
X89499000Y-132996862D01*
X89499000Y-133203138D01*
X89501438Y-133218530D01*
X89565181Y-133414712D01*
X89572256Y-133428596D01*
X89693503Y-133595478D01*
X89704522Y-133606497D01*
X89799000Y-133675139D01*
X89799001Y-134836610D01*
X89795124Y-134847650D01*
X89792600Y-134869804D01*
X89799001Y-134927323D01*
X89799001Y-134944602D01*
X89800245Y-134955645D01*
X89803971Y-134971979D01*
X89810308Y-135028922D01*
X89817663Y-135050015D01*
X89824119Y-135060308D01*
X89826837Y-135072221D01*
X89836507Y-135092312D01*
X89872643Y-135137659D01*
X89881576Y-135151901D01*
X89888530Y-135160628D01*
X89900424Y-135172522D01*
X89936267Y-135217503D01*
X89953693Y-135231414D01*
X89964555Y-135236653D01*
X90034610Y-135306709D01*
X90031438Y-135316471D01*
X90029000Y-135331862D01*
X90029000Y-135538138D01*
X90031438Y-135553530D01*
X90095181Y-135749712D01*
X90102256Y-135763596D01*
X90223503Y-135930478D01*
X90234522Y-135941497D01*
X90401404Y-136062744D01*
X90415288Y-136069819D01*
X90611470Y-136133562D01*
X90626862Y-136136000D01*
X90833138Y-136136000D01*
X90848530Y-136133562D01*
X91044712Y-136069819D01*
X91058596Y-136062744D01*
X91225478Y-135941497D01*
X91236497Y-135930478D01*
X91357744Y-135763596D01*
X91364819Y-135749712D01*
X91414482Y-135596862D01*
X105799000Y-135596862D01*
X105799000Y-135803138D01*
X105801438Y-135818530D01*
X105865181Y-136014712D01*
X105872256Y-136028596D01*
X105993503Y-136195478D01*
X106004522Y-136206497D01*
X106171404Y-136327744D01*
X106185288Y-136334819D01*
X106381470Y-136398562D01*
X106396862Y-136401000D01*
X106603138Y-136401000D01*
X106618530Y-136398562D01*
X106814712Y-136334819D01*
X106828596Y-136327744D01*
X106995478Y-136206497D01*
X107006497Y-136195478D01*
X107127744Y-136028596D01*
X107134819Y-136014712D01*
X107198562Y-135818530D01*
X107201000Y-135803138D01*
X107201000Y-135596862D01*
X107198562Y-135581471D01*
X107195390Y-135571710D01*
X108466101Y-134301000D01*
X111924861Y-134301000D01*
X111993503Y-134395478D01*
X112004522Y-134406497D01*
X112171404Y-134527744D01*
X112185288Y-134534819D01*
X112381470Y-134598562D01*
X112396862Y-134601000D01*
X112603138Y-134601000D01*
X112618530Y-134598562D01*
X112814712Y-134534819D01*
X112828596Y-134527744D01*
X112995478Y-134406497D01*
X113006497Y-134395478D01*
X113127744Y-134228596D01*
X113134819Y-134214712D01*
X113198562Y-134018530D01*
X113201000Y-134003138D01*
X113201000Y-133796862D01*
X113198562Y-133781470D01*
X113134819Y-133585288D01*
X113127744Y-133571404D01*
X113006497Y-133404522D01*
X112995478Y-133393503D01*
X112828596Y-133272256D01*
X112814712Y-133265181D01*
X112618530Y-133201438D01*
X112603138Y-133199000D01*
X112396862Y-133199000D01*
X112381470Y-133201438D01*
X112185288Y-133265181D01*
X112171404Y-133272256D01*
X112004522Y-133393503D01*
X111993503Y-133404522D01*
X111924861Y-133499000D01*
X108368386Y-133499000D01*
X108357349Y-133495124D01*
X108335195Y-133492600D01*
X108277685Y-133499000D01*
X108260398Y-133499000D01*
X108249354Y-133500244D01*
X108233016Y-133503971D01*
X108176077Y-133510308D01*
X108154983Y-133517664D01*
X108144692Y-133524119D01*
X108132780Y-133526836D01*
X108112690Y-133536505D01*
X108067339Y-133572642D01*
X108053094Y-133581579D01*
X108044370Y-133588531D01*
X108032478Y-133600423D01*
X107987497Y-133636266D01*
X107973586Y-133653692D01*
X107968348Y-133664552D01*
X106628290Y-135004610D01*
X106618529Y-135001438D01*
X106603138Y-134999000D01*
X106396862Y-134999000D01*
X106381470Y-135001438D01*
X106185288Y-135065181D01*
X106171404Y-135072256D01*
X106004522Y-135193503D01*
X105993503Y-135204522D01*
X105872256Y-135371404D01*
X105865181Y-135385288D01*
X105801438Y-135581470D01*
X105799000Y-135596862D01*
X91414482Y-135596862D01*
X91428562Y-135553530D01*
X91431000Y-135538138D01*
X91431000Y-135331862D01*
X91428562Y-135316470D01*
X91406186Y-135247603D01*
X91450014Y-135307927D01*
X91458542Y-135317008D01*
X91593609Y-135428745D01*
X91604127Y-135435420D01*
X91762740Y-135510057D01*
X91774587Y-135513906D01*
X91946777Y-135546754D01*
X91959210Y-135547536D01*
X92134160Y-135536529D01*
X92146396Y-135534194D01*
X92313112Y-135480026D01*
X92324384Y-135474722D01*
X92472391Y-135380793D01*
X92481989Y-135372852D01*
X92601987Y-135245068D01*
X92609309Y-135234990D01*
X92693758Y-135081378D01*
X92698344Y-135069795D01*
X92741939Y-134900007D01*
X92743500Y-134887648D01*
X92743500Y-134712352D01*
X92741939Y-134699993D01*
X92698344Y-134530205D01*
X92693758Y-134518622D01*
X92609309Y-134365010D01*
X92601987Y-134354932D01*
X92481989Y-134227148D01*
X92472391Y-134219207D01*
X92324384Y-134125278D01*
X92313112Y-134119974D01*
X92146396Y-134065806D01*
X92134160Y-134063471D01*
X91959210Y-134052464D01*
X91946777Y-134053246D01*
X91774587Y-134086094D01*
X91762740Y-134089943D01*
X91604127Y-134164580D01*
X91593609Y-134171255D01*
X91458542Y-134282992D01*
X91450014Y-134292073D01*
X91346978Y-134433890D01*
X91340977Y-134444807D01*
X91276446Y-134607793D01*
X91273348Y-134619859D01*
X91251378Y-134793771D01*
X91251378Y-134806229D01*
X91273348Y-134980141D01*
X91276446Y-134992207D01*
X91278447Y-134997261D01*
X91236497Y-134939522D01*
X91225478Y-134928503D01*
X91058596Y-134807256D01*
X91044712Y-134800181D01*
X90848530Y-134736438D01*
X90833138Y-134734000D01*
X90626862Y-134734000D01*
X90611471Y-134736438D01*
X90601708Y-134739610D01*
X90601000Y-134738902D01*
X90601000Y-133675139D01*
X90695478Y-133606497D01*
X90706497Y-133595478D01*
X90827744Y-133428596D01*
X90834819Y-133414712D01*
X90898562Y-133218530D01*
X90901000Y-133203138D01*
X90901000Y-132996862D01*
X90898562Y-132981470D01*
X90834819Y-132785288D01*
X90827744Y-132771404D01*
X90706497Y-132604522D01*
X90695478Y-132593503D01*
X90528596Y-132472256D01*
X90514712Y-132465181D01*
X90318530Y-132401438D01*
X90303138Y-132399000D01*
X90096862Y-132399000D01*
X90081470Y-132401438D01*
X89885288Y-132465181D01*
X89871404Y-132472256D01*
X89704522Y-132593503D01*
X89693503Y-132604522D01*
X89572256Y-132771404D01*
X89565181Y-132785288D01*
X89501438Y-132981470D01*
X89499000Y-132996862D01*
X85299000Y-132996862D01*
X85299000Y-130806565D01*
X86596038Y-130806565D01*
X86596038Y-131012841D01*
X86598476Y-131028233D01*
X86662219Y-131224415D01*
X86669294Y-131238299D01*
X86790541Y-131405181D01*
X86801560Y-131416200D01*
X86968442Y-131537447D01*
X86982326Y-131544522D01*
X87178508Y-131608265D01*
X87193900Y-131610703D01*
X87400176Y-131610703D01*
X87415568Y-131608265D01*
X87450663Y-131596862D01*
X102299000Y-131596862D01*
X102299000Y-131803138D01*
X102301438Y-131818530D01*
X102365181Y-132014712D01*
X102372256Y-132028596D01*
X102493503Y-132195478D01*
X102504522Y-132206497D01*
X102671404Y-132327744D01*
X102685288Y-132334819D01*
X102881470Y-132398562D01*
X102896862Y-132401000D01*
X103103138Y-132401000D01*
X103118529Y-132398562D01*
X103128290Y-132395390D01*
X103468093Y-132735193D01*
X103473157Y-132745739D01*
X103487037Y-132763188D01*
X103532233Y-132799333D01*
X103544452Y-132811551D01*
X103553140Y-132818481D01*
X103567326Y-132827397D01*
X103612072Y-132863181D01*
X103632188Y-132872895D01*
X103644033Y-132875608D01*
X103654377Y-132882109D01*
X103675420Y-132889478D01*
X103733026Y-132895990D01*
X103749426Y-132899746D01*
X103760513Y-132901000D01*
X103777340Y-132901000D01*
X103834484Y-132907461D01*
X103856642Y-132904975D01*
X103868025Y-132901000D01*
X121131613Y-132901000D01*
X121142650Y-132904876D01*
X121164804Y-132907400D01*
X121222314Y-132901000D01*
X121239601Y-132901000D01*
X121250645Y-132899756D01*
X121266988Y-132896029D01*
X121323923Y-132889692D01*
X121345018Y-132882335D01*
X121355304Y-132875882D01*
X121367218Y-132873165D01*
X121387310Y-132863495D01*
X121432664Y-132827355D01*
X121446904Y-132818422D01*
X121455628Y-132811470D01*
X121467517Y-132799581D01*
X121512503Y-132763734D01*
X121526414Y-132746309D01*
X121531655Y-132735443D01*
X121871709Y-132395390D01*
X121881471Y-132398562D01*
X121896862Y-132401000D01*
X122103138Y-132401000D01*
X122118530Y-132398562D01*
X122314712Y-132334819D01*
X122328596Y-132327744D01*
X122495478Y-132206497D01*
X122506497Y-132195478D01*
X122627744Y-132028596D01*
X122634819Y-132014712D01*
X122698562Y-131818530D01*
X122701000Y-131803138D01*
X122701000Y-131596862D01*
X122698562Y-131581470D01*
X122638580Y-131396862D01*
X126899000Y-131396862D01*
X126899000Y-131603138D01*
X126901438Y-131618530D01*
X126965181Y-131814712D01*
X126972256Y-131828597D01*
X127024134Y-131900000D01*
X126972256Y-131971403D01*
X126965181Y-131985288D01*
X126901438Y-132181470D01*
X126899000Y-132196862D01*
X126899000Y-132403138D01*
X126901438Y-132418530D01*
X126965181Y-132614712D01*
X126972256Y-132628596D01*
X127093503Y-132795478D01*
X127104522Y-132806497D01*
X127271404Y-132927744D01*
X127285288Y-132934819D01*
X127481470Y-132998562D01*
X127496862Y-133001000D01*
X127703138Y-133001000D01*
X127718529Y-132998562D01*
X127755980Y-132986394D01*
X127765181Y-133014712D01*
X127772256Y-133028597D01*
X127893503Y-133195478D01*
X127904522Y-133206497D01*
X128071404Y-133327744D01*
X128085288Y-133334819D01*
X128281470Y-133398562D01*
X128296862Y-133401000D01*
X128503138Y-133401000D01*
X128518530Y-133398562D01*
X128714712Y-133334819D01*
X128728596Y-133327744D01*
X128895478Y-133206497D01*
X128906497Y-133195478D01*
X129027744Y-133028596D01*
X129034819Y-133014712D01*
X129098562Y-132818530D01*
X129101000Y-132803138D01*
X129101000Y-132596862D01*
X129098562Y-132581470D01*
X129034819Y-132385288D01*
X129027744Y-132371403D01*
X128975866Y-132300000D01*
X129027744Y-132228597D01*
X129034819Y-132214712D01*
X129098562Y-132018530D01*
X129101000Y-132003138D01*
X129101000Y-131796862D01*
X129098562Y-131781470D01*
X129034819Y-131585288D01*
X129027744Y-131571404D01*
X128906497Y-131404522D01*
X128895478Y-131393503D01*
X128728596Y-131272256D01*
X128714712Y-131265181D01*
X128518530Y-131201438D01*
X128503138Y-131199000D01*
X128296862Y-131199000D01*
X128281471Y-131201438D01*
X128244020Y-131213606D01*
X128234819Y-131185288D01*
X128227744Y-131171403D01*
X128106497Y-131004522D01*
X128095478Y-130993503D01*
X127928596Y-130872256D01*
X127914712Y-130865181D01*
X127718530Y-130801438D01*
X127703138Y-130799000D01*
X127496862Y-130799000D01*
X127481470Y-130801438D01*
X127285288Y-130865181D01*
X127271404Y-130872256D01*
X127104522Y-130993503D01*
X127093503Y-131004522D01*
X126972256Y-131171404D01*
X126965181Y-131185288D01*
X126901438Y-131381470D01*
X126899000Y-131396862D01*
X122638580Y-131396862D01*
X122634819Y-131385288D01*
X122627744Y-131371404D01*
X122506497Y-131204522D01*
X122495478Y-131193503D01*
X122328596Y-131072256D01*
X122314712Y-131065181D01*
X122118530Y-131001438D01*
X122103138Y-130999000D01*
X121896862Y-130999000D01*
X121881470Y-131001438D01*
X121685288Y-131065181D01*
X121671404Y-131072256D01*
X121504522Y-131193503D01*
X121493503Y-131204522D01*
X121400000Y-131333218D01*
X121306497Y-131204522D01*
X121295478Y-131193503D01*
X121128596Y-131072256D01*
X121114712Y-131065181D01*
X120918530Y-131001438D01*
X120903138Y-130999000D01*
X120696862Y-130999000D01*
X120681470Y-131001438D01*
X120485288Y-131065181D01*
X120471404Y-131072256D01*
X120304522Y-131193503D01*
X120293503Y-131204522D01*
X120172256Y-131371404D01*
X120165181Y-131385288D01*
X120101438Y-131581470D01*
X120099000Y-131596862D01*
X120099000Y-131599000D01*
X104901000Y-131599000D01*
X104901000Y-131596862D01*
X104898562Y-131581470D01*
X104834819Y-131385288D01*
X104827744Y-131371404D01*
X104706497Y-131204522D01*
X104695478Y-131193503D01*
X104528596Y-131072256D01*
X104514712Y-131065181D01*
X104318530Y-131001438D01*
X104303138Y-130999000D01*
X104096862Y-130999000D01*
X104081470Y-131001438D01*
X103885288Y-131065181D01*
X103871404Y-131072256D01*
X103704522Y-131193503D01*
X103693503Y-131204522D01*
X103600000Y-131333218D01*
X103506497Y-131204522D01*
X103495478Y-131193503D01*
X103328596Y-131072256D01*
X103314712Y-131065181D01*
X103118530Y-131001438D01*
X103103138Y-130999000D01*
X102896862Y-130999000D01*
X102881470Y-131001438D01*
X102685288Y-131065181D01*
X102671404Y-131072256D01*
X102504522Y-131193503D01*
X102493503Y-131204522D01*
X102372256Y-131371404D01*
X102365181Y-131385288D01*
X102301438Y-131581470D01*
X102299000Y-131596862D01*
X87450663Y-131596862D01*
X87611750Y-131544522D01*
X87625634Y-131537447D01*
X87792516Y-131416200D01*
X87803535Y-131405181D01*
X87924782Y-131238299D01*
X87931857Y-131224415D01*
X87995600Y-131028233D01*
X87998038Y-131012841D01*
X87998038Y-130806565D01*
X87995600Y-130791173D01*
X87931857Y-130594991D01*
X87924782Y-130581107D01*
X87803535Y-130414225D01*
X87792516Y-130403206D01*
X87625634Y-130281959D01*
X87611750Y-130274884D01*
X87415568Y-130211141D01*
X87400176Y-130208703D01*
X87193900Y-130208703D01*
X87178508Y-130211141D01*
X86982326Y-130274884D01*
X86968442Y-130281959D01*
X86801560Y-130403206D01*
X86790541Y-130414225D01*
X86669294Y-130581107D01*
X86662219Y-130594991D01*
X86598476Y-130791173D01*
X86596038Y-130806565D01*
X85299000Y-130806565D01*
X85299000Y-128196862D01*
X109399000Y-128196862D01*
X109399000Y-128403138D01*
X109401438Y-128418530D01*
X109465181Y-128614712D01*
X109472256Y-128628596D01*
X109593503Y-128795478D01*
X109604522Y-128806497D01*
X109771404Y-128927744D01*
X109785288Y-128934819D01*
X109981470Y-128998562D01*
X109996862Y-129001000D01*
X110203138Y-129001000D01*
X110218530Y-128998562D01*
X110414712Y-128934819D01*
X110428596Y-128927744D01*
X110595478Y-128806497D01*
X110606497Y-128795478D01*
X110727744Y-128628596D01*
X110734819Y-128614712D01*
X110798562Y-128418530D01*
X110801000Y-128403138D01*
X110801000Y-128196862D01*
X110798562Y-128181470D01*
X110734819Y-127985288D01*
X110727744Y-127971404D01*
X110606497Y-127804522D01*
X110595478Y-127793503D01*
X110428596Y-127672256D01*
X110414712Y-127665181D01*
X110222415Y-127602700D01*
X115198303Y-127602700D01*
X115200217Y-127616676D01*
X115259351Y-127823582D01*
X115265111Y-127836458D01*
X115379939Y-128018451D01*
X115389082Y-128029193D01*
X115550375Y-128171643D01*
X115562165Y-128179387D01*
X115757093Y-128270906D01*
X115770886Y-128275077D01*
X115940703Y-128300456D01*
X115948030Y-128301000D01*
X118768215Y-128301000D01*
X120120152Y-129652938D01*
X120129939Y-129668450D01*
X120139082Y-129679193D01*
X120201787Y-129734573D01*
X120221736Y-129754521D01*
X120227059Y-129759136D01*
X120243837Y-129771711D01*
X120300374Y-129821642D01*
X120312164Y-129829387D01*
X120335267Y-129840234D01*
X120355688Y-129855538D01*
X120368061Y-129862312D01*
X120438667Y-129888780D01*
X120507093Y-129920906D01*
X120520887Y-129925077D01*
X120545168Y-129928706D01*
X120569557Y-129937849D01*
X120583335Y-129940878D01*
X120669434Y-129947276D01*
X120690702Y-129950455D01*
X120698029Y-129951000D01*
X120719540Y-129951000D01*
X120797934Y-129956825D01*
X120812007Y-129955866D01*
X120834803Y-129951000D01*
X134703923Y-129951000D01*
X134710949Y-129950499D01*
X134870071Y-129927711D01*
X134883610Y-129923752D01*
X135079503Y-129834685D01*
X135091386Y-129827085D01*
X135254407Y-129686617D01*
X135263680Y-129675987D01*
X135380724Y-129495411D01*
X135386640Y-129482606D01*
X135448298Y-129276438D01*
X135450383Y-129262487D01*
X135451697Y-129047300D01*
X135449783Y-129033324D01*
X135390649Y-128826418D01*
X135384889Y-128813542D01*
X135270061Y-128631549D01*
X135260918Y-128620807D01*
X135099625Y-128478357D01*
X135087835Y-128470613D01*
X134892907Y-128379094D01*
X134879114Y-128374923D01*
X134709297Y-128349544D01*
X134701970Y-128349000D01*
X121081786Y-128349000D01*
X119729851Y-126997066D01*
X119720061Y-126981549D01*
X119710918Y-126970807D01*
X119648204Y-126915419D01*
X119628263Y-126895479D01*
X119622940Y-126890864D01*
X119606169Y-126878295D01*
X119549625Y-126828358D01*
X119537836Y-126820613D01*
X119514728Y-126809764D01*
X119494310Y-126794462D01*
X119481937Y-126787688D01*
X119411331Y-126761220D01*
X119342908Y-126729095D01*
X119329114Y-126724924D01*
X119304830Y-126721295D01*
X119280440Y-126712151D01*
X119266663Y-126709122D01*
X119180577Y-126702724D01*
X119159297Y-126699544D01*
X119151970Y-126699000D01*
X119130459Y-126699000D01*
X119052065Y-126693175D01*
X119037992Y-126694134D01*
X119015196Y-126699000D01*
X115946077Y-126699000D01*
X115939051Y-126699501D01*
X115779929Y-126722289D01*
X115766390Y-126726248D01*
X115570497Y-126815315D01*
X115558614Y-126822915D01*
X115395593Y-126963383D01*
X115386320Y-126974013D01*
X115269276Y-127154589D01*
X115263360Y-127167394D01*
X115201702Y-127373562D01*
X115199617Y-127387513D01*
X115198303Y-127602700D01*
X110222415Y-127602700D01*
X110218530Y-127601438D01*
X110203138Y-127599000D01*
X109996862Y-127599000D01*
X109981470Y-127601438D01*
X109785288Y-127665181D01*
X109771404Y-127672256D01*
X109604522Y-127793503D01*
X109593503Y-127804522D01*
X109472256Y-127971404D01*
X109465181Y-127985288D01*
X109401438Y-128181470D01*
X109399000Y-128196862D01*
X85299000Y-128196862D01*
X85299000Y-124396862D01*
X104498990Y-124396862D01*
X104498990Y-124603138D01*
X104501428Y-124618530D01*
X104565171Y-124814712D01*
X104572246Y-124828596D01*
X104693493Y-124995478D01*
X104704512Y-125006497D01*
X104833212Y-125100004D01*
X104704522Y-125193503D01*
X104693503Y-125204522D01*
X104572256Y-125371404D01*
X104565181Y-125385288D01*
X104501438Y-125581470D01*
X104499000Y-125596862D01*
X104499000Y-125803138D01*
X104501438Y-125818530D01*
X104565181Y-126014712D01*
X104572256Y-126028596D01*
X104693503Y-126195478D01*
X104704522Y-126206497D01*
X104871404Y-126327744D01*
X104885288Y-126334819D01*
X105081470Y-126398562D01*
X105096862Y-126401000D01*
X105303138Y-126401000D01*
X105318530Y-126398562D01*
X105514712Y-126334819D01*
X105528596Y-126327744D01*
X105695478Y-126206497D01*
X105706497Y-126195478D01*
X105827744Y-126028596D01*
X105834819Y-126014712D01*
X105898562Y-125818530D01*
X105901000Y-125803138D01*
X105901000Y-125596862D01*
X105898562Y-125581471D01*
X105895390Y-125571709D01*
X106066100Y-125401000D01*
X108623423Y-125401000D01*
X108572256Y-125471425D01*
X108565181Y-125485309D01*
X108501438Y-125681491D01*
X108499000Y-125696883D01*
X108499000Y-125903159D01*
X108501438Y-125918551D01*
X108565181Y-126114733D01*
X108572256Y-126128617D01*
X108693503Y-126295499D01*
X108704522Y-126306518D01*
X108871404Y-126427765D01*
X108885288Y-126434840D01*
X109081470Y-126498583D01*
X109096862Y-126501021D01*
X109303138Y-126501021D01*
X109318530Y-126498583D01*
X109514712Y-126434840D01*
X109528596Y-126427765D01*
X109695478Y-126306518D01*
X109706497Y-126295499D01*
X109827744Y-126128617D01*
X109834819Y-126114733D01*
X109898562Y-125918551D01*
X109901000Y-125903159D01*
X109901000Y-125696883D01*
X109898562Y-125681491D01*
X109834819Y-125485309D01*
X109827744Y-125471425D01*
X109776577Y-125401000D01*
X111533902Y-125401000D01*
X111668092Y-125535191D01*
X111673157Y-125545739D01*
X111687037Y-125563188D01*
X111732233Y-125599333D01*
X111744453Y-125611552D01*
X111753142Y-125618482D01*
X111767329Y-125627398D01*
X111812072Y-125663181D01*
X111832191Y-125672896D01*
X111844031Y-125675608D01*
X111854373Y-125682108D01*
X111875418Y-125689478D01*
X111933026Y-125695990D01*
X111949426Y-125699746D01*
X111960513Y-125701000D01*
X111977339Y-125701000D01*
X112034485Y-125707461D01*
X112056642Y-125704975D01*
X112068025Y-125701000D01*
X113324861Y-125701000D01*
X113393503Y-125795478D01*
X113404522Y-125806497D01*
X113571404Y-125927744D01*
X113585288Y-125934819D01*
X113781470Y-125998562D01*
X113796862Y-126001000D01*
X114003138Y-126001000D01*
X114018530Y-125998562D01*
X114214712Y-125934819D01*
X114228596Y-125927744D01*
X114395478Y-125806497D01*
X114406497Y-125795478D01*
X114527744Y-125628596D01*
X114534819Y-125614712D01*
X114598562Y-125418530D01*
X114601000Y-125403138D01*
X114601000Y-125196862D01*
X114598562Y-125181470D01*
X114534819Y-124985288D01*
X114527744Y-124971404D01*
X114406497Y-124804522D01*
X114395478Y-124793503D01*
X114228596Y-124672256D01*
X114214712Y-124665181D01*
X114018530Y-124601438D01*
X114003138Y-124599000D01*
X113796862Y-124599000D01*
X113781470Y-124601438D01*
X113585288Y-124665181D01*
X113571404Y-124672256D01*
X113404522Y-124793503D01*
X113393503Y-124804522D01*
X113324861Y-124899000D01*
X113176592Y-124899000D01*
X113227744Y-124828596D01*
X113234819Y-124814712D01*
X113298562Y-124618530D01*
X113301000Y-124603138D01*
X113301000Y-124396862D01*
X113298562Y-124381470D01*
X113234819Y-124185288D01*
X113227744Y-124171404D01*
X113106497Y-124004522D01*
X113095478Y-123993503D01*
X112928596Y-123872256D01*
X112914712Y-123865181D01*
X112718530Y-123801438D01*
X112703138Y-123799000D01*
X112496862Y-123799000D01*
X112481470Y-123801438D01*
X112285288Y-123865181D01*
X112271404Y-123872256D01*
X112104522Y-123993503D01*
X112093503Y-124004522D01*
X112024861Y-124099000D01*
X105775129Y-124099000D01*
X105706487Y-124004522D01*
X105695468Y-123993503D01*
X105528586Y-123872256D01*
X105514702Y-123865181D01*
X105318520Y-123801438D01*
X105303128Y-123799000D01*
X105096852Y-123799000D01*
X105081460Y-123801438D01*
X104885278Y-123865181D01*
X104871394Y-123872256D01*
X104704512Y-123993503D01*
X104693493Y-124004522D01*
X104572246Y-124171404D01*
X104565171Y-124185288D01*
X104501428Y-124381470D01*
X104498990Y-124396862D01*
X85299000Y-124396862D01*
X85299000Y-121396862D01*
X103499000Y-121396862D01*
X103499000Y-121603138D01*
X103501438Y-121618530D01*
X103565181Y-121814712D01*
X103572256Y-121828596D01*
X103693503Y-121995478D01*
X103704522Y-122006497D01*
X103871404Y-122127744D01*
X103885288Y-122134819D01*
X104081470Y-122198562D01*
X104096862Y-122201000D01*
X104299000Y-122201000D01*
X104299000Y-122303138D01*
X104301438Y-122318530D01*
X104365181Y-122514712D01*
X104372256Y-122528596D01*
X104493503Y-122695478D01*
X104504522Y-122706497D01*
X104671404Y-122827744D01*
X104685288Y-122834819D01*
X104881470Y-122898562D01*
X104896862Y-122901000D01*
X105103138Y-122901000D01*
X105118529Y-122898562D01*
X105128290Y-122895390D01*
X105168103Y-122935203D01*
X105173167Y-122945749D01*
X105187047Y-122963198D01*
X105232243Y-122999343D01*
X105244462Y-123011561D01*
X105253150Y-123018491D01*
X105267336Y-123027407D01*
X105312082Y-123063191D01*
X105332198Y-123072905D01*
X105344043Y-123075618D01*
X105354387Y-123082119D01*
X105375430Y-123089488D01*
X105433036Y-123096000D01*
X105449436Y-123099756D01*
X105460523Y-123101010D01*
X105477350Y-123101010D01*
X105534494Y-123107471D01*
X105556652Y-123104985D01*
X105568035Y-123101010D01*
X108524861Y-123101010D01*
X108593503Y-123195488D01*
X108604522Y-123206507D01*
X108771404Y-123327754D01*
X108785288Y-123334829D01*
X108981470Y-123398572D01*
X108996862Y-123401010D01*
X109203138Y-123401010D01*
X109218530Y-123398572D01*
X109414712Y-123334829D01*
X109428596Y-123327754D01*
X109595478Y-123206507D01*
X109606497Y-123195488D01*
X109727744Y-123028606D01*
X109734819Y-123014722D01*
X109798562Y-122818540D01*
X109801000Y-122803148D01*
X109801000Y-122596872D01*
X109798562Y-122581480D01*
X109734819Y-122385298D01*
X109727744Y-122371414D01*
X109676585Y-122301000D01*
X109724861Y-122301000D01*
X109793503Y-122395478D01*
X109804522Y-122406497D01*
X109971404Y-122527744D01*
X109985288Y-122534819D01*
X110181470Y-122598562D01*
X110196862Y-122601000D01*
X110403138Y-122601000D01*
X110418530Y-122598562D01*
X110614712Y-122534819D01*
X110628596Y-122527744D01*
X110795478Y-122406497D01*
X110806497Y-122395478D01*
X110927744Y-122228596D01*
X110934819Y-122214712D01*
X110998562Y-122018530D01*
X111001000Y-122003138D01*
X111001000Y-121796862D01*
X110998562Y-121781470D01*
X110934819Y-121585288D01*
X110927744Y-121571404D01*
X110806497Y-121404522D01*
X110795478Y-121393503D01*
X110628596Y-121272256D01*
X110614712Y-121265181D01*
X110418530Y-121201438D01*
X110403138Y-121199000D01*
X110196862Y-121199000D01*
X110181470Y-121201438D01*
X109985288Y-121265181D01*
X109971404Y-121272256D01*
X109804522Y-121393503D01*
X109793503Y-121404522D01*
X109724861Y-121499000D01*
X105866099Y-121499000D01*
X105631909Y-121264811D01*
X105626844Y-121254263D01*
X105612963Y-121236813D01*
X105567763Y-121200664D01*
X105555547Y-121188449D01*
X105546860Y-121181520D01*
X105532675Y-121172604D01*
X105487927Y-121136819D01*
X105467810Y-121127104D01*
X105455965Y-121124392D01*
X105445624Y-121117892D01*
X105424580Y-121110522D01*
X105366974Y-121104010D01*
X105350573Y-121100253D01*
X105339486Y-121099000D01*
X105322660Y-121099000D01*
X105265516Y-121092539D01*
X105243358Y-121095025D01*
X105231975Y-121099000D01*
X104775139Y-121099000D01*
X104706497Y-121004522D01*
X104695478Y-120993503D01*
X104528596Y-120872256D01*
X104514712Y-120865181D01*
X104318530Y-120801438D01*
X104303138Y-120799000D01*
X104096862Y-120799000D01*
X104081470Y-120801438D01*
X103885288Y-120865181D01*
X103871404Y-120872256D01*
X103704522Y-120993503D01*
X103693503Y-121004522D01*
X103572256Y-121171404D01*
X103565181Y-121185288D01*
X103501438Y-121381470D01*
X103499000Y-121396862D01*
X85299000Y-121396862D01*
X85299000Y-120296862D01*
X105599000Y-120296862D01*
X105599000Y-120503138D01*
X105601438Y-120518530D01*
X105665181Y-120714712D01*
X105672256Y-120728596D01*
X105793503Y-120895478D01*
X105804522Y-120906497D01*
X105971404Y-121027744D01*
X105985288Y-121034819D01*
X106181470Y-121098562D01*
X106196862Y-121101000D01*
X106403138Y-121101000D01*
X106418530Y-121098562D01*
X106614712Y-121034819D01*
X106628596Y-121027744D01*
X106795478Y-120906497D01*
X106806497Y-120895478D01*
X106927744Y-120728596D01*
X106934819Y-120714712D01*
X106998562Y-120518530D01*
X107001000Y-120503138D01*
X107001000Y-120296862D01*
X106998562Y-120281471D01*
X106995390Y-120271710D01*
X107971710Y-119295391D01*
X107981471Y-119298562D01*
X107996862Y-119301000D01*
X108203138Y-119301000D01*
X108218530Y-119298562D01*
X108414712Y-119234819D01*
X108428596Y-119227744D01*
X108595478Y-119106497D01*
X108606497Y-119095478D01*
X108727744Y-118928596D01*
X108734819Y-118914712D01*
X108798562Y-118718530D01*
X108801000Y-118703138D01*
X108801000Y-118496862D01*
X108798562Y-118481470D01*
X108734819Y-118285288D01*
X108727744Y-118271404D01*
X108606497Y-118104522D01*
X108595478Y-118093503D01*
X108428596Y-117972256D01*
X108414712Y-117965181D01*
X108218530Y-117901438D01*
X108203138Y-117899000D01*
X107996862Y-117899000D01*
X107981470Y-117901438D01*
X107785288Y-117965181D01*
X107771404Y-117972256D01*
X107604522Y-118093503D01*
X107593503Y-118104522D01*
X107472256Y-118271404D01*
X107465181Y-118285288D01*
X107401438Y-118481470D01*
X107399000Y-118496862D01*
X107399000Y-118703138D01*
X107401438Y-118718529D01*
X107404610Y-118728290D01*
X106428290Y-119704610D01*
X106418529Y-119701438D01*
X106403138Y-119699000D01*
X106196862Y-119699000D01*
X106181470Y-119701438D01*
X105985288Y-119765181D01*
X105971404Y-119772256D01*
X105804522Y-119893503D01*
X105793503Y-119904522D01*
X105672256Y-120071404D01*
X105665181Y-120085288D01*
X105601438Y-120281470D01*
X105599000Y-120296862D01*
X85299000Y-120296862D01*
X85299000Y-118696862D01*
X87799000Y-118696862D01*
X87799000Y-118903138D01*
X87801438Y-118918530D01*
X87865181Y-119114712D01*
X87872256Y-119128596D01*
X87993503Y-119295478D01*
X88004522Y-119306497D01*
X88171404Y-119427744D01*
X88185288Y-119434819D01*
X88381470Y-119498562D01*
X88396862Y-119501000D01*
X88603138Y-119501000D01*
X88618530Y-119498562D01*
X88814712Y-119434819D01*
X88828596Y-119427744D01*
X88995478Y-119306497D01*
X89006497Y-119295478D01*
X89127744Y-119128596D01*
X89134819Y-119114712D01*
X89198562Y-118918530D01*
X89201000Y-118903138D01*
X89201000Y-118696862D01*
X89198562Y-118681470D01*
X89134819Y-118485288D01*
X89127744Y-118471404D01*
X89006497Y-118304522D01*
X88995478Y-118293503D01*
X88828596Y-118172256D01*
X88814712Y-118165181D01*
X88618530Y-118101438D01*
X88603138Y-118099000D01*
X88396862Y-118099000D01*
X88381470Y-118101438D01*
X88185288Y-118165181D01*
X88171404Y-118172256D01*
X88004522Y-118293503D01*
X87993503Y-118304522D01*
X87872256Y-118471404D01*
X87865181Y-118485288D01*
X87801438Y-118681470D01*
X87799000Y-118696862D01*
X85299000Y-118696862D01*
X85299000Y-115087684D01*
X86097970Y-115087684D01*
X86098322Y-115095022D01*
X86131822Y-115367858D01*
X86133255Y-115375064D01*
X86206715Y-115639953D01*
X86209198Y-115646867D01*
X86321004Y-115897987D01*
X86324481Y-115904458D01*
X86472177Y-116136295D01*
X86476573Y-116142181D01*
X86656914Y-116349640D01*
X86662131Y-116354813D01*
X86871156Y-116533336D01*
X86877081Y-116537680D01*
X87110197Y-116683347D01*
X87116699Y-116686768D01*
X87368786Y-116796379D01*
X87375722Y-116798801D01*
X87641240Y-116869946D01*
X87648458Y-116871317D01*
X87921577Y-116902434D01*
X87928918Y-116902723D01*
X88203636Y-116893129D01*
X88210939Y-116892330D01*
X88481221Y-116842236D01*
X88488326Y-116840365D01*
X88748235Y-116750871D01*
X88754986Y-116747971D01*
X88998812Y-116621044D01*
X89005060Y-116617178D01*
X89227447Y-116455603D01*
X89233054Y-116450857D01*
X89429116Y-116258187D01*
X89433960Y-116252663D01*
X89599391Y-116033130D01*
X89603365Y-116026951D01*
X89734529Y-115785377D01*
X89737546Y-115778679D01*
X89831563Y-115520371D01*
X89833557Y-115513300D01*
X89888490Y-115243297D01*
X89889469Y-115234707D01*
X89898448Y-114891746D01*
X92669562Y-114891746D01*
X92670372Y-114901396D01*
X92709293Y-115113453D01*
X92711962Y-115122762D01*
X92791330Y-115323221D01*
X92795756Y-115331834D01*
X92912548Y-115513060D01*
X92918563Y-115520649D01*
X93068331Y-115675738D01*
X93075705Y-115682014D01*
X93252744Y-115805060D01*
X93261197Y-115809784D01*
X93458764Y-115896099D01*
X93467974Y-115899092D01*
X93678544Y-115945388D01*
X93688160Y-115946535D01*
X93903713Y-115951050D01*
X93913368Y-115950307D01*
X94125691Y-115912869D01*
X94135019Y-115910265D01*
X94336027Y-115832298D01*
X94344671Y-115827932D01*
X94526707Y-115712408D01*
X94534338Y-115706446D01*
X94690469Y-115557765D01*
X94696796Y-115550434D01*
X94821075Y-115374258D01*
X94825859Y-115365838D01*
X94913550Y-115168879D01*
X94916607Y-115159690D01*
X94964449Y-114949111D01*
X94965678Y-114938807D01*
X94966335Y-114891746D01*
X95209562Y-114891746D01*
X95210372Y-114901396D01*
X95249293Y-115113453D01*
X95251962Y-115122762D01*
X95331330Y-115323221D01*
X95335756Y-115331834D01*
X95452548Y-115513060D01*
X95458563Y-115520649D01*
X95608331Y-115675738D01*
X95615705Y-115682014D01*
X95792744Y-115805060D01*
X95801197Y-115809784D01*
X95998764Y-115896099D01*
X96007974Y-115899092D01*
X96218544Y-115945388D01*
X96228160Y-115946535D01*
X96443713Y-115951050D01*
X96453368Y-115950307D01*
X96665691Y-115912869D01*
X96675019Y-115910265D01*
X96876027Y-115832298D01*
X96884671Y-115827932D01*
X97066707Y-115712408D01*
X97074338Y-115706446D01*
X97230469Y-115557765D01*
X97236796Y-115550434D01*
X97361075Y-115374258D01*
X97365859Y-115365838D01*
X97453550Y-115168879D01*
X97456607Y-115159690D01*
X97504449Y-114949111D01*
X97505678Y-114938807D01*
X97506335Y-114891746D01*
X97749562Y-114891746D01*
X97750372Y-114901396D01*
X97789293Y-115113453D01*
X97791962Y-115122762D01*
X97871330Y-115323221D01*
X97875756Y-115331834D01*
X97992548Y-115513060D01*
X97998563Y-115520649D01*
X98148331Y-115675738D01*
X98155705Y-115682014D01*
X98332744Y-115805060D01*
X98341197Y-115809784D01*
X98538764Y-115896099D01*
X98547974Y-115899092D01*
X98758544Y-115945388D01*
X98768160Y-115946535D01*
X98983713Y-115951050D01*
X98993368Y-115950307D01*
X99205691Y-115912869D01*
X99215019Y-115910265D01*
X99416027Y-115832298D01*
X99424671Y-115827932D01*
X99606707Y-115712408D01*
X99614338Y-115706446D01*
X99770469Y-115557765D01*
X99776796Y-115550434D01*
X99901075Y-115374258D01*
X99905859Y-115365838D01*
X99993550Y-115168879D01*
X99996607Y-115159690D01*
X100044449Y-114949111D01*
X100045678Y-114938807D01*
X100046335Y-114891746D01*
X100289562Y-114891746D01*
X100290372Y-114901396D01*
X100329293Y-115113453D01*
X100331962Y-115122762D01*
X100411330Y-115323221D01*
X100415756Y-115331834D01*
X100532548Y-115513060D01*
X100538563Y-115520649D01*
X100688331Y-115675738D01*
X100695705Y-115682014D01*
X100872744Y-115805060D01*
X100881197Y-115809784D01*
X101078764Y-115896099D01*
X101087974Y-115899092D01*
X101298544Y-115945388D01*
X101308160Y-115946535D01*
X101523713Y-115951050D01*
X101533368Y-115950307D01*
X101745691Y-115912869D01*
X101755019Y-115910265D01*
X101956027Y-115832298D01*
X101964671Y-115827932D01*
X102146707Y-115712408D01*
X102154338Y-115706446D01*
X102310469Y-115557765D01*
X102316796Y-115550434D01*
X102441075Y-115374258D01*
X102445859Y-115365838D01*
X102533550Y-115168879D01*
X102536607Y-115159690D01*
X102584449Y-114949111D01*
X102585678Y-114938807D01*
X102589108Y-114693237D01*
X102588167Y-114682902D01*
X102546223Y-114471069D01*
X102543424Y-114461798D01*
X102461265Y-114262467D01*
X102456719Y-114253917D01*
X102337408Y-114074340D01*
X102331287Y-114066836D01*
X102210436Y-113945137D01*
X102827082Y-113945137D01*
X102827082Y-115654863D01*
X102828035Y-115664544D01*
X102846408Y-115756913D01*
X102853871Y-115774930D01*
X102908910Y-115857301D01*
X102922699Y-115871090D01*
X103005070Y-115926129D01*
X103023087Y-115933592D01*
X103115456Y-115951965D01*
X103125137Y-115952918D01*
X103499001Y-115952918D01*
X103499000Y-118624861D01*
X103404522Y-118693503D01*
X103393503Y-118704522D01*
X103272256Y-118871404D01*
X103265181Y-118885288D01*
X103201438Y-119081470D01*
X103199000Y-119096862D01*
X103199000Y-119303138D01*
X103201438Y-119318530D01*
X103265181Y-119514712D01*
X103272256Y-119528596D01*
X103393503Y-119695478D01*
X103404522Y-119706497D01*
X103571404Y-119827744D01*
X103585288Y-119834819D01*
X103781470Y-119898562D01*
X103796862Y-119901000D01*
X104003138Y-119901000D01*
X104018530Y-119898562D01*
X104214712Y-119834819D01*
X104228596Y-119827744D01*
X104395478Y-119706497D01*
X104406497Y-119695478D01*
X104527744Y-119528596D01*
X104534819Y-119514712D01*
X104598562Y-119318530D01*
X104601000Y-119303138D01*
X104601000Y-119096862D01*
X104598562Y-119081470D01*
X104534819Y-118885288D01*
X104527744Y-118871404D01*
X104406497Y-118704522D01*
X104395478Y-118693503D01*
X104301000Y-118624861D01*
X104301000Y-115952918D01*
X104834863Y-115952918D01*
X104844544Y-115951965D01*
X104936913Y-115933592D01*
X104954930Y-115926129D01*
X105037301Y-115871090D01*
X105051090Y-115857301D01*
X105106129Y-115774930D01*
X105113592Y-115756913D01*
X105131965Y-115664544D01*
X105132918Y-115654863D01*
X105132918Y-115087684D01*
X143097970Y-115087684D01*
X143098322Y-115095022D01*
X143131822Y-115367858D01*
X143133255Y-115375064D01*
X143206715Y-115639953D01*
X143209198Y-115646867D01*
X143321004Y-115897987D01*
X143324481Y-115904458D01*
X143472177Y-116136295D01*
X143476573Y-116142181D01*
X143656914Y-116349640D01*
X143662131Y-116354813D01*
X143871156Y-116533336D01*
X143877081Y-116537680D01*
X144110197Y-116683347D01*
X144116699Y-116686768D01*
X144368786Y-116796379D01*
X144375722Y-116798801D01*
X144641240Y-116869946D01*
X144648458Y-116871317D01*
X144921577Y-116902434D01*
X144928918Y-116902723D01*
X145203636Y-116893129D01*
X145210939Y-116892330D01*
X145481221Y-116842236D01*
X145488326Y-116840365D01*
X145748235Y-116750871D01*
X145754986Y-116747971D01*
X145998812Y-116621044D01*
X146005060Y-116617178D01*
X146227447Y-116455603D01*
X146233054Y-116450857D01*
X146429116Y-116258187D01*
X146433960Y-116252663D01*
X146599391Y-116033130D01*
X146603365Y-116026951D01*
X146734529Y-115785377D01*
X146737546Y-115778679D01*
X146831563Y-115520371D01*
X146833557Y-115513300D01*
X146888490Y-115243297D01*
X146889469Y-115234707D01*
X146899162Y-114864501D01*
X146898634Y-114855873D01*
X146857909Y-114583365D01*
X146856287Y-114576199D01*
X146775918Y-114313324D01*
X146773255Y-114306477D01*
X146654915Y-114058370D01*
X146651269Y-114051991D01*
X146497555Y-113824101D01*
X146493006Y-113818331D01*
X146307297Y-113615664D01*
X146301945Y-113610630D01*
X146088319Y-113437640D01*
X146082282Y-113433452D01*
X145845433Y-113293937D01*
X145838844Y-113290688D01*
X145583974Y-113187714D01*
X145576977Y-113185474D01*
X145309687Y-113121303D01*
X145302436Y-113120122D01*
X145028596Y-113096165D01*
X145021250Y-113096068D01*
X144746878Y-113112849D01*
X144739598Y-113113840D01*
X144470718Y-113170992D01*
X144463665Y-113173048D01*
X144206188Y-113269315D01*
X144199516Y-113272391D01*
X143959096Y-113405658D01*
X143952952Y-113409686D01*
X143734870Y-113577025D01*
X143729389Y-113581917D01*
X143538437Y-113779654D01*
X143533740Y-113785303D01*
X143374113Y-114009091D01*
X143370302Y-114015372D01*
X143245507Y-114260297D01*
X143242666Y-114267072D01*
X143155443Y-114527752D01*
X143153635Y-114534873D01*
X143105901Y-114805582D01*
X143105165Y-114812892D01*
X143097970Y-115087684D01*
X105132918Y-115087684D01*
X105132918Y-113945137D01*
X105131965Y-113935456D01*
X105113592Y-113843087D01*
X105106129Y-113825070D01*
X105051090Y-113742699D01*
X105037301Y-113728910D01*
X104954930Y-113673871D01*
X104936913Y-113666408D01*
X104844544Y-113648035D01*
X104834863Y-113647082D01*
X103125137Y-113647082D01*
X103115456Y-113648035D01*
X103023087Y-113666408D01*
X103005070Y-113673871D01*
X102922699Y-113728910D01*
X102908910Y-113742699D01*
X102853871Y-113825070D01*
X102846408Y-113843087D01*
X102828035Y-113935456D01*
X102827082Y-113945137D01*
X102210436Y-113945137D01*
X102179369Y-113913853D01*
X102171907Y-113907680D01*
X101993168Y-113787118D01*
X101984650Y-113782512D01*
X101785896Y-113698964D01*
X101776646Y-113696101D01*
X101565450Y-113652748D01*
X101555819Y-113651736D01*
X101340224Y-113650231D01*
X101330580Y-113651108D01*
X101118800Y-113691508D01*
X101109510Y-113694242D01*
X100909611Y-113775007D01*
X100901029Y-113779493D01*
X100720623Y-113897548D01*
X100713076Y-113903616D01*
X100559036Y-114054463D01*
X100552811Y-114061881D01*
X100431004Y-114239774D01*
X100426339Y-114248261D01*
X100341406Y-114446426D01*
X100338478Y-114455656D01*
X100293652Y-114666544D01*
X100292572Y-114676167D01*
X100289562Y-114891746D01*
X100046335Y-114891746D01*
X100049108Y-114693237D01*
X100048167Y-114682902D01*
X100006223Y-114471069D01*
X100003424Y-114461798D01*
X99921265Y-114262467D01*
X99916719Y-114253917D01*
X99797408Y-114074340D01*
X99791287Y-114066836D01*
X99639369Y-113913853D01*
X99631907Y-113907680D01*
X99453168Y-113787118D01*
X99444650Y-113782512D01*
X99245896Y-113698964D01*
X99236646Y-113696101D01*
X99025450Y-113652748D01*
X99015819Y-113651736D01*
X98800224Y-113650231D01*
X98790580Y-113651108D01*
X98578800Y-113691508D01*
X98569510Y-113694242D01*
X98369611Y-113775007D01*
X98361029Y-113779493D01*
X98180623Y-113897548D01*
X98173076Y-113903616D01*
X98019036Y-114054463D01*
X98012811Y-114061881D01*
X97891004Y-114239774D01*
X97886339Y-114248261D01*
X97801406Y-114446426D01*
X97798478Y-114455656D01*
X97753652Y-114666544D01*
X97752572Y-114676167D01*
X97749562Y-114891746D01*
X97506335Y-114891746D01*
X97509108Y-114693237D01*
X97508167Y-114682902D01*
X97466223Y-114471069D01*
X97463424Y-114461798D01*
X97381265Y-114262467D01*
X97376719Y-114253917D01*
X97257408Y-114074340D01*
X97251287Y-114066836D01*
X97099369Y-113913853D01*
X97091907Y-113907680D01*
X96913168Y-113787118D01*
X96904650Y-113782512D01*
X96705896Y-113698964D01*
X96696646Y-113696101D01*
X96485450Y-113652748D01*
X96475819Y-113651736D01*
X96260224Y-113650231D01*
X96250580Y-113651108D01*
X96038800Y-113691508D01*
X96029510Y-113694242D01*
X95829611Y-113775007D01*
X95821029Y-113779493D01*
X95640623Y-113897548D01*
X95633076Y-113903616D01*
X95479036Y-114054463D01*
X95472811Y-114061881D01*
X95351004Y-114239774D01*
X95346339Y-114248261D01*
X95261406Y-114446426D01*
X95258478Y-114455656D01*
X95213652Y-114666544D01*
X95212572Y-114676167D01*
X95209562Y-114891746D01*
X94966335Y-114891746D01*
X94969108Y-114693237D01*
X94968167Y-114682902D01*
X94926223Y-114471069D01*
X94923424Y-114461798D01*
X94841265Y-114262467D01*
X94836719Y-114253917D01*
X94717408Y-114074340D01*
X94711287Y-114066836D01*
X94559369Y-113913853D01*
X94551907Y-113907680D01*
X94373168Y-113787118D01*
X94364650Y-113782512D01*
X94165896Y-113698964D01*
X94156646Y-113696101D01*
X93945450Y-113652748D01*
X93935819Y-113651736D01*
X93720224Y-113650231D01*
X93710580Y-113651108D01*
X93498800Y-113691508D01*
X93489510Y-113694242D01*
X93289611Y-113775007D01*
X93281029Y-113779493D01*
X93100623Y-113897548D01*
X93093076Y-113903616D01*
X92939036Y-114054463D01*
X92932811Y-114061881D01*
X92811004Y-114239774D01*
X92806339Y-114248261D01*
X92721406Y-114446426D01*
X92718478Y-114455656D01*
X92673652Y-114666544D01*
X92672572Y-114676167D01*
X92669562Y-114891746D01*
X89898448Y-114891746D01*
X89899162Y-114864501D01*
X89898634Y-114855873D01*
X89857909Y-114583365D01*
X89856287Y-114576199D01*
X89775918Y-114313324D01*
X89773255Y-114306477D01*
X89654915Y-114058370D01*
X89651269Y-114051991D01*
X89497555Y-113824101D01*
X89493006Y-113818331D01*
X89307297Y-113615664D01*
X89301945Y-113610630D01*
X89088319Y-113437640D01*
X89082282Y-113433452D01*
X88845433Y-113293937D01*
X88838844Y-113290688D01*
X88583974Y-113187714D01*
X88576977Y-113185474D01*
X88309687Y-113121303D01*
X88302436Y-113120122D01*
X88028596Y-113096165D01*
X88021250Y-113096068D01*
X87746878Y-113112849D01*
X87739598Y-113113840D01*
X87470718Y-113170992D01*
X87463665Y-113173048D01*
X87206188Y-113269315D01*
X87199516Y-113272391D01*
X86959096Y-113405658D01*
X86952952Y-113409686D01*
X86734870Y-113577025D01*
X86729389Y-113581917D01*
X86538437Y-113779654D01*
X86533740Y-113785303D01*
X86374113Y-114009091D01*
X86370302Y-114015372D01*
X86245507Y-114260297D01*
X86242666Y-114267072D01*
X86155443Y-114527752D01*
X86153635Y-114534873D01*
X86105901Y-114805582D01*
X86105165Y-114812892D01*
X86097970Y-115087684D01*
X85299000Y-115087684D01*
X85299000Y-112299000D01*
X147701001Y-112299000D01*
X147701000Y-142701000D01*
G37*
X147701000Y-142701000D02*
X127103138Y-142701000D01*
X127118530Y-142698562D01*
X127314712Y-142634819D01*
X127328596Y-142627744D01*
X127495478Y-142506497D01*
X127506497Y-142495478D01*
X127627744Y-142328596D01*
X127634819Y-142314712D01*
X127698562Y-142118530D01*
X127701000Y-142103138D01*
X127701000Y-141896862D01*
X127698562Y-141881470D01*
X127634819Y-141685288D01*
X127627744Y-141671404D01*
X127528200Y-141534393D01*
X135612869Y-141534393D01*
X135670688Y-141730848D01*
X135674316Y-141739826D01*
X135774929Y-141932282D01*
X135780232Y-141940385D01*
X135916311Y-142109632D01*
X135923086Y-142116551D01*
X136089446Y-142256145D01*
X136097436Y-142261616D01*
X136287742Y-142366237D01*
X136296643Y-142370052D01*
X136503811Y-142435769D01*
X136513629Y-142437820D01*
X136693527Y-142456729D01*
X136698705Y-142457000D01*
X137087007Y-142457000D01*
X137145000Y-142399007D01*
X137145000Y-141512993D01*
X137455000Y-141512993D01*
X137455000Y-142399007D01*
X137512993Y-142457000D01*
X137904627Y-142457000D01*
X137909460Y-142456764D01*
X138070974Y-142440927D01*
X138080473Y-142439046D01*
X138288373Y-142376277D01*
X138297326Y-142372587D01*
X138489074Y-142270633D01*
X138497140Y-142265274D01*
X138665433Y-142128017D01*
X138672304Y-142121194D01*
X138810733Y-141953863D01*
X138816148Y-141945835D01*
X138919438Y-141754802D01*
X138923191Y-141745876D01*
X138988313Y-141535503D01*
X138928961Y-141455000D01*
X137512993Y-141455000D01*
X137455000Y-141512993D01*
X137145000Y-141512993D01*
X137087007Y-141455000D01*
X135672263Y-141455000D01*
X135612869Y-141534393D01*
X127528200Y-141534393D01*
X127506497Y-141504522D01*
X127495478Y-141493503D01*
X127328596Y-141372256D01*
X127314712Y-141365181D01*
X127118530Y-141301438D01*
X127103138Y-141299000D01*
X126896862Y-141299000D01*
X126881470Y-141301438D01*
X126685288Y-141365181D01*
X126671404Y-141372256D01*
X126504522Y-141493503D01*
X126493503Y-141504522D01*
X126372256Y-141671404D01*
X126365181Y-141685288D01*
X126301438Y-141881470D01*
X126299000Y-141896862D01*
X126299000Y-142103138D01*
X126301438Y-142118530D01*
X126365181Y-142314712D01*
X126372256Y-142328596D01*
X126493503Y-142495478D01*
X126504522Y-142506497D01*
X126671404Y-142627744D01*
X126685288Y-142634819D01*
X126881470Y-142698562D01*
X126896862Y-142701000D01*
X101114837Y-142701000D01*
X101114837Y-141112993D01*
X101056844Y-141055000D01*
X98593156Y-141055000D01*
X98535163Y-141112993D01*
X98535163Y-142701000D01*
X95464837Y-142701000D01*
X95464837Y-141112993D01*
X95406844Y-141055000D01*
X92943156Y-141055000D01*
X92885163Y-141112993D01*
X92885163Y-142701000D01*
X85299000Y-142701000D01*
X85299000Y-139987684D01*
X86097970Y-139987684D01*
X86098322Y-139995022D01*
X86131822Y-140267858D01*
X86133255Y-140275064D01*
X86206715Y-140539953D01*
X86209198Y-140546867D01*
X86321004Y-140797987D01*
X86324481Y-140804458D01*
X86472177Y-141036295D01*
X86476573Y-141042181D01*
X86656914Y-141249640D01*
X86662131Y-141254813D01*
X86871156Y-141433336D01*
X86877081Y-141437680D01*
X87110197Y-141583347D01*
X87116699Y-141586768D01*
X87368786Y-141696379D01*
X87375722Y-141698801D01*
X87641240Y-141769946D01*
X87648458Y-141771317D01*
X87921577Y-141802434D01*
X87928918Y-141802723D01*
X88203636Y-141793129D01*
X88210939Y-141792330D01*
X88481221Y-141742236D01*
X88488326Y-141740365D01*
X88748235Y-141650871D01*
X88754986Y-141647971D01*
X88998812Y-141521044D01*
X89005060Y-141517178D01*
X89227447Y-141355603D01*
X89233054Y-141350857D01*
X89429116Y-141158187D01*
X89433960Y-141152663D01*
X89599391Y-140933130D01*
X89603365Y-140926951D01*
X89673997Y-140796862D01*
X101899000Y-140796862D01*
X101899000Y-141003138D01*
X101901438Y-141018530D01*
X101965181Y-141214712D01*
X101972256Y-141228596D01*
X102093503Y-141395478D01*
X102104522Y-141406497D01*
X102271404Y-141527744D01*
X102285288Y-141534819D01*
X102481470Y-141598562D01*
X102496862Y-141601000D01*
X102703138Y-141601000D01*
X102718530Y-141598562D01*
X102914712Y-141534819D01*
X102928596Y-141527744D01*
X103095478Y-141406497D01*
X103106497Y-141395478D01*
X103227744Y-141228596D01*
X103234819Y-141214712D01*
X103298562Y-141018530D01*
X103301000Y-141003138D01*
X103301000Y-140796862D01*
X103298562Y-140781470D01*
X103234819Y-140585288D01*
X103227744Y-140571404D01*
X103106497Y-140404522D01*
X103095478Y-140393503D01*
X102928596Y-140272256D01*
X102914712Y-140265181D01*
X102718530Y-140201438D01*
X102703138Y-140199000D01*
X102496862Y-140199000D01*
X102481470Y-140201438D01*
X102285288Y-140265181D01*
X102271404Y-140272256D01*
X102104522Y-140393503D01*
X102093503Y-140404522D01*
X101972256Y-140571404D01*
X101965181Y-140585288D01*
X101901438Y-140781470D01*
X101899000Y-140796862D01*
X89673997Y-140796862D01*
X89734529Y-140685377D01*
X89737546Y-140678679D01*
X89831563Y-140420371D01*
X89833557Y-140413300D01*
X89888490Y-140143297D01*
X89889469Y-140134707D01*
X89899162Y-139764501D01*
X89898634Y-139755873D01*
X89857909Y-139483365D01*
X89856287Y-139476199D01*
X89775918Y-139213324D01*
X89773255Y-139206477D01*
X89654915Y-138958370D01*
X89651269Y-138951991D01*
X89545835Y-138795678D01*
X92885163Y-138795678D01*
X92885163Y-140687007D01*
X92943156Y-140745000D01*
X93962007Y-140745000D01*
X94020000Y-140687007D01*
X94020000Y-138243156D01*
X94330000Y-138243156D01*
X94330000Y-140687007D01*
X94387993Y-140745000D01*
X95406844Y-140745000D01*
X95464837Y-140687007D01*
X95464837Y-138795678D01*
X98535163Y-138795678D01*
X98535163Y-140687007D01*
X98593156Y-140745000D01*
X99612007Y-140745000D01*
X99670000Y-140687007D01*
X99670000Y-138243156D01*
X99980000Y-138243156D01*
X99980000Y-140687007D01*
X100037993Y-140745000D01*
X101056844Y-140745000D01*
X101114837Y-140687007D01*
X101114837Y-138793511D01*
X101113143Y-138780645D01*
X101063573Y-138595647D01*
X105957592Y-138595647D01*
X105957592Y-140604353D01*
X105958545Y-140614034D01*
X105976918Y-140706403D01*
X105984381Y-140724420D01*
X106039420Y-140806791D01*
X106053209Y-140820580D01*
X106135580Y-140875619D01*
X106153597Y-140883082D01*
X106245966Y-140901455D01*
X106255647Y-140902408D01*
X108264353Y-140902408D01*
X108274034Y-140901455D01*
X108366403Y-140883082D01*
X108384420Y-140875619D01*
X108466791Y-140820580D01*
X108480580Y-140806791D01*
X108535619Y-140724420D01*
X108543082Y-140706403D01*
X108561455Y-140614034D01*
X108562408Y-140604353D01*
X108562408Y-139995346D01*
X108614219Y-140141654D01*
X108618019Y-140149898D01*
X108732784Y-140348676D01*
X108738023Y-140356089D01*
X108887089Y-140530624D01*
X108893592Y-140536958D01*
X109071970Y-140681406D01*
X109079517Y-140686449D01*
X109281230Y-140795971D01*
X109289571Y-140799554D01*
X109507866Y-140870482D01*
X109516720Y-140872486D01*
X109744285Y-140902444D01*
X109753356Y-140902801D01*
X109982569Y-140890789D01*
X109991553Y-140889486D01*
X110214739Y-140835904D01*
X110223336Y-140832986D01*
X110433021Y-140739628D01*
X110440941Y-140735192D01*
X110630101Y-140605186D01*
X110637080Y-140599381D01*
X110799381Y-140437080D01*
X110805186Y-140430101D01*
X110935192Y-140240941D01*
X110939628Y-140233021D01*
X111032986Y-140023336D01*
X111035904Y-140014739D01*
X111069056Y-139876652D01*
X111075366Y-139916493D01*
X111077600Y-139925291D01*
X111154219Y-140141654D01*
X111158019Y-140149898D01*
X111272784Y-140348676D01*
X111278023Y-140356089D01*
X111427089Y-140530624D01*
X111433592Y-140536958D01*
X111611970Y-140681406D01*
X111619517Y-140686449D01*
X111821230Y-140795971D01*
X111829571Y-140799554D01*
X112047866Y-140870482D01*
X112056720Y-140872486D01*
X112284285Y-140902444D01*
X112293356Y-140902801D01*
X112522569Y-140890789D01*
X112531553Y-140889486D01*
X112754739Y-140835904D01*
X112763336Y-140832986D01*
X112973021Y-140739628D01*
X112980941Y-140735192D01*
X113170101Y-140605186D01*
X113177080Y-140599381D01*
X113339381Y-140437080D01*
X113345186Y-140430101D01*
X113432278Y-140303381D01*
X113442432Y-140328015D01*
X113446043Y-140335101D01*
X113577321Y-140548489D01*
X113582017Y-140554907D01*
X113745724Y-140744563D01*
X113751386Y-140750147D01*
X113943309Y-140911188D01*
X113949791Y-140915795D01*
X114164992Y-141044081D01*
X114172127Y-141047592D01*
X114405072Y-141139822D01*
X114412677Y-141142147D01*
X114651068Y-141194560D01*
X114725000Y-141135117D01*
X114725001Y-139812992D01*
X114725000Y-139812991D01*
X114725000Y-139387008D01*
X115034999Y-139387008D01*
X115035000Y-139387009D01*
X115034999Y-141133207D01*
X115100510Y-141192194D01*
X115172509Y-141184628D01*
X115180327Y-141183165D01*
X115422099Y-141117476D01*
X115429581Y-141114782D01*
X115657741Y-141011285D01*
X115664697Y-141007430D01*
X115873375Y-140868784D01*
X115879624Y-140863866D01*
X116063451Y-140693641D01*
X116068834Y-140687787D01*
X116120150Y-140622105D01*
X116136918Y-140706403D01*
X116144381Y-140724420D01*
X116199420Y-140806791D01*
X116213209Y-140820580D01*
X116295580Y-140875619D01*
X116313597Y-140883082D01*
X116405966Y-140901455D01*
X116415647Y-140902408D01*
X118424353Y-140902408D01*
X118434034Y-140901455D01*
X118526403Y-140883082D01*
X118544420Y-140875619D01*
X118626791Y-140820580D01*
X118640580Y-140806791D01*
X118695619Y-140724420D01*
X118703082Y-140706403D01*
X118721455Y-140614034D01*
X118722408Y-140604353D01*
X118722408Y-139995346D01*
X118774219Y-140141654D01*
X118778019Y-140149898D01*
X118892784Y-140348676D01*
X118898023Y-140356089D01*
X119047089Y-140530624D01*
X119053592Y-140536958D01*
X119231970Y-140681406D01*
X119239517Y-140686449D01*
X119441230Y-140795971D01*
X119449571Y-140799554D01*
X119667866Y-140870482D01*
X119676720Y-140872486D01*
X119904285Y-140902444D01*
X119913356Y-140902801D01*
X120142569Y-140890789D01*
X120151553Y-140889486D01*
X120374739Y-140835904D01*
X120383336Y-140832986D01*
X120593021Y-140739628D01*
X120600941Y-140735192D01*
X120790101Y-140605186D01*
X120797080Y-140599381D01*
X120959381Y-140437080D01*
X120965186Y-140430101D01*
X121095192Y-140240941D01*
X121099628Y-140233021D01*
X121192986Y-140023336D01*
X121195904Y-140014739D01*
X121229056Y-139876652D01*
X121235366Y-139916493D01*
X121237600Y-139925291D01*
X121314219Y-140141654D01*
X121318019Y-140149898D01*
X121432784Y-140348676D01*
X121438023Y-140356089D01*
X121587089Y-140530624D01*
X121593592Y-140536958D01*
X121771970Y-140681406D01*
X121779517Y-140686449D01*
X121981230Y-140795971D01*
X121989571Y-140799554D01*
X122207866Y-140870482D01*
X122216720Y-140872486D01*
X122444285Y-140902444D01*
X122453356Y-140902801D01*
X122682569Y-140890789D01*
X122691553Y-140889486D01*
X122914739Y-140835904D01*
X122923336Y-140832986D01*
X123133021Y-140739628D01*
X123140941Y-140735192D01*
X123330101Y-140605186D01*
X123337080Y-140599381D01*
X123499381Y-140437080D01*
X123505186Y-140430101D01*
X123592278Y-140303381D01*
X123602432Y-140328015D01*
X123606043Y-140335101D01*
X123737321Y-140548489D01*
X123742017Y-140554907D01*
X123905724Y-140744563D01*
X123911386Y-140750147D01*
X124103309Y-140911188D01*
X124109791Y-140915795D01*
X124324992Y-141044081D01*
X124332127Y-141047592D01*
X124565072Y-141139822D01*
X124572677Y-141142147D01*
X124811068Y-141194560D01*
X124885000Y-141135117D01*
X124885000Y-141133207D01*
X125194999Y-141133207D01*
X125260510Y-141192194D01*
X125332509Y-141184628D01*
X125340327Y-141183165D01*
X125582099Y-141117476D01*
X125589581Y-141114782D01*
X125817741Y-141011285D01*
X125824697Y-141007430D01*
X126033375Y-140868784D01*
X126034170Y-140868159D01*
X126040961Y-140893505D01*
X126050974Y-140912739D01*
X126178665Y-141064915D01*
X126191935Y-141076050D01*
X126362084Y-141174285D01*
X126378362Y-141180210D01*
X126567576Y-141213574D01*
X126576188Y-141214327D01*
X127367007Y-141214327D01*
X127425000Y-141156334D01*
X127425000Y-139812993D01*
X127367007Y-139755000D01*
X126032510Y-139755000D01*
X125252993Y-139754999D01*
X125195000Y-139812992D01*
X125194999Y-141133207D01*
X124885000Y-141133207D01*
X124885001Y-139812992D01*
X124885000Y-139812991D01*
X124885000Y-139387007D01*
X125194999Y-139387007D01*
X125252992Y-139445000D01*
X126073517Y-139445001D01*
X126073518Y-139445000D01*
X127367007Y-139445000D01*
X127425000Y-139387007D01*
X127425000Y-138043666D01*
X127735000Y-138043666D01*
X127735000Y-141156334D01*
X127792993Y-141214327D01*
X128585979Y-141214327D01*
X128598845Y-141212633D01*
X128873505Y-141139038D01*
X128892739Y-141129026D01*
X128969641Y-141064497D01*
X135611687Y-141064497D01*
X135671039Y-141145000D01*
X137087007Y-141145000D01*
X137145000Y-141087007D01*
X137145000Y-140200993D01*
X137455000Y-140200993D01*
X137455000Y-141087007D01*
X137512993Y-141145000D01*
X138927737Y-141145000D01*
X138987131Y-141065607D01*
X138929312Y-140869152D01*
X138925684Y-140860174D01*
X138825071Y-140667718D01*
X138819768Y-140659615D01*
X138683689Y-140490368D01*
X138676914Y-140483449D01*
X138510554Y-140343855D01*
X138502564Y-140338384D01*
X138312258Y-140233763D01*
X138303357Y-140229948D01*
X138096189Y-140164231D01*
X138086371Y-140162180D01*
X137906473Y-140143271D01*
X137901295Y-140143000D01*
X137512993Y-140143000D01*
X137455000Y-140200993D01*
X137145000Y-140200993D01*
X137087007Y-140143000D01*
X136695373Y-140143000D01*
X136690540Y-140143236D01*
X136529026Y-140159073D01*
X136519527Y-140160954D01*
X136311627Y-140223723D01*
X136302674Y-140227413D01*
X136110926Y-140329367D01*
X136102860Y-140334726D01*
X135934567Y-140471983D01*
X135927696Y-140478806D01*
X135789267Y-140646137D01*
X135783852Y-140654165D01*
X135680562Y-140845198D01*
X135676809Y-140854124D01*
X135611687Y-141064497D01*
X128969641Y-141064497D01*
X129044915Y-141001335D01*
X129056050Y-140988065D01*
X129154285Y-140817916D01*
X129160210Y-140801638D01*
X129193574Y-140612424D01*
X129194327Y-140603812D01*
X129194327Y-140515682D01*
X129207089Y-140530624D01*
X129213592Y-140536958D01*
X129391970Y-140681406D01*
X129399517Y-140686449D01*
X129601230Y-140795971D01*
X129609571Y-140799554D01*
X129827866Y-140870482D01*
X129836720Y-140872486D01*
X130064285Y-140902444D01*
X130073356Y-140902801D01*
X130302569Y-140890789D01*
X130311553Y-140889486D01*
X130534739Y-140835904D01*
X130543336Y-140832986D01*
X130753021Y-140739628D01*
X130760941Y-140735192D01*
X130950101Y-140605186D01*
X130957080Y-140599381D01*
X131119381Y-140437080D01*
X131125186Y-140430101D01*
X131255192Y-140240941D01*
X131259628Y-140233021D01*
X131352986Y-140023336D01*
X131355904Y-140014739D01*
X131409638Y-139790921D01*
X131410992Y-139780633D01*
X131418676Y-139487180D01*
X131417862Y-139476835D01*
X131400730Y-139384393D01*
X133012869Y-139384393D01*
X133070688Y-139580848D01*
X133074316Y-139589826D01*
X133174929Y-139782282D01*
X133180232Y-139790385D01*
X133316311Y-139959632D01*
X133323086Y-139966551D01*
X133489446Y-140106145D01*
X133497436Y-140111616D01*
X133687742Y-140216237D01*
X133696643Y-140220052D01*
X133903811Y-140285769D01*
X133913629Y-140287820D01*
X134093527Y-140306729D01*
X134098705Y-140307000D01*
X134287007Y-140307000D01*
X134345000Y-140249007D01*
X134345000Y-139362993D01*
X134655000Y-139362993D01*
X134655000Y-140249007D01*
X134712993Y-140307000D01*
X134904627Y-140307000D01*
X134909460Y-140306764D01*
X135070974Y-140290927D01*
X135080473Y-140289046D01*
X135288373Y-140226277D01*
X135297326Y-140222587D01*
X135489074Y-140120633D01*
X135497140Y-140115274D01*
X135665433Y-139978017D01*
X135672304Y-139971194D01*
X135810733Y-139803863D01*
X135816148Y-139795835D01*
X135919438Y-139604802D01*
X135923191Y-139595876D01*
X135988313Y-139385503D01*
X135987495Y-139384393D01*
X138612869Y-139384393D01*
X138670688Y-139580848D01*
X138674316Y-139589826D01*
X138774929Y-139782282D01*
X138780232Y-139790385D01*
X138916311Y-139959632D01*
X138923086Y-139966551D01*
X139089446Y-140106145D01*
X139097436Y-140111616D01*
X139287742Y-140216237D01*
X139296643Y-140220052D01*
X139503811Y-140285769D01*
X139513629Y-140287820D01*
X139693527Y-140306729D01*
X139698705Y-140307000D01*
X139887007Y-140307000D01*
X139945000Y-140249007D01*
X139945000Y-139362993D01*
X140255000Y-139362993D01*
X140255000Y-140249007D01*
X140312993Y-140307000D01*
X140504627Y-140307000D01*
X140509460Y-140306764D01*
X140670974Y-140290927D01*
X140680473Y-140289046D01*
X140888373Y-140226277D01*
X140897326Y-140222587D01*
X141089074Y-140120633D01*
X141097140Y-140115274D01*
X141253580Y-139987684D01*
X143097970Y-139987684D01*
X143098322Y-139995022D01*
X143131822Y-140267858D01*
X143133255Y-140275064D01*
X143206715Y-140539953D01*
X143209198Y-140546867D01*
X143321004Y-140797987D01*
X143324481Y-140804458D01*
X143472177Y-141036295D01*
X143476573Y-141042181D01*
X143656914Y-141249640D01*
X143662131Y-141254813D01*
X143871156Y-141433336D01*
X143877081Y-141437680D01*
X144110197Y-141583347D01*
X144116699Y-141586768D01*
X144368786Y-141696379D01*
X144375722Y-141698801D01*
X144641240Y-141769946D01*
X144648458Y-141771317D01*
X144921577Y-141802434D01*
X144928918Y-141802723D01*
X145203636Y-141793129D01*
X145210939Y-141792330D01*
X145481221Y-141742236D01*
X145488326Y-141740365D01*
X145748235Y-141650871D01*
X145754986Y-141647971D01*
X145998812Y-141521044D01*
X146005060Y-141517178D01*
X146227447Y-141355603D01*
X146233054Y-141350857D01*
X146429116Y-141158187D01*
X146433960Y-141152663D01*
X146599391Y-140933130D01*
X146603365Y-140926951D01*
X146734529Y-140685377D01*
X146737546Y-140678679D01*
X146831563Y-140420371D01*
X146833557Y-140413300D01*
X146888490Y-140143297D01*
X146889469Y-140134707D01*
X146899162Y-139764501D01*
X146898634Y-139755873D01*
X146857909Y-139483365D01*
X146856287Y-139476199D01*
X146775918Y-139213324D01*
X146773255Y-139206477D01*
X146654915Y-138958370D01*
X146651269Y-138951991D01*
X146497555Y-138724101D01*
X146493006Y-138718331D01*
X146307297Y-138515664D01*
X146301945Y-138510630D01*
X146088319Y-138337640D01*
X146082282Y-138333452D01*
X145845433Y-138193937D01*
X145838844Y-138190688D01*
X145583974Y-138087714D01*
X145576977Y-138085474D01*
X145309687Y-138021303D01*
X145302436Y-138020122D01*
X145028596Y-137996165D01*
X145021250Y-137996068D01*
X144746878Y-138012849D01*
X144739598Y-138013840D01*
X144470718Y-138070992D01*
X144463665Y-138073048D01*
X144206188Y-138169315D01*
X144199516Y-138172391D01*
X143959096Y-138305658D01*
X143952952Y-138309686D01*
X143734870Y-138477025D01*
X143729389Y-138481917D01*
X143538437Y-138679654D01*
X143533740Y-138685303D01*
X143374113Y-138909091D01*
X143370302Y-138915372D01*
X143245507Y-139160297D01*
X143242666Y-139167072D01*
X143155443Y-139427752D01*
X143153635Y-139434873D01*
X143105901Y-139705582D01*
X143105165Y-139712892D01*
X143097970Y-139987684D01*
X141253580Y-139987684D01*
X141265433Y-139978017D01*
X141272304Y-139971194D01*
X141410733Y-139803863D01*
X141416148Y-139795835D01*
X141519438Y-139604802D01*
X141523191Y-139595876D01*
X141588313Y-139385503D01*
X141528961Y-139305000D01*
X140312993Y-139305000D01*
X140255000Y-139362993D01*
X139945000Y-139362993D01*
X139887007Y-139305000D01*
X138672263Y-139305000D01*
X138612869Y-139384393D01*
X135987495Y-139384393D01*
X135928961Y-139305000D01*
X134712993Y-139305000D01*
X134655000Y-139362993D01*
X134345000Y-139362993D01*
X134287007Y-139305000D01*
X133072263Y-139305000D01*
X133012869Y-139384393D01*
X131400730Y-139384393D01*
X131375916Y-139250511D01*
X131373452Y-139241774D01*
X131291196Y-139027491D01*
X131287181Y-139019350D01*
X131222928Y-138914497D01*
X133011687Y-138914497D01*
X133071039Y-138995000D01*
X134287007Y-138995000D01*
X134345000Y-138937007D01*
X134345000Y-138050993D01*
X134655000Y-138050993D01*
X134655000Y-138937007D01*
X134712993Y-138995000D01*
X135927737Y-138995000D01*
X135987131Y-138915607D01*
X135986805Y-138914497D01*
X138611687Y-138914497D01*
X138671039Y-138995000D01*
X139887007Y-138995000D01*
X139945000Y-138937007D01*
X139945000Y-138050993D01*
X140255000Y-138050993D01*
X140255000Y-138937007D01*
X140312993Y-138995000D01*
X141527737Y-138995000D01*
X141587131Y-138915607D01*
X141529312Y-138719152D01*
X141525684Y-138710174D01*
X141425071Y-138517718D01*
X141419768Y-138509615D01*
X141283689Y-138340368D01*
X141276914Y-138333449D01*
X141110554Y-138193855D01*
X141102564Y-138188384D01*
X140912258Y-138083763D01*
X140903357Y-138079948D01*
X140696189Y-138014231D01*
X140686371Y-138012180D01*
X140506473Y-137993271D01*
X140501295Y-137993000D01*
X140312993Y-137993000D01*
X140255000Y-138050993D01*
X139945000Y-138050993D01*
X139887007Y-137993000D01*
X139695373Y-137993000D01*
X139690540Y-137993236D01*
X139529026Y-138009073D01*
X139519527Y-138010954D01*
X139311627Y-138073723D01*
X139302674Y-138077413D01*
X139110926Y-138179367D01*
X139102860Y-138184726D01*
X138934567Y-138321983D01*
X138927696Y-138328806D01*
X138789267Y-138496137D01*
X138783852Y-138504165D01*
X138680562Y-138695198D01*
X138676809Y-138704124D01*
X138611687Y-138914497D01*
X135986805Y-138914497D01*
X135929312Y-138719152D01*
X135925684Y-138710174D01*
X135825071Y-138517718D01*
X135819768Y-138509615D01*
X135683689Y-138340368D01*
X135676914Y-138333449D01*
X135510554Y-138193855D01*
X135502564Y-138188384D01*
X135312258Y-138083763D01*
X135303357Y-138079948D01*
X135096189Y-138014231D01*
X135086371Y-138012180D01*
X134906473Y-137993271D01*
X134901295Y-137993000D01*
X134712993Y-137993000D01*
X134655000Y-138050993D01*
X134345000Y-138050993D01*
X134287007Y-137993000D01*
X134095373Y-137993000D01*
X134090540Y-137993236D01*
X133929026Y-138009073D01*
X133919527Y-138010954D01*
X133711627Y-138073723D01*
X133702674Y-138077413D01*
X133510926Y-138179367D01*
X133502860Y-138184726D01*
X133334567Y-138321983D01*
X133327696Y-138328806D01*
X133189267Y-138496137D01*
X133183852Y-138504165D01*
X133080562Y-138695198D01*
X133076809Y-138704124D01*
X133011687Y-138914497D01*
X131222928Y-138914497D01*
X131167253Y-138823644D01*
X131161821Y-138816370D01*
X131008236Y-138645798D01*
X131001570Y-138639636D01*
X130819474Y-138499908D01*
X130811796Y-138495064D01*
X130607285Y-138390860D01*
X130598853Y-138387496D01*
X130378776Y-138322307D01*
X130369873Y-138320536D01*
X130141602Y-138296543D01*
X130132525Y-138296424D01*
X129903705Y-138314433D01*
X129894758Y-138315971D01*
X129673051Y-138375376D01*
X129664534Y-138378518D01*
X129457365Y-138477333D01*
X129449563Y-138481975D01*
X129263871Y-138616888D01*
X129257046Y-138622873D01*
X129194327Y-138688965D01*
X129194327Y-138594021D01*
X129192633Y-138581155D01*
X129119038Y-138306496D01*
X129109026Y-138287262D01*
X128981335Y-138135085D01*
X128968065Y-138123950D01*
X128797916Y-138025715D01*
X128781638Y-138019790D01*
X128592424Y-137986426D01*
X128583812Y-137985673D01*
X127792993Y-137985673D01*
X127735000Y-138043666D01*
X127425000Y-138043666D01*
X127367007Y-137985673D01*
X126574021Y-137985673D01*
X126561155Y-137987367D01*
X126286496Y-138060962D01*
X126267262Y-138070974D01*
X126115085Y-138198665D01*
X126103950Y-138211935D01*
X126033455Y-138334036D01*
X125853999Y-138209313D01*
X125847126Y-138205313D01*
X125621185Y-138097060D01*
X125613760Y-138094210D01*
X125373416Y-138023472D01*
X125365631Y-138021846D01*
X125262060Y-138008762D01*
X125195000Y-138067884D01*
X125194999Y-139387007D01*
X124885000Y-139387007D01*
X124885001Y-138066706D01*
X124812678Y-138007299D01*
X124605075Y-138048405D01*
X124597423Y-138050570D01*
X124362599Y-138137901D01*
X124355392Y-138141262D01*
X124137551Y-138265012D01*
X124130973Y-138269482D01*
X123935720Y-138426470D01*
X123929942Y-138431934D01*
X123762300Y-138618119D01*
X123757470Y-138624437D01*
X123621752Y-138835030D01*
X123617994Y-138842039D01*
X123593243Y-138898693D01*
X123547253Y-138823644D01*
X123541821Y-138816370D01*
X123388236Y-138645798D01*
X123381570Y-138639636D01*
X123199474Y-138499908D01*
X123191796Y-138495064D01*
X122987285Y-138390860D01*
X122978853Y-138387496D01*
X122758776Y-138322307D01*
X122749873Y-138320536D01*
X122521602Y-138296543D01*
X122512525Y-138296424D01*
X122283705Y-138314433D01*
X122274758Y-138315971D01*
X122053051Y-138375376D01*
X122044534Y-138378518D01*
X121837365Y-138477333D01*
X121829563Y-138481975D01*
X121643871Y-138616888D01*
X121637046Y-138622873D01*
X121479049Y-138789367D01*
X121473429Y-138796496D01*
X121348419Y-138988995D01*
X121344192Y-138997029D01*
X121256355Y-139209086D01*
X121253663Y-139217755D01*
X121230255Y-139327880D01*
X121215916Y-139250511D01*
X121213452Y-139241774D01*
X121131196Y-139027491D01*
X121127181Y-139019350D01*
X121007253Y-138823644D01*
X121001821Y-138816370D01*
X120848236Y-138645798D01*
X120841570Y-138639636D01*
X120659474Y-138499908D01*
X120651796Y-138495064D01*
X120447285Y-138390860D01*
X120438853Y-138387496D01*
X120218776Y-138322307D01*
X120209873Y-138320536D01*
X119981602Y-138296543D01*
X119972525Y-138296424D01*
X119743705Y-138314433D01*
X119734758Y-138315971D01*
X119513051Y-138375376D01*
X119504534Y-138378518D01*
X119297365Y-138477333D01*
X119289563Y-138481975D01*
X119103871Y-138616888D01*
X119097046Y-138622873D01*
X118939049Y-138789367D01*
X118933429Y-138796496D01*
X118808419Y-138988995D01*
X118804192Y-138997029D01*
X118722408Y-139194473D01*
X118722408Y-138595647D01*
X118721455Y-138585966D01*
X118703082Y-138493597D01*
X118695619Y-138475580D01*
X118640580Y-138393209D01*
X118626791Y-138379420D01*
X118544420Y-138324381D01*
X118526403Y-138316918D01*
X118434034Y-138298545D01*
X118424353Y-138297592D01*
X116415647Y-138297592D01*
X116405966Y-138298545D01*
X116313597Y-138316918D01*
X116295580Y-138324381D01*
X116213209Y-138379420D01*
X116199420Y-138393209D01*
X116144381Y-138475580D01*
X116136918Y-138493597D01*
X116120473Y-138576273D01*
X116091354Y-138537349D01*
X116086095Y-138531384D01*
X115905874Y-138357345D01*
X115899729Y-138352297D01*
X115693999Y-138209313D01*
X115687126Y-138205313D01*
X115461185Y-138097060D01*
X115453760Y-138094210D01*
X115213416Y-138023472D01*
X115205631Y-138021846D01*
X115102060Y-138008762D01*
X115035000Y-138067884D01*
X115034999Y-139387008D01*
X114725000Y-139387008D01*
X114725001Y-138066706D01*
X114652678Y-138007299D01*
X114445075Y-138048405D01*
X114437423Y-138050570D01*
X114202599Y-138137901D01*
X114195392Y-138141262D01*
X113977551Y-138265012D01*
X113970973Y-138269482D01*
X113775720Y-138426470D01*
X113769942Y-138431934D01*
X113602300Y-138618119D01*
X113597470Y-138624437D01*
X113461752Y-138835030D01*
X113457994Y-138842039D01*
X113433243Y-138898693D01*
X113387253Y-138823644D01*
X113381821Y-138816370D01*
X113228236Y-138645798D01*
X113221570Y-138639636D01*
X113039474Y-138499908D01*
X113031796Y-138495064D01*
X112827285Y-138390860D01*
X112818853Y-138387496D01*
X112598776Y-138322307D01*
X112589873Y-138320536D01*
X112361602Y-138296543D01*
X112352525Y-138296424D01*
X112123705Y-138314433D01*
X112114758Y-138315971D01*
X111893051Y-138375376D01*
X111884534Y-138378518D01*
X111677365Y-138477333D01*
X111669563Y-138481975D01*
X111483871Y-138616888D01*
X111477046Y-138622873D01*
X111319049Y-138789367D01*
X111313429Y-138796496D01*
X111188419Y-138988995D01*
X111184192Y-138997029D01*
X111096355Y-139209086D01*
X111093663Y-139217755D01*
X111070255Y-139327880D01*
X111055916Y-139250511D01*
X111053452Y-139241774D01*
X110971196Y-139027491D01*
X110967181Y-139019350D01*
X110847253Y-138823644D01*
X110841821Y-138816370D01*
X110688236Y-138645798D01*
X110681570Y-138639636D01*
X110499474Y-138499908D01*
X110491796Y-138495064D01*
X110287285Y-138390860D01*
X110278853Y-138387496D01*
X110058776Y-138322307D01*
X110049873Y-138320536D01*
X109821602Y-138296543D01*
X109812525Y-138296424D01*
X109583705Y-138314433D01*
X109574758Y-138315971D01*
X109353051Y-138375376D01*
X109344534Y-138378518D01*
X109137365Y-138477333D01*
X109129563Y-138481975D01*
X108943871Y-138616888D01*
X108937046Y-138622873D01*
X108779049Y-138789367D01*
X108773429Y-138796496D01*
X108648419Y-138988995D01*
X108644192Y-138997029D01*
X108562408Y-139194473D01*
X108562408Y-138595647D01*
X108561455Y-138585966D01*
X108543082Y-138493597D01*
X108535619Y-138475580D01*
X108480580Y-138393209D01*
X108466791Y-138379420D01*
X108384420Y-138324381D01*
X108366403Y-138316918D01*
X108274034Y-138298545D01*
X108264353Y-138297592D01*
X106255647Y-138297592D01*
X106245966Y-138298545D01*
X106153597Y-138316918D01*
X106135580Y-138324381D01*
X106053209Y-138379420D01*
X106039420Y-138393209D01*
X105984381Y-138475580D01*
X105976918Y-138493597D01*
X105958545Y-138585966D01*
X105957592Y-138595647D01*
X101063573Y-138595647D01*
X101039548Y-138505986D01*
X101029536Y-138486752D01*
X100901845Y-138334575D01*
X100888575Y-138323440D01*
X100718426Y-138225205D01*
X100702148Y-138219280D01*
X100512934Y-138185916D01*
X100504322Y-138185163D01*
X100037993Y-138185163D01*
X99980000Y-138243156D01*
X99670000Y-138243156D01*
X99612007Y-138185163D01*
X99143511Y-138185163D01*
X99130645Y-138186857D01*
X98855986Y-138260452D01*
X98836752Y-138270464D01*
X98684575Y-138398155D01*
X98673440Y-138411425D01*
X98575205Y-138581574D01*
X98569280Y-138597852D01*
X98535916Y-138787066D01*
X98535163Y-138795678D01*
X95464837Y-138795678D01*
X95464837Y-138793511D01*
X95463143Y-138780645D01*
X95389548Y-138505986D01*
X95379536Y-138486752D01*
X95251845Y-138334575D01*
X95238575Y-138323440D01*
X95068426Y-138225205D01*
X95052148Y-138219280D01*
X94862934Y-138185916D01*
X94854322Y-138185163D01*
X94387993Y-138185163D01*
X94330000Y-138243156D01*
X94020000Y-138243156D01*
X93962007Y-138185163D01*
X93493511Y-138185163D01*
X93480645Y-138186857D01*
X93205986Y-138260452D01*
X93186752Y-138270464D01*
X93034575Y-138398155D01*
X93023440Y-138411425D01*
X92925205Y-138581574D01*
X92919280Y-138597852D01*
X92885916Y-138787066D01*
X92885163Y-138795678D01*
X89545835Y-138795678D01*
X89497555Y-138724101D01*
X89493006Y-138718331D01*
X89307297Y-138515664D01*
X89301945Y-138510630D01*
X89088319Y-138337640D01*
X89082282Y-138333452D01*
X88845433Y-138193937D01*
X88838844Y-138190688D01*
X88583974Y-138087714D01*
X88576977Y-138085474D01*
X88309687Y-138021303D01*
X88302436Y-138020122D01*
X88028596Y-137996165D01*
X88021250Y-137996068D01*
X87746878Y-138012849D01*
X87739598Y-138013840D01*
X87470718Y-138070992D01*
X87463665Y-138073048D01*
X87206188Y-138169315D01*
X87199516Y-138172391D01*
X86959096Y-138305658D01*
X86952952Y-138309686D01*
X86734870Y-138477025D01*
X86729389Y-138481917D01*
X86538437Y-138679654D01*
X86533740Y-138685303D01*
X86374113Y-138909091D01*
X86370302Y-138915372D01*
X86245507Y-139160297D01*
X86242666Y-139167072D01*
X86155443Y-139427752D01*
X86153635Y-139434873D01*
X86105901Y-139705582D01*
X86105165Y-139712892D01*
X86097970Y-139987684D01*
X85299000Y-139987684D01*
X85299000Y-135809771D01*
X86171378Y-135809771D01*
X86171378Y-135822229D01*
X86193348Y-135996141D01*
X86196446Y-136008207D01*
X86260977Y-136171193D01*
X86266978Y-136182110D01*
X86370014Y-136323927D01*
X86378542Y-136333008D01*
X86513609Y-136444745D01*
X86524127Y-136451420D01*
X86682740Y-136526057D01*
X86694587Y-136529906D01*
X86866777Y-136562754D01*
X86879210Y-136563536D01*
X87054160Y-136552529D01*
X87066396Y-136550194D01*
X87233112Y-136496026D01*
X87244384Y-136490722D01*
X87392391Y-136396793D01*
X87401989Y-136388852D01*
X87521987Y-136261068D01*
X87529309Y-136250990D01*
X87613758Y-136097378D01*
X87618344Y-136085795D01*
X87661939Y-135916007D01*
X87663500Y-135903648D01*
X87663500Y-135728352D01*
X87661939Y-135715993D01*
X87618344Y-135546205D01*
X87613758Y-135534622D01*
X87529309Y-135381010D01*
X87521987Y-135370932D01*
X87401989Y-135243148D01*
X87392391Y-135235207D01*
X87244384Y-135141278D01*
X87233112Y-135135974D01*
X87066396Y-135081806D01*
X87054160Y-135079471D01*
X86879210Y-135068464D01*
X86866777Y-135069246D01*
X86694587Y-135102094D01*
X86682740Y-135105943D01*
X86524127Y-135180580D01*
X86513609Y-135187255D01*
X86378542Y-135298992D01*
X86370014Y-135308073D01*
X86266978Y-135449890D01*
X86260977Y-135460807D01*
X86196446Y-135623793D01*
X86193348Y-135635859D01*
X86171378Y-135809771D01*
X85299000Y-135809771D01*
X85299000Y-133777771D01*
X86171378Y-133777771D01*
X86171378Y-133790229D01*
X86193348Y-133964141D01*
X86196446Y-133976207D01*
X86260977Y-134139193D01*
X86266978Y-134150110D01*
X86370014Y-134291927D01*
X86378542Y-134301008D01*
X86513609Y-134412745D01*
X86524127Y-134419420D01*
X86682740Y-134494057D01*
X86694587Y-134497906D01*
X86866777Y-134530754D01*
X86879210Y-134531536D01*
X87054160Y-134520529D01*
X87066396Y-134518194D01*
X87233112Y-134464026D01*
X87244384Y-134458722D01*
X87392391Y-134364793D01*
X87401989Y-134356852D01*
X87521987Y-134229068D01*
X87529309Y-134218990D01*
X87613758Y-134065378D01*
X87618344Y-134053795D01*
X87661939Y-133884007D01*
X87663500Y-133871648D01*
X87663500Y-133696352D01*
X87661939Y-133683993D01*
X87618344Y-133514205D01*
X87613758Y-133502622D01*
X87529309Y-133349010D01*
X87521987Y-133338932D01*
X87401989Y-133211148D01*
X87392391Y-133203207D01*
X87244384Y-133109278D01*
X87233112Y-133103974D01*
X87066396Y-133049806D01*
X87054160Y-133047471D01*
X86879210Y-133036464D01*
X86866777Y-133037246D01*
X86694587Y-133070094D01*
X86682740Y-133073943D01*
X86524127Y-133148580D01*
X86513609Y-133155255D01*
X86378542Y-133266992D01*
X86370014Y-133276073D01*
X86266978Y-133417890D01*
X86260977Y-133428807D01*
X86196446Y-133591793D01*
X86193348Y-133603859D01*
X86171378Y-133777771D01*
X85299000Y-133777771D01*
X85299000Y-132996862D01*
X89499000Y-132996862D01*
X89499000Y-133203138D01*
X89501438Y-133218530D01*
X89565181Y-133414712D01*
X89572256Y-133428596D01*
X89693503Y-133595478D01*
X89704522Y-133606497D01*
X89799000Y-133675139D01*
X89799001Y-134836610D01*
X89795124Y-134847650D01*
X89792600Y-134869804D01*
X89799001Y-134927323D01*
X89799001Y-134944602D01*
X89800245Y-134955645D01*
X89803971Y-134971979D01*
X89810308Y-135028922D01*
X89817663Y-135050015D01*
X89824119Y-135060308D01*
X89826837Y-135072221D01*
X89836507Y-135092312D01*
X89872643Y-135137659D01*
X89881576Y-135151901D01*
X89888530Y-135160628D01*
X89900424Y-135172522D01*
X89936267Y-135217503D01*
X89953693Y-135231414D01*
X89964555Y-135236653D01*
X90034610Y-135306709D01*
X90031438Y-135316471D01*
X90029000Y-135331862D01*
X90029000Y-135538138D01*
X90031438Y-135553530D01*
X90095181Y-135749712D01*
X90102256Y-135763596D01*
X90223503Y-135930478D01*
X90234522Y-135941497D01*
X90401404Y-136062744D01*
X90415288Y-136069819D01*
X90611470Y-136133562D01*
X90626862Y-136136000D01*
X90833138Y-136136000D01*
X90848530Y-136133562D01*
X91044712Y-136069819D01*
X91058596Y-136062744D01*
X91225478Y-135941497D01*
X91236497Y-135930478D01*
X91357744Y-135763596D01*
X91364819Y-135749712D01*
X91414482Y-135596862D01*
X105799000Y-135596862D01*
X105799000Y-135803138D01*
X105801438Y-135818530D01*
X105865181Y-136014712D01*
X105872256Y-136028596D01*
X105993503Y-136195478D01*
X106004522Y-136206497D01*
X106171404Y-136327744D01*
X106185288Y-136334819D01*
X106381470Y-136398562D01*
X106396862Y-136401000D01*
X106603138Y-136401000D01*
X106618530Y-136398562D01*
X106814712Y-136334819D01*
X106828596Y-136327744D01*
X106995478Y-136206497D01*
X107006497Y-136195478D01*
X107127744Y-136028596D01*
X107134819Y-136014712D01*
X107198562Y-135818530D01*
X107201000Y-135803138D01*
X107201000Y-135596862D01*
X107198562Y-135581471D01*
X107195390Y-135571710D01*
X108466101Y-134301000D01*
X111924861Y-134301000D01*
X111993503Y-134395478D01*
X112004522Y-134406497D01*
X112171404Y-134527744D01*
X112185288Y-134534819D01*
X112381470Y-134598562D01*
X112396862Y-134601000D01*
X112603138Y-134601000D01*
X112618530Y-134598562D01*
X112814712Y-134534819D01*
X112828596Y-134527744D01*
X112995478Y-134406497D01*
X113006497Y-134395478D01*
X113127744Y-134228596D01*
X113134819Y-134214712D01*
X113198562Y-134018530D01*
X113201000Y-134003138D01*
X113201000Y-133796862D01*
X113198562Y-133781470D01*
X113134819Y-133585288D01*
X113127744Y-133571404D01*
X113006497Y-133404522D01*
X112995478Y-133393503D01*
X112828596Y-133272256D01*
X112814712Y-133265181D01*
X112618530Y-133201438D01*
X112603138Y-133199000D01*
X112396862Y-133199000D01*
X112381470Y-133201438D01*
X112185288Y-133265181D01*
X112171404Y-133272256D01*
X112004522Y-133393503D01*
X111993503Y-133404522D01*
X111924861Y-133499000D01*
X108368386Y-133499000D01*
X108357349Y-133495124D01*
X108335195Y-133492600D01*
X108277685Y-133499000D01*
X108260398Y-133499000D01*
X108249354Y-133500244D01*
X108233016Y-133503971D01*
X108176077Y-133510308D01*
X108154983Y-133517664D01*
X108144692Y-133524119D01*
X108132780Y-133526836D01*
X108112690Y-133536505D01*
X108067339Y-133572642D01*
X108053094Y-133581579D01*
X108044370Y-133588531D01*
X108032478Y-133600423D01*
X107987497Y-133636266D01*
X107973586Y-133653692D01*
X107968348Y-133664552D01*
X106628290Y-135004610D01*
X106618529Y-135001438D01*
X106603138Y-134999000D01*
X106396862Y-134999000D01*
X106381470Y-135001438D01*
X106185288Y-135065181D01*
X106171404Y-135072256D01*
X106004522Y-135193503D01*
X105993503Y-135204522D01*
X105872256Y-135371404D01*
X105865181Y-135385288D01*
X105801438Y-135581470D01*
X105799000Y-135596862D01*
X91414482Y-135596862D01*
X91428562Y-135553530D01*
X91431000Y-135538138D01*
X91431000Y-135331862D01*
X91428562Y-135316470D01*
X91406186Y-135247603D01*
X91450014Y-135307927D01*
X91458542Y-135317008D01*
X91593609Y-135428745D01*
X91604127Y-135435420D01*
X91762740Y-135510057D01*
X91774587Y-135513906D01*
X91946777Y-135546754D01*
X91959210Y-135547536D01*
X92134160Y-135536529D01*
X92146396Y-135534194D01*
X92313112Y-135480026D01*
X92324384Y-135474722D01*
X92472391Y-135380793D01*
X92481989Y-135372852D01*
X92601987Y-135245068D01*
X92609309Y-135234990D01*
X92693758Y-135081378D01*
X92698344Y-135069795D01*
X92741939Y-134900007D01*
X92743500Y-134887648D01*
X92743500Y-134712352D01*
X92741939Y-134699993D01*
X92698344Y-134530205D01*
X92693758Y-134518622D01*
X92609309Y-134365010D01*
X92601987Y-134354932D01*
X92481989Y-134227148D01*
X92472391Y-134219207D01*
X92324384Y-134125278D01*
X92313112Y-134119974D01*
X92146396Y-134065806D01*
X92134160Y-134063471D01*
X91959210Y-134052464D01*
X91946777Y-134053246D01*
X91774587Y-134086094D01*
X91762740Y-134089943D01*
X91604127Y-134164580D01*
X91593609Y-134171255D01*
X91458542Y-134282992D01*
X91450014Y-134292073D01*
X91346978Y-134433890D01*
X91340977Y-134444807D01*
X91276446Y-134607793D01*
X91273348Y-134619859D01*
X91251378Y-134793771D01*
X91251378Y-134806229D01*
X91273348Y-134980141D01*
X91276446Y-134992207D01*
X91278447Y-134997261D01*
X91236497Y-134939522D01*
X91225478Y-134928503D01*
X91058596Y-134807256D01*
X91044712Y-134800181D01*
X90848530Y-134736438D01*
X90833138Y-134734000D01*
X90626862Y-134734000D01*
X90611471Y-134736438D01*
X90601708Y-134739610D01*
X90601000Y-134738902D01*
X90601000Y-133675139D01*
X90695478Y-133606497D01*
X90706497Y-133595478D01*
X90827744Y-133428596D01*
X90834819Y-133414712D01*
X90898562Y-133218530D01*
X90901000Y-133203138D01*
X90901000Y-132996862D01*
X90898562Y-132981470D01*
X90834819Y-132785288D01*
X90827744Y-132771404D01*
X90706497Y-132604522D01*
X90695478Y-132593503D01*
X90528596Y-132472256D01*
X90514712Y-132465181D01*
X90318530Y-132401438D01*
X90303138Y-132399000D01*
X90096862Y-132399000D01*
X90081470Y-132401438D01*
X89885288Y-132465181D01*
X89871404Y-132472256D01*
X89704522Y-132593503D01*
X89693503Y-132604522D01*
X89572256Y-132771404D01*
X89565181Y-132785288D01*
X89501438Y-132981470D01*
X89499000Y-132996862D01*
X85299000Y-132996862D01*
X85299000Y-130806565D01*
X86596038Y-130806565D01*
X86596038Y-131012841D01*
X86598476Y-131028233D01*
X86662219Y-131224415D01*
X86669294Y-131238299D01*
X86790541Y-131405181D01*
X86801560Y-131416200D01*
X86968442Y-131537447D01*
X86982326Y-131544522D01*
X87178508Y-131608265D01*
X87193900Y-131610703D01*
X87400176Y-131610703D01*
X87415568Y-131608265D01*
X87450663Y-131596862D01*
X102299000Y-131596862D01*
X102299000Y-131803138D01*
X102301438Y-131818530D01*
X102365181Y-132014712D01*
X102372256Y-132028596D01*
X102493503Y-132195478D01*
X102504522Y-132206497D01*
X102671404Y-132327744D01*
X102685288Y-132334819D01*
X102881470Y-132398562D01*
X102896862Y-132401000D01*
X103103138Y-132401000D01*
X103118529Y-132398562D01*
X103128290Y-132395390D01*
X103468093Y-132735193D01*
X103473157Y-132745739D01*
X103487037Y-132763188D01*
X103532233Y-132799333D01*
X103544452Y-132811551D01*
X103553140Y-132818481D01*
X103567326Y-132827397D01*
X103612072Y-132863181D01*
X103632188Y-132872895D01*
X103644033Y-132875608D01*
X103654377Y-132882109D01*
X103675420Y-132889478D01*
X103733026Y-132895990D01*
X103749426Y-132899746D01*
X103760513Y-132901000D01*
X103777340Y-132901000D01*
X103834484Y-132907461D01*
X103856642Y-132904975D01*
X103868025Y-132901000D01*
X121131613Y-132901000D01*
X121142650Y-132904876D01*
X121164804Y-132907400D01*
X121222314Y-132901000D01*
X121239601Y-132901000D01*
X121250645Y-132899756D01*
X121266988Y-132896029D01*
X121323923Y-132889692D01*
X121345018Y-132882335D01*
X121355304Y-132875882D01*
X121367218Y-132873165D01*
X121387310Y-132863495D01*
X121432664Y-132827355D01*
X121446904Y-132818422D01*
X121455628Y-132811470D01*
X121467517Y-132799581D01*
X121512503Y-132763734D01*
X121526414Y-132746309D01*
X121531655Y-132735443D01*
X121871709Y-132395390D01*
X121881471Y-132398562D01*
X121896862Y-132401000D01*
X122103138Y-132401000D01*
X122118530Y-132398562D01*
X122314712Y-132334819D01*
X122328596Y-132327744D01*
X122495478Y-132206497D01*
X122506497Y-132195478D01*
X122627744Y-132028596D01*
X122634819Y-132014712D01*
X122698562Y-131818530D01*
X122701000Y-131803138D01*
X122701000Y-131596862D01*
X122698562Y-131581470D01*
X122638580Y-131396862D01*
X126899000Y-131396862D01*
X126899000Y-131603138D01*
X126901438Y-131618530D01*
X126965181Y-131814712D01*
X126972256Y-131828597D01*
X127024134Y-131900000D01*
X126972256Y-131971403D01*
X126965181Y-131985288D01*
X126901438Y-132181470D01*
X126899000Y-132196862D01*
X126899000Y-132403138D01*
X126901438Y-132418530D01*
X126965181Y-132614712D01*
X126972256Y-132628596D01*
X127093503Y-132795478D01*
X127104522Y-132806497D01*
X127271404Y-132927744D01*
X127285288Y-132934819D01*
X127481470Y-132998562D01*
X127496862Y-133001000D01*
X127703138Y-133001000D01*
X127718529Y-132998562D01*
X127755980Y-132986394D01*
X127765181Y-133014712D01*
X127772256Y-133028597D01*
X127893503Y-133195478D01*
X127904522Y-133206497D01*
X128071404Y-133327744D01*
X128085288Y-133334819D01*
X128281470Y-133398562D01*
X128296862Y-133401000D01*
X128503138Y-133401000D01*
X128518530Y-133398562D01*
X128714712Y-133334819D01*
X128728596Y-133327744D01*
X128895478Y-133206497D01*
X128906497Y-133195478D01*
X129027744Y-133028596D01*
X129034819Y-133014712D01*
X129098562Y-132818530D01*
X129101000Y-132803138D01*
X129101000Y-132596862D01*
X129098562Y-132581470D01*
X129034819Y-132385288D01*
X129027744Y-132371403D01*
X128975866Y-132300000D01*
X129027744Y-132228597D01*
X129034819Y-132214712D01*
X129098562Y-132018530D01*
X129101000Y-132003138D01*
X129101000Y-131796862D01*
X129098562Y-131781470D01*
X129034819Y-131585288D01*
X129027744Y-131571404D01*
X128906497Y-131404522D01*
X128895478Y-131393503D01*
X128728596Y-131272256D01*
X128714712Y-131265181D01*
X128518530Y-131201438D01*
X128503138Y-131199000D01*
X128296862Y-131199000D01*
X128281471Y-131201438D01*
X128244020Y-131213606D01*
X128234819Y-131185288D01*
X128227744Y-131171403D01*
X128106497Y-131004522D01*
X128095478Y-130993503D01*
X127928596Y-130872256D01*
X127914712Y-130865181D01*
X127718530Y-130801438D01*
X127703138Y-130799000D01*
X127496862Y-130799000D01*
X127481470Y-130801438D01*
X127285288Y-130865181D01*
X127271404Y-130872256D01*
X127104522Y-130993503D01*
X127093503Y-131004522D01*
X126972256Y-131171404D01*
X126965181Y-131185288D01*
X126901438Y-131381470D01*
X126899000Y-131396862D01*
X122638580Y-131396862D01*
X122634819Y-131385288D01*
X122627744Y-131371404D01*
X122506497Y-131204522D01*
X122495478Y-131193503D01*
X122328596Y-131072256D01*
X122314712Y-131065181D01*
X122118530Y-131001438D01*
X122103138Y-130999000D01*
X121896862Y-130999000D01*
X121881470Y-131001438D01*
X121685288Y-131065181D01*
X121671404Y-131072256D01*
X121504522Y-131193503D01*
X121493503Y-131204522D01*
X121400000Y-131333218D01*
X121306497Y-131204522D01*
X121295478Y-131193503D01*
X121128596Y-131072256D01*
X121114712Y-131065181D01*
X120918530Y-131001438D01*
X120903138Y-130999000D01*
X120696862Y-130999000D01*
X120681470Y-131001438D01*
X120485288Y-131065181D01*
X120471404Y-131072256D01*
X120304522Y-131193503D01*
X120293503Y-131204522D01*
X120172256Y-131371404D01*
X120165181Y-131385288D01*
X120101438Y-131581470D01*
X120099000Y-131596862D01*
X120099000Y-131599000D01*
X104901000Y-131599000D01*
X104901000Y-131596862D01*
X104898562Y-131581470D01*
X104834819Y-131385288D01*
X104827744Y-131371404D01*
X104706497Y-131204522D01*
X104695478Y-131193503D01*
X104528596Y-131072256D01*
X104514712Y-131065181D01*
X104318530Y-131001438D01*
X104303138Y-130999000D01*
X104096862Y-130999000D01*
X104081470Y-131001438D01*
X103885288Y-131065181D01*
X103871404Y-131072256D01*
X103704522Y-131193503D01*
X103693503Y-131204522D01*
X103600000Y-131333218D01*
X103506497Y-131204522D01*
X103495478Y-131193503D01*
X103328596Y-131072256D01*
X103314712Y-131065181D01*
X103118530Y-131001438D01*
X103103138Y-130999000D01*
X102896862Y-130999000D01*
X102881470Y-131001438D01*
X102685288Y-131065181D01*
X102671404Y-131072256D01*
X102504522Y-131193503D01*
X102493503Y-131204522D01*
X102372256Y-131371404D01*
X102365181Y-131385288D01*
X102301438Y-131581470D01*
X102299000Y-131596862D01*
X87450663Y-131596862D01*
X87611750Y-131544522D01*
X87625634Y-131537447D01*
X87792516Y-131416200D01*
X87803535Y-131405181D01*
X87924782Y-131238299D01*
X87931857Y-131224415D01*
X87995600Y-131028233D01*
X87998038Y-131012841D01*
X87998038Y-130806565D01*
X87995600Y-130791173D01*
X87931857Y-130594991D01*
X87924782Y-130581107D01*
X87803535Y-130414225D01*
X87792516Y-130403206D01*
X87625634Y-130281959D01*
X87611750Y-130274884D01*
X87415568Y-130211141D01*
X87400176Y-130208703D01*
X87193900Y-130208703D01*
X87178508Y-130211141D01*
X86982326Y-130274884D01*
X86968442Y-130281959D01*
X86801560Y-130403206D01*
X86790541Y-130414225D01*
X86669294Y-130581107D01*
X86662219Y-130594991D01*
X86598476Y-130791173D01*
X86596038Y-130806565D01*
X85299000Y-130806565D01*
X85299000Y-128196862D01*
X109399000Y-128196862D01*
X109399000Y-128403138D01*
X109401438Y-128418530D01*
X109465181Y-128614712D01*
X109472256Y-128628596D01*
X109593503Y-128795478D01*
X109604522Y-128806497D01*
X109771404Y-128927744D01*
X109785288Y-128934819D01*
X109981470Y-128998562D01*
X109996862Y-129001000D01*
X110203138Y-129001000D01*
X110218530Y-128998562D01*
X110414712Y-128934819D01*
X110428596Y-128927744D01*
X110595478Y-128806497D01*
X110606497Y-128795478D01*
X110727744Y-128628596D01*
X110734819Y-128614712D01*
X110798562Y-128418530D01*
X110801000Y-128403138D01*
X110801000Y-128196862D01*
X110798562Y-128181470D01*
X110734819Y-127985288D01*
X110727744Y-127971404D01*
X110606497Y-127804522D01*
X110595478Y-127793503D01*
X110428596Y-127672256D01*
X110414712Y-127665181D01*
X110222415Y-127602700D01*
X115198303Y-127602700D01*
X115200217Y-127616676D01*
X115259351Y-127823582D01*
X115265111Y-127836458D01*
X115379939Y-128018451D01*
X115389082Y-128029193D01*
X115550375Y-128171643D01*
X115562165Y-128179387D01*
X115757093Y-128270906D01*
X115770886Y-128275077D01*
X115940703Y-128300456D01*
X115948030Y-128301000D01*
X118768215Y-128301000D01*
X120120152Y-129652938D01*
X120129939Y-129668450D01*
X120139082Y-129679193D01*
X120201787Y-129734573D01*
X120221736Y-129754521D01*
X120227059Y-129759136D01*
X120243837Y-129771711D01*
X120300374Y-129821642D01*
X120312164Y-129829387D01*
X120335267Y-129840234D01*
X120355688Y-129855538D01*
X120368061Y-129862312D01*
X120438667Y-129888780D01*
X120507093Y-129920906D01*
X120520887Y-129925077D01*
X120545168Y-129928706D01*
X120569557Y-129937849D01*
X120583335Y-129940878D01*
X120669434Y-129947276D01*
X120690702Y-129950455D01*
X120698029Y-129951000D01*
X120719540Y-129951000D01*
X120797934Y-129956825D01*
X120812007Y-129955866D01*
X120834803Y-129951000D01*
X134703923Y-129951000D01*
X134710949Y-129950499D01*
X134870071Y-129927711D01*
X134883610Y-129923752D01*
X135079503Y-129834685D01*
X135091386Y-129827085D01*
X135254407Y-129686617D01*
X135263680Y-129675987D01*
X135380724Y-129495411D01*
X135386640Y-129482606D01*
X135448298Y-129276438D01*
X135450383Y-129262487D01*
X135451697Y-129047300D01*
X135449783Y-129033324D01*
X135390649Y-128826418D01*
X135384889Y-128813542D01*
X135270061Y-128631549D01*
X135260918Y-128620807D01*
X135099625Y-128478357D01*
X135087835Y-128470613D01*
X134892907Y-128379094D01*
X134879114Y-128374923D01*
X134709297Y-128349544D01*
X134701970Y-128349000D01*
X121081786Y-128349000D01*
X119729851Y-126997066D01*
X119720061Y-126981549D01*
X119710918Y-126970807D01*
X119648204Y-126915419D01*
X119628263Y-126895479D01*
X119622940Y-126890864D01*
X119606169Y-126878295D01*
X119549625Y-126828358D01*
X119537836Y-126820613D01*
X119514728Y-126809764D01*
X119494310Y-126794462D01*
X119481937Y-126787688D01*
X119411331Y-126761220D01*
X119342908Y-126729095D01*
X119329114Y-126724924D01*
X119304830Y-126721295D01*
X119280440Y-126712151D01*
X119266663Y-126709122D01*
X119180577Y-126702724D01*
X119159297Y-126699544D01*
X119151970Y-126699000D01*
X119130459Y-126699000D01*
X119052065Y-126693175D01*
X119037992Y-126694134D01*
X119015196Y-126699000D01*
X115946077Y-126699000D01*
X115939051Y-126699501D01*
X115779929Y-126722289D01*
X115766390Y-126726248D01*
X115570497Y-126815315D01*
X115558614Y-126822915D01*
X115395593Y-126963383D01*
X115386320Y-126974013D01*
X115269276Y-127154589D01*
X115263360Y-127167394D01*
X115201702Y-127373562D01*
X115199617Y-127387513D01*
X115198303Y-127602700D01*
X110222415Y-127602700D01*
X110218530Y-127601438D01*
X110203138Y-127599000D01*
X109996862Y-127599000D01*
X109981470Y-127601438D01*
X109785288Y-127665181D01*
X109771404Y-127672256D01*
X109604522Y-127793503D01*
X109593503Y-127804522D01*
X109472256Y-127971404D01*
X109465181Y-127985288D01*
X109401438Y-128181470D01*
X109399000Y-128196862D01*
X85299000Y-128196862D01*
X85299000Y-124396862D01*
X104498990Y-124396862D01*
X104498990Y-124603138D01*
X104501428Y-124618530D01*
X104565171Y-124814712D01*
X104572246Y-124828596D01*
X104693493Y-124995478D01*
X104704512Y-125006497D01*
X104833212Y-125100004D01*
X104704522Y-125193503D01*
X104693503Y-125204522D01*
X104572256Y-125371404D01*
X104565181Y-125385288D01*
X104501438Y-125581470D01*
X104499000Y-125596862D01*
X104499000Y-125803138D01*
X104501438Y-125818530D01*
X104565181Y-126014712D01*
X104572256Y-126028596D01*
X104693503Y-126195478D01*
X104704522Y-126206497D01*
X104871404Y-126327744D01*
X104885288Y-126334819D01*
X105081470Y-126398562D01*
X105096862Y-126401000D01*
X105303138Y-126401000D01*
X105318530Y-126398562D01*
X105514712Y-126334819D01*
X105528596Y-126327744D01*
X105695478Y-126206497D01*
X105706497Y-126195478D01*
X105827744Y-126028596D01*
X105834819Y-126014712D01*
X105898562Y-125818530D01*
X105901000Y-125803138D01*
X105901000Y-125596862D01*
X105898562Y-125581471D01*
X105895390Y-125571709D01*
X106066100Y-125401000D01*
X108623423Y-125401000D01*
X108572256Y-125471425D01*
X108565181Y-125485309D01*
X108501438Y-125681491D01*
X108499000Y-125696883D01*
X108499000Y-125903159D01*
X108501438Y-125918551D01*
X108565181Y-126114733D01*
X108572256Y-126128617D01*
X108693503Y-126295499D01*
X108704522Y-126306518D01*
X108871404Y-126427765D01*
X108885288Y-126434840D01*
X109081470Y-126498583D01*
X109096862Y-126501021D01*
X109303138Y-126501021D01*
X109318530Y-126498583D01*
X109514712Y-126434840D01*
X109528596Y-126427765D01*
X109695478Y-126306518D01*
X109706497Y-126295499D01*
X109827744Y-126128617D01*
X109834819Y-126114733D01*
X109898562Y-125918551D01*
X109901000Y-125903159D01*
X109901000Y-125696883D01*
X109898562Y-125681491D01*
X109834819Y-125485309D01*
X109827744Y-125471425D01*
X109776577Y-125401000D01*
X111533902Y-125401000D01*
X111668092Y-125535191D01*
X111673157Y-125545739D01*
X111687037Y-125563188D01*
X111732233Y-125599333D01*
X111744453Y-125611552D01*
X111753142Y-125618482D01*
X111767329Y-125627398D01*
X111812072Y-125663181D01*
X111832191Y-125672896D01*
X111844031Y-125675608D01*
X111854373Y-125682108D01*
X111875418Y-125689478D01*
X111933026Y-125695990D01*
X111949426Y-125699746D01*
X111960513Y-125701000D01*
X111977339Y-125701000D01*
X112034485Y-125707461D01*
X112056642Y-125704975D01*
X112068025Y-125701000D01*
X113324861Y-125701000D01*
X113393503Y-125795478D01*
X113404522Y-125806497D01*
X113571404Y-125927744D01*
X113585288Y-125934819D01*
X113781470Y-125998562D01*
X113796862Y-126001000D01*
X114003138Y-126001000D01*
X114018530Y-125998562D01*
X114214712Y-125934819D01*
X114228596Y-125927744D01*
X114395478Y-125806497D01*
X114406497Y-125795478D01*
X114527744Y-125628596D01*
X114534819Y-125614712D01*
X114598562Y-125418530D01*
X114601000Y-125403138D01*
X114601000Y-125196862D01*
X114598562Y-125181470D01*
X114534819Y-124985288D01*
X114527744Y-124971404D01*
X114406497Y-124804522D01*
X114395478Y-124793503D01*
X114228596Y-124672256D01*
X114214712Y-124665181D01*
X114018530Y-124601438D01*
X114003138Y-124599000D01*
X113796862Y-124599000D01*
X113781470Y-124601438D01*
X113585288Y-124665181D01*
X113571404Y-124672256D01*
X113404522Y-124793503D01*
X113393503Y-124804522D01*
X113324861Y-124899000D01*
X113176592Y-124899000D01*
X113227744Y-124828596D01*
X113234819Y-124814712D01*
X113298562Y-124618530D01*
X113301000Y-124603138D01*
X113301000Y-124396862D01*
X113298562Y-124381470D01*
X113234819Y-124185288D01*
X113227744Y-124171404D01*
X113106497Y-124004522D01*
X113095478Y-123993503D01*
X112928596Y-123872256D01*
X112914712Y-123865181D01*
X112718530Y-123801438D01*
X112703138Y-123799000D01*
X112496862Y-123799000D01*
X112481470Y-123801438D01*
X112285288Y-123865181D01*
X112271404Y-123872256D01*
X112104522Y-123993503D01*
X112093503Y-124004522D01*
X112024861Y-124099000D01*
X105775129Y-124099000D01*
X105706487Y-124004522D01*
X105695468Y-123993503D01*
X105528586Y-123872256D01*
X105514702Y-123865181D01*
X105318520Y-123801438D01*
X105303128Y-123799000D01*
X105096852Y-123799000D01*
X105081460Y-123801438D01*
X104885278Y-123865181D01*
X104871394Y-123872256D01*
X104704512Y-123993503D01*
X104693493Y-124004522D01*
X104572246Y-124171404D01*
X104565171Y-124185288D01*
X104501428Y-124381470D01*
X104498990Y-124396862D01*
X85299000Y-124396862D01*
X85299000Y-121396862D01*
X103499000Y-121396862D01*
X103499000Y-121603138D01*
X103501438Y-121618530D01*
X103565181Y-121814712D01*
X103572256Y-121828596D01*
X103693503Y-121995478D01*
X103704522Y-122006497D01*
X103871404Y-122127744D01*
X103885288Y-122134819D01*
X104081470Y-122198562D01*
X104096862Y-122201000D01*
X104299000Y-122201000D01*
X104299000Y-122303138D01*
X104301438Y-122318530D01*
X104365181Y-122514712D01*
X104372256Y-122528596D01*
X104493503Y-122695478D01*
X104504522Y-122706497D01*
X104671404Y-122827744D01*
X104685288Y-122834819D01*
X104881470Y-122898562D01*
X104896862Y-122901000D01*
X105103138Y-122901000D01*
X105118529Y-122898562D01*
X105128290Y-122895390D01*
X105168103Y-122935203D01*
X105173167Y-122945749D01*
X105187047Y-122963198D01*
X105232243Y-122999343D01*
X105244462Y-123011561D01*
X105253150Y-123018491D01*
X105267336Y-123027407D01*
X105312082Y-123063191D01*
X105332198Y-123072905D01*
X105344043Y-123075618D01*
X105354387Y-123082119D01*
X105375430Y-123089488D01*
X105433036Y-123096000D01*
X105449436Y-123099756D01*
X105460523Y-123101010D01*
X105477350Y-123101010D01*
X105534494Y-123107471D01*
X105556652Y-123104985D01*
X105568035Y-123101010D01*
X108524861Y-123101010D01*
X108593503Y-123195488D01*
X108604522Y-123206507D01*
X108771404Y-123327754D01*
X108785288Y-123334829D01*
X108981470Y-123398572D01*
X108996862Y-123401010D01*
X109203138Y-123401010D01*
X109218530Y-123398572D01*
X109414712Y-123334829D01*
X109428596Y-123327754D01*
X109595478Y-123206507D01*
X109606497Y-123195488D01*
X109727744Y-123028606D01*
X109734819Y-123014722D01*
X109798562Y-122818540D01*
X109801000Y-122803148D01*
X109801000Y-122596872D01*
X109798562Y-122581480D01*
X109734819Y-122385298D01*
X109727744Y-122371414D01*
X109676585Y-122301000D01*
X109724861Y-122301000D01*
X109793503Y-122395478D01*
X109804522Y-122406497D01*
X109971404Y-122527744D01*
X109985288Y-122534819D01*
X110181470Y-122598562D01*
X110196862Y-122601000D01*
X110403138Y-122601000D01*
X110418530Y-122598562D01*
X110614712Y-122534819D01*
X110628596Y-122527744D01*
X110795478Y-122406497D01*
X110806497Y-122395478D01*
X110927744Y-122228596D01*
X110934819Y-122214712D01*
X110998562Y-122018530D01*
X111001000Y-122003138D01*
X111001000Y-121796862D01*
X110998562Y-121781470D01*
X110934819Y-121585288D01*
X110927744Y-121571404D01*
X110806497Y-121404522D01*
X110795478Y-121393503D01*
X110628596Y-121272256D01*
X110614712Y-121265181D01*
X110418530Y-121201438D01*
X110403138Y-121199000D01*
X110196862Y-121199000D01*
X110181470Y-121201438D01*
X109985288Y-121265181D01*
X109971404Y-121272256D01*
X109804522Y-121393503D01*
X109793503Y-121404522D01*
X109724861Y-121499000D01*
X105866099Y-121499000D01*
X105631909Y-121264811D01*
X105626844Y-121254263D01*
X105612963Y-121236813D01*
X105567763Y-121200664D01*
X105555547Y-121188449D01*
X105546860Y-121181520D01*
X105532675Y-121172604D01*
X105487927Y-121136819D01*
X105467810Y-121127104D01*
X105455965Y-121124392D01*
X105445624Y-121117892D01*
X105424580Y-121110522D01*
X105366974Y-121104010D01*
X105350573Y-121100253D01*
X105339486Y-121099000D01*
X105322660Y-121099000D01*
X105265516Y-121092539D01*
X105243358Y-121095025D01*
X105231975Y-121099000D01*
X104775139Y-121099000D01*
X104706497Y-121004522D01*
X104695478Y-120993503D01*
X104528596Y-120872256D01*
X104514712Y-120865181D01*
X104318530Y-120801438D01*
X104303138Y-120799000D01*
X104096862Y-120799000D01*
X104081470Y-120801438D01*
X103885288Y-120865181D01*
X103871404Y-120872256D01*
X103704522Y-120993503D01*
X103693503Y-121004522D01*
X103572256Y-121171404D01*
X103565181Y-121185288D01*
X103501438Y-121381470D01*
X103499000Y-121396862D01*
X85299000Y-121396862D01*
X85299000Y-120296862D01*
X105599000Y-120296862D01*
X105599000Y-120503138D01*
X105601438Y-120518530D01*
X105665181Y-120714712D01*
X105672256Y-120728596D01*
X105793503Y-120895478D01*
X105804522Y-120906497D01*
X105971404Y-121027744D01*
X105985288Y-121034819D01*
X106181470Y-121098562D01*
X106196862Y-121101000D01*
X106403138Y-121101000D01*
X106418530Y-121098562D01*
X106614712Y-121034819D01*
X106628596Y-121027744D01*
X106795478Y-120906497D01*
X106806497Y-120895478D01*
X106927744Y-120728596D01*
X106934819Y-120714712D01*
X106998562Y-120518530D01*
X107001000Y-120503138D01*
X107001000Y-120296862D01*
X106998562Y-120281471D01*
X106995390Y-120271710D01*
X107971710Y-119295391D01*
X107981471Y-119298562D01*
X107996862Y-119301000D01*
X108203138Y-119301000D01*
X108218530Y-119298562D01*
X108414712Y-119234819D01*
X108428596Y-119227744D01*
X108595478Y-119106497D01*
X108606497Y-119095478D01*
X108727744Y-118928596D01*
X108734819Y-118914712D01*
X108798562Y-118718530D01*
X108801000Y-118703138D01*
X108801000Y-118496862D01*
X108798562Y-118481470D01*
X108734819Y-118285288D01*
X108727744Y-118271404D01*
X108606497Y-118104522D01*
X108595478Y-118093503D01*
X108428596Y-117972256D01*
X108414712Y-117965181D01*
X108218530Y-117901438D01*
X108203138Y-117899000D01*
X107996862Y-117899000D01*
X107981470Y-117901438D01*
X107785288Y-117965181D01*
X107771404Y-117972256D01*
X107604522Y-118093503D01*
X107593503Y-118104522D01*
X107472256Y-118271404D01*
X107465181Y-118285288D01*
X107401438Y-118481470D01*
X107399000Y-118496862D01*
X107399000Y-118703138D01*
X107401438Y-118718529D01*
X107404610Y-118728290D01*
X106428290Y-119704610D01*
X106418529Y-119701438D01*
X106403138Y-119699000D01*
X106196862Y-119699000D01*
X106181470Y-119701438D01*
X105985288Y-119765181D01*
X105971404Y-119772256D01*
X105804522Y-119893503D01*
X105793503Y-119904522D01*
X105672256Y-120071404D01*
X105665181Y-120085288D01*
X105601438Y-120281470D01*
X105599000Y-120296862D01*
X85299000Y-120296862D01*
X85299000Y-118696862D01*
X87799000Y-118696862D01*
X87799000Y-118903138D01*
X87801438Y-118918530D01*
X87865181Y-119114712D01*
X87872256Y-119128596D01*
X87993503Y-119295478D01*
X88004522Y-119306497D01*
X88171404Y-119427744D01*
X88185288Y-119434819D01*
X88381470Y-119498562D01*
X88396862Y-119501000D01*
X88603138Y-119501000D01*
X88618530Y-119498562D01*
X88814712Y-119434819D01*
X88828596Y-119427744D01*
X88995478Y-119306497D01*
X89006497Y-119295478D01*
X89127744Y-119128596D01*
X89134819Y-119114712D01*
X89198562Y-118918530D01*
X89201000Y-118903138D01*
X89201000Y-118696862D01*
X89198562Y-118681470D01*
X89134819Y-118485288D01*
X89127744Y-118471404D01*
X89006497Y-118304522D01*
X88995478Y-118293503D01*
X88828596Y-118172256D01*
X88814712Y-118165181D01*
X88618530Y-118101438D01*
X88603138Y-118099000D01*
X88396862Y-118099000D01*
X88381470Y-118101438D01*
X88185288Y-118165181D01*
X88171404Y-118172256D01*
X88004522Y-118293503D01*
X87993503Y-118304522D01*
X87872256Y-118471404D01*
X87865181Y-118485288D01*
X87801438Y-118681470D01*
X87799000Y-118696862D01*
X85299000Y-118696862D01*
X85299000Y-115087684D01*
X86097970Y-115087684D01*
X86098322Y-115095022D01*
X86131822Y-115367858D01*
X86133255Y-115375064D01*
X86206715Y-115639953D01*
X86209198Y-115646867D01*
X86321004Y-115897987D01*
X86324481Y-115904458D01*
X86472177Y-116136295D01*
X86476573Y-116142181D01*
X86656914Y-116349640D01*
X86662131Y-116354813D01*
X86871156Y-116533336D01*
X86877081Y-116537680D01*
X87110197Y-116683347D01*
X87116699Y-116686768D01*
X87368786Y-116796379D01*
X87375722Y-116798801D01*
X87641240Y-116869946D01*
X87648458Y-116871317D01*
X87921577Y-116902434D01*
X87928918Y-116902723D01*
X88203636Y-116893129D01*
X88210939Y-116892330D01*
X88481221Y-116842236D01*
X88488326Y-116840365D01*
X88748235Y-116750871D01*
X88754986Y-116747971D01*
X88998812Y-116621044D01*
X89005060Y-116617178D01*
X89227447Y-116455603D01*
X89233054Y-116450857D01*
X89429116Y-116258187D01*
X89433960Y-116252663D01*
X89599391Y-116033130D01*
X89603365Y-116026951D01*
X89734529Y-115785377D01*
X89737546Y-115778679D01*
X89831563Y-115520371D01*
X89833557Y-115513300D01*
X89888490Y-115243297D01*
X89889469Y-115234707D01*
X89898448Y-114891746D01*
X92669562Y-114891746D01*
X92670372Y-114901396D01*
X92709293Y-115113453D01*
X92711962Y-115122762D01*
X92791330Y-115323221D01*
X92795756Y-115331834D01*
X92912548Y-115513060D01*
X92918563Y-115520649D01*
X93068331Y-115675738D01*
X93075705Y-115682014D01*
X93252744Y-115805060D01*
X93261197Y-115809784D01*
X93458764Y-115896099D01*
X93467974Y-115899092D01*
X93678544Y-115945388D01*
X93688160Y-115946535D01*
X93903713Y-115951050D01*
X93913368Y-115950307D01*
X94125691Y-115912869D01*
X94135019Y-115910265D01*
X94336027Y-115832298D01*
X94344671Y-115827932D01*
X94526707Y-115712408D01*
X94534338Y-115706446D01*
X94690469Y-115557765D01*
X94696796Y-115550434D01*
X94821075Y-115374258D01*
X94825859Y-115365838D01*
X94913550Y-115168879D01*
X94916607Y-115159690D01*
X94964449Y-114949111D01*
X94965678Y-114938807D01*
X94966335Y-114891746D01*
X95209562Y-114891746D01*
X95210372Y-114901396D01*
X95249293Y-115113453D01*
X95251962Y-115122762D01*
X95331330Y-115323221D01*
X95335756Y-115331834D01*
X95452548Y-115513060D01*
X95458563Y-115520649D01*
X95608331Y-115675738D01*
X95615705Y-115682014D01*
X95792744Y-115805060D01*
X95801197Y-115809784D01*
X95998764Y-115896099D01*
X96007974Y-115899092D01*
X96218544Y-115945388D01*
X96228160Y-115946535D01*
X96443713Y-115951050D01*
X96453368Y-115950307D01*
X96665691Y-115912869D01*
X96675019Y-115910265D01*
X96876027Y-115832298D01*
X96884671Y-115827932D01*
X97066707Y-115712408D01*
X97074338Y-115706446D01*
X97230469Y-115557765D01*
X97236796Y-115550434D01*
X97361075Y-115374258D01*
X97365859Y-115365838D01*
X97453550Y-115168879D01*
X97456607Y-115159690D01*
X97504449Y-114949111D01*
X97505678Y-114938807D01*
X97506335Y-114891746D01*
X97749562Y-114891746D01*
X97750372Y-114901396D01*
X97789293Y-115113453D01*
X97791962Y-115122762D01*
X97871330Y-115323221D01*
X97875756Y-115331834D01*
X97992548Y-115513060D01*
X97998563Y-115520649D01*
X98148331Y-115675738D01*
X98155705Y-115682014D01*
X98332744Y-115805060D01*
X98341197Y-115809784D01*
X98538764Y-115896099D01*
X98547974Y-115899092D01*
X98758544Y-115945388D01*
X98768160Y-115946535D01*
X98983713Y-115951050D01*
X98993368Y-115950307D01*
X99205691Y-115912869D01*
X99215019Y-115910265D01*
X99416027Y-115832298D01*
X99424671Y-115827932D01*
X99606707Y-115712408D01*
X99614338Y-115706446D01*
X99770469Y-115557765D01*
X99776796Y-115550434D01*
X99901075Y-115374258D01*
X99905859Y-115365838D01*
X99993550Y-115168879D01*
X99996607Y-115159690D01*
X100044449Y-114949111D01*
X100045678Y-114938807D01*
X100046335Y-114891746D01*
X100289562Y-114891746D01*
X100290372Y-114901396D01*
X100329293Y-115113453D01*
X100331962Y-115122762D01*
X100411330Y-115323221D01*
X100415756Y-115331834D01*
X100532548Y-115513060D01*
X100538563Y-115520649D01*
X100688331Y-115675738D01*
X100695705Y-115682014D01*
X100872744Y-115805060D01*
X100881197Y-115809784D01*
X101078764Y-115896099D01*
X101087974Y-115899092D01*
X101298544Y-115945388D01*
X101308160Y-115946535D01*
X101523713Y-115951050D01*
X101533368Y-115950307D01*
X101745691Y-115912869D01*
X101755019Y-115910265D01*
X101956027Y-115832298D01*
X101964671Y-115827932D01*
X102146707Y-115712408D01*
X102154338Y-115706446D01*
X102310469Y-115557765D01*
X102316796Y-115550434D01*
X102441075Y-115374258D01*
X102445859Y-115365838D01*
X102533550Y-115168879D01*
X102536607Y-115159690D01*
X102584449Y-114949111D01*
X102585678Y-114938807D01*
X102589108Y-114693237D01*
X102588167Y-114682902D01*
X102546223Y-114471069D01*
X102543424Y-114461798D01*
X102461265Y-114262467D01*
X102456719Y-114253917D01*
X102337408Y-114074340D01*
X102331287Y-114066836D01*
X102210436Y-113945137D01*
X102827082Y-113945137D01*
X102827082Y-115654863D01*
X102828035Y-115664544D01*
X102846408Y-115756913D01*
X102853871Y-115774930D01*
X102908910Y-115857301D01*
X102922699Y-115871090D01*
X103005070Y-115926129D01*
X103023087Y-115933592D01*
X103115456Y-115951965D01*
X103125137Y-115952918D01*
X103499001Y-115952918D01*
X103499000Y-118624861D01*
X103404522Y-118693503D01*
X103393503Y-118704522D01*
X103272256Y-118871404D01*
X103265181Y-118885288D01*
X103201438Y-119081470D01*
X103199000Y-119096862D01*
X103199000Y-119303138D01*
X103201438Y-119318530D01*
X103265181Y-119514712D01*
X103272256Y-119528596D01*
X103393503Y-119695478D01*
X103404522Y-119706497D01*
X103571404Y-119827744D01*
X103585288Y-119834819D01*
X103781470Y-119898562D01*
X103796862Y-119901000D01*
X104003138Y-119901000D01*
X104018530Y-119898562D01*
X104214712Y-119834819D01*
X104228596Y-119827744D01*
X104395478Y-119706497D01*
X104406497Y-119695478D01*
X104527744Y-119528596D01*
X104534819Y-119514712D01*
X104598562Y-119318530D01*
X104601000Y-119303138D01*
X104601000Y-119096862D01*
X104598562Y-119081470D01*
X104534819Y-118885288D01*
X104527744Y-118871404D01*
X104406497Y-118704522D01*
X104395478Y-118693503D01*
X104301000Y-118624861D01*
X104301000Y-115952918D01*
X104834863Y-115952918D01*
X104844544Y-115951965D01*
X104936913Y-115933592D01*
X104954930Y-115926129D01*
X105037301Y-115871090D01*
X105051090Y-115857301D01*
X105106129Y-115774930D01*
X105113592Y-115756913D01*
X105131965Y-115664544D01*
X105132918Y-115654863D01*
X105132918Y-115087684D01*
X143097970Y-115087684D01*
X143098322Y-115095022D01*
X143131822Y-115367858D01*
X143133255Y-115375064D01*
X143206715Y-115639953D01*
X143209198Y-115646867D01*
X143321004Y-115897987D01*
X143324481Y-115904458D01*
X143472177Y-116136295D01*
X143476573Y-116142181D01*
X143656914Y-116349640D01*
X143662131Y-116354813D01*
X143871156Y-116533336D01*
X143877081Y-116537680D01*
X144110197Y-116683347D01*
X144116699Y-116686768D01*
X144368786Y-116796379D01*
X144375722Y-116798801D01*
X144641240Y-116869946D01*
X144648458Y-116871317D01*
X144921577Y-116902434D01*
X144928918Y-116902723D01*
X145203636Y-116893129D01*
X145210939Y-116892330D01*
X145481221Y-116842236D01*
X145488326Y-116840365D01*
X145748235Y-116750871D01*
X145754986Y-116747971D01*
X145998812Y-116621044D01*
X146005060Y-116617178D01*
X146227447Y-116455603D01*
X146233054Y-116450857D01*
X146429116Y-116258187D01*
X146433960Y-116252663D01*
X146599391Y-116033130D01*
X146603365Y-116026951D01*
X146734529Y-115785377D01*
X146737546Y-115778679D01*
X146831563Y-115520371D01*
X146833557Y-115513300D01*
X146888490Y-115243297D01*
X146889469Y-115234707D01*
X146899162Y-114864501D01*
X146898634Y-114855873D01*
X146857909Y-114583365D01*
X146856287Y-114576199D01*
X146775918Y-114313324D01*
X146773255Y-114306477D01*
X146654915Y-114058370D01*
X146651269Y-114051991D01*
X146497555Y-113824101D01*
X146493006Y-113818331D01*
X146307297Y-113615664D01*
X146301945Y-113610630D01*
X146088319Y-113437640D01*
X146082282Y-113433452D01*
X145845433Y-113293937D01*
X145838844Y-113290688D01*
X145583974Y-113187714D01*
X145576977Y-113185474D01*
X145309687Y-113121303D01*
X145302436Y-113120122D01*
X145028596Y-113096165D01*
X145021250Y-113096068D01*
X144746878Y-113112849D01*
X144739598Y-113113840D01*
X144470718Y-113170992D01*
X144463665Y-113173048D01*
X144206188Y-113269315D01*
X144199516Y-113272391D01*
X143959096Y-113405658D01*
X143952952Y-113409686D01*
X143734870Y-113577025D01*
X143729389Y-113581917D01*
X143538437Y-113779654D01*
X143533740Y-113785303D01*
X143374113Y-114009091D01*
X143370302Y-114015372D01*
X143245507Y-114260297D01*
X143242666Y-114267072D01*
X143155443Y-114527752D01*
X143153635Y-114534873D01*
X143105901Y-114805582D01*
X143105165Y-114812892D01*
X143097970Y-115087684D01*
X105132918Y-115087684D01*
X105132918Y-113945137D01*
X105131965Y-113935456D01*
X105113592Y-113843087D01*
X105106129Y-113825070D01*
X105051090Y-113742699D01*
X105037301Y-113728910D01*
X104954930Y-113673871D01*
X104936913Y-113666408D01*
X104844544Y-113648035D01*
X104834863Y-113647082D01*
X103125137Y-113647082D01*
X103115456Y-113648035D01*
X103023087Y-113666408D01*
X103005070Y-113673871D01*
X102922699Y-113728910D01*
X102908910Y-113742699D01*
X102853871Y-113825070D01*
X102846408Y-113843087D01*
X102828035Y-113935456D01*
X102827082Y-113945137D01*
X102210436Y-113945137D01*
X102179369Y-113913853D01*
X102171907Y-113907680D01*
X101993168Y-113787118D01*
X101984650Y-113782512D01*
X101785896Y-113698964D01*
X101776646Y-113696101D01*
X101565450Y-113652748D01*
X101555819Y-113651736D01*
X101340224Y-113650231D01*
X101330580Y-113651108D01*
X101118800Y-113691508D01*
X101109510Y-113694242D01*
X100909611Y-113775007D01*
X100901029Y-113779493D01*
X100720623Y-113897548D01*
X100713076Y-113903616D01*
X100559036Y-114054463D01*
X100552811Y-114061881D01*
X100431004Y-114239774D01*
X100426339Y-114248261D01*
X100341406Y-114446426D01*
X100338478Y-114455656D01*
X100293652Y-114666544D01*
X100292572Y-114676167D01*
X100289562Y-114891746D01*
X100046335Y-114891746D01*
X100049108Y-114693237D01*
X100048167Y-114682902D01*
X100006223Y-114471069D01*
X100003424Y-114461798D01*
X99921265Y-114262467D01*
X99916719Y-114253917D01*
X99797408Y-114074340D01*
X99791287Y-114066836D01*
X99639369Y-113913853D01*
X99631907Y-113907680D01*
X99453168Y-113787118D01*
X99444650Y-113782512D01*
X99245896Y-113698964D01*
X99236646Y-113696101D01*
X99025450Y-113652748D01*
X99015819Y-113651736D01*
X98800224Y-113650231D01*
X98790580Y-113651108D01*
X98578800Y-113691508D01*
X98569510Y-113694242D01*
X98369611Y-113775007D01*
X98361029Y-113779493D01*
X98180623Y-113897548D01*
X98173076Y-113903616D01*
X98019036Y-114054463D01*
X98012811Y-114061881D01*
X97891004Y-114239774D01*
X97886339Y-114248261D01*
X97801406Y-114446426D01*
X97798478Y-114455656D01*
X97753652Y-114666544D01*
X97752572Y-114676167D01*
X97749562Y-114891746D01*
X97506335Y-114891746D01*
X97509108Y-114693237D01*
X97508167Y-114682902D01*
X97466223Y-114471069D01*
X97463424Y-114461798D01*
X97381265Y-114262467D01*
X97376719Y-114253917D01*
X97257408Y-114074340D01*
X97251287Y-114066836D01*
X97099369Y-113913853D01*
X97091907Y-113907680D01*
X96913168Y-113787118D01*
X96904650Y-113782512D01*
X96705896Y-113698964D01*
X96696646Y-113696101D01*
X96485450Y-113652748D01*
X96475819Y-113651736D01*
X96260224Y-113650231D01*
X96250580Y-113651108D01*
X96038800Y-113691508D01*
X96029510Y-113694242D01*
X95829611Y-113775007D01*
X95821029Y-113779493D01*
X95640623Y-113897548D01*
X95633076Y-113903616D01*
X95479036Y-114054463D01*
X95472811Y-114061881D01*
X95351004Y-114239774D01*
X95346339Y-114248261D01*
X95261406Y-114446426D01*
X95258478Y-114455656D01*
X95213652Y-114666544D01*
X95212572Y-114676167D01*
X95209562Y-114891746D01*
X94966335Y-114891746D01*
X94969108Y-114693237D01*
X94968167Y-114682902D01*
X94926223Y-114471069D01*
X94923424Y-114461798D01*
X94841265Y-114262467D01*
X94836719Y-114253917D01*
X94717408Y-114074340D01*
X94711287Y-114066836D01*
X94559369Y-113913853D01*
X94551907Y-113907680D01*
X94373168Y-113787118D01*
X94364650Y-113782512D01*
X94165896Y-113698964D01*
X94156646Y-113696101D01*
X93945450Y-113652748D01*
X93935819Y-113651736D01*
X93720224Y-113650231D01*
X93710580Y-113651108D01*
X93498800Y-113691508D01*
X93489510Y-113694242D01*
X93289611Y-113775007D01*
X93281029Y-113779493D01*
X93100623Y-113897548D01*
X93093076Y-113903616D01*
X92939036Y-114054463D01*
X92932811Y-114061881D01*
X92811004Y-114239774D01*
X92806339Y-114248261D01*
X92721406Y-114446426D01*
X92718478Y-114455656D01*
X92673652Y-114666544D01*
X92672572Y-114676167D01*
X92669562Y-114891746D01*
X89898448Y-114891746D01*
X89899162Y-114864501D01*
X89898634Y-114855873D01*
X89857909Y-114583365D01*
X89856287Y-114576199D01*
X89775918Y-114313324D01*
X89773255Y-114306477D01*
X89654915Y-114058370D01*
X89651269Y-114051991D01*
X89497555Y-113824101D01*
X89493006Y-113818331D01*
X89307297Y-113615664D01*
X89301945Y-113610630D01*
X89088319Y-113437640D01*
X89082282Y-113433452D01*
X88845433Y-113293937D01*
X88838844Y-113290688D01*
X88583974Y-113187714D01*
X88576977Y-113185474D01*
X88309687Y-113121303D01*
X88302436Y-113120122D01*
X88028596Y-113096165D01*
X88021250Y-113096068D01*
X87746878Y-113112849D01*
X87739598Y-113113840D01*
X87470718Y-113170992D01*
X87463665Y-113173048D01*
X87206188Y-113269315D01*
X87199516Y-113272391D01*
X86959096Y-113405658D01*
X86952952Y-113409686D01*
X86734870Y-113577025D01*
X86729389Y-113581917D01*
X86538437Y-113779654D01*
X86533740Y-113785303D01*
X86374113Y-114009091D01*
X86370302Y-114015372D01*
X86245507Y-114260297D01*
X86242666Y-114267072D01*
X86155443Y-114527752D01*
X86153635Y-114534873D01*
X86105901Y-114805582D01*
X86105165Y-114812892D01*
X86097970Y-115087684D01*
X85299000Y-115087684D01*
X85299000Y-112299000D01*
X147701001Y-112299000D01*
X147701000Y-142701000D01*
M02*
