G04 #@! TF.GenerationSoftware,KiCad,Pcbnew,5.99.0-unknown-acdfeee~88~ubuntu18.04.1*
G04 #@! TF.CreationDate,2020-05-13T21:49:14+03:00*
G04 #@! TF.ProjectId,LoRaNode,4c6f5261-4e6f-4646-952e-6b696361645f,1.1*
G04 #@! TF.SameCoordinates,Original*
G04 #@! TF.FileFunction,Copper,L2,Inr*
G04 #@! TF.FilePolarity,Positive*
%FSLAX46Y46*%
G04 Gerber Fmt 4.6, Leading zero omitted, Abs format (unit mm)*
G04 Created by KiCad (PCBNEW 5.99.0-unknown-acdfeee~88~ubuntu18.04.1) date 2020-05-13 21:49:14*
%MOMM*%
%LPD*%
G01*
G04 APERTURE LIST*
G04 #@! TA.AperFunction,ViaPad*
%ADD10R,1.700000X1.700000*%
G04 #@! TD*
G04 #@! TA.AperFunction,ViaPad*
%ADD11O,1.700000X1.700000*%
G04 #@! TD*
G04 #@! TA.AperFunction,ViaPad*
%ADD12O,1.998980X1.998980*%
G04 #@! TD*
G04 #@! TA.AperFunction,ViaPad*
%ADD13R,1.998980X1.998980*%
G04 #@! TD*
G04 #@! TA.AperFunction,ViaPad*
%ADD14O,1.800000X1.100000*%
G04 #@! TD*
G04 #@! TA.AperFunction,ViaPad*
%ADD15O,2.200000X1.100000*%
G04 #@! TD*
G04 #@! TA.AperFunction,ViaPad*
%ADD16C,0.800000*%
G04 #@! TD*
G04 #@! TA.AperFunction,Conductor*
%ADD17C,0.254000*%
G04 #@! TD*
G04 APERTURE END LIST*
D10*
X103980000Y-114800000D03*
D11*
X101440000Y-114800000D03*
X98900000Y-114800000D03*
X96360000Y-114800000D03*
X93820000Y-114800000D03*
D12*
X130120000Y-139600000D03*
D13*
X127580000Y-139600000D03*
D12*
X125040000Y-139600000D03*
D13*
X117420000Y-139600000D03*
D12*
X119960000Y-139600000D03*
X122500000Y-139600000D03*
X114880000Y-139600000D03*
D13*
X107260000Y-139600000D03*
D12*
X109800000Y-139600000D03*
X112340000Y-139600000D03*
D14*
X134500000Y-139150000D03*
X140100000Y-139150000D03*
D15*
X137300000Y-141300000D03*
D16*
X101400000Y-142400000D03*
X101400000Y-140600000D03*
X101400000Y-139600000D03*
X101400000Y-138600000D03*
X101400000Y-137600000D03*
X100400000Y-137600000D03*
X99400000Y-137600000D03*
X92500000Y-140600000D03*
X92500000Y-139600000D03*
X92500000Y-138600000D03*
X92500000Y-137600000D03*
X93500000Y-137600000D03*
X94500000Y-137600000D03*
X110800000Y-126000000D03*
X105199990Y-124500000D03*
X103900000Y-119200000D03*
X98400000Y-137200000D03*
X98400000Y-136100000D03*
X98400000Y-135100000D03*
X98400000Y-134100000D03*
X95600000Y-137200000D03*
X95600000Y-136100000D03*
X95600000Y-135100000D03*
X95600000Y-134100000D03*
X98400000Y-138400000D03*
X98400000Y-139400000D03*
X98400000Y-140400000D03*
X98400000Y-141400000D03*
X98400000Y-142400000D03*
X95600000Y-138400000D03*
X95600000Y-139400000D03*
X95600000Y-140400000D03*
X95600000Y-141400000D03*
X95600000Y-142400000D03*
X92600000Y-142400000D03*
X91000000Y-117000000D03*
X86000000Y-113000000D03*
X86000000Y-118000000D03*
X86000000Y-120000000D03*
X86000000Y-124000000D03*
X86000000Y-126000000D03*
X86000000Y-128000000D03*
X87297038Y-130909703D03*
X85800000Y-134900000D03*
X86000000Y-138000000D03*
X91000000Y-142000000D03*
X107000000Y-142000000D03*
X109000000Y-142000000D03*
X111000000Y-142000000D03*
X113000000Y-142000000D03*
X115000000Y-142000000D03*
X117000000Y-142000000D03*
X119000000Y-142000000D03*
X121000000Y-142000000D03*
X123000000Y-142000000D03*
X125000000Y-142000000D03*
X127000000Y-142000000D03*
X131000000Y-142000000D03*
X129000000Y-142000000D03*
X133000000Y-142000000D03*
X135000000Y-142000000D03*
X139000000Y-142000000D03*
X141000000Y-142000000D03*
X143000000Y-142000000D03*
X147000000Y-138000000D03*
X147000000Y-142000000D03*
X147000000Y-136000000D03*
X147000000Y-134000000D03*
X147000000Y-132000000D03*
X147000000Y-130000000D03*
X147000000Y-128000000D03*
X147000000Y-126000000D03*
X147000000Y-124000000D03*
X147000000Y-122000000D03*
X147000000Y-120000000D03*
X147000000Y-118000000D03*
X147000000Y-113000000D03*
X142000000Y-113000000D03*
X138000000Y-113000000D03*
X133000000Y-113000000D03*
X131000000Y-113000000D03*
X129000000Y-113000000D03*
X127000000Y-113000000D03*
X125000000Y-113000000D03*
X123000000Y-113000000D03*
X121000000Y-113000000D03*
X119000000Y-113000000D03*
X117000000Y-113000000D03*
X115000000Y-113000000D03*
X113000000Y-113000000D03*
X111000000Y-113000000D03*
X109000000Y-113000000D03*
X107000000Y-113000000D03*
X105000000Y-113000000D03*
X103000000Y-113000000D03*
X101000000Y-113000000D03*
X99000000Y-113000000D03*
X97000000Y-113000000D03*
X95000000Y-113000000D03*
X93000000Y-113000000D03*
X91000000Y-113000000D03*
X113900000Y-125300000D03*
X117800000Y-127500000D03*
X106300000Y-120400000D03*
X108100000Y-118600000D03*
X105000000Y-122200000D03*
X104200000Y-121500000D03*
X105200000Y-125700000D03*
X138300000Y-126800000D03*
X134000000Y-126100000D03*
X110300000Y-121900000D03*
X109100000Y-122700010D03*
X137300009Y-135773539D03*
X92043750Y-118812500D03*
X90200000Y-133100000D03*
X90730000Y-135435000D03*
X88500000Y-118800000D03*
X93500000Y-121200000D03*
X119900000Y-124100000D03*
X112600000Y-124500000D03*
X116000000Y-127500000D03*
X106400000Y-133600000D03*
X103000000Y-131700000D03*
X122000000Y-131700000D03*
X120800000Y-131700000D03*
X104200000Y-131700000D03*
X116300000Y-131100000D03*
X117800000Y-131100000D03*
X120600000Y-136500000D03*
X106500000Y-135700000D03*
X112500000Y-133900000D03*
X111000000Y-137800000D03*
X111000000Y-136700000D03*
X98200000Y-131700000D03*
X95700000Y-131700000D03*
X92500000Y-131900000D03*
X93600000Y-129600000D03*
X108500000Y-121100000D03*
X108500000Y-119900000D03*
X106400000Y-129500000D03*
X110100000Y-128300000D03*
X109200000Y-131000000D03*
X131565485Y-130250010D03*
X134650000Y-129150000D03*
X109200000Y-125800021D03*
X102600000Y-140900000D03*
X128400000Y-132700000D03*
X128400000Y-131900000D03*
X127600000Y-132300000D03*
X127600000Y-131500000D03*
X133800000Y-131600000D03*
X134200000Y-130400000D03*
X131600000Y-131000000D03*
G36*
X147366000Y-142366000D02*
G01*
X138367224Y-142366000D01*
X138502915Y-142293852D01*
X138513181Y-142287032D01*
X138683521Y-142148106D01*
X138692266Y-142139422D01*
X138832379Y-141970056D01*
X138839271Y-141959838D01*
X138943817Y-141766483D01*
X138948593Y-141755121D01*
X139018138Y-141530459D01*
X138942599Y-141428000D01*
X135658742Y-141428000D01*
X135583150Y-141529046D01*
X135645159Y-141739738D01*
X135649776Y-141751165D01*
X135751613Y-141945962D01*
X135758362Y-141956275D01*
X135896096Y-142127580D01*
X135904719Y-142136385D01*
X136073102Y-142277677D01*
X136083272Y-142284640D01*
X136231266Y-142366000D01*
X127974476Y-142366000D01*
X128033844Y-142144438D01*
X128036000Y-142128062D01*
X128036000Y-141871938D01*
X128033844Y-141855562D01*
X127967554Y-141608165D01*
X127961233Y-141592905D01*
X127833171Y-141371095D01*
X127823116Y-141357991D01*
X127706452Y-141241327D01*
X128587748Y-141241327D01*
X128604124Y-141239171D01*
X128883349Y-141164353D01*
X128907829Y-141151610D01*
X129064080Y-141020500D01*
X129078251Y-141003611D01*
X129134775Y-140905709D01*
X129166785Y-140932569D01*
X129175035Y-140938432D01*
X129392098Y-141067828D01*
X129401180Y-141072297D01*
X129636141Y-141165325D01*
X129645820Y-141168284D01*
X129892631Y-141222548D01*
X129902659Y-141223922D01*
X130154970Y-141238029D01*
X130165089Y-141237782D01*
X130416411Y-141211367D01*
X130426360Y-141209505D01*
X130670225Y-141143247D01*
X130679747Y-141139819D01*
X130834675Y-141069541D01*
X135581862Y-141069541D01*
X135657401Y-141172000D01*
X137098191Y-141172000D01*
X137172000Y-141098191D01*
X137172000Y-140189809D01*
X137428000Y-140189809D01*
X137428000Y-141098191D01*
X137501809Y-141172000D01*
X138941258Y-141172000D01*
X139016850Y-141070954D01*
X138954841Y-140860262D01*
X138950224Y-140848835D01*
X138848387Y-140654038D01*
X138841638Y-140643725D01*
X138703904Y-140472420D01*
X138695281Y-140463615D01*
X138526898Y-140322323D01*
X138516728Y-140315360D01*
X138324108Y-140209467D01*
X138312780Y-140204611D01*
X138103050Y-140138081D01*
X138090554Y-140135470D01*
X137908592Y-140116345D01*
X137902002Y-140116000D01*
X137501809Y-140116000D01*
X137428000Y-140189809D01*
X137172000Y-140189809D01*
X137098191Y-140116000D01*
X136694714Y-140116000D01*
X136688562Y-140116301D01*
X136525077Y-140132331D01*
X136512987Y-140134725D01*
X136302559Y-140198257D01*
X136291165Y-140202954D01*
X136097085Y-140306148D01*
X136086819Y-140312968D01*
X135916479Y-140451894D01*
X135907734Y-140460578D01*
X135767621Y-140629944D01*
X135760729Y-140640162D01*
X135656183Y-140833517D01*
X135651407Y-140844879D01*
X135581862Y-141069541D01*
X130834675Y-141069541D01*
X130909883Y-141035426D01*
X130918735Y-141030519D01*
X131129220Y-140890672D01*
X131137173Y-140884413D01*
X131322592Y-140712715D01*
X131329443Y-140705264D01*
X131485024Y-140506130D01*
X131490596Y-140497680D01*
X131612338Y-140276231D01*
X131616487Y-140266999D01*
X131701257Y-140028935D01*
X131703876Y-140019159D01*
X131749555Y-139770280D01*
X131750589Y-139759547D01*
X131753572Y-139474636D01*
X131752763Y-139463885D01*
X131739023Y-139379046D01*
X132983150Y-139379046D01*
X133045159Y-139589738D01*
X133049776Y-139601165D01*
X133151613Y-139795962D01*
X133158362Y-139806275D01*
X133296096Y-139977580D01*
X133304719Y-139986385D01*
X133473102Y-140127677D01*
X133483272Y-140134640D01*
X133675892Y-140240533D01*
X133687220Y-140245389D01*
X133896950Y-140311919D01*
X133909446Y-140314530D01*
X134091408Y-140333655D01*
X134097998Y-140334000D01*
X134298191Y-140334000D01*
X134372000Y-140260191D01*
X134372000Y-139351809D01*
X134628000Y-139351809D01*
X134628000Y-140260191D01*
X134701809Y-140334000D01*
X134905286Y-140334000D01*
X134911438Y-140333699D01*
X135074923Y-140317669D01*
X135087013Y-140315275D01*
X135297441Y-140251743D01*
X135308835Y-140247046D01*
X135502915Y-140143852D01*
X135513181Y-140137032D01*
X135683521Y-139998106D01*
X135692266Y-139989422D01*
X135832379Y-139820056D01*
X135839271Y-139809838D01*
X135943817Y-139616483D01*
X135948593Y-139605121D01*
X136018138Y-139380459D01*
X136017097Y-139379046D01*
X138583150Y-139379046D01*
X138645159Y-139589738D01*
X138649776Y-139601165D01*
X138751613Y-139795962D01*
X138758362Y-139806275D01*
X138896096Y-139977580D01*
X138904719Y-139986385D01*
X139073102Y-140127677D01*
X139083272Y-140134640D01*
X139275892Y-140240533D01*
X139287220Y-140245389D01*
X139496950Y-140311919D01*
X139509446Y-140314530D01*
X139691408Y-140333655D01*
X139697998Y-140334000D01*
X139898191Y-140334000D01*
X139972000Y-140260191D01*
X139972000Y-139351809D01*
X140228000Y-139351809D01*
X140228000Y-140260191D01*
X140301809Y-140334000D01*
X140505286Y-140334000D01*
X140511438Y-140333699D01*
X140674923Y-140317669D01*
X140687013Y-140315275D01*
X140897441Y-140251743D01*
X140908835Y-140247046D01*
X141102915Y-140143852D01*
X141113181Y-140137032D01*
X141251038Y-140024598D01*
X142764541Y-140024598D01*
X142765035Y-140033164D01*
X142802133Y-140326832D01*
X142803785Y-140335252D01*
X142880397Y-140621168D01*
X142883176Y-140629285D01*
X142997881Y-140902159D01*
X143001736Y-140909824D01*
X143152413Y-141164606D01*
X143157273Y-141171677D01*
X143341134Y-141403652D01*
X143346909Y-141409998D01*
X143560551Y-141614873D01*
X143567133Y-141620377D01*
X143806605Y-141794363D01*
X143813873Y-141798922D01*
X144074740Y-141938798D01*
X144082560Y-141942329D01*
X144359998Y-142045507D01*
X144368224Y-142047944D01*
X144657098Y-142112514D01*
X144665579Y-142113812D01*
X144960543Y-142138581D01*
X144969122Y-142138716D01*
X145264718Y-142123225D01*
X145273236Y-142122194D01*
X145563996Y-142066728D01*
X145572295Y-142064551D01*
X145852836Y-141970138D01*
X145860762Y-141966855D01*
X146125895Y-141835242D01*
X146133303Y-141830914D01*
X146378121Y-141664536D01*
X146384873Y-141659242D01*
X146604846Y-141461178D01*
X146610816Y-141455016D01*
X146801873Y-141228930D01*
X146806953Y-141222015D01*
X146965559Y-140972093D01*
X146969653Y-140964553D01*
X147092873Y-140695417D01*
X147095905Y-140687391D01*
X147181459Y-140404022D01*
X147183375Y-140395659D01*
X147229731Y-140102974D01*
X147230505Y-140093766D01*
X147234073Y-139752988D01*
X147233493Y-139743766D01*
X147193276Y-139450176D01*
X147191536Y-139441774D01*
X147111936Y-139156675D01*
X147109072Y-139148588D01*
X146991515Y-138876930D01*
X146987580Y-138869306D01*
X146834243Y-138616116D01*
X146829309Y-138609096D01*
X146643029Y-138379060D01*
X146637188Y-138372775D01*
X146421412Y-138170147D01*
X146414772Y-138164713D01*
X146173493Y-137993244D01*
X146166177Y-137988761D01*
X145903859Y-137851625D01*
X145896003Y-137848176D01*
X145617500Y-137747909D01*
X145609248Y-137745558D01*
X145319715Y-137684016D01*
X145311220Y-137682807D01*
X145016013Y-137661128D01*
X145007433Y-137661083D01*
X144712015Y-137679669D01*
X144703508Y-137680789D01*
X144413346Y-137739297D01*
X144405070Y-137741561D01*
X144125533Y-137838905D01*
X144117641Y-137842272D01*
X143853901Y-137976654D01*
X143846539Y-137981060D01*
X143603476Y-138149992D01*
X143596781Y-138155357D01*
X143378894Y-138355713D01*
X143372988Y-138361937D01*
X143184309Y-138590011D01*
X143179302Y-138596979D01*
X143023323Y-138848549D01*
X143019308Y-138856131D01*
X142898912Y-139126543D01*
X142895964Y-139134601D01*
X142813382Y-139418850D01*
X142811554Y-139427233D01*
X142768313Y-139720059D01*
X142767640Y-139728613D01*
X142764541Y-140024598D01*
X141251038Y-140024598D01*
X141283521Y-139998106D01*
X141292266Y-139989422D01*
X141432379Y-139820056D01*
X141439271Y-139809838D01*
X141543817Y-139616483D01*
X141548593Y-139605121D01*
X141618138Y-139380459D01*
X141542599Y-139278000D01*
X140301809Y-139278000D01*
X140228000Y-139351809D01*
X139972000Y-139351809D01*
X139898191Y-139278000D01*
X138658742Y-139278000D01*
X138583150Y-139379046D01*
X136017097Y-139379046D01*
X135942599Y-139278000D01*
X134701809Y-139278000D01*
X134628000Y-139351809D01*
X134372000Y-139351809D01*
X134298191Y-139278000D01*
X133058742Y-139278000D01*
X132983150Y-139379046D01*
X131739023Y-139379046D01*
X131712308Y-139214103D01*
X131709894Y-139204273D01*
X131630127Y-138964487D01*
X131626172Y-138955170D01*
X131607546Y-138919541D01*
X132981862Y-138919541D01*
X133057401Y-139022000D01*
X134298191Y-139022000D01*
X134372000Y-138948191D01*
X134372000Y-138039809D01*
X134628000Y-138039809D01*
X134628000Y-138948191D01*
X134701809Y-139022000D01*
X135941258Y-139022000D01*
X136016850Y-138920954D01*
X136016435Y-138919541D01*
X138581862Y-138919541D01*
X138657401Y-139022000D01*
X139898191Y-139022000D01*
X139972000Y-138948191D01*
X139972000Y-138039809D01*
X140228000Y-138039809D01*
X140228000Y-138948191D01*
X140301809Y-139022000D01*
X141541258Y-139022000D01*
X141616850Y-138920954D01*
X141554841Y-138710262D01*
X141550224Y-138698835D01*
X141448387Y-138504038D01*
X141441638Y-138493725D01*
X141303904Y-138322420D01*
X141295281Y-138313615D01*
X141126898Y-138172323D01*
X141116728Y-138165360D01*
X140924108Y-138059467D01*
X140912780Y-138054611D01*
X140703050Y-137988081D01*
X140690554Y-137985470D01*
X140508592Y-137966345D01*
X140502002Y-137966000D01*
X140301809Y-137966000D01*
X140228000Y-138039809D01*
X139972000Y-138039809D01*
X139898191Y-137966000D01*
X139694714Y-137966000D01*
X139688562Y-137966301D01*
X139525077Y-137982331D01*
X139512987Y-137984725D01*
X139302559Y-138048257D01*
X139291165Y-138052954D01*
X139097085Y-138156148D01*
X139086819Y-138162968D01*
X138916479Y-138301894D01*
X138907734Y-138310578D01*
X138767621Y-138479944D01*
X138760729Y-138490162D01*
X138656183Y-138683517D01*
X138651407Y-138694879D01*
X138581862Y-138919541D01*
X136016435Y-138919541D01*
X135954841Y-138710262D01*
X135950224Y-138698835D01*
X135848387Y-138504038D01*
X135841638Y-138493725D01*
X135703904Y-138322420D01*
X135695281Y-138313615D01*
X135526898Y-138172323D01*
X135516728Y-138165360D01*
X135324108Y-138059467D01*
X135312780Y-138054611D01*
X135103050Y-137988081D01*
X135090554Y-137985470D01*
X134908592Y-137966345D01*
X134902002Y-137966000D01*
X134701809Y-137966000D01*
X134628000Y-138039809D01*
X134372000Y-138039809D01*
X134298191Y-137966000D01*
X134094714Y-137966000D01*
X134088562Y-137966301D01*
X133925077Y-137982331D01*
X133912987Y-137984725D01*
X133702559Y-138048257D01*
X133691165Y-138052954D01*
X133497085Y-138156148D01*
X133486819Y-138162968D01*
X133316479Y-138301894D01*
X133307734Y-138310578D01*
X133167621Y-138479944D01*
X133160729Y-138490162D01*
X133056183Y-138683517D01*
X133051407Y-138694879D01*
X132981862Y-138919541D01*
X131607546Y-138919541D01*
X131509094Y-138731221D01*
X131503701Y-138722656D01*
X131352324Y-138520307D01*
X131345631Y-138512715D01*
X131163850Y-138337170D01*
X131156028Y-138330745D01*
X130948518Y-138186523D01*
X130939771Y-138181432D01*
X130711873Y-138072241D01*
X130702424Y-138068614D01*
X130459999Y-137997265D01*
X130450092Y-137995195D01*
X130199378Y-137963522D01*
X130189267Y-137963063D01*
X129936715Y-137971882D01*
X129926661Y-137973046D01*
X129678767Y-138022130D01*
X129669028Y-138024886D01*
X129432171Y-138112973D01*
X129422999Y-138117250D01*
X129203271Y-138242071D01*
X129194900Y-138247760D01*
X129141325Y-138290836D01*
X129131610Y-138272172D01*
X129000500Y-138115920D01*
X128983611Y-138101749D01*
X128809370Y-138001151D01*
X128788653Y-137993610D01*
X128595952Y-137959632D01*
X128584991Y-137958673D01*
X127781809Y-137958673D01*
X127708000Y-138032482D01*
X127708000Y-139728000D01*
X126032510Y-139728000D01*
X125241809Y-139727999D01*
X125168000Y-139801808D01*
X125167999Y-141145228D01*
X125251377Y-141220303D01*
X125336409Y-141211367D01*
X125346359Y-141209505D01*
X125590225Y-141143247D01*
X125599747Y-141139819D01*
X125829883Y-141035426D01*
X125838735Y-141030519D01*
X126019371Y-140910504D01*
X126028390Y-140927829D01*
X126159500Y-141084080D01*
X126176389Y-141098251D01*
X126341371Y-141193504D01*
X126176884Y-141357991D01*
X126166829Y-141371095D01*
X126038767Y-141592905D01*
X126032446Y-141608165D01*
X125966156Y-141855562D01*
X125964000Y-141871938D01*
X125964000Y-142128062D01*
X125966156Y-142144438D01*
X126025524Y-142366000D01*
X85634000Y-142366000D01*
X85634000Y-140024598D01*
X85764541Y-140024598D01*
X85765035Y-140033164D01*
X85802133Y-140326832D01*
X85803785Y-140335252D01*
X85880397Y-140621168D01*
X85883176Y-140629285D01*
X85997881Y-140902159D01*
X86001736Y-140909824D01*
X86152413Y-141164606D01*
X86157273Y-141171677D01*
X86341134Y-141403652D01*
X86346909Y-141409998D01*
X86560551Y-141614873D01*
X86567133Y-141620377D01*
X86806605Y-141794363D01*
X86813873Y-141798922D01*
X87074740Y-141938798D01*
X87082560Y-141942329D01*
X87359998Y-142045507D01*
X87368224Y-142047944D01*
X87657098Y-142112514D01*
X87665579Y-142113812D01*
X87960543Y-142138581D01*
X87969122Y-142138716D01*
X88264718Y-142123225D01*
X88273236Y-142122194D01*
X88563996Y-142066728D01*
X88572295Y-142064551D01*
X88852836Y-141970138D01*
X88860762Y-141966855D01*
X89125895Y-141835242D01*
X89133303Y-141830914D01*
X89378121Y-141664536D01*
X89384873Y-141659242D01*
X89604846Y-141461178D01*
X89610816Y-141455016D01*
X89801873Y-141228930D01*
X89806953Y-141222015D01*
X89965559Y-140972093D01*
X89969653Y-140964553D01*
X90057838Y-140771938D01*
X101564000Y-140771938D01*
X101564000Y-141028062D01*
X101566156Y-141044438D01*
X101632446Y-141291835D01*
X101638767Y-141307095D01*
X101766829Y-141528905D01*
X101776884Y-141542009D01*
X101957991Y-141723116D01*
X101971095Y-141733171D01*
X102192905Y-141861233D01*
X102208165Y-141867554D01*
X102455562Y-141933844D01*
X102471938Y-141936000D01*
X102728062Y-141936000D01*
X102744438Y-141933844D01*
X102991835Y-141867554D01*
X103007095Y-141861233D01*
X103228905Y-141733171D01*
X103242009Y-141723116D01*
X103423116Y-141542009D01*
X103433171Y-141528905D01*
X103561233Y-141307095D01*
X103567554Y-141291835D01*
X103633844Y-141044438D01*
X103636000Y-141028062D01*
X103636000Y-140771938D01*
X103633844Y-140755562D01*
X103567554Y-140508165D01*
X103561233Y-140492905D01*
X103433171Y-140271095D01*
X103423116Y-140257991D01*
X103242009Y-140076884D01*
X103228905Y-140066829D01*
X103007095Y-139938767D01*
X102991835Y-139932446D01*
X102744438Y-139866156D01*
X102728062Y-139864000D01*
X102471938Y-139864000D01*
X102455562Y-139866156D01*
X102208165Y-139932446D01*
X102192905Y-139938767D01*
X101971095Y-140066829D01*
X101957991Y-140076884D01*
X101776884Y-140257991D01*
X101766829Y-140271095D01*
X101638767Y-140492905D01*
X101632446Y-140508165D01*
X101566156Y-140755562D01*
X101564000Y-140771938D01*
X90057838Y-140771938D01*
X90092873Y-140695417D01*
X90095905Y-140687391D01*
X90181459Y-140404022D01*
X90183375Y-140395659D01*
X90229731Y-140102974D01*
X90230505Y-140093766D01*
X90234073Y-139752988D01*
X90233493Y-139743766D01*
X90193276Y-139450176D01*
X90191536Y-139441774D01*
X90111936Y-139156675D01*
X90109072Y-139148588D01*
X89991515Y-138876930D01*
X89987580Y-138869306D01*
X89834243Y-138616116D01*
X89829309Y-138609096D01*
X89817902Y-138595009D01*
X105618673Y-138595009D01*
X105618673Y-140607748D01*
X105620829Y-140624124D01*
X105695647Y-140903349D01*
X105708390Y-140927829D01*
X105839500Y-141084080D01*
X105856389Y-141098251D01*
X106030630Y-141198849D01*
X106051347Y-141206390D01*
X106244048Y-141240368D01*
X106255009Y-141241327D01*
X108267748Y-141241327D01*
X108284124Y-141239171D01*
X108563349Y-141164353D01*
X108587829Y-141151610D01*
X108744080Y-141020500D01*
X108758251Y-141003611D01*
X108814775Y-140905709D01*
X108846785Y-140932569D01*
X108855035Y-140938432D01*
X109072098Y-141067828D01*
X109081180Y-141072297D01*
X109316141Y-141165325D01*
X109325820Y-141168284D01*
X109572631Y-141222548D01*
X109582659Y-141223922D01*
X109834970Y-141238029D01*
X109845089Y-141237782D01*
X110096411Y-141211367D01*
X110106360Y-141209505D01*
X110350225Y-141143247D01*
X110359747Y-141139819D01*
X110589883Y-141035426D01*
X110598735Y-141030519D01*
X110809220Y-140890672D01*
X110817173Y-140884413D01*
X111002592Y-140712715D01*
X111009443Y-140705264D01*
X111069634Y-140628222D01*
X111185993Y-140763026D01*
X111193200Y-140770133D01*
X111386785Y-140932569D01*
X111395035Y-140938432D01*
X111612098Y-141067828D01*
X111621180Y-141072297D01*
X111856141Y-141165325D01*
X111865820Y-141168284D01*
X112112631Y-141222548D01*
X112122659Y-141223922D01*
X112374970Y-141238029D01*
X112385089Y-141237782D01*
X112636411Y-141211367D01*
X112646360Y-141209505D01*
X112890225Y-141143247D01*
X112899747Y-141139819D01*
X113129883Y-141035426D01*
X113138735Y-141030519D01*
X113349220Y-140890672D01*
X113357173Y-140884413D01*
X113542592Y-140712715D01*
X113549443Y-140705264D01*
X113609634Y-140628222D01*
X113725993Y-140763026D01*
X113733200Y-140770133D01*
X113926785Y-140932569D01*
X113935035Y-140938432D01*
X114152098Y-141067828D01*
X114161180Y-141072297D01*
X114396141Y-141165325D01*
X114405820Y-141168284D01*
X114657904Y-141223708D01*
X114752000Y-141148053D01*
X114752001Y-139801808D01*
X114752000Y-139801807D01*
X114752000Y-139398192D01*
X115007999Y-139398192D01*
X115008000Y-139398193D01*
X115007999Y-141145228D01*
X115091377Y-141220303D01*
X115176409Y-141211367D01*
X115186359Y-141209505D01*
X115430225Y-141143247D01*
X115439747Y-141139819D01*
X115669883Y-141035426D01*
X115678735Y-141030519D01*
X115859371Y-140910504D01*
X115868390Y-140927829D01*
X115999500Y-141084080D01*
X116016389Y-141098251D01*
X116190630Y-141198849D01*
X116211347Y-141206390D01*
X116404048Y-141240368D01*
X116415009Y-141241327D01*
X118427748Y-141241327D01*
X118444124Y-141239171D01*
X118723349Y-141164353D01*
X118747829Y-141151610D01*
X118904080Y-141020500D01*
X118918251Y-141003611D01*
X118974775Y-140905709D01*
X119006785Y-140932569D01*
X119015035Y-140938432D01*
X119232098Y-141067828D01*
X119241180Y-141072297D01*
X119476141Y-141165325D01*
X119485820Y-141168284D01*
X119732631Y-141222548D01*
X119742659Y-141223922D01*
X119994970Y-141238029D01*
X120005089Y-141237782D01*
X120256411Y-141211367D01*
X120266360Y-141209505D01*
X120510225Y-141143247D01*
X120519747Y-141139819D01*
X120749883Y-141035426D01*
X120758735Y-141030519D01*
X120969220Y-140890672D01*
X120977173Y-140884413D01*
X121162592Y-140712715D01*
X121169443Y-140705264D01*
X121229634Y-140628222D01*
X121345993Y-140763026D01*
X121353200Y-140770133D01*
X121546785Y-140932569D01*
X121555035Y-140938432D01*
X121772098Y-141067828D01*
X121781180Y-141072297D01*
X122016141Y-141165325D01*
X122025820Y-141168284D01*
X122272631Y-141222548D01*
X122282659Y-141223922D01*
X122534970Y-141238029D01*
X122545089Y-141237782D01*
X122796411Y-141211367D01*
X122806360Y-141209505D01*
X123050225Y-141143247D01*
X123059747Y-141139819D01*
X123289883Y-141035426D01*
X123298735Y-141030519D01*
X123509220Y-140890672D01*
X123517173Y-140884413D01*
X123702592Y-140712715D01*
X123709443Y-140705264D01*
X123769634Y-140628222D01*
X123885993Y-140763026D01*
X123893200Y-140770133D01*
X124086785Y-140932569D01*
X124095035Y-140938432D01*
X124312098Y-141067828D01*
X124321180Y-141072297D01*
X124556141Y-141165325D01*
X124565820Y-141168284D01*
X124817904Y-141223708D01*
X124912000Y-141148053D01*
X124912001Y-139801808D01*
X124912000Y-139801807D01*
X124912000Y-139398191D01*
X125167999Y-139398191D01*
X125241808Y-139472000D01*
X126084701Y-139472001D01*
X126084702Y-139472000D01*
X127378191Y-139472000D01*
X127452000Y-139398191D01*
X127452000Y-138032482D01*
X127378191Y-137958673D01*
X126572252Y-137958673D01*
X126555876Y-137960829D01*
X126276652Y-138035647D01*
X126252172Y-138048390D01*
X126095920Y-138179500D01*
X126081749Y-138196389D01*
X126024753Y-138295108D01*
X125868518Y-138186523D01*
X125859771Y-138181432D01*
X125631873Y-138072241D01*
X125622424Y-138068614D01*
X125379999Y-137997265D01*
X125370091Y-137995195D01*
X125253349Y-137980447D01*
X125168000Y-138055693D01*
X125167999Y-139398191D01*
X124912000Y-139398191D01*
X124912001Y-138053943D01*
X124819953Y-137978334D01*
X124598767Y-138022130D01*
X124589028Y-138024886D01*
X124352171Y-138112973D01*
X124342999Y-138117250D01*
X124123271Y-138242071D01*
X124114900Y-138247760D01*
X123917957Y-138406108D01*
X123910603Y-138413062D01*
X123769406Y-138569876D01*
X123732324Y-138520307D01*
X123725631Y-138512715D01*
X123543850Y-138337170D01*
X123536028Y-138330745D01*
X123328518Y-138186523D01*
X123319771Y-138181432D01*
X123091873Y-138072241D01*
X123082424Y-138068614D01*
X122839999Y-137997265D01*
X122830092Y-137995195D01*
X122579378Y-137963522D01*
X122569267Y-137963063D01*
X122316715Y-137971882D01*
X122306661Y-137973046D01*
X122058767Y-138022130D01*
X122049028Y-138024886D01*
X121812171Y-138112973D01*
X121802999Y-138117250D01*
X121583271Y-138242071D01*
X121574900Y-138247760D01*
X121377957Y-138406108D01*
X121370603Y-138413062D01*
X121229406Y-138569876D01*
X121192324Y-138520307D01*
X121185631Y-138512715D01*
X121003850Y-138337170D01*
X120996028Y-138330745D01*
X120788518Y-138186523D01*
X120779771Y-138181432D01*
X120551873Y-138072241D01*
X120542424Y-138068614D01*
X120299999Y-137997265D01*
X120290092Y-137995195D01*
X120039378Y-137963522D01*
X120029267Y-137963063D01*
X119776715Y-137971882D01*
X119766661Y-137973046D01*
X119518767Y-138022130D01*
X119509028Y-138024886D01*
X119272171Y-138112973D01*
X119262999Y-138117250D01*
X119043271Y-138242071D01*
X119034900Y-138247760D01*
X118981325Y-138290836D01*
X118971610Y-138272172D01*
X118840500Y-138115920D01*
X118823611Y-138101749D01*
X118649370Y-138001151D01*
X118628653Y-137993610D01*
X118435952Y-137959632D01*
X118424991Y-137958673D01*
X116412252Y-137958673D01*
X116395876Y-137960829D01*
X116116652Y-138035647D01*
X116092172Y-138048390D01*
X115935920Y-138179500D01*
X115921749Y-138196389D01*
X115864753Y-138295108D01*
X115708518Y-138186523D01*
X115699771Y-138181432D01*
X115471873Y-138072241D01*
X115462424Y-138068614D01*
X115219999Y-137997265D01*
X115210091Y-137995195D01*
X115093349Y-137980447D01*
X115008000Y-138055693D01*
X115007999Y-139398192D01*
X114752000Y-139398192D01*
X114752001Y-138053943D01*
X114659953Y-137978334D01*
X114438767Y-138022130D01*
X114429028Y-138024886D01*
X114192171Y-138112973D01*
X114182999Y-138117250D01*
X113963271Y-138242071D01*
X113954900Y-138247760D01*
X113757957Y-138406108D01*
X113750603Y-138413062D01*
X113609406Y-138569876D01*
X113572324Y-138520307D01*
X113565631Y-138512715D01*
X113383850Y-138337170D01*
X113376028Y-138330745D01*
X113168518Y-138186523D01*
X113159771Y-138181432D01*
X112931873Y-138072241D01*
X112922424Y-138068614D01*
X112679999Y-137997265D01*
X112670092Y-137995195D01*
X112419378Y-137963522D01*
X112409267Y-137963063D01*
X112156715Y-137971882D01*
X112146661Y-137973046D01*
X111898767Y-138022130D01*
X111889028Y-138024886D01*
X111652171Y-138112973D01*
X111642999Y-138117250D01*
X111423271Y-138242071D01*
X111414900Y-138247760D01*
X111217957Y-138406108D01*
X111210603Y-138413062D01*
X111069406Y-138569876D01*
X111032324Y-138520307D01*
X111025631Y-138512715D01*
X110843850Y-138337170D01*
X110836028Y-138330745D01*
X110628518Y-138186523D01*
X110619771Y-138181432D01*
X110391873Y-138072241D01*
X110382424Y-138068614D01*
X110139999Y-137997265D01*
X110130092Y-137995195D01*
X109879378Y-137963522D01*
X109869267Y-137963063D01*
X109616715Y-137971882D01*
X109606661Y-137973046D01*
X109358767Y-138022130D01*
X109349028Y-138024886D01*
X109112171Y-138112973D01*
X109102999Y-138117250D01*
X108883271Y-138242071D01*
X108874900Y-138247760D01*
X108821325Y-138290836D01*
X108811610Y-138272172D01*
X108680500Y-138115920D01*
X108663611Y-138101749D01*
X108489370Y-138001151D01*
X108468653Y-137993610D01*
X108275952Y-137959632D01*
X108264991Y-137958673D01*
X106252252Y-137958673D01*
X106235876Y-137960829D01*
X105956652Y-138035647D01*
X105932172Y-138048390D01*
X105775920Y-138179500D01*
X105761749Y-138196389D01*
X105661151Y-138370630D01*
X105653610Y-138391347D01*
X105619632Y-138584048D01*
X105618673Y-138595009D01*
X89817902Y-138595009D01*
X89643029Y-138379060D01*
X89637188Y-138372775D01*
X89421412Y-138170147D01*
X89414772Y-138164713D01*
X89173493Y-137993244D01*
X89166177Y-137988761D01*
X88903859Y-137851625D01*
X88896003Y-137848176D01*
X88617500Y-137747909D01*
X88609248Y-137745558D01*
X88319715Y-137684016D01*
X88311220Y-137682807D01*
X88016013Y-137661128D01*
X88007433Y-137661083D01*
X87712015Y-137679669D01*
X87703508Y-137680789D01*
X87413346Y-137739297D01*
X87405070Y-137741561D01*
X87125533Y-137838905D01*
X87117641Y-137842272D01*
X86853901Y-137976654D01*
X86846539Y-137981060D01*
X86603476Y-138149992D01*
X86596781Y-138155357D01*
X86378894Y-138355713D01*
X86372988Y-138361937D01*
X86184309Y-138590011D01*
X86179302Y-138596979D01*
X86023323Y-138848549D01*
X86019308Y-138856131D01*
X85898912Y-139126543D01*
X85895964Y-139134601D01*
X85813382Y-139418850D01*
X85811554Y-139427233D01*
X85768313Y-139720059D01*
X85767640Y-139728613D01*
X85764541Y-140024598D01*
X85634000Y-140024598D01*
X85634000Y-133786601D01*
X85836572Y-133786601D01*
X85856701Y-133991888D01*
X85859224Y-134004402D01*
X85920220Y-134201448D01*
X85925208Y-134213198D01*
X86024579Y-134393954D01*
X86031828Y-134404462D01*
X86165517Y-134561546D01*
X86174731Y-134570382D01*
X86337275Y-134697374D01*
X86348077Y-134704176D01*
X86532836Y-134795893D01*
X86543780Y-134800006D01*
X86539909Y-134801430D01*
X86354514Y-134891853D01*
X86343665Y-134898580D01*
X86180239Y-135024435D01*
X86170963Y-135033206D01*
X86036182Y-135189352D01*
X86028860Y-135199809D01*
X85928229Y-135379868D01*
X85923159Y-135391583D01*
X85860789Y-135588198D01*
X85858178Y-135600694D01*
X85836617Y-135805835D01*
X85836572Y-135818601D01*
X85856701Y-136023888D01*
X85859224Y-136036402D01*
X85920220Y-136233448D01*
X85925208Y-136245198D01*
X86024579Y-136425954D01*
X86031828Y-136436462D01*
X86165517Y-136593546D01*
X86174731Y-136602382D01*
X86337275Y-136729374D01*
X86348077Y-136736176D01*
X86532836Y-136827893D01*
X86544786Y-136832384D01*
X86744213Y-136885075D01*
X86756822Y-136887072D01*
X86962771Y-136898586D01*
X86975523Y-136898007D01*
X87179581Y-136867875D01*
X87191957Y-136864743D01*
X87385788Y-136794194D01*
X87397281Y-136788638D01*
X87572968Y-136680555D01*
X87583109Y-136672802D01*
X87733474Y-136531600D01*
X87741849Y-136521965D01*
X87860751Y-136353412D01*
X87867017Y-136342290D01*
X87949597Y-136153271D01*
X87953500Y-136141116D01*
X87996409Y-135939246D01*
X87997789Y-135926333D01*
X87998533Y-135713194D01*
X87997243Y-135700271D01*
X87955744Y-135498106D01*
X87951927Y-135485925D01*
X87875213Y-135306938D01*
X89694000Y-135306938D01*
X89694000Y-135563062D01*
X89696156Y-135579438D01*
X89762446Y-135826835D01*
X89768767Y-135842095D01*
X89896829Y-136063905D01*
X89906884Y-136077009D01*
X90087991Y-136258116D01*
X90101095Y-136268171D01*
X90322905Y-136396233D01*
X90338165Y-136402554D01*
X90585562Y-136468844D01*
X90601938Y-136471000D01*
X90858062Y-136471000D01*
X90874438Y-136468844D01*
X91121835Y-136402554D01*
X91137095Y-136396233D01*
X91358905Y-136268171D01*
X91372009Y-136258116D01*
X91553116Y-136077009D01*
X91563171Y-136063905D01*
X91691233Y-135842095D01*
X91694278Y-135834745D01*
X91824213Y-135869075D01*
X91836822Y-135871072D01*
X92042771Y-135882586D01*
X92055523Y-135882007D01*
X92259581Y-135851875D01*
X92271957Y-135848743D01*
X92465788Y-135778194D01*
X92477281Y-135772638D01*
X92652968Y-135664555D01*
X92663109Y-135656802D01*
X92753480Y-135571938D01*
X105464000Y-135571938D01*
X105464000Y-135828062D01*
X105466156Y-135844438D01*
X105532446Y-136091835D01*
X105538767Y-136107095D01*
X105666829Y-136328905D01*
X105676884Y-136342009D01*
X105857991Y-136523116D01*
X105871095Y-136533171D01*
X106092905Y-136661233D01*
X106108165Y-136667554D01*
X106355562Y-136733844D01*
X106371938Y-136736000D01*
X106628062Y-136736000D01*
X106644438Y-136733844D01*
X106891835Y-136667554D01*
X106907095Y-136661233D01*
X107128905Y-136533171D01*
X107142009Y-136523116D01*
X107323116Y-136342009D01*
X107333171Y-136328905D01*
X107461233Y-136107095D01*
X107467554Y-136091835D01*
X107533844Y-135844438D01*
X107536000Y-135828062D01*
X107536000Y-135571938D01*
X107533844Y-135555562D01*
X107467554Y-135308165D01*
X107461233Y-135292905D01*
X107333171Y-135071095D01*
X107323116Y-135057991D01*
X107142009Y-134876884D01*
X107128905Y-134866829D01*
X106907095Y-134738767D01*
X106891835Y-134732446D01*
X106644438Y-134666156D01*
X106628062Y-134664000D01*
X106371938Y-134664000D01*
X106355562Y-134666156D01*
X106108165Y-134732446D01*
X106092905Y-134738767D01*
X105871095Y-134866829D01*
X105857991Y-134876884D01*
X105676884Y-135057991D01*
X105666829Y-135071095D01*
X105538767Y-135292905D01*
X105532446Y-135308165D01*
X105466156Y-135555562D01*
X105464000Y-135571938D01*
X92753480Y-135571938D01*
X92813474Y-135515600D01*
X92821849Y-135505965D01*
X92940751Y-135337412D01*
X92947017Y-135326290D01*
X93029597Y-135137271D01*
X93033500Y-135125116D01*
X93076409Y-134923246D01*
X93077789Y-134910333D01*
X93078533Y-134697194D01*
X93077243Y-134684271D01*
X93035744Y-134482106D01*
X93031927Y-134469925D01*
X92950668Y-134280334D01*
X92944479Y-134269168D01*
X92826757Y-134099790D01*
X92818450Y-134090097D01*
X92669075Y-133947849D01*
X92658988Y-133940024D01*
X92484060Y-133830717D01*
X92472605Y-133825081D01*
X92329706Y-133771938D01*
X111464000Y-133771938D01*
X111464000Y-134028062D01*
X111466156Y-134044438D01*
X111532446Y-134291835D01*
X111538767Y-134307095D01*
X111666829Y-134528905D01*
X111676884Y-134542009D01*
X111857991Y-134723116D01*
X111871095Y-134733171D01*
X112092905Y-134861233D01*
X112108165Y-134867554D01*
X112355562Y-134933844D01*
X112371938Y-134936000D01*
X112628062Y-134936000D01*
X112644438Y-134933844D01*
X112891835Y-134867554D01*
X112907095Y-134861233D01*
X113128905Y-134733171D01*
X113142009Y-134723116D01*
X113323116Y-134542009D01*
X113333171Y-134528905D01*
X113461233Y-134307095D01*
X113467554Y-134291835D01*
X113533844Y-134044438D01*
X113536000Y-134028062D01*
X113536000Y-133771938D01*
X113533844Y-133755562D01*
X113467554Y-133508165D01*
X113461233Y-133492905D01*
X113333171Y-133271095D01*
X113323116Y-133257991D01*
X113142009Y-133076884D01*
X113128905Y-133066829D01*
X112907095Y-132938767D01*
X112891835Y-132932446D01*
X112644438Y-132866156D01*
X112628062Y-132864000D01*
X112371938Y-132864000D01*
X112355562Y-132866156D01*
X112108165Y-132932446D01*
X112092905Y-132938767D01*
X111871095Y-133066829D01*
X111857991Y-133076884D01*
X111676884Y-133257991D01*
X111666829Y-133271095D01*
X111538767Y-133492905D01*
X111532446Y-133508165D01*
X111466156Y-133755562D01*
X111464000Y-133771938D01*
X92329706Y-133771938D01*
X92279271Y-133753182D01*
X92266918Y-133749964D01*
X92063076Y-133718407D01*
X92050327Y-133717739D01*
X91844302Y-133727815D01*
X91831680Y-133729724D01*
X91631890Y-133781022D01*
X91619909Y-133785430D01*
X91434514Y-133875853D01*
X91423665Y-133882580D01*
X91260239Y-134008435D01*
X91250963Y-134017206D01*
X91116182Y-134173352D01*
X91108860Y-134183809D01*
X91008229Y-134363868D01*
X91003159Y-134375584D01*
X90985599Y-134430941D01*
X90874438Y-134401156D01*
X90858062Y-134399000D01*
X90601938Y-134399000D01*
X90585562Y-134401156D01*
X90338165Y-134467446D01*
X90322905Y-134473767D01*
X90101095Y-134601829D01*
X90087991Y-134611884D01*
X89906884Y-134792991D01*
X89896829Y-134806095D01*
X89768767Y-135027905D01*
X89762446Y-135043165D01*
X89696156Y-135290562D01*
X89694000Y-135306938D01*
X87875213Y-135306938D01*
X87870668Y-135296334D01*
X87864479Y-135285168D01*
X87746757Y-135115790D01*
X87738450Y-135106097D01*
X87589075Y-134963849D01*
X87578988Y-134956024D01*
X87404060Y-134846717D01*
X87392605Y-134841081D01*
X87282030Y-134799959D01*
X87385788Y-134762194D01*
X87397281Y-134756638D01*
X87572968Y-134648555D01*
X87583109Y-134640802D01*
X87733474Y-134499600D01*
X87741849Y-134489965D01*
X87860751Y-134321412D01*
X87867017Y-134310290D01*
X87949597Y-134121271D01*
X87953500Y-134109116D01*
X87996409Y-133907246D01*
X87997789Y-133894333D01*
X87998533Y-133681194D01*
X87997243Y-133668271D01*
X87955744Y-133466106D01*
X87951927Y-133453925D01*
X87870668Y-133264334D01*
X87864479Y-133253168D01*
X87746757Y-133083790D01*
X87738450Y-133074097D01*
X87631173Y-132971938D01*
X89164000Y-132971938D01*
X89164000Y-133228062D01*
X89166156Y-133244438D01*
X89232446Y-133491835D01*
X89238767Y-133507095D01*
X89366829Y-133728905D01*
X89376884Y-133742009D01*
X89557991Y-133923116D01*
X89571095Y-133933171D01*
X89792905Y-134061233D01*
X89808165Y-134067554D01*
X90055562Y-134133844D01*
X90071938Y-134136000D01*
X90328062Y-134136000D01*
X90344438Y-134133844D01*
X90591835Y-134067554D01*
X90607095Y-134061233D01*
X90828905Y-133933171D01*
X90842009Y-133923116D01*
X91023116Y-133742009D01*
X91033171Y-133728905D01*
X91161233Y-133507095D01*
X91167554Y-133491835D01*
X91233844Y-133244438D01*
X91236000Y-133228062D01*
X91236000Y-132971938D01*
X91233844Y-132955562D01*
X91167554Y-132708165D01*
X91161233Y-132692905D01*
X91033171Y-132471095D01*
X91023116Y-132457991D01*
X90842009Y-132276884D01*
X90828905Y-132266829D01*
X90607095Y-132138767D01*
X90591835Y-132132446D01*
X90344438Y-132066156D01*
X90328062Y-132064000D01*
X90071938Y-132064000D01*
X90055562Y-132066156D01*
X89808165Y-132132446D01*
X89792905Y-132138767D01*
X89571095Y-132266829D01*
X89557991Y-132276884D01*
X89376884Y-132457991D01*
X89366829Y-132471095D01*
X89238767Y-132692905D01*
X89232446Y-132708165D01*
X89166156Y-132955562D01*
X89164000Y-132971938D01*
X87631173Y-132971938D01*
X87589075Y-132931849D01*
X87578988Y-132924024D01*
X87404060Y-132814717D01*
X87392605Y-132809081D01*
X87199271Y-132737182D01*
X87186918Y-132733964D01*
X86983076Y-132702407D01*
X86970327Y-132701739D01*
X86764302Y-132711815D01*
X86751680Y-132713724D01*
X86551890Y-132765022D01*
X86539909Y-132769430D01*
X86354514Y-132859853D01*
X86343665Y-132866580D01*
X86180239Y-132992435D01*
X86170963Y-133001206D01*
X86036182Y-133157352D01*
X86028860Y-133167809D01*
X85928229Y-133347868D01*
X85923159Y-133359583D01*
X85860789Y-133556198D01*
X85858178Y-133568694D01*
X85836617Y-133773835D01*
X85836572Y-133786601D01*
X85634000Y-133786601D01*
X85634000Y-130781641D01*
X86261038Y-130781641D01*
X86261038Y-131037765D01*
X86263194Y-131054141D01*
X86329484Y-131301538D01*
X86335805Y-131316798D01*
X86463867Y-131538608D01*
X86473922Y-131551712D01*
X86655029Y-131732819D01*
X86668133Y-131742874D01*
X86889943Y-131870936D01*
X86905203Y-131877257D01*
X87152600Y-131943547D01*
X87168976Y-131945703D01*
X87425100Y-131945703D01*
X87441476Y-131943547D01*
X87688873Y-131877257D01*
X87704133Y-131870936D01*
X87925943Y-131742874D01*
X87939047Y-131732819D01*
X88099928Y-131571938D01*
X101964000Y-131571938D01*
X101964000Y-131828062D01*
X101966156Y-131844438D01*
X102032446Y-132091835D01*
X102038767Y-132107095D01*
X102166829Y-132328905D01*
X102176884Y-132342009D01*
X102357991Y-132523116D01*
X102371095Y-132533171D01*
X102592905Y-132661233D01*
X102608165Y-132667554D01*
X102855562Y-132733844D01*
X102871938Y-132736000D01*
X103128062Y-132736000D01*
X103144438Y-132733844D01*
X103391835Y-132667554D01*
X103407095Y-132661233D01*
X103600000Y-132549859D01*
X103792905Y-132661233D01*
X103808165Y-132667554D01*
X104055562Y-132733844D01*
X104071938Y-132736000D01*
X104328062Y-132736000D01*
X104344438Y-132733844D01*
X104591835Y-132667554D01*
X104607095Y-132661233D01*
X104828905Y-132533171D01*
X104842009Y-132523116D01*
X105023116Y-132342009D01*
X105033171Y-132328905D01*
X105161233Y-132107095D01*
X105167554Y-132091835D01*
X105233844Y-131844438D01*
X105236000Y-131828062D01*
X105236000Y-131571938D01*
X119764000Y-131571938D01*
X119764000Y-131828062D01*
X119766156Y-131844438D01*
X119832446Y-132091835D01*
X119838767Y-132107095D01*
X119966829Y-132328905D01*
X119976884Y-132342009D01*
X120157991Y-132523116D01*
X120171095Y-132533171D01*
X120392905Y-132661233D01*
X120408165Y-132667554D01*
X120655562Y-132733844D01*
X120671938Y-132736000D01*
X120928062Y-132736000D01*
X120944438Y-132733844D01*
X121191835Y-132667554D01*
X121207095Y-132661233D01*
X121400000Y-132549859D01*
X121592905Y-132661233D01*
X121608165Y-132667554D01*
X121855562Y-132733844D01*
X121871938Y-132736000D01*
X122128062Y-132736000D01*
X122144438Y-132733844D01*
X122391835Y-132667554D01*
X122407095Y-132661233D01*
X122628905Y-132533171D01*
X122642009Y-132523116D01*
X122823116Y-132342009D01*
X122833171Y-132328905D01*
X122961233Y-132107095D01*
X122967554Y-132091835D01*
X123033844Y-131844438D01*
X123036000Y-131828062D01*
X123036000Y-131571938D01*
X123033844Y-131555562D01*
X122984642Y-131371938D01*
X126564000Y-131371938D01*
X126564000Y-131628062D01*
X126566156Y-131644438D01*
X126632446Y-131891835D01*
X126635828Y-131900000D01*
X126632446Y-131908165D01*
X126566156Y-132155562D01*
X126564000Y-132171938D01*
X126564000Y-132428062D01*
X126566156Y-132444438D01*
X126632446Y-132691835D01*
X126638767Y-132707095D01*
X126766829Y-132928905D01*
X126776884Y-132942009D01*
X126957991Y-133123116D01*
X126971095Y-133133171D01*
X127192905Y-133261233D01*
X127208165Y-133267554D01*
X127455562Y-133333844D01*
X127471938Y-133336000D01*
X127572273Y-133336000D01*
X127576884Y-133342009D01*
X127757991Y-133523116D01*
X127771095Y-133533171D01*
X127992905Y-133661233D01*
X128008165Y-133667554D01*
X128255562Y-133733844D01*
X128271938Y-133736000D01*
X128528062Y-133736000D01*
X128544438Y-133733844D01*
X128791835Y-133667554D01*
X128807095Y-133661233D01*
X129028905Y-133533171D01*
X129042009Y-133523116D01*
X129223116Y-133342009D01*
X129233171Y-133328905D01*
X129361233Y-133107095D01*
X129367554Y-133091835D01*
X129433844Y-132844438D01*
X129436000Y-132828062D01*
X129436000Y-132571938D01*
X129433844Y-132555562D01*
X129367554Y-132308165D01*
X129364172Y-132300000D01*
X129367554Y-132291835D01*
X129433844Y-132044438D01*
X129436000Y-132028062D01*
X129436000Y-131771938D01*
X129433844Y-131755562D01*
X129367554Y-131508165D01*
X129361233Y-131492905D01*
X129233171Y-131271095D01*
X129223116Y-131257991D01*
X129042009Y-131076884D01*
X129028905Y-131066829D01*
X128807095Y-130938767D01*
X128791835Y-130932446D01*
X128544438Y-130866156D01*
X128528062Y-130864000D01*
X128427727Y-130864000D01*
X128423116Y-130857991D01*
X128242009Y-130676884D01*
X128228905Y-130666829D01*
X128007095Y-130538767D01*
X127991835Y-130532446D01*
X127744438Y-130466156D01*
X127728062Y-130464000D01*
X127471938Y-130464000D01*
X127455562Y-130466156D01*
X127208165Y-130532446D01*
X127192905Y-130538767D01*
X126971095Y-130666829D01*
X126957991Y-130676884D01*
X126776884Y-130857991D01*
X126766829Y-130871095D01*
X126638767Y-131092905D01*
X126632446Y-131108165D01*
X126566156Y-131355562D01*
X126564000Y-131371938D01*
X122984642Y-131371938D01*
X122967554Y-131308165D01*
X122961233Y-131292905D01*
X122833171Y-131071095D01*
X122823116Y-131057991D01*
X122642009Y-130876884D01*
X122628905Y-130866829D01*
X122407095Y-130738767D01*
X122391835Y-130732446D01*
X122144438Y-130666156D01*
X122128062Y-130664000D01*
X121871938Y-130664000D01*
X121855562Y-130666156D01*
X121608165Y-130732446D01*
X121592905Y-130738767D01*
X121400000Y-130850141D01*
X121207095Y-130738767D01*
X121191835Y-130732446D01*
X120944438Y-130666156D01*
X120928062Y-130664000D01*
X120671938Y-130664000D01*
X120655562Y-130666156D01*
X120408165Y-130732446D01*
X120392905Y-130738767D01*
X120171095Y-130866829D01*
X120157991Y-130876884D01*
X119976884Y-131057991D01*
X119966829Y-131071095D01*
X119838767Y-131292905D01*
X119832446Y-131308165D01*
X119766156Y-131555562D01*
X119764000Y-131571938D01*
X105236000Y-131571938D01*
X105233844Y-131555562D01*
X105167554Y-131308165D01*
X105161233Y-131292905D01*
X105033171Y-131071095D01*
X105023116Y-131057991D01*
X104842009Y-130876884D01*
X104828905Y-130866829D01*
X104607095Y-130738767D01*
X104591835Y-130732446D01*
X104344438Y-130666156D01*
X104328062Y-130664000D01*
X104071938Y-130664000D01*
X104055562Y-130666156D01*
X103808165Y-130732446D01*
X103792905Y-130738767D01*
X103600000Y-130850141D01*
X103407095Y-130738767D01*
X103391835Y-130732446D01*
X103144438Y-130666156D01*
X103128062Y-130664000D01*
X102871938Y-130664000D01*
X102855562Y-130666156D01*
X102608165Y-130732446D01*
X102592905Y-130738767D01*
X102371095Y-130866829D01*
X102357991Y-130876884D01*
X102176884Y-131057991D01*
X102166829Y-131071095D01*
X102038767Y-131292905D01*
X102032446Y-131308165D01*
X101966156Y-131555562D01*
X101964000Y-131571938D01*
X88099928Y-131571938D01*
X88120154Y-131551712D01*
X88130209Y-131538608D01*
X88258271Y-131316798D01*
X88264592Y-131301538D01*
X88330882Y-131054141D01*
X88333038Y-131037765D01*
X88333038Y-130781641D01*
X88330882Y-130765265D01*
X88264592Y-130517868D01*
X88258271Y-130502608D01*
X88130209Y-130280798D01*
X88120154Y-130267694D01*
X87939047Y-130086587D01*
X87925943Y-130076532D01*
X87704133Y-129948470D01*
X87688873Y-129942149D01*
X87441476Y-129875859D01*
X87425100Y-129873703D01*
X87168976Y-129873703D01*
X87152600Y-129875859D01*
X86905203Y-129942149D01*
X86889943Y-129948470D01*
X86668133Y-130076532D01*
X86655029Y-130086587D01*
X86473922Y-130267694D01*
X86463867Y-130280798D01*
X86335805Y-130502608D01*
X86329484Y-130517868D01*
X86263194Y-130765265D01*
X86261038Y-130781641D01*
X85634000Y-130781641D01*
X85634000Y-128171938D01*
X109064000Y-128171938D01*
X109064000Y-128428062D01*
X109066156Y-128444438D01*
X109132446Y-128691835D01*
X109138767Y-128707095D01*
X109266829Y-128928905D01*
X109276884Y-128942009D01*
X109457991Y-129123116D01*
X109471095Y-129133171D01*
X109692905Y-129261233D01*
X109708165Y-129267554D01*
X109955562Y-129333844D01*
X109971938Y-129336000D01*
X110228062Y-129336000D01*
X110244438Y-129333844D01*
X110491835Y-129267554D01*
X110507095Y-129261233D01*
X110728905Y-129133171D01*
X110742009Y-129123116D01*
X110843187Y-129021938D01*
X133614000Y-129021938D01*
X133614000Y-129278062D01*
X133616156Y-129294438D01*
X133682446Y-129541835D01*
X133688767Y-129557095D01*
X133816829Y-129778905D01*
X133826884Y-129792009D01*
X134007991Y-129973116D01*
X134021095Y-129983171D01*
X134242905Y-130111233D01*
X134258165Y-130117554D01*
X134505562Y-130183844D01*
X134521938Y-130186000D01*
X134778062Y-130186000D01*
X134794438Y-130183844D01*
X135041835Y-130117554D01*
X135057095Y-130111233D01*
X135278905Y-129983171D01*
X135292009Y-129973116D01*
X135473116Y-129792009D01*
X135483171Y-129778905D01*
X135611233Y-129557095D01*
X135617554Y-129541835D01*
X135683844Y-129294438D01*
X135686000Y-129278062D01*
X135686000Y-129021938D01*
X135683844Y-129005562D01*
X135617554Y-128758165D01*
X135611233Y-128742905D01*
X135483171Y-128521095D01*
X135473116Y-128507991D01*
X135292009Y-128326884D01*
X135278905Y-128316829D01*
X135057095Y-128188767D01*
X135041835Y-128182446D01*
X134794438Y-128116156D01*
X134778062Y-128114000D01*
X134521938Y-128114000D01*
X134505562Y-128116156D01*
X134258165Y-128182446D01*
X134242905Y-128188767D01*
X134021095Y-128316829D01*
X134007991Y-128326884D01*
X133826884Y-128507991D01*
X133816829Y-128521095D01*
X133688767Y-128742905D01*
X133682446Y-128758165D01*
X133616156Y-129005562D01*
X133614000Y-129021938D01*
X110843187Y-129021938D01*
X110923116Y-128942009D01*
X110933171Y-128928905D01*
X111061233Y-128707095D01*
X111067554Y-128691835D01*
X111133844Y-128444438D01*
X111136000Y-128428062D01*
X111136000Y-128171938D01*
X111133844Y-128155562D01*
X111067554Y-127908165D01*
X111061233Y-127892905D01*
X110933171Y-127671095D01*
X110923116Y-127657991D01*
X110742009Y-127476884D01*
X110728905Y-127466829D01*
X110564549Y-127371938D01*
X114964000Y-127371938D01*
X114964000Y-127628062D01*
X114966156Y-127644438D01*
X115032446Y-127891835D01*
X115038767Y-127907095D01*
X115166829Y-128128905D01*
X115176884Y-128142009D01*
X115357991Y-128323116D01*
X115371095Y-128333171D01*
X115592905Y-128461233D01*
X115608165Y-128467554D01*
X115855562Y-128533844D01*
X115871938Y-128536000D01*
X116128062Y-128536000D01*
X116144438Y-128533844D01*
X116391835Y-128467554D01*
X116407095Y-128461233D01*
X116628905Y-128333171D01*
X116642009Y-128323116D01*
X116823116Y-128142009D01*
X116833171Y-128128905D01*
X116900000Y-128013154D01*
X116966829Y-128128905D01*
X116976884Y-128142009D01*
X117157991Y-128323116D01*
X117171095Y-128333171D01*
X117392905Y-128461233D01*
X117408165Y-128467554D01*
X117655562Y-128533844D01*
X117671938Y-128536000D01*
X117928062Y-128536000D01*
X117944438Y-128533844D01*
X118191835Y-128467554D01*
X118207095Y-128461233D01*
X118428905Y-128333171D01*
X118442009Y-128323116D01*
X118623116Y-128142009D01*
X118633171Y-128128905D01*
X118761233Y-127907095D01*
X118767554Y-127891835D01*
X118833844Y-127644438D01*
X118836000Y-127628062D01*
X118836000Y-127371938D01*
X118833844Y-127355562D01*
X118767554Y-127108165D01*
X118761233Y-127092905D01*
X118633171Y-126871095D01*
X118623116Y-126857991D01*
X118442009Y-126676884D01*
X118428905Y-126666829D01*
X118207095Y-126538767D01*
X118191835Y-126532446D01*
X117944438Y-126466156D01*
X117928062Y-126464000D01*
X117671938Y-126464000D01*
X117655562Y-126466156D01*
X117408165Y-126532446D01*
X117392905Y-126538767D01*
X117171095Y-126666829D01*
X117157991Y-126676884D01*
X116976884Y-126857991D01*
X116966829Y-126871095D01*
X116900000Y-126986846D01*
X116833171Y-126871095D01*
X116823116Y-126857991D01*
X116642009Y-126676884D01*
X116628905Y-126666829D01*
X116407095Y-126538767D01*
X116391835Y-126532446D01*
X116144438Y-126466156D01*
X116128062Y-126464000D01*
X115871938Y-126464000D01*
X115855562Y-126466156D01*
X115608165Y-126532446D01*
X115592905Y-126538767D01*
X115371095Y-126666829D01*
X115357991Y-126676884D01*
X115176884Y-126857991D01*
X115166829Y-126871095D01*
X115038767Y-127092905D01*
X115032446Y-127108165D01*
X114966156Y-127355562D01*
X114964000Y-127371938D01*
X110564549Y-127371938D01*
X110507095Y-127338767D01*
X110491835Y-127332446D01*
X110244438Y-127266156D01*
X110228062Y-127264000D01*
X109971938Y-127264000D01*
X109955562Y-127266156D01*
X109708165Y-127332446D01*
X109692905Y-127338767D01*
X109471095Y-127466829D01*
X109457991Y-127476884D01*
X109276884Y-127657991D01*
X109266829Y-127671095D01*
X109138767Y-127892905D01*
X109132446Y-127908165D01*
X109066156Y-128155562D01*
X109064000Y-128171938D01*
X85634000Y-128171938D01*
X85634000Y-124371938D01*
X104163990Y-124371938D01*
X104163990Y-124628062D01*
X104166146Y-124644438D01*
X104232436Y-124891835D01*
X104238757Y-124907095D01*
X104350136Y-125100009D01*
X104238767Y-125292905D01*
X104232446Y-125308165D01*
X104166156Y-125555562D01*
X104164000Y-125571938D01*
X104164000Y-125828062D01*
X104166156Y-125844438D01*
X104232446Y-126091835D01*
X104238767Y-126107095D01*
X104366829Y-126328905D01*
X104376884Y-126342009D01*
X104557991Y-126523116D01*
X104571095Y-126533171D01*
X104792905Y-126661233D01*
X104808165Y-126667554D01*
X105055562Y-126733844D01*
X105071938Y-126736000D01*
X105328062Y-126736000D01*
X105344438Y-126733844D01*
X105591835Y-126667554D01*
X105607095Y-126661233D01*
X105828905Y-126533171D01*
X105842009Y-126523116D01*
X106023116Y-126342009D01*
X106033171Y-126328905D01*
X106161233Y-126107095D01*
X106167554Y-126091835D01*
X106233844Y-125844438D01*
X106236000Y-125828062D01*
X106236000Y-125671959D01*
X108164000Y-125671959D01*
X108164000Y-125928083D01*
X108166156Y-125944459D01*
X108232446Y-126191856D01*
X108238767Y-126207116D01*
X108366829Y-126428926D01*
X108376884Y-126442030D01*
X108557991Y-126623137D01*
X108571095Y-126633192D01*
X108792905Y-126761254D01*
X108808165Y-126767575D01*
X109055562Y-126833865D01*
X109071938Y-126836021D01*
X109328062Y-126836021D01*
X109344438Y-126833865D01*
X109591835Y-126767575D01*
X109607095Y-126761254D01*
X109828905Y-126633192D01*
X109842009Y-126623137D01*
X110023116Y-126442030D01*
X110033171Y-126428926D01*
X110161233Y-126207116D01*
X110167554Y-126191856D01*
X110233844Y-125944459D01*
X110236000Y-125928083D01*
X110236000Y-125671959D01*
X110233844Y-125655583D01*
X110167554Y-125408186D01*
X110161233Y-125392926D01*
X110033171Y-125171116D01*
X110023116Y-125158012D01*
X109842009Y-124976905D01*
X109828905Y-124966850D01*
X109607095Y-124838788D01*
X109591835Y-124832467D01*
X109344438Y-124766177D01*
X109328062Y-124764021D01*
X109071938Y-124764021D01*
X109055562Y-124766177D01*
X108808165Y-124832467D01*
X108792905Y-124838788D01*
X108571095Y-124966850D01*
X108557991Y-124976905D01*
X108376884Y-125158012D01*
X108366829Y-125171116D01*
X108238767Y-125392926D01*
X108232446Y-125408186D01*
X108166156Y-125655583D01*
X108164000Y-125671959D01*
X106236000Y-125671959D01*
X106236000Y-125571938D01*
X106233844Y-125555562D01*
X106167554Y-125308165D01*
X106161233Y-125292905D01*
X106049854Y-125099991D01*
X106161223Y-124907095D01*
X106167544Y-124891835D01*
X106233834Y-124644438D01*
X106235990Y-124628062D01*
X106235990Y-124371938D01*
X111564000Y-124371938D01*
X111564000Y-124628062D01*
X111566156Y-124644438D01*
X111632446Y-124891835D01*
X111638767Y-124907095D01*
X111766829Y-125128905D01*
X111776884Y-125142009D01*
X111957991Y-125323116D01*
X111971095Y-125333171D01*
X112192905Y-125461233D01*
X112208165Y-125467554D01*
X112455562Y-125533844D01*
X112471938Y-125536000D01*
X112728062Y-125536000D01*
X112744438Y-125533844D01*
X112880354Y-125497425D01*
X112932446Y-125691835D01*
X112938767Y-125707095D01*
X113066829Y-125928905D01*
X113076884Y-125942009D01*
X113257991Y-126123116D01*
X113271095Y-126133171D01*
X113492905Y-126261233D01*
X113508165Y-126267554D01*
X113755562Y-126333844D01*
X113771938Y-126336000D01*
X114028062Y-126336000D01*
X114044438Y-126333844D01*
X114291835Y-126267554D01*
X114307095Y-126261233D01*
X114528905Y-126133171D01*
X114542009Y-126123116D01*
X114723116Y-125942009D01*
X114733171Y-125928905D01*
X114861233Y-125707095D01*
X114867554Y-125691835D01*
X114933844Y-125444438D01*
X114936000Y-125428062D01*
X114936000Y-125171938D01*
X114933844Y-125155562D01*
X114867554Y-124908165D01*
X114861233Y-124892905D01*
X114733171Y-124671095D01*
X114723116Y-124657991D01*
X114542009Y-124476884D01*
X114528905Y-124466829D01*
X114307095Y-124338767D01*
X114291835Y-124332446D01*
X114044438Y-124266156D01*
X114028062Y-124264000D01*
X113771938Y-124264000D01*
X113755562Y-124266156D01*
X113619646Y-124302575D01*
X113567554Y-124108165D01*
X113561233Y-124092905D01*
X113433171Y-123871095D01*
X113423116Y-123857991D01*
X113242009Y-123676884D01*
X113228905Y-123666829D01*
X113007095Y-123538767D01*
X112991835Y-123532446D01*
X112744438Y-123466156D01*
X112728062Y-123464000D01*
X112471938Y-123464000D01*
X112455562Y-123466156D01*
X112208165Y-123532446D01*
X112192905Y-123538767D01*
X111971095Y-123666829D01*
X111957991Y-123676884D01*
X111776884Y-123857991D01*
X111766829Y-123871095D01*
X111638767Y-124092905D01*
X111632446Y-124108165D01*
X111566156Y-124355562D01*
X111564000Y-124371938D01*
X106235990Y-124371938D01*
X106233834Y-124355562D01*
X106167544Y-124108165D01*
X106161223Y-124092905D01*
X106033161Y-123871095D01*
X106023106Y-123857991D01*
X105841999Y-123676884D01*
X105828895Y-123666829D01*
X105607085Y-123538767D01*
X105591825Y-123532446D01*
X105344428Y-123466156D01*
X105328052Y-123464000D01*
X105071928Y-123464000D01*
X105055552Y-123466156D01*
X104808155Y-123532446D01*
X104792895Y-123538767D01*
X104571085Y-123666829D01*
X104557981Y-123676884D01*
X104376874Y-123857991D01*
X104366819Y-123871095D01*
X104238757Y-124092905D01*
X104232436Y-124108165D01*
X104166146Y-124355562D01*
X104163990Y-124371938D01*
X85634000Y-124371938D01*
X85634000Y-121371938D01*
X103164000Y-121371938D01*
X103164000Y-121628062D01*
X103166156Y-121644438D01*
X103232446Y-121891835D01*
X103238767Y-121907095D01*
X103366829Y-122128905D01*
X103376884Y-122142009D01*
X103557991Y-122323116D01*
X103571095Y-122333171D01*
X103792905Y-122461233D01*
X103808165Y-122467554D01*
X104013917Y-122522685D01*
X104032446Y-122591835D01*
X104038767Y-122607095D01*
X104166829Y-122828905D01*
X104176884Y-122842009D01*
X104357991Y-123023116D01*
X104371095Y-123033171D01*
X104592905Y-123161233D01*
X104608165Y-123167554D01*
X104855562Y-123233844D01*
X104871938Y-123236000D01*
X105128062Y-123236000D01*
X105144438Y-123233844D01*
X105391835Y-123167554D01*
X105407095Y-123161233D01*
X105628905Y-123033171D01*
X105642009Y-123023116D01*
X105823116Y-122842009D01*
X105833171Y-122828905D01*
X105961233Y-122607095D01*
X105967554Y-122591835D01*
X105972882Y-122571948D01*
X108064000Y-122571948D01*
X108064000Y-122828072D01*
X108066156Y-122844448D01*
X108132446Y-123091845D01*
X108138767Y-123107105D01*
X108266829Y-123328915D01*
X108276884Y-123342019D01*
X108457991Y-123523126D01*
X108471095Y-123533181D01*
X108692905Y-123661243D01*
X108708165Y-123667564D01*
X108955562Y-123733854D01*
X108971938Y-123736010D01*
X109228062Y-123736010D01*
X109244438Y-123733854D01*
X109491835Y-123667564D01*
X109507095Y-123661243D01*
X109728905Y-123533181D01*
X109742009Y-123523126D01*
X109923116Y-123342019D01*
X109933171Y-123328915D01*
X110061233Y-123107105D01*
X110067554Y-123091845D01*
X110112950Y-122922426D01*
X110155562Y-122933844D01*
X110171938Y-122936000D01*
X110428062Y-122936000D01*
X110444438Y-122933844D01*
X110691835Y-122867554D01*
X110707095Y-122861233D01*
X110928905Y-122733171D01*
X110942009Y-122723116D01*
X111123116Y-122542009D01*
X111133171Y-122528905D01*
X111261233Y-122307095D01*
X111267554Y-122291835D01*
X111333844Y-122044438D01*
X111336000Y-122028062D01*
X111336000Y-121771938D01*
X111333844Y-121755562D01*
X111267554Y-121508165D01*
X111261233Y-121492905D01*
X111133171Y-121271095D01*
X111123116Y-121257991D01*
X110942009Y-121076884D01*
X110928905Y-121066829D01*
X110707095Y-120938767D01*
X110691835Y-120932446D01*
X110444438Y-120866156D01*
X110428062Y-120864000D01*
X110171938Y-120864000D01*
X110155562Y-120866156D01*
X109908165Y-120932446D01*
X109892905Y-120938767D01*
X109671095Y-121066829D01*
X109657991Y-121076884D01*
X109476884Y-121257991D01*
X109466829Y-121271095D01*
X109338767Y-121492905D01*
X109332446Y-121508165D01*
X109287050Y-121677584D01*
X109244438Y-121666166D01*
X109228062Y-121664010D01*
X108971938Y-121664010D01*
X108955562Y-121666166D01*
X108708165Y-121732456D01*
X108692905Y-121738777D01*
X108471095Y-121866839D01*
X108457991Y-121876894D01*
X108276884Y-122058001D01*
X108266829Y-122071105D01*
X108138767Y-122292915D01*
X108132446Y-122308175D01*
X108066156Y-122555572D01*
X108064000Y-122571948D01*
X105972882Y-122571948D01*
X106033844Y-122344438D01*
X106036000Y-122328062D01*
X106036000Y-122071938D01*
X106033844Y-122055562D01*
X105967554Y-121808165D01*
X105961233Y-121792905D01*
X105833171Y-121571095D01*
X105823116Y-121557991D01*
X105642009Y-121376884D01*
X105628905Y-121366829D01*
X105407095Y-121238767D01*
X105391835Y-121232446D01*
X105186083Y-121177315D01*
X105167554Y-121108165D01*
X105161233Y-121092905D01*
X105033171Y-120871095D01*
X105023116Y-120857991D01*
X104842009Y-120676884D01*
X104828905Y-120666829D01*
X104607095Y-120538767D01*
X104591835Y-120532446D01*
X104344438Y-120466156D01*
X104328062Y-120464000D01*
X104071938Y-120464000D01*
X104055562Y-120466156D01*
X103808165Y-120532446D01*
X103792905Y-120538767D01*
X103571095Y-120666829D01*
X103557991Y-120676884D01*
X103376884Y-120857991D01*
X103366829Y-120871095D01*
X103238767Y-121092905D01*
X103232446Y-121108165D01*
X103166156Y-121355562D01*
X103164000Y-121371938D01*
X85634000Y-121371938D01*
X85634000Y-120271938D01*
X105264000Y-120271938D01*
X105264000Y-120528062D01*
X105266156Y-120544438D01*
X105332446Y-120791835D01*
X105338767Y-120807095D01*
X105466829Y-121028905D01*
X105476884Y-121042009D01*
X105657991Y-121223116D01*
X105671095Y-121233171D01*
X105892905Y-121361233D01*
X105908165Y-121367554D01*
X106155562Y-121433844D01*
X106171938Y-121436000D01*
X106428062Y-121436000D01*
X106444438Y-121433844D01*
X106691835Y-121367554D01*
X106707095Y-121361233D01*
X106928905Y-121233171D01*
X106942009Y-121223116D01*
X107123116Y-121042009D01*
X107133171Y-121028905D01*
X107261233Y-120807095D01*
X107267554Y-120791835D01*
X107333844Y-120544438D01*
X107336000Y-120528062D01*
X107336000Y-120271938D01*
X107333844Y-120255562D01*
X107267554Y-120008165D01*
X107261233Y-119992905D01*
X107133171Y-119771095D01*
X107123116Y-119757991D01*
X106942009Y-119576884D01*
X106928905Y-119566829D01*
X106707095Y-119438767D01*
X106691835Y-119432446D01*
X106444438Y-119366156D01*
X106428062Y-119364000D01*
X106171938Y-119364000D01*
X106155562Y-119366156D01*
X105908165Y-119432446D01*
X105892905Y-119438767D01*
X105671095Y-119566829D01*
X105657991Y-119576884D01*
X105476884Y-119757991D01*
X105466829Y-119771095D01*
X105338767Y-119992905D01*
X105332446Y-120008165D01*
X105266156Y-120255562D01*
X105264000Y-120271938D01*
X85634000Y-120271938D01*
X85634000Y-118671938D01*
X87464000Y-118671938D01*
X87464000Y-118928062D01*
X87466156Y-118944438D01*
X87532446Y-119191835D01*
X87538767Y-119207095D01*
X87666829Y-119428905D01*
X87676884Y-119442009D01*
X87857991Y-119623116D01*
X87871095Y-119633171D01*
X88092905Y-119761233D01*
X88108165Y-119767554D01*
X88355562Y-119833844D01*
X88371938Y-119836000D01*
X88628062Y-119836000D01*
X88644438Y-119833844D01*
X88891835Y-119767554D01*
X88907095Y-119761233D01*
X89128905Y-119633171D01*
X89142009Y-119623116D01*
X89323116Y-119442009D01*
X89333171Y-119428905D01*
X89461233Y-119207095D01*
X89467554Y-119191835D01*
X89499680Y-119071938D01*
X102864000Y-119071938D01*
X102864000Y-119328062D01*
X102866156Y-119344438D01*
X102932446Y-119591835D01*
X102938767Y-119607095D01*
X103066829Y-119828905D01*
X103076884Y-119842009D01*
X103257991Y-120023116D01*
X103271095Y-120033171D01*
X103492905Y-120161233D01*
X103508165Y-120167554D01*
X103755562Y-120233844D01*
X103771938Y-120236000D01*
X104028062Y-120236000D01*
X104044438Y-120233844D01*
X104291835Y-120167554D01*
X104307095Y-120161233D01*
X104528905Y-120033171D01*
X104542009Y-120023116D01*
X104723116Y-119842009D01*
X104733171Y-119828905D01*
X104861233Y-119607095D01*
X104867554Y-119591835D01*
X104933844Y-119344438D01*
X104936000Y-119328062D01*
X104936000Y-119071938D01*
X104933844Y-119055562D01*
X104867554Y-118808165D01*
X104861233Y-118792905D01*
X104733171Y-118571095D01*
X104723116Y-118557991D01*
X104637063Y-118471938D01*
X107064000Y-118471938D01*
X107064000Y-118728062D01*
X107066156Y-118744438D01*
X107132446Y-118991835D01*
X107138767Y-119007095D01*
X107266829Y-119228905D01*
X107276884Y-119242009D01*
X107457991Y-119423116D01*
X107471095Y-119433171D01*
X107692905Y-119561233D01*
X107708165Y-119567554D01*
X107955562Y-119633844D01*
X107971938Y-119636000D01*
X108228062Y-119636000D01*
X108244438Y-119633844D01*
X108491835Y-119567554D01*
X108507095Y-119561233D01*
X108728905Y-119433171D01*
X108742009Y-119423116D01*
X108923116Y-119242009D01*
X108933171Y-119228905D01*
X109061233Y-119007095D01*
X109067554Y-118991835D01*
X109133844Y-118744438D01*
X109136000Y-118728062D01*
X109136000Y-118471938D01*
X109133844Y-118455562D01*
X109067554Y-118208165D01*
X109061233Y-118192905D01*
X108933171Y-117971095D01*
X108923116Y-117957991D01*
X108742009Y-117776884D01*
X108728905Y-117766829D01*
X108507095Y-117638767D01*
X108491835Y-117632446D01*
X108244438Y-117566156D01*
X108228062Y-117564000D01*
X107971938Y-117564000D01*
X107955562Y-117566156D01*
X107708165Y-117632446D01*
X107692905Y-117638767D01*
X107471095Y-117766829D01*
X107457991Y-117776884D01*
X107276884Y-117957991D01*
X107266829Y-117971095D01*
X107138767Y-118192905D01*
X107132446Y-118208165D01*
X107066156Y-118455562D01*
X107064000Y-118471938D01*
X104637063Y-118471938D01*
X104542009Y-118376884D01*
X104528905Y-118366829D01*
X104307095Y-118238767D01*
X104291835Y-118232446D01*
X104044438Y-118166156D01*
X104028062Y-118164000D01*
X103771938Y-118164000D01*
X103755562Y-118166156D01*
X103508165Y-118232446D01*
X103492905Y-118238767D01*
X103271095Y-118366829D01*
X103257991Y-118376884D01*
X103076884Y-118557991D01*
X103066829Y-118571095D01*
X102938767Y-118792905D01*
X102932446Y-118808165D01*
X102866156Y-119055562D01*
X102864000Y-119071938D01*
X89499680Y-119071938D01*
X89533844Y-118944438D01*
X89536000Y-118928062D01*
X89536000Y-118671938D01*
X89533844Y-118655562D01*
X89467554Y-118408165D01*
X89461233Y-118392905D01*
X89333171Y-118171095D01*
X89323116Y-118157991D01*
X89142009Y-117976884D01*
X89128905Y-117966829D01*
X88907095Y-117838767D01*
X88891835Y-117832446D01*
X88644438Y-117766156D01*
X88628062Y-117764000D01*
X88371938Y-117764000D01*
X88355562Y-117766156D01*
X88108165Y-117832446D01*
X88092905Y-117838767D01*
X87871095Y-117966829D01*
X87857991Y-117976884D01*
X87676884Y-118157991D01*
X87666829Y-118171095D01*
X87538767Y-118392905D01*
X87532446Y-118408165D01*
X87466156Y-118655562D01*
X87464000Y-118671938D01*
X85634000Y-118671938D01*
X85634000Y-115124598D01*
X85764541Y-115124598D01*
X85765035Y-115133164D01*
X85802133Y-115426832D01*
X85803785Y-115435252D01*
X85880397Y-115721168D01*
X85883176Y-115729285D01*
X85997881Y-116002159D01*
X86001736Y-116009824D01*
X86152413Y-116264606D01*
X86157273Y-116271677D01*
X86341134Y-116503652D01*
X86346909Y-116509998D01*
X86560551Y-116714873D01*
X86567133Y-116720377D01*
X86806605Y-116894363D01*
X86813873Y-116898922D01*
X87074740Y-117038798D01*
X87082560Y-117042329D01*
X87359998Y-117145507D01*
X87368224Y-117147944D01*
X87657098Y-117212514D01*
X87665579Y-117213812D01*
X87960543Y-117238581D01*
X87969122Y-117238716D01*
X88264718Y-117223225D01*
X88273236Y-117222194D01*
X88563996Y-117166728D01*
X88572295Y-117164551D01*
X88852836Y-117070138D01*
X88860762Y-117066855D01*
X89125895Y-116935242D01*
X89133303Y-116930914D01*
X89378121Y-116764536D01*
X89384873Y-116759242D01*
X89604846Y-116561178D01*
X89610816Y-116555016D01*
X89801873Y-116328930D01*
X89806953Y-116322015D01*
X89965559Y-116072093D01*
X89969653Y-116064553D01*
X90092873Y-115795417D01*
X90095905Y-115787391D01*
X90181459Y-115504022D01*
X90183375Y-115495659D01*
X90229731Y-115202974D01*
X90230505Y-115193766D01*
X90234073Y-114852988D01*
X90233493Y-114843766D01*
X90226271Y-114791043D01*
X92331109Y-114791043D01*
X92349188Y-115031497D01*
X92350885Y-115042034D01*
X92409221Y-115276005D01*
X92412669Y-115286104D01*
X92509591Y-115506900D01*
X92514692Y-115516275D01*
X92647430Y-115717584D01*
X92654038Y-115725965D01*
X92818798Y-115902032D01*
X92826722Y-115909180D01*
X93018792Y-116054968D01*
X93027808Y-116060679D01*
X93241696Y-116172021D01*
X93251545Y-116176131D01*
X93481134Y-116249844D01*
X93491535Y-116252236D01*
X93730262Y-116286212D01*
X93740917Y-116286817D01*
X93981956Y-116280084D01*
X93992561Y-116278885D01*
X94229019Y-116231636D01*
X94239270Y-116228667D01*
X94464387Y-116142253D01*
X94473991Y-116137600D01*
X94681330Y-116014491D01*
X94690012Y-116008286D01*
X94873645Y-115852004D01*
X94881158Y-115844424D01*
X95035833Y-115659435D01*
X95041962Y-115650698D01*
X95089486Y-115569043D01*
X95187430Y-115717584D01*
X95194038Y-115725965D01*
X95358798Y-115902032D01*
X95366722Y-115909180D01*
X95558792Y-116054968D01*
X95567808Y-116060679D01*
X95781696Y-116172021D01*
X95791545Y-116176131D01*
X96021134Y-116249844D01*
X96031535Y-116252236D01*
X96270262Y-116286212D01*
X96280917Y-116286817D01*
X96521956Y-116280084D01*
X96532561Y-116278885D01*
X96769019Y-116231636D01*
X96779270Y-116228667D01*
X97004387Y-116142253D01*
X97013991Y-116137600D01*
X97221330Y-116014491D01*
X97230012Y-116008286D01*
X97413645Y-115852004D01*
X97421158Y-115844424D01*
X97575833Y-115659435D01*
X97581962Y-115650698D01*
X97629486Y-115569043D01*
X97727430Y-115717584D01*
X97734038Y-115725965D01*
X97898798Y-115902032D01*
X97906722Y-115909180D01*
X98098792Y-116054968D01*
X98107808Y-116060679D01*
X98321696Y-116172021D01*
X98331545Y-116176131D01*
X98561134Y-116249844D01*
X98571535Y-116252236D01*
X98810262Y-116286212D01*
X98820917Y-116286817D01*
X99061956Y-116280084D01*
X99072561Y-116278885D01*
X99309019Y-116231636D01*
X99319270Y-116228667D01*
X99544387Y-116142253D01*
X99553991Y-116137600D01*
X99761330Y-116014491D01*
X99770012Y-116008286D01*
X99953645Y-115852004D01*
X99961158Y-115844424D01*
X100115833Y-115659435D01*
X100121962Y-115650698D01*
X100169486Y-115569043D01*
X100267430Y-115717584D01*
X100274038Y-115725965D01*
X100438798Y-115902032D01*
X100446722Y-115909180D01*
X100638792Y-116054968D01*
X100647808Y-116060679D01*
X100861696Y-116172021D01*
X100871545Y-116176131D01*
X101101134Y-116249844D01*
X101111535Y-116252236D01*
X101350262Y-116286212D01*
X101360917Y-116286817D01*
X101601956Y-116280084D01*
X101612561Y-116278885D01*
X101849019Y-116231636D01*
X101859270Y-116228667D01*
X102084387Y-116142253D01*
X102093991Y-116137600D01*
X102301330Y-116014491D01*
X102310012Y-116008286D01*
X102493645Y-115852004D01*
X102501158Y-115844424D01*
X102527403Y-115813035D01*
X102565137Y-115953859D01*
X102577880Y-115978339D01*
X102708990Y-116134590D01*
X102725879Y-116148761D01*
X102900120Y-116249359D01*
X102920837Y-116256900D01*
X103113538Y-116290878D01*
X103124499Y-116291837D01*
X104838258Y-116291837D01*
X104854634Y-116289681D01*
X105133859Y-116214863D01*
X105158339Y-116202120D01*
X105314590Y-116071010D01*
X105328761Y-116054121D01*
X105429359Y-115879880D01*
X105436900Y-115859163D01*
X105470878Y-115666462D01*
X105471837Y-115655501D01*
X105471837Y-115124598D01*
X142764541Y-115124598D01*
X142765035Y-115133164D01*
X142802133Y-115426832D01*
X142803785Y-115435252D01*
X142880397Y-115721168D01*
X142883176Y-115729285D01*
X142997881Y-116002159D01*
X143001736Y-116009824D01*
X143152413Y-116264606D01*
X143157273Y-116271677D01*
X143341134Y-116503652D01*
X143346909Y-116509998D01*
X143560551Y-116714873D01*
X143567133Y-116720377D01*
X143806605Y-116894363D01*
X143813873Y-116898922D01*
X144074740Y-117038798D01*
X144082560Y-117042329D01*
X144359998Y-117145507D01*
X144368224Y-117147944D01*
X144657098Y-117212514D01*
X144665579Y-117213812D01*
X144960543Y-117238581D01*
X144969122Y-117238716D01*
X145264718Y-117223225D01*
X145273236Y-117222194D01*
X145563996Y-117166728D01*
X145572295Y-117164551D01*
X145852836Y-117070138D01*
X145860762Y-117066855D01*
X146125895Y-116935242D01*
X146133303Y-116930914D01*
X146378121Y-116764536D01*
X146384873Y-116759242D01*
X146604846Y-116561178D01*
X146610816Y-116555016D01*
X146801873Y-116328930D01*
X146806953Y-116322015D01*
X146965559Y-116072093D01*
X146969653Y-116064553D01*
X147092873Y-115795417D01*
X147095905Y-115787391D01*
X147181459Y-115504022D01*
X147183375Y-115495659D01*
X147229731Y-115202974D01*
X147230505Y-115193766D01*
X147234073Y-114852988D01*
X147233493Y-114843766D01*
X147193276Y-114550176D01*
X147191536Y-114541774D01*
X147111936Y-114256675D01*
X147109072Y-114248588D01*
X146991515Y-113976930D01*
X146987580Y-113969306D01*
X146834243Y-113716116D01*
X146829309Y-113709096D01*
X146643029Y-113479060D01*
X146637188Y-113472775D01*
X146421412Y-113270147D01*
X146414772Y-113264713D01*
X146173493Y-113093244D01*
X146166177Y-113088761D01*
X145903859Y-112951625D01*
X145896003Y-112948176D01*
X145617500Y-112847909D01*
X145609248Y-112845558D01*
X145319715Y-112784016D01*
X145311220Y-112782807D01*
X145016013Y-112761128D01*
X145007433Y-112761083D01*
X144712015Y-112779669D01*
X144703508Y-112780789D01*
X144413346Y-112839297D01*
X144405070Y-112841561D01*
X144125533Y-112938905D01*
X144117641Y-112942272D01*
X143853901Y-113076654D01*
X143846539Y-113081060D01*
X143603476Y-113249992D01*
X143596781Y-113255357D01*
X143378894Y-113455713D01*
X143372988Y-113461937D01*
X143184309Y-113690011D01*
X143179302Y-113696979D01*
X143023323Y-113948549D01*
X143019308Y-113956131D01*
X142898912Y-114226543D01*
X142895964Y-114234601D01*
X142813382Y-114518850D01*
X142811554Y-114527233D01*
X142768313Y-114820059D01*
X142767640Y-114828613D01*
X142764541Y-115124598D01*
X105471837Y-115124598D01*
X105471837Y-113941742D01*
X105469681Y-113925366D01*
X105394863Y-113646142D01*
X105382120Y-113621662D01*
X105251010Y-113465410D01*
X105234121Y-113451239D01*
X105059880Y-113350641D01*
X105039163Y-113343100D01*
X104846462Y-113309122D01*
X104835501Y-113308163D01*
X103121742Y-113308163D01*
X103105366Y-113310319D01*
X102826142Y-113385137D01*
X102801662Y-113397880D01*
X102645410Y-113528990D01*
X102631239Y-113545879D01*
X102530641Y-113720120D01*
X102523100Y-113740837D01*
X102517521Y-113772479D01*
X102513647Y-113768417D01*
X102333049Y-113608638D01*
X102324486Y-113602267D01*
X102119549Y-113475202D01*
X102110036Y-113470365D01*
X101886619Y-113379645D01*
X101876427Y-113376480D01*
X101640919Y-113324700D01*
X101630340Y-113323298D01*
X101389475Y-113311939D01*
X101378809Y-113312339D01*
X101139474Y-113341727D01*
X101129030Y-113343918D01*
X100898068Y-113413210D01*
X100888142Y-113417130D01*
X100672155Y-113524346D01*
X100663032Y-113529882D01*
X100468199Y-113671957D01*
X100460138Y-113678952D01*
X100292029Y-113851822D01*
X100285263Y-113860074D01*
X100169229Y-114028903D01*
X100138067Y-113972916D01*
X100132107Y-113964064D01*
X99981013Y-113776140D01*
X99973647Y-113768417D01*
X99793049Y-113608638D01*
X99784486Y-113602267D01*
X99579549Y-113475202D01*
X99570036Y-113470365D01*
X99346619Y-113379645D01*
X99336427Y-113376480D01*
X99100919Y-113324700D01*
X99090340Y-113323298D01*
X98849475Y-113311939D01*
X98838809Y-113312339D01*
X98599474Y-113341727D01*
X98589030Y-113343918D01*
X98358068Y-113413210D01*
X98348142Y-113417130D01*
X98132155Y-113524346D01*
X98123032Y-113529882D01*
X97928199Y-113671957D01*
X97920138Y-113678952D01*
X97752029Y-113851822D01*
X97745263Y-113860074D01*
X97629229Y-114028903D01*
X97598067Y-113972916D01*
X97592107Y-113964064D01*
X97441013Y-113776140D01*
X97433647Y-113768417D01*
X97253049Y-113608638D01*
X97244486Y-113602267D01*
X97039549Y-113475202D01*
X97030036Y-113470365D01*
X96806619Y-113379645D01*
X96796427Y-113376480D01*
X96560919Y-113324700D01*
X96550340Y-113323298D01*
X96309475Y-113311939D01*
X96298809Y-113312339D01*
X96059474Y-113341727D01*
X96049030Y-113343918D01*
X95818068Y-113413210D01*
X95808142Y-113417130D01*
X95592155Y-113524346D01*
X95583032Y-113529882D01*
X95388199Y-113671957D01*
X95380138Y-113678952D01*
X95212029Y-113851822D01*
X95205263Y-113860074D01*
X95089229Y-114028903D01*
X95058067Y-113972916D01*
X95052107Y-113964064D01*
X94901013Y-113776140D01*
X94893647Y-113768417D01*
X94713049Y-113608638D01*
X94704486Y-113602267D01*
X94499549Y-113475202D01*
X94490036Y-113470365D01*
X94266619Y-113379645D01*
X94256427Y-113376480D01*
X94020919Y-113324700D01*
X94010340Y-113323298D01*
X93769475Y-113311939D01*
X93758809Y-113312339D01*
X93519474Y-113341727D01*
X93509030Y-113343918D01*
X93278068Y-113413210D01*
X93268142Y-113417130D01*
X93052155Y-113524346D01*
X93043032Y-113529882D01*
X92848199Y-113671957D01*
X92840138Y-113678952D01*
X92672029Y-113851822D01*
X92665263Y-113860074D01*
X92528683Y-114058798D01*
X92523403Y-114068073D01*
X92422260Y-114286968D01*
X92418618Y-114297000D01*
X92355802Y-114529807D01*
X92353903Y-114540309D01*
X92331211Y-114780372D01*
X92331109Y-114791043D01*
X90226271Y-114791043D01*
X90193276Y-114550176D01*
X90191536Y-114541774D01*
X90111936Y-114256675D01*
X90109072Y-114248588D01*
X89991515Y-113976930D01*
X89987580Y-113969306D01*
X89834243Y-113716116D01*
X89829309Y-113709096D01*
X89643029Y-113479060D01*
X89637188Y-113472775D01*
X89421412Y-113270147D01*
X89414772Y-113264713D01*
X89173493Y-113093244D01*
X89166177Y-113088761D01*
X88903859Y-112951625D01*
X88896003Y-112948176D01*
X88617500Y-112847909D01*
X88609248Y-112845558D01*
X88319715Y-112784016D01*
X88311220Y-112782807D01*
X88016013Y-112761128D01*
X88007433Y-112761083D01*
X87712015Y-112779669D01*
X87703508Y-112780789D01*
X87413346Y-112839297D01*
X87405070Y-112841561D01*
X87125533Y-112938905D01*
X87117641Y-112942272D01*
X86853901Y-113076654D01*
X86846539Y-113081060D01*
X86603476Y-113249992D01*
X86596781Y-113255357D01*
X86378894Y-113455713D01*
X86372988Y-113461937D01*
X86184309Y-113690011D01*
X86179302Y-113696979D01*
X86023323Y-113948549D01*
X86019308Y-113956131D01*
X85898912Y-114226543D01*
X85895964Y-114234601D01*
X85813382Y-114518850D01*
X85811554Y-114527233D01*
X85768313Y-114820059D01*
X85767640Y-114828613D01*
X85764541Y-115124598D01*
X85634000Y-115124598D01*
X85634000Y-112634000D01*
X147366001Y-112634000D01*
X147366000Y-142366000D01*
G37*
D17*
X147366000Y-142366000D02*
X138367224Y-142366000D01*
X138502915Y-142293852D01*
X138513181Y-142287032D01*
X138683521Y-142148106D01*
X138692266Y-142139422D01*
X138832379Y-141970056D01*
X138839271Y-141959838D01*
X138943817Y-141766483D01*
X138948593Y-141755121D01*
X139018138Y-141530459D01*
X138942599Y-141428000D01*
X135658742Y-141428000D01*
X135583150Y-141529046D01*
X135645159Y-141739738D01*
X135649776Y-141751165D01*
X135751613Y-141945962D01*
X135758362Y-141956275D01*
X135896096Y-142127580D01*
X135904719Y-142136385D01*
X136073102Y-142277677D01*
X136083272Y-142284640D01*
X136231266Y-142366000D01*
X127974476Y-142366000D01*
X128033844Y-142144438D01*
X128036000Y-142128062D01*
X128036000Y-141871938D01*
X128033844Y-141855562D01*
X127967554Y-141608165D01*
X127961233Y-141592905D01*
X127833171Y-141371095D01*
X127823116Y-141357991D01*
X127706452Y-141241327D01*
X128587748Y-141241327D01*
X128604124Y-141239171D01*
X128883349Y-141164353D01*
X128907829Y-141151610D01*
X129064080Y-141020500D01*
X129078251Y-141003611D01*
X129134775Y-140905709D01*
X129166785Y-140932569D01*
X129175035Y-140938432D01*
X129392098Y-141067828D01*
X129401180Y-141072297D01*
X129636141Y-141165325D01*
X129645820Y-141168284D01*
X129892631Y-141222548D01*
X129902659Y-141223922D01*
X130154970Y-141238029D01*
X130165089Y-141237782D01*
X130416411Y-141211367D01*
X130426360Y-141209505D01*
X130670225Y-141143247D01*
X130679747Y-141139819D01*
X130834675Y-141069541D01*
X135581862Y-141069541D01*
X135657401Y-141172000D01*
X137098191Y-141172000D01*
X137172000Y-141098191D01*
X137172000Y-140189809D01*
X137428000Y-140189809D01*
X137428000Y-141098191D01*
X137501809Y-141172000D01*
X138941258Y-141172000D01*
X139016850Y-141070954D01*
X138954841Y-140860262D01*
X138950224Y-140848835D01*
X138848387Y-140654038D01*
X138841638Y-140643725D01*
X138703904Y-140472420D01*
X138695281Y-140463615D01*
X138526898Y-140322323D01*
X138516728Y-140315360D01*
X138324108Y-140209467D01*
X138312780Y-140204611D01*
X138103050Y-140138081D01*
X138090554Y-140135470D01*
X137908592Y-140116345D01*
X137902002Y-140116000D01*
X137501809Y-140116000D01*
X137428000Y-140189809D01*
X137172000Y-140189809D01*
X137098191Y-140116000D01*
X136694714Y-140116000D01*
X136688562Y-140116301D01*
X136525077Y-140132331D01*
X136512987Y-140134725D01*
X136302559Y-140198257D01*
X136291165Y-140202954D01*
X136097085Y-140306148D01*
X136086819Y-140312968D01*
X135916479Y-140451894D01*
X135907734Y-140460578D01*
X135767621Y-140629944D01*
X135760729Y-140640162D01*
X135656183Y-140833517D01*
X135651407Y-140844879D01*
X135581862Y-141069541D01*
X130834675Y-141069541D01*
X130909883Y-141035426D01*
X130918735Y-141030519D01*
X131129220Y-140890672D01*
X131137173Y-140884413D01*
X131322592Y-140712715D01*
X131329443Y-140705264D01*
X131485024Y-140506130D01*
X131490596Y-140497680D01*
X131612338Y-140276231D01*
X131616487Y-140266999D01*
X131701257Y-140028935D01*
X131703876Y-140019159D01*
X131749555Y-139770280D01*
X131750589Y-139759547D01*
X131753572Y-139474636D01*
X131752763Y-139463885D01*
X131739023Y-139379046D01*
X132983150Y-139379046D01*
X133045159Y-139589738D01*
X133049776Y-139601165D01*
X133151613Y-139795962D01*
X133158362Y-139806275D01*
X133296096Y-139977580D01*
X133304719Y-139986385D01*
X133473102Y-140127677D01*
X133483272Y-140134640D01*
X133675892Y-140240533D01*
X133687220Y-140245389D01*
X133896950Y-140311919D01*
X133909446Y-140314530D01*
X134091408Y-140333655D01*
X134097998Y-140334000D01*
X134298191Y-140334000D01*
X134372000Y-140260191D01*
X134372000Y-139351809D01*
X134628000Y-139351809D01*
X134628000Y-140260191D01*
X134701809Y-140334000D01*
X134905286Y-140334000D01*
X134911438Y-140333699D01*
X135074923Y-140317669D01*
X135087013Y-140315275D01*
X135297441Y-140251743D01*
X135308835Y-140247046D01*
X135502915Y-140143852D01*
X135513181Y-140137032D01*
X135683521Y-139998106D01*
X135692266Y-139989422D01*
X135832379Y-139820056D01*
X135839271Y-139809838D01*
X135943817Y-139616483D01*
X135948593Y-139605121D01*
X136018138Y-139380459D01*
X136017097Y-139379046D01*
X138583150Y-139379046D01*
X138645159Y-139589738D01*
X138649776Y-139601165D01*
X138751613Y-139795962D01*
X138758362Y-139806275D01*
X138896096Y-139977580D01*
X138904719Y-139986385D01*
X139073102Y-140127677D01*
X139083272Y-140134640D01*
X139275892Y-140240533D01*
X139287220Y-140245389D01*
X139496950Y-140311919D01*
X139509446Y-140314530D01*
X139691408Y-140333655D01*
X139697998Y-140334000D01*
X139898191Y-140334000D01*
X139972000Y-140260191D01*
X139972000Y-139351809D01*
X140228000Y-139351809D01*
X140228000Y-140260191D01*
X140301809Y-140334000D01*
X140505286Y-140334000D01*
X140511438Y-140333699D01*
X140674923Y-140317669D01*
X140687013Y-140315275D01*
X140897441Y-140251743D01*
X140908835Y-140247046D01*
X141102915Y-140143852D01*
X141113181Y-140137032D01*
X141251038Y-140024598D01*
X142764541Y-140024598D01*
X142765035Y-140033164D01*
X142802133Y-140326832D01*
X142803785Y-140335252D01*
X142880397Y-140621168D01*
X142883176Y-140629285D01*
X142997881Y-140902159D01*
X143001736Y-140909824D01*
X143152413Y-141164606D01*
X143157273Y-141171677D01*
X143341134Y-141403652D01*
X143346909Y-141409998D01*
X143560551Y-141614873D01*
X143567133Y-141620377D01*
X143806605Y-141794363D01*
X143813873Y-141798922D01*
X144074740Y-141938798D01*
X144082560Y-141942329D01*
X144359998Y-142045507D01*
X144368224Y-142047944D01*
X144657098Y-142112514D01*
X144665579Y-142113812D01*
X144960543Y-142138581D01*
X144969122Y-142138716D01*
X145264718Y-142123225D01*
X145273236Y-142122194D01*
X145563996Y-142066728D01*
X145572295Y-142064551D01*
X145852836Y-141970138D01*
X145860762Y-141966855D01*
X146125895Y-141835242D01*
X146133303Y-141830914D01*
X146378121Y-141664536D01*
X146384873Y-141659242D01*
X146604846Y-141461178D01*
X146610816Y-141455016D01*
X146801873Y-141228930D01*
X146806953Y-141222015D01*
X146965559Y-140972093D01*
X146969653Y-140964553D01*
X147092873Y-140695417D01*
X147095905Y-140687391D01*
X147181459Y-140404022D01*
X147183375Y-140395659D01*
X147229731Y-140102974D01*
X147230505Y-140093766D01*
X147234073Y-139752988D01*
X147233493Y-139743766D01*
X147193276Y-139450176D01*
X147191536Y-139441774D01*
X147111936Y-139156675D01*
X147109072Y-139148588D01*
X146991515Y-138876930D01*
X146987580Y-138869306D01*
X146834243Y-138616116D01*
X146829309Y-138609096D01*
X146643029Y-138379060D01*
X146637188Y-138372775D01*
X146421412Y-138170147D01*
X146414772Y-138164713D01*
X146173493Y-137993244D01*
X146166177Y-137988761D01*
X145903859Y-137851625D01*
X145896003Y-137848176D01*
X145617500Y-137747909D01*
X145609248Y-137745558D01*
X145319715Y-137684016D01*
X145311220Y-137682807D01*
X145016013Y-137661128D01*
X145007433Y-137661083D01*
X144712015Y-137679669D01*
X144703508Y-137680789D01*
X144413346Y-137739297D01*
X144405070Y-137741561D01*
X144125533Y-137838905D01*
X144117641Y-137842272D01*
X143853901Y-137976654D01*
X143846539Y-137981060D01*
X143603476Y-138149992D01*
X143596781Y-138155357D01*
X143378894Y-138355713D01*
X143372988Y-138361937D01*
X143184309Y-138590011D01*
X143179302Y-138596979D01*
X143023323Y-138848549D01*
X143019308Y-138856131D01*
X142898912Y-139126543D01*
X142895964Y-139134601D01*
X142813382Y-139418850D01*
X142811554Y-139427233D01*
X142768313Y-139720059D01*
X142767640Y-139728613D01*
X142764541Y-140024598D01*
X141251038Y-140024598D01*
X141283521Y-139998106D01*
X141292266Y-139989422D01*
X141432379Y-139820056D01*
X141439271Y-139809838D01*
X141543817Y-139616483D01*
X141548593Y-139605121D01*
X141618138Y-139380459D01*
X141542599Y-139278000D01*
X140301809Y-139278000D01*
X140228000Y-139351809D01*
X139972000Y-139351809D01*
X139898191Y-139278000D01*
X138658742Y-139278000D01*
X138583150Y-139379046D01*
X136017097Y-139379046D01*
X135942599Y-139278000D01*
X134701809Y-139278000D01*
X134628000Y-139351809D01*
X134372000Y-139351809D01*
X134298191Y-139278000D01*
X133058742Y-139278000D01*
X132983150Y-139379046D01*
X131739023Y-139379046D01*
X131712308Y-139214103D01*
X131709894Y-139204273D01*
X131630127Y-138964487D01*
X131626172Y-138955170D01*
X131607546Y-138919541D01*
X132981862Y-138919541D01*
X133057401Y-139022000D01*
X134298191Y-139022000D01*
X134372000Y-138948191D01*
X134372000Y-138039809D01*
X134628000Y-138039809D01*
X134628000Y-138948191D01*
X134701809Y-139022000D01*
X135941258Y-139022000D01*
X136016850Y-138920954D01*
X136016435Y-138919541D01*
X138581862Y-138919541D01*
X138657401Y-139022000D01*
X139898191Y-139022000D01*
X139972000Y-138948191D01*
X139972000Y-138039809D01*
X140228000Y-138039809D01*
X140228000Y-138948191D01*
X140301809Y-139022000D01*
X141541258Y-139022000D01*
X141616850Y-138920954D01*
X141554841Y-138710262D01*
X141550224Y-138698835D01*
X141448387Y-138504038D01*
X141441638Y-138493725D01*
X141303904Y-138322420D01*
X141295281Y-138313615D01*
X141126898Y-138172323D01*
X141116728Y-138165360D01*
X140924108Y-138059467D01*
X140912780Y-138054611D01*
X140703050Y-137988081D01*
X140690554Y-137985470D01*
X140508592Y-137966345D01*
X140502002Y-137966000D01*
X140301809Y-137966000D01*
X140228000Y-138039809D01*
X139972000Y-138039809D01*
X139898191Y-137966000D01*
X139694714Y-137966000D01*
X139688562Y-137966301D01*
X139525077Y-137982331D01*
X139512987Y-137984725D01*
X139302559Y-138048257D01*
X139291165Y-138052954D01*
X139097085Y-138156148D01*
X139086819Y-138162968D01*
X138916479Y-138301894D01*
X138907734Y-138310578D01*
X138767621Y-138479944D01*
X138760729Y-138490162D01*
X138656183Y-138683517D01*
X138651407Y-138694879D01*
X138581862Y-138919541D01*
X136016435Y-138919541D01*
X135954841Y-138710262D01*
X135950224Y-138698835D01*
X135848387Y-138504038D01*
X135841638Y-138493725D01*
X135703904Y-138322420D01*
X135695281Y-138313615D01*
X135526898Y-138172323D01*
X135516728Y-138165360D01*
X135324108Y-138059467D01*
X135312780Y-138054611D01*
X135103050Y-137988081D01*
X135090554Y-137985470D01*
X134908592Y-137966345D01*
X134902002Y-137966000D01*
X134701809Y-137966000D01*
X134628000Y-138039809D01*
X134372000Y-138039809D01*
X134298191Y-137966000D01*
X134094714Y-137966000D01*
X134088562Y-137966301D01*
X133925077Y-137982331D01*
X133912987Y-137984725D01*
X133702559Y-138048257D01*
X133691165Y-138052954D01*
X133497085Y-138156148D01*
X133486819Y-138162968D01*
X133316479Y-138301894D01*
X133307734Y-138310578D01*
X133167621Y-138479944D01*
X133160729Y-138490162D01*
X133056183Y-138683517D01*
X133051407Y-138694879D01*
X132981862Y-138919541D01*
X131607546Y-138919541D01*
X131509094Y-138731221D01*
X131503701Y-138722656D01*
X131352324Y-138520307D01*
X131345631Y-138512715D01*
X131163850Y-138337170D01*
X131156028Y-138330745D01*
X130948518Y-138186523D01*
X130939771Y-138181432D01*
X130711873Y-138072241D01*
X130702424Y-138068614D01*
X130459999Y-137997265D01*
X130450092Y-137995195D01*
X130199378Y-137963522D01*
X130189267Y-137963063D01*
X129936715Y-137971882D01*
X129926661Y-137973046D01*
X129678767Y-138022130D01*
X129669028Y-138024886D01*
X129432171Y-138112973D01*
X129422999Y-138117250D01*
X129203271Y-138242071D01*
X129194900Y-138247760D01*
X129141325Y-138290836D01*
X129131610Y-138272172D01*
X129000500Y-138115920D01*
X128983611Y-138101749D01*
X128809370Y-138001151D01*
X128788653Y-137993610D01*
X128595952Y-137959632D01*
X128584991Y-137958673D01*
X127781809Y-137958673D01*
X127708000Y-138032482D01*
X127708000Y-139728000D01*
X126032510Y-139728000D01*
X125241809Y-139727999D01*
X125168000Y-139801808D01*
X125167999Y-141145228D01*
X125251377Y-141220303D01*
X125336409Y-141211367D01*
X125346359Y-141209505D01*
X125590225Y-141143247D01*
X125599747Y-141139819D01*
X125829883Y-141035426D01*
X125838735Y-141030519D01*
X126019371Y-140910504D01*
X126028390Y-140927829D01*
X126159500Y-141084080D01*
X126176389Y-141098251D01*
X126341371Y-141193504D01*
X126176884Y-141357991D01*
X126166829Y-141371095D01*
X126038767Y-141592905D01*
X126032446Y-141608165D01*
X125966156Y-141855562D01*
X125964000Y-141871938D01*
X125964000Y-142128062D01*
X125966156Y-142144438D01*
X126025524Y-142366000D01*
X85634000Y-142366000D01*
X85634000Y-140024598D01*
X85764541Y-140024598D01*
X85765035Y-140033164D01*
X85802133Y-140326832D01*
X85803785Y-140335252D01*
X85880397Y-140621168D01*
X85883176Y-140629285D01*
X85997881Y-140902159D01*
X86001736Y-140909824D01*
X86152413Y-141164606D01*
X86157273Y-141171677D01*
X86341134Y-141403652D01*
X86346909Y-141409998D01*
X86560551Y-141614873D01*
X86567133Y-141620377D01*
X86806605Y-141794363D01*
X86813873Y-141798922D01*
X87074740Y-141938798D01*
X87082560Y-141942329D01*
X87359998Y-142045507D01*
X87368224Y-142047944D01*
X87657098Y-142112514D01*
X87665579Y-142113812D01*
X87960543Y-142138581D01*
X87969122Y-142138716D01*
X88264718Y-142123225D01*
X88273236Y-142122194D01*
X88563996Y-142066728D01*
X88572295Y-142064551D01*
X88852836Y-141970138D01*
X88860762Y-141966855D01*
X89125895Y-141835242D01*
X89133303Y-141830914D01*
X89378121Y-141664536D01*
X89384873Y-141659242D01*
X89604846Y-141461178D01*
X89610816Y-141455016D01*
X89801873Y-141228930D01*
X89806953Y-141222015D01*
X89965559Y-140972093D01*
X89969653Y-140964553D01*
X90057838Y-140771938D01*
X101564000Y-140771938D01*
X101564000Y-141028062D01*
X101566156Y-141044438D01*
X101632446Y-141291835D01*
X101638767Y-141307095D01*
X101766829Y-141528905D01*
X101776884Y-141542009D01*
X101957991Y-141723116D01*
X101971095Y-141733171D01*
X102192905Y-141861233D01*
X102208165Y-141867554D01*
X102455562Y-141933844D01*
X102471938Y-141936000D01*
X102728062Y-141936000D01*
X102744438Y-141933844D01*
X102991835Y-141867554D01*
X103007095Y-141861233D01*
X103228905Y-141733171D01*
X103242009Y-141723116D01*
X103423116Y-141542009D01*
X103433171Y-141528905D01*
X103561233Y-141307095D01*
X103567554Y-141291835D01*
X103633844Y-141044438D01*
X103636000Y-141028062D01*
X103636000Y-140771938D01*
X103633844Y-140755562D01*
X103567554Y-140508165D01*
X103561233Y-140492905D01*
X103433171Y-140271095D01*
X103423116Y-140257991D01*
X103242009Y-140076884D01*
X103228905Y-140066829D01*
X103007095Y-139938767D01*
X102991835Y-139932446D01*
X102744438Y-139866156D01*
X102728062Y-139864000D01*
X102471938Y-139864000D01*
X102455562Y-139866156D01*
X102208165Y-139932446D01*
X102192905Y-139938767D01*
X101971095Y-140066829D01*
X101957991Y-140076884D01*
X101776884Y-140257991D01*
X101766829Y-140271095D01*
X101638767Y-140492905D01*
X101632446Y-140508165D01*
X101566156Y-140755562D01*
X101564000Y-140771938D01*
X90057838Y-140771938D01*
X90092873Y-140695417D01*
X90095905Y-140687391D01*
X90181459Y-140404022D01*
X90183375Y-140395659D01*
X90229731Y-140102974D01*
X90230505Y-140093766D01*
X90234073Y-139752988D01*
X90233493Y-139743766D01*
X90193276Y-139450176D01*
X90191536Y-139441774D01*
X90111936Y-139156675D01*
X90109072Y-139148588D01*
X89991515Y-138876930D01*
X89987580Y-138869306D01*
X89834243Y-138616116D01*
X89829309Y-138609096D01*
X89817902Y-138595009D01*
X105618673Y-138595009D01*
X105618673Y-140607748D01*
X105620829Y-140624124D01*
X105695647Y-140903349D01*
X105708390Y-140927829D01*
X105839500Y-141084080D01*
X105856389Y-141098251D01*
X106030630Y-141198849D01*
X106051347Y-141206390D01*
X106244048Y-141240368D01*
X106255009Y-141241327D01*
X108267748Y-141241327D01*
X108284124Y-141239171D01*
X108563349Y-141164353D01*
X108587829Y-141151610D01*
X108744080Y-141020500D01*
X108758251Y-141003611D01*
X108814775Y-140905709D01*
X108846785Y-140932569D01*
X108855035Y-140938432D01*
X109072098Y-141067828D01*
X109081180Y-141072297D01*
X109316141Y-141165325D01*
X109325820Y-141168284D01*
X109572631Y-141222548D01*
X109582659Y-141223922D01*
X109834970Y-141238029D01*
X109845089Y-141237782D01*
X110096411Y-141211367D01*
X110106360Y-141209505D01*
X110350225Y-141143247D01*
X110359747Y-141139819D01*
X110589883Y-141035426D01*
X110598735Y-141030519D01*
X110809220Y-140890672D01*
X110817173Y-140884413D01*
X111002592Y-140712715D01*
X111009443Y-140705264D01*
X111069634Y-140628222D01*
X111185993Y-140763026D01*
X111193200Y-140770133D01*
X111386785Y-140932569D01*
X111395035Y-140938432D01*
X111612098Y-141067828D01*
X111621180Y-141072297D01*
X111856141Y-141165325D01*
X111865820Y-141168284D01*
X112112631Y-141222548D01*
X112122659Y-141223922D01*
X112374970Y-141238029D01*
X112385089Y-141237782D01*
X112636411Y-141211367D01*
X112646360Y-141209505D01*
X112890225Y-141143247D01*
X112899747Y-141139819D01*
X113129883Y-141035426D01*
X113138735Y-141030519D01*
X113349220Y-140890672D01*
X113357173Y-140884413D01*
X113542592Y-140712715D01*
X113549443Y-140705264D01*
X113609634Y-140628222D01*
X113725993Y-140763026D01*
X113733200Y-140770133D01*
X113926785Y-140932569D01*
X113935035Y-140938432D01*
X114152098Y-141067828D01*
X114161180Y-141072297D01*
X114396141Y-141165325D01*
X114405820Y-141168284D01*
X114657904Y-141223708D01*
X114752000Y-141148053D01*
X114752001Y-139801808D01*
X114752000Y-139801807D01*
X114752000Y-139398192D01*
X115007999Y-139398192D01*
X115008000Y-139398193D01*
X115007999Y-141145228D01*
X115091377Y-141220303D01*
X115176409Y-141211367D01*
X115186359Y-141209505D01*
X115430225Y-141143247D01*
X115439747Y-141139819D01*
X115669883Y-141035426D01*
X115678735Y-141030519D01*
X115859371Y-140910504D01*
X115868390Y-140927829D01*
X115999500Y-141084080D01*
X116016389Y-141098251D01*
X116190630Y-141198849D01*
X116211347Y-141206390D01*
X116404048Y-141240368D01*
X116415009Y-141241327D01*
X118427748Y-141241327D01*
X118444124Y-141239171D01*
X118723349Y-141164353D01*
X118747829Y-141151610D01*
X118904080Y-141020500D01*
X118918251Y-141003611D01*
X118974775Y-140905709D01*
X119006785Y-140932569D01*
X119015035Y-140938432D01*
X119232098Y-141067828D01*
X119241180Y-141072297D01*
X119476141Y-141165325D01*
X119485820Y-141168284D01*
X119732631Y-141222548D01*
X119742659Y-141223922D01*
X119994970Y-141238029D01*
X120005089Y-141237782D01*
X120256411Y-141211367D01*
X120266360Y-141209505D01*
X120510225Y-141143247D01*
X120519747Y-141139819D01*
X120749883Y-141035426D01*
X120758735Y-141030519D01*
X120969220Y-140890672D01*
X120977173Y-140884413D01*
X121162592Y-140712715D01*
X121169443Y-140705264D01*
X121229634Y-140628222D01*
X121345993Y-140763026D01*
X121353200Y-140770133D01*
X121546785Y-140932569D01*
X121555035Y-140938432D01*
X121772098Y-141067828D01*
X121781180Y-141072297D01*
X122016141Y-141165325D01*
X122025820Y-141168284D01*
X122272631Y-141222548D01*
X122282659Y-141223922D01*
X122534970Y-141238029D01*
X122545089Y-141237782D01*
X122796411Y-141211367D01*
X122806360Y-141209505D01*
X123050225Y-141143247D01*
X123059747Y-141139819D01*
X123289883Y-141035426D01*
X123298735Y-141030519D01*
X123509220Y-140890672D01*
X123517173Y-140884413D01*
X123702592Y-140712715D01*
X123709443Y-140705264D01*
X123769634Y-140628222D01*
X123885993Y-140763026D01*
X123893200Y-140770133D01*
X124086785Y-140932569D01*
X124095035Y-140938432D01*
X124312098Y-141067828D01*
X124321180Y-141072297D01*
X124556141Y-141165325D01*
X124565820Y-141168284D01*
X124817904Y-141223708D01*
X124912000Y-141148053D01*
X124912001Y-139801808D01*
X124912000Y-139801807D01*
X124912000Y-139398191D01*
X125167999Y-139398191D01*
X125241808Y-139472000D01*
X126084701Y-139472001D01*
X126084702Y-139472000D01*
X127378191Y-139472000D01*
X127452000Y-139398191D01*
X127452000Y-138032482D01*
X127378191Y-137958673D01*
X126572252Y-137958673D01*
X126555876Y-137960829D01*
X126276652Y-138035647D01*
X126252172Y-138048390D01*
X126095920Y-138179500D01*
X126081749Y-138196389D01*
X126024753Y-138295108D01*
X125868518Y-138186523D01*
X125859771Y-138181432D01*
X125631873Y-138072241D01*
X125622424Y-138068614D01*
X125379999Y-137997265D01*
X125370091Y-137995195D01*
X125253349Y-137980447D01*
X125168000Y-138055693D01*
X125167999Y-139398191D01*
X124912000Y-139398191D01*
X124912001Y-138053943D01*
X124819953Y-137978334D01*
X124598767Y-138022130D01*
X124589028Y-138024886D01*
X124352171Y-138112973D01*
X124342999Y-138117250D01*
X124123271Y-138242071D01*
X124114900Y-138247760D01*
X123917957Y-138406108D01*
X123910603Y-138413062D01*
X123769406Y-138569876D01*
X123732324Y-138520307D01*
X123725631Y-138512715D01*
X123543850Y-138337170D01*
X123536028Y-138330745D01*
X123328518Y-138186523D01*
X123319771Y-138181432D01*
X123091873Y-138072241D01*
X123082424Y-138068614D01*
X122839999Y-137997265D01*
X122830092Y-137995195D01*
X122579378Y-137963522D01*
X122569267Y-137963063D01*
X122316715Y-137971882D01*
X122306661Y-137973046D01*
X122058767Y-138022130D01*
X122049028Y-138024886D01*
X121812171Y-138112973D01*
X121802999Y-138117250D01*
X121583271Y-138242071D01*
X121574900Y-138247760D01*
X121377957Y-138406108D01*
X121370603Y-138413062D01*
X121229406Y-138569876D01*
X121192324Y-138520307D01*
X121185631Y-138512715D01*
X121003850Y-138337170D01*
X120996028Y-138330745D01*
X120788518Y-138186523D01*
X120779771Y-138181432D01*
X120551873Y-138072241D01*
X120542424Y-138068614D01*
X120299999Y-137997265D01*
X120290092Y-137995195D01*
X120039378Y-137963522D01*
X120029267Y-137963063D01*
X119776715Y-137971882D01*
X119766661Y-137973046D01*
X119518767Y-138022130D01*
X119509028Y-138024886D01*
X119272171Y-138112973D01*
X119262999Y-138117250D01*
X119043271Y-138242071D01*
X119034900Y-138247760D01*
X118981325Y-138290836D01*
X118971610Y-138272172D01*
X118840500Y-138115920D01*
X118823611Y-138101749D01*
X118649370Y-138001151D01*
X118628653Y-137993610D01*
X118435952Y-137959632D01*
X118424991Y-137958673D01*
X116412252Y-137958673D01*
X116395876Y-137960829D01*
X116116652Y-138035647D01*
X116092172Y-138048390D01*
X115935920Y-138179500D01*
X115921749Y-138196389D01*
X115864753Y-138295108D01*
X115708518Y-138186523D01*
X115699771Y-138181432D01*
X115471873Y-138072241D01*
X115462424Y-138068614D01*
X115219999Y-137997265D01*
X115210091Y-137995195D01*
X115093349Y-137980447D01*
X115008000Y-138055693D01*
X115007999Y-139398192D01*
X114752000Y-139398192D01*
X114752001Y-138053943D01*
X114659953Y-137978334D01*
X114438767Y-138022130D01*
X114429028Y-138024886D01*
X114192171Y-138112973D01*
X114182999Y-138117250D01*
X113963271Y-138242071D01*
X113954900Y-138247760D01*
X113757957Y-138406108D01*
X113750603Y-138413062D01*
X113609406Y-138569876D01*
X113572324Y-138520307D01*
X113565631Y-138512715D01*
X113383850Y-138337170D01*
X113376028Y-138330745D01*
X113168518Y-138186523D01*
X113159771Y-138181432D01*
X112931873Y-138072241D01*
X112922424Y-138068614D01*
X112679999Y-137997265D01*
X112670092Y-137995195D01*
X112419378Y-137963522D01*
X112409267Y-137963063D01*
X112156715Y-137971882D01*
X112146661Y-137973046D01*
X111898767Y-138022130D01*
X111889028Y-138024886D01*
X111652171Y-138112973D01*
X111642999Y-138117250D01*
X111423271Y-138242071D01*
X111414900Y-138247760D01*
X111217957Y-138406108D01*
X111210603Y-138413062D01*
X111069406Y-138569876D01*
X111032324Y-138520307D01*
X111025631Y-138512715D01*
X110843850Y-138337170D01*
X110836028Y-138330745D01*
X110628518Y-138186523D01*
X110619771Y-138181432D01*
X110391873Y-138072241D01*
X110382424Y-138068614D01*
X110139999Y-137997265D01*
X110130092Y-137995195D01*
X109879378Y-137963522D01*
X109869267Y-137963063D01*
X109616715Y-137971882D01*
X109606661Y-137973046D01*
X109358767Y-138022130D01*
X109349028Y-138024886D01*
X109112171Y-138112973D01*
X109102999Y-138117250D01*
X108883271Y-138242071D01*
X108874900Y-138247760D01*
X108821325Y-138290836D01*
X108811610Y-138272172D01*
X108680500Y-138115920D01*
X108663611Y-138101749D01*
X108489370Y-138001151D01*
X108468653Y-137993610D01*
X108275952Y-137959632D01*
X108264991Y-137958673D01*
X106252252Y-137958673D01*
X106235876Y-137960829D01*
X105956652Y-138035647D01*
X105932172Y-138048390D01*
X105775920Y-138179500D01*
X105761749Y-138196389D01*
X105661151Y-138370630D01*
X105653610Y-138391347D01*
X105619632Y-138584048D01*
X105618673Y-138595009D01*
X89817902Y-138595009D01*
X89643029Y-138379060D01*
X89637188Y-138372775D01*
X89421412Y-138170147D01*
X89414772Y-138164713D01*
X89173493Y-137993244D01*
X89166177Y-137988761D01*
X88903859Y-137851625D01*
X88896003Y-137848176D01*
X88617500Y-137747909D01*
X88609248Y-137745558D01*
X88319715Y-137684016D01*
X88311220Y-137682807D01*
X88016013Y-137661128D01*
X88007433Y-137661083D01*
X87712015Y-137679669D01*
X87703508Y-137680789D01*
X87413346Y-137739297D01*
X87405070Y-137741561D01*
X87125533Y-137838905D01*
X87117641Y-137842272D01*
X86853901Y-137976654D01*
X86846539Y-137981060D01*
X86603476Y-138149992D01*
X86596781Y-138155357D01*
X86378894Y-138355713D01*
X86372988Y-138361937D01*
X86184309Y-138590011D01*
X86179302Y-138596979D01*
X86023323Y-138848549D01*
X86019308Y-138856131D01*
X85898912Y-139126543D01*
X85895964Y-139134601D01*
X85813382Y-139418850D01*
X85811554Y-139427233D01*
X85768313Y-139720059D01*
X85767640Y-139728613D01*
X85764541Y-140024598D01*
X85634000Y-140024598D01*
X85634000Y-133786601D01*
X85836572Y-133786601D01*
X85856701Y-133991888D01*
X85859224Y-134004402D01*
X85920220Y-134201448D01*
X85925208Y-134213198D01*
X86024579Y-134393954D01*
X86031828Y-134404462D01*
X86165517Y-134561546D01*
X86174731Y-134570382D01*
X86337275Y-134697374D01*
X86348077Y-134704176D01*
X86532836Y-134795893D01*
X86543780Y-134800006D01*
X86539909Y-134801430D01*
X86354514Y-134891853D01*
X86343665Y-134898580D01*
X86180239Y-135024435D01*
X86170963Y-135033206D01*
X86036182Y-135189352D01*
X86028860Y-135199809D01*
X85928229Y-135379868D01*
X85923159Y-135391583D01*
X85860789Y-135588198D01*
X85858178Y-135600694D01*
X85836617Y-135805835D01*
X85836572Y-135818601D01*
X85856701Y-136023888D01*
X85859224Y-136036402D01*
X85920220Y-136233448D01*
X85925208Y-136245198D01*
X86024579Y-136425954D01*
X86031828Y-136436462D01*
X86165517Y-136593546D01*
X86174731Y-136602382D01*
X86337275Y-136729374D01*
X86348077Y-136736176D01*
X86532836Y-136827893D01*
X86544786Y-136832384D01*
X86744213Y-136885075D01*
X86756822Y-136887072D01*
X86962771Y-136898586D01*
X86975523Y-136898007D01*
X87179581Y-136867875D01*
X87191957Y-136864743D01*
X87385788Y-136794194D01*
X87397281Y-136788638D01*
X87572968Y-136680555D01*
X87583109Y-136672802D01*
X87733474Y-136531600D01*
X87741849Y-136521965D01*
X87860751Y-136353412D01*
X87867017Y-136342290D01*
X87949597Y-136153271D01*
X87953500Y-136141116D01*
X87996409Y-135939246D01*
X87997789Y-135926333D01*
X87998533Y-135713194D01*
X87997243Y-135700271D01*
X87955744Y-135498106D01*
X87951927Y-135485925D01*
X87875213Y-135306938D01*
X89694000Y-135306938D01*
X89694000Y-135563062D01*
X89696156Y-135579438D01*
X89762446Y-135826835D01*
X89768767Y-135842095D01*
X89896829Y-136063905D01*
X89906884Y-136077009D01*
X90087991Y-136258116D01*
X90101095Y-136268171D01*
X90322905Y-136396233D01*
X90338165Y-136402554D01*
X90585562Y-136468844D01*
X90601938Y-136471000D01*
X90858062Y-136471000D01*
X90874438Y-136468844D01*
X91121835Y-136402554D01*
X91137095Y-136396233D01*
X91358905Y-136268171D01*
X91372009Y-136258116D01*
X91553116Y-136077009D01*
X91563171Y-136063905D01*
X91691233Y-135842095D01*
X91694278Y-135834745D01*
X91824213Y-135869075D01*
X91836822Y-135871072D01*
X92042771Y-135882586D01*
X92055523Y-135882007D01*
X92259581Y-135851875D01*
X92271957Y-135848743D01*
X92465788Y-135778194D01*
X92477281Y-135772638D01*
X92652968Y-135664555D01*
X92663109Y-135656802D01*
X92753480Y-135571938D01*
X105464000Y-135571938D01*
X105464000Y-135828062D01*
X105466156Y-135844438D01*
X105532446Y-136091835D01*
X105538767Y-136107095D01*
X105666829Y-136328905D01*
X105676884Y-136342009D01*
X105857991Y-136523116D01*
X105871095Y-136533171D01*
X106092905Y-136661233D01*
X106108165Y-136667554D01*
X106355562Y-136733844D01*
X106371938Y-136736000D01*
X106628062Y-136736000D01*
X106644438Y-136733844D01*
X106891835Y-136667554D01*
X106907095Y-136661233D01*
X107128905Y-136533171D01*
X107142009Y-136523116D01*
X107323116Y-136342009D01*
X107333171Y-136328905D01*
X107461233Y-136107095D01*
X107467554Y-136091835D01*
X107533844Y-135844438D01*
X107536000Y-135828062D01*
X107536000Y-135571938D01*
X107533844Y-135555562D01*
X107467554Y-135308165D01*
X107461233Y-135292905D01*
X107333171Y-135071095D01*
X107323116Y-135057991D01*
X107142009Y-134876884D01*
X107128905Y-134866829D01*
X106907095Y-134738767D01*
X106891835Y-134732446D01*
X106644438Y-134666156D01*
X106628062Y-134664000D01*
X106371938Y-134664000D01*
X106355562Y-134666156D01*
X106108165Y-134732446D01*
X106092905Y-134738767D01*
X105871095Y-134866829D01*
X105857991Y-134876884D01*
X105676884Y-135057991D01*
X105666829Y-135071095D01*
X105538767Y-135292905D01*
X105532446Y-135308165D01*
X105466156Y-135555562D01*
X105464000Y-135571938D01*
X92753480Y-135571938D01*
X92813474Y-135515600D01*
X92821849Y-135505965D01*
X92940751Y-135337412D01*
X92947017Y-135326290D01*
X93029597Y-135137271D01*
X93033500Y-135125116D01*
X93076409Y-134923246D01*
X93077789Y-134910333D01*
X93078533Y-134697194D01*
X93077243Y-134684271D01*
X93035744Y-134482106D01*
X93031927Y-134469925D01*
X92950668Y-134280334D01*
X92944479Y-134269168D01*
X92826757Y-134099790D01*
X92818450Y-134090097D01*
X92669075Y-133947849D01*
X92658988Y-133940024D01*
X92484060Y-133830717D01*
X92472605Y-133825081D01*
X92329706Y-133771938D01*
X111464000Y-133771938D01*
X111464000Y-134028062D01*
X111466156Y-134044438D01*
X111532446Y-134291835D01*
X111538767Y-134307095D01*
X111666829Y-134528905D01*
X111676884Y-134542009D01*
X111857991Y-134723116D01*
X111871095Y-134733171D01*
X112092905Y-134861233D01*
X112108165Y-134867554D01*
X112355562Y-134933844D01*
X112371938Y-134936000D01*
X112628062Y-134936000D01*
X112644438Y-134933844D01*
X112891835Y-134867554D01*
X112907095Y-134861233D01*
X113128905Y-134733171D01*
X113142009Y-134723116D01*
X113323116Y-134542009D01*
X113333171Y-134528905D01*
X113461233Y-134307095D01*
X113467554Y-134291835D01*
X113533844Y-134044438D01*
X113536000Y-134028062D01*
X113536000Y-133771938D01*
X113533844Y-133755562D01*
X113467554Y-133508165D01*
X113461233Y-133492905D01*
X113333171Y-133271095D01*
X113323116Y-133257991D01*
X113142009Y-133076884D01*
X113128905Y-133066829D01*
X112907095Y-132938767D01*
X112891835Y-132932446D01*
X112644438Y-132866156D01*
X112628062Y-132864000D01*
X112371938Y-132864000D01*
X112355562Y-132866156D01*
X112108165Y-132932446D01*
X112092905Y-132938767D01*
X111871095Y-133066829D01*
X111857991Y-133076884D01*
X111676884Y-133257991D01*
X111666829Y-133271095D01*
X111538767Y-133492905D01*
X111532446Y-133508165D01*
X111466156Y-133755562D01*
X111464000Y-133771938D01*
X92329706Y-133771938D01*
X92279271Y-133753182D01*
X92266918Y-133749964D01*
X92063076Y-133718407D01*
X92050327Y-133717739D01*
X91844302Y-133727815D01*
X91831680Y-133729724D01*
X91631890Y-133781022D01*
X91619909Y-133785430D01*
X91434514Y-133875853D01*
X91423665Y-133882580D01*
X91260239Y-134008435D01*
X91250963Y-134017206D01*
X91116182Y-134173352D01*
X91108860Y-134183809D01*
X91008229Y-134363868D01*
X91003159Y-134375584D01*
X90985599Y-134430941D01*
X90874438Y-134401156D01*
X90858062Y-134399000D01*
X90601938Y-134399000D01*
X90585562Y-134401156D01*
X90338165Y-134467446D01*
X90322905Y-134473767D01*
X90101095Y-134601829D01*
X90087991Y-134611884D01*
X89906884Y-134792991D01*
X89896829Y-134806095D01*
X89768767Y-135027905D01*
X89762446Y-135043165D01*
X89696156Y-135290562D01*
X89694000Y-135306938D01*
X87875213Y-135306938D01*
X87870668Y-135296334D01*
X87864479Y-135285168D01*
X87746757Y-135115790D01*
X87738450Y-135106097D01*
X87589075Y-134963849D01*
X87578988Y-134956024D01*
X87404060Y-134846717D01*
X87392605Y-134841081D01*
X87282030Y-134799959D01*
X87385788Y-134762194D01*
X87397281Y-134756638D01*
X87572968Y-134648555D01*
X87583109Y-134640802D01*
X87733474Y-134499600D01*
X87741849Y-134489965D01*
X87860751Y-134321412D01*
X87867017Y-134310290D01*
X87949597Y-134121271D01*
X87953500Y-134109116D01*
X87996409Y-133907246D01*
X87997789Y-133894333D01*
X87998533Y-133681194D01*
X87997243Y-133668271D01*
X87955744Y-133466106D01*
X87951927Y-133453925D01*
X87870668Y-133264334D01*
X87864479Y-133253168D01*
X87746757Y-133083790D01*
X87738450Y-133074097D01*
X87631173Y-132971938D01*
X89164000Y-132971938D01*
X89164000Y-133228062D01*
X89166156Y-133244438D01*
X89232446Y-133491835D01*
X89238767Y-133507095D01*
X89366829Y-133728905D01*
X89376884Y-133742009D01*
X89557991Y-133923116D01*
X89571095Y-133933171D01*
X89792905Y-134061233D01*
X89808165Y-134067554D01*
X90055562Y-134133844D01*
X90071938Y-134136000D01*
X90328062Y-134136000D01*
X90344438Y-134133844D01*
X90591835Y-134067554D01*
X90607095Y-134061233D01*
X90828905Y-133933171D01*
X90842009Y-133923116D01*
X91023116Y-133742009D01*
X91033171Y-133728905D01*
X91161233Y-133507095D01*
X91167554Y-133491835D01*
X91233844Y-133244438D01*
X91236000Y-133228062D01*
X91236000Y-132971938D01*
X91233844Y-132955562D01*
X91167554Y-132708165D01*
X91161233Y-132692905D01*
X91033171Y-132471095D01*
X91023116Y-132457991D01*
X90842009Y-132276884D01*
X90828905Y-132266829D01*
X90607095Y-132138767D01*
X90591835Y-132132446D01*
X90344438Y-132066156D01*
X90328062Y-132064000D01*
X90071938Y-132064000D01*
X90055562Y-132066156D01*
X89808165Y-132132446D01*
X89792905Y-132138767D01*
X89571095Y-132266829D01*
X89557991Y-132276884D01*
X89376884Y-132457991D01*
X89366829Y-132471095D01*
X89238767Y-132692905D01*
X89232446Y-132708165D01*
X89166156Y-132955562D01*
X89164000Y-132971938D01*
X87631173Y-132971938D01*
X87589075Y-132931849D01*
X87578988Y-132924024D01*
X87404060Y-132814717D01*
X87392605Y-132809081D01*
X87199271Y-132737182D01*
X87186918Y-132733964D01*
X86983076Y-132702407D01*
X86970327Y-132701739D01*
X86764302Y-132711815D01*
X86751680Y-132713724D01*
X86551890Y-132765022D01*
X86539909Y-132769430D01*
X86354514Y-132859853D01*
X86343665Y-132866580D01*
X86180239Y-132992435D01*
X86170963Y-133001206D01*
X86036182Y-133157352D01*
X86028860Y-133167809D01*
X85928229Y-133347868D01*
X85923159Y-133359583D01*
X85860789Y-133556198D01*
X85858178Y-133568694D01*
X85836617Y-133773835D01*
X85836572Y-133786601D01*
X85634000Y-133786601D01*
X85634000Y-130781641D01*
X86261038Y-130781641D01*
X86261038Y-131037765D01*
X86263194Y-131054141D01*
X86329484Y-131301538D01*
X86335805Y-131316798D01*
X86463867Y-131538608D01*
X86473922Y-131551712D01*
X86655029Y-131732819D01*
X86668133Y-131742874D01*
X86889943Y-131870936D01*
X86905203Y-131877257D01*
X87152600Y-131943547D01*
X87168976Y-131945703D01*
X87425100Y-131945703D01*
X87441476Y-131943547D01*
X87688873Y-131877257D01*
X87704133Y-131870936D01*
X87925943Y-131742874D01*
X87939047Y-131732819D01*
X88099928Y-131571938D01*
X101964000Y-131571938D01*
X101964000Y-131828062D01*
X101966156Y-131844438D01*
X102032446Y-132091835D01*
X102038767Y-132107095D01*
X102166829Y-132328905D01*
X102176884Y-132342009D01*
X102357991Y-132523116D01*
X102371095Y-132533171D01*
X102592905Y-132661233D01*
X102608165Y-132667554D01*
X102855562Y-132733844D01*
X102871938Y-132736000D01*
X103128062Y-132736000D01*
X103144438Y-132733844D01*
X103391835Y-132667554D01*
X103407095Y-132661233D01*
X103600000Y-132549859D01*
X103792905Y-132661233D01*
X103808165Y-132667554D01*
X104055562Y-132733844D01*
X104071938Y-132736000D01*
X104328062Y-132736000D01*
X104344438Y-132733844D01*
X104591835Y-132667554D01*
X104607095Y-132661233D01*
X104828905Y-132533171D01*
X104842009Y-132523116D01*
X105023116Y-132342009D01*
X105033171Y-132328905D01*
X105161233Y-132107095D01*
X105167554Y-132091835D01*
X105233844Y-131844438D01*
X105236000Y-131828062D01*
X105236000Y-131571938D01*
X119764000Y-131571938D01*
X119764000Y-131828062D01*
X119766156Y-131844438D01*
X119832446Y-132091835D01*
X119838767Y-132107095D01*
X119966829Y-132328905D01*
X119976884Y-132342009D01*
X120157991Y-132523116D01*
X120171095Y-132533171D01*
X120392905Y-132661233D01*
X120408165Y-132667554D01*
X120655562Y-132733844D01*
X120671938Y-132736000D01*
X120928062Y-132736000D01*
X120944438Y-132733844D01*
X121191835Y-132667554D01*
X121207095Y-132661233D01*
X121400000Y-132549859D01*
X121592905Y-132661233D01*
X121608165Y-132667554D01*
X121855562Y-132733844D01*
X121871938Y-132736000D01*
X122128062Y-132736000D01*
X122144438Y-132733844D01*
X122391835Y-132667554D01*
X122407095Y-132661233D01*
X122628905Y-132533171D01*
X122642009Y-132523116D01*
X122823116Y-132342009D01*
X122833171Y-132328905D01*
X122961233Y-132107095D01*
X122967554Y-132091835D01*
X123033844Y-131844438D01*
X123036000Y-131828062D01*
X123036000Y-131571938D01*
X123033844Y-131555562D01*
X122984642Y-131371938D01*
X126564000Y-131371938D01*
X126564000Y-131628062D01*
X126566156Y-131644438D01*
X126632446Y-131891835D01*
X126635828Y-131900000D01*
X126632446Y-131908165D01*
X126566156Y-132155562D01*
X126564000Y-132171938D01*
X126564000Y-132428062D01*
X126566156Y-132444438D01*
X126632446Y-132691835D01*
X126638767Y-132707095D01*
X126766829Y-132928905D01*
X126776884Y-132942009D01*
X126957991Y-133123116D01*
X126971095Y-133133171D01*
X127192905Y-133261233D01*
X127208165Y-133267554D01*
X127455562Y-133333844D01*
X127471938Y-133336000D01*
X127572273Y-133336000D01*
X127576884Y-133342009D01*
X127757991Y-133523116D01*
X127771095Y-133533171D01*
X127992905Y-133661233D01*
X128008165Y-133667554D01*
X128255562Y-133733844D01*
X128271938Y-133736000D01*
X128528062Y-133736000D01*
X128544438Y-133733844D01*
X128791835Y-133667554D01*
X128807095Y-133661233D01*
X129028905Y-133533171D01*
X129042009Y-133523116D01*
X129223116Y-133342009D01*
X129233171Y-133328905D01*
X129361233Y-133107095D01*
X129367554Y-133091835D01*
X129433844Y-132844438D01*
X129436000Y-132828062D01*
X129436000Y-132571938D01*
X129433844Y-132555562D01*
X129367554Y-132308165D01*
X129364172Y-132300000D01*
X129367554Y-132291835D01*
X129433844Y-132044438D01*
X129436000Y-132028062D01*
X129436000Y-131771938D01*
X129433844Y-131755562D01*
X129367554Y-131508165D01*
X129361233Y-131492905D01*
X129233171Y-131271095D01*
X129223116Y-131257991D01*
X129042009Y-131076884D01*
X129028905Y-131066829D01*
X128807095Y-130938767D01*
X128791835Y-130932446D01*
X128544438Y-130866156D01*
X128528062Y-130864000D01*
X128427727Y-130864000D01*
X128423116Y-130857991D01*
X128242009Y-130676884D01*
X128228905Y-130666829D01*
X128007095Y-130538767D01*
X127991835Y-130532446D01*
X127744438Y-130466156D01*
X127728062Y-130464000D01*
X127471938Y-130464000D01*
X127455562Y-130466156D01*
X127208165Y-130532446D01*
X127192905Y-130538767D01*
X126971095Y-130666829D01*
X126957991Y-130676884D01*
X126776884Y-130857991D01*
X126766829Y-130871095D01*
X126638767Y-131092905D01*
X126632446Y-131108165D01*
X126566156Y-131355562D01*
X126564000Y-131371938D01*
X122984642Y-131371938D01*
X122967554Y-131308165D01*
X122961233Y-131292905D01*
X122833171Y-131071095D01*
X122823116Y-131057991D01*
X122642009Y-130876884D01*
X122628905Y-130866829D01*
X122407095Y-130738767D01*
X122391835Y-130732446D01*
X122144438Y-130666156D01*
X122128062Y-130664000D01*
X121871938Y-130664000D01*
X121855562Y-130666156D01*
X121608165Y-130732446D01*
X121592905Y-130738767D01*
X121400000Y-130850141D01*
X121207095Y-130738767D01*
X121191835Y-130732446D01*
X120944438Y-130666156D01*
X120928062Y-130664000D01*
X120671938Y-130664000D01*
X120655562Y-130666156D01*
X120408165Y-130732446D01*
X120392905Y-130738767D01*
X120171095Y-130866829D01*
X120157991Y-130876884D01*
X119976884Y-131057991D01*
X119966829Y-131071095D01*
X119838767Y-131292905D01*
X119832446Y-131308165D01*
X119766156Y-131555562D01*
X119764000Y-131571938D01*
X105236000Y-131571938D01*
X105233844Y-131555562D01*
X105167554Y-131308165D01*
X105161233Y-131292905D01*
X105033171Y-131071095D01*
X105023116Y-131057991D01*
X104842009Y-130876884D01*
X104828905Y-130866829D01*
X104607095Y-130738767D01*
X104591835Y-130732446D01*
X104344438Y-130666156D01*
X104328062Y-130664000D01*
X104071938Y-130664000D01*
X104055562Y-130666156D01*
X103808165Y-130732446D01*
X103792905Y-130738767D01*
X103600000Y-130850141D01*
X103407095Y-130738767D01*
X103391835Y-130732446D01*
X103144438Y-130666156D01*
X103128062Y-130664000D01*
X102871938Y-130664000D01*
X102855562Y-130666156D01*
X102608165Y-130732446D01*
X102592905Y-130738767D01*
X102371095Y-130866829D01*
X102357991Y-130876884D01*
X102176884Y-131057991D01*
X102166829Y-131071095D01*
X102038767Y-131292905D01*
X102032446Y-131308165D01*
X101966156Y-131555562D01*
X101964000Y-131571938D01*
X88099928Y-131571938D01*
X88120154Y-131551712D01*
X88130209Y-131538608D01*
X88258271Y-131316798D01*
X88264592Y-131301538D01*
X88330882Y-131054141D01*
X88333038Y-131037765D01*
X88333038Y-130781641D01*
X88330882Y-130765265D01*
X88264592Y-130517868D01*
X88258271Y-130502608D01*
X88130209Y-130280798D01*
X88120154Y-130267694D01*
X87939047Y-130086587D01*
X87925943Y-130076532D01*
X87704133Y-129948470D01*
X87688873Y-129942149D01*
X87441476Y-129875859D01*
X87425100Y-129873703D01*
X87168976Y-129873703D01*
X87152600Y-129875859D01*
X86905203Y-129942149D01*
X86889943Y-129948470D01*
X86668133Y-130076532D01*
X86655029Y-130086587D01*
X86473922Y-130267694D01*
X86463867Y-130280798D01*
X86335805Y-130502608D01*
X86329484Y-130517868D01*
X86263194Y-130765265D01*
X86261038Y-130781641D01*
X85634000Y-130781641D01*
X85634000Y-128171938D01*
X109064000Y-128171938D01*
X109064000Y-128428062D01*
X109066156Y-128444438D01*
X109132446Y-128691835D01*
X109138767Y-128707095D01*
X109266829Y-128928905D01*
X109276884Y-128942009D01*
X109457991Y-129123116D01*
X109471095Y-129133171D01*
X109692905Y-129261233D01*
X109708165Y-129267554D01*
X109955562Y-129333844D01*
X109971938Y-129336000D01*
X110228062Y-129336000D01*
X110244438Y-129333844D01*
X110491835Y-129267554D01*
X110507095Y-129261233D01*
X110728905Y-129133171D01*
X110742009Y-129123116D01*
X110843187Y-129021938D01*
X133614000Y-129021938D01*
X133614000Y-129278062D01*
X133616156Y-129294438D01*
X133682446Y-129541835D01*
X133688767Y-129557095D01*
X133816829Y-129778905D01*
X133826884Y-129792009D01*
X134007991Y-129973116D01*
X134021095Y-129983171D01*
X134242905Y-130111233D01*
X134258165Y-130117554D01*
X134505562Y-130183844D01*
X134521938Y-130186000D01*
X134778062Y-130186000D01*
X134794438Y-130183844D01*
X135041835Y-130117554D01*
X135057095Y-130111233D01*
X135278905Y-129983171D01*
X135292009Y-129973116D01*
X135473116Y-129792009D01*
X135483171Y-129778905D01*
X135611233Y-129557095D01*
X135617554Y-129541835D01*
X135683844Y-129294438D01*
X135686000Y-129278062D01*
X135686000Y-129021938D01*
X135683844Y-129005562D01*
X135617554Y-128758165D01*
X135611233Y-128742905D01*
X135483171Y-128521095D01*
X135473116Y-128507991D01*
X135292009Y-128326884D01*
X135278905Y-128316829D01*
X135057095Y-128188767D01*
X135041835Y-128182446D01*
X134794438Y-128116156D01*
X134778062Y-128114000D01*
X134521938Y-128114000D01*
X134505562Y-128116156D01*
X134258165Y-128182446D01*
X134242905Y-128188767D01*
X134021095Y-128316829D01*
X134007991Y-128326884D01*
X133826884Y-128507991D01*
X133816829Y-128521095D01*
X133688767Y-128742905D01*
X133682446Y-128758165D01*
X133616156Y-129005562D01*
X133614000Y-129021938D01*
X110843187Y-129021938D01*
X110923116Y-128942009D01*
X110933171Y-128928905D01*
X111061233Y-128707095D01*
X111067554Y-128691835D01*
X111133844Y-128444438D01*
X111136000Y-128428062D01*
X111136000Y-128171938D01*
X111133844Y-128155562D01*
X111067554Y-127908165D01*
X111061233Y-127892905D01*
X110933171Y-127671095D01*
X110923116Y-127657991D01*
X110742009Y-127476884D01*
X110728905Y-127466829D01*
X110564549Y-127371938D01*
X114964000Y-127371938D01*
X114964000Y-127628062D01*
X114966156Y-127644438D01*
X115032446Y-127891835D01*
X115038767Y-127907095D01*
X115166829Y-128128905D01*
X115176884Y-128142009D01*
X115357991Y-128323116D01*
X115371095Y-128333171D01*
X115592905Y-128461233D01*
X115608165Y-128467554D01*
X115855562Y-128533844D01*
X115871938Y-128536000D01*
X116128062Y-128536000D01*
X116144438Y-128533844D01*
X116391835Y-128467554D01*
X116407095Y-128461233D01*
X116628905Y-128333171D01*
X116642009Y-128323116D01*
X116823116Y-128142009D01*
X116833171Y-128128905D01*
X116900000Y-128013154D01*
X116966829Y-128128905D01*
X116976884Y-128142009D01*
X117157991Y-128323116D01*
X117171095Y-128333171D01*
X117392905Y-128461233D01*
X117408165Y-128467554D01*
X117655562Y-128533844D01*
X117671938Y-128536000D01*
X117928062Y-128536000D01*
X117944438Y-128533844D01*
X118191835Y-128467554D01*
X118207095Y-128461233D01*
X118428905Y-128333171D01*
X118442009Y-128323116D01*
X118623116Y-128142009D01*
X118633171Y-128128905D01*
X118761233Y-127907095D01*
X118767554Y-127891835D01*
X118833844Y-127644438D01*
X118836000Y-127628062D01*
X118836000Y-127371938D01*
X118833844Y-127355562D01*
X118767554Y-127108165D01*
X118761233Y-127092905D01*
X118633171Y-126871095D01*
X118623116Y-126857991D01*
X118442009Y-126676884D01*
X118428905Y-126666829D01*
X118207095Y-126538767D01*
X118191835Y-126532446D01*
X117944438Y-126466156D01*
X117928062Y-126464000D01*
X117671938Y-126464000D01*
X117655562Y-126466156D01*
X117408165Y-126532446D01*
X117392905Y-126538767D01*
X117171095Y-126666829D01*
X117157991Y-126676884D01*
X116976884Y-126857991D01*
X116966829Y-126871095D01*
X116900000Y-126986846D01*
X116833171Y-126871095D01*
X116823116Y-126857991D01*
X116642009Y-126676884D01*
X116628905Y-126666829D01*
X116407095Y-126538767D01*
X116391835Y-126532446D01*
X116144438Y-126466156D01*
X116128062Y-126464000D01*
X115871938Y-126464000D01*
X115855562Y-126466156D01*
X115608165Y-126532446D01*
X115592905Y-126538767D01*
X115371095Y-126666829D01*
X115357991Y-126676884D01*
X115176884Y-126857991D01*
X115166829Y-126871095D01*
X115038767Y-127092905D01*
X115032446Y-127108165D01*
X114966156Y-127355562D01*
X114964000Y-127371938D01*
X110564549Y-127371938D01*
X110507095Y-127338767D01*
X110491835Y-127332446D01*
X110244438Y-127266156D01*
X110228062Y-127264000D01*
X109971938Y-127264000D01*
X109955562Y-127266156D01*
X109708165Y-127332446D01*
X109692905Y-127338767D01*
X109471095Y-127466829D01*
X109457991Y-127476884D01*
X109276884Y-127657991D01*
X109266829Y-127671095D01*
X109138767Y-127892905D01*
X109132446Y-127908165D01*
X109066156Y-128155562D01*
X109064000Y-128171938D01*
X85634000Y-128171938D01*
X85634000Y-124371938D01*
X104163990Y-124371938D01*
X104163990Y-124628062D01*
X104166146Y-124644438D01*
X104232436Y-124891835D01*
X104238757Y-124907095D01*
X104350136Y-125100009D01*
X104238767Y-125292905D01*
X104232446Y-125308165D01*
X104166156Y-125555562D01*
X104164000Y-125571938D01*
X104164000Y-125828062D01*
X104166156Y-125844438D01*
X104232446Y-126091835D01*
X104238767Y-126107095D01*
X104366829Y-126328905D01*
X104376884Y-126342009D01*
X104557991Y-126523116D01*
X104571095Y-126533171D01*
X104792905Y-126661233D01*
X104808165Y-126667554D01*
X105055562Y-126733844D01*
X105071938Y-126736000D01*
X105328062Y-126736000D01*
X105344438Y-126733844D01*
X105591835Y-126667554D01*
X105607095Y-126661233D01*
X105828905Y-126533171D01*
X105842009Y-126523116D01*
X106023116Y-126342009D01*
X106033171Y-126328905D01*
X106161233Y-126107095D01*
X106167554Y-126091835D01*
X106233844Y-125844438D01*
X106236000Y-125828062D01*
X106236000Y-125671959D01*
X108164000Y-125671959D01*
X108164000Y-125928083D01*
X108166156Y-125944459D01*
X108232446Y-126191856D01*
X108238767Y-126207116D01*
X108366829Y-126428926D01*
X108376884Y-126442030D01*
X108557991Y-126623137D01*
X108571095Y-126633192D01*
X108792905Y-126761254D01*
X108808165Y-126767575D01*
X109055562Y-126833865D01*
X109071938Y-126836021D01*
X109328062Y-126836021D01*
X109344438Y-126833865D01*
X109591835Y-126767575D01*
X109607095Y-126761254D01*
X109828905Y-126633192D01*
X109842009Y-126623137D01*
X110023116Y-126442030D01*
X110033171Y-126428926D01*
X110161233Y-126207116D01*
X110167554Y-126191856D01*
X110233844Y-125944459D01*
X110236000Y-125928083D01*
X110236000Y-125671959D01*
X110233844Y-125655583D01*
X110167554Y-125408186D01*
X110161233Y-125392926D01*
X110033171Y-125171116D01*
X110023116Y-125158012D01*
X109842009Y-124976905D01*
X109828905Y-124966850D01*
X109607095Y-124838788D01*
X109591835Y-124832467D01*
X109344438Y-124766177D01*
X109328062Y-124764021D01*
X109071938Y-124764021D01*
X109055562Y-124766177D01*
X108808165Y-124832467D01*
X108792905Y-124838788D01*
X108571095Y-124966850D01*
X108557991Y-124976905D01*
X108376884Y-125158012D01*
X108366829Y-125171116D01*
X108238767Y-125392926D01*
X108232446Y-125408186D01*
X108166156Y-125655583D01*
X108164000Y-125671959D01*
X106236000Y-125671959D01*
X106236000Y-125571938D01*
X106233844Y-125555562D01*
X106167554Y-125308165D01*
X106161233Y-125292905D01*
X106049854Y-125099991D01*
X106161223Y-124907095D01*
X106167544Y-124891835D01*
X106233834Y-124644438D01*
X106235990Y-124628062D01*
X106235990Y-124371938D01*
X111564000Y-124371938D01*
X111564000Y-124628062D01*
X111566156Y-124644438D01*
X111632446Y-124891835D01*
X111638767Y-124907095D01*
X111766829Y-125128905D01*
X111776884Y-125142009D01*
X111957991Y-125323116D01*
X111971095Y-125333171D01*
X112192905Y-125461233D01*
X112208165Y-125467554D01*
X112455562Y-125533844D01*
X112471938Y-125536000D01*
X112728062Y-125536000D01*
X112744438Y-125533844D01*
X112880354Y-125497425D01*
X112932446Y-125691835D01*
X112938767Y-125707095D01*
X113066829Y-125928905D01*
X113076884Y-125942009D01*
X113257991Y-126123116D01*
X113271095Y-126133171D01*
X113492905Y-126261233D01*
X113508165Y-126267554D01*
X113755562Y-126333844D01*
X113771938Y-126336000D01*
X114028062Y-126336000D01*
X114044438Y-126333844D01*
X114291835Y-126267554D01*
X114307095Y-126261233D01*
X114528905Y-126133171D01*
X114542009Y-126123116D01*
X114723116Y-125942009D01*
X114733171Y-125928905D01*
X114861233Y-125707095D01*
X114867554Y-125691835D01*
X114933844Y-125444438D01*
X114936000Y-125428062D01*
X114936000Y-125171938D01*
X114933844Y-125155562D01*
X114867554Y-124908165D01*
X114861233Y-124892905D01*
X114733171Y-124671095D01*
X114723116Y-124657991D01*
X114542009Y-124476884D01*
X114528905Y-124466829D01*
X114307095Y-124338767D01*
X114291835Y-124332446D01*
X114044438Y-124266156D01*
X114028062Y-124264000D01*
X113771938Y-124264000D01*
X113755562Y-124266156D01*
X113619646Y-124302575D01*
X113567554Y-124108165D01*
X113561233Y-124092905D01*
X113433171Y-123871095D01*
X113423116Y-123857991D01*
X113242009Y-123676884D01*
X113228905Y-123666829D01*
X113007095Y-123538767D01*
X112991835Y-123532446D01*
X112744438Y-123466156D01*
X112728062Y-123464000D01*
X112471938Y-123464000D01*
X112455562Y-123466156D01*
X112208165Y-123532446D01*
X112192905Y-123538767D01*
X111971095Y-123666829D01*
X111957991Y-123676884D01*
X111776884Y-123857991D01*
X111766829Y-123871095D01*
X111638767Y-124092905D01*
X111632446Y-124108165D01*
X111566156Y-124355562D01*
X111564000Y-124371938D01*
X106235990Y-124371938D01*
X106233834Y-124355562D01*
X106167544Y-124108165D01*
X106161223Y-124092905D01*
X106033161Y-123871095D01*
X106023106Y-123857991D01*
X105841999Y-123676884D01*
X105828895Y-123666829D01*
X105607085Y-123538767D01*
X105591825Y-123532446D01*
X105344428Y-123466156D01*
X105328052Y-123464000D01*
X105071928Y-123464000D01*
X105055552Y-123466156D01*
X104808155Y-123532446D01*
X104792895Y-123538767D01*
X104571085Y-123666829D01*
X104557981Y-123676884D01*
X104376874Y-123857991D01*
X104366819Y-123871095D01*
X104238757Y-124092905D01*
X104232436Y-124108165D01*
X104166146Y-124355562D01*
X104163990Y-124371938D01*
X85634000Y-124371938D01*
X85634000Y-121371938D01*
X103164000Y-121371938D01*
X103164000Y-121628062D01*
X103166156Y-121644438D01*
X103232446Y-121891835D01*
X103238767Y-121907095D01*
X103366829Y-122128905D01*
X103376884Y-122142009D01*
X103557991Y-122323116D01*
X103571095Y-122333171D01*
X103792905Y-122461233D01*
X103808165Y-122467554D01*
X104013917Y-122522685D01*
X104032446Y-122591835D01*
X104038767Y-122607095D01*
X104166829Y-122828905D01*
X104176884Y-122842009D01*
X104357991Y-123023116D01*
X104371095Y-123033171D01*
X104592905Y-123161233D01*
X104608165Y-123167554D01*
X104855562Y-123233844D01*
X104871938Y-123236000D01*
X105128062Y-123236000D01*
X105144438Y-123233844D01*
X105391835Y-123167554D01*
X105407095Y-123161233D01*
X105628905Y-123033171D01*
X105642009Y-123023116D01*
X105823116Y-122842009D01*
X105833171Y-122828905D01*
X105961233Y-122607095D01*
X105967554Y-122591835D01*
X105972882Y-122571948D01*
X108064000Y-122571948D01*
X108064000Y-122828072D01*
X108066156Y-122844448D01*
X108132446Y-123091845D01*
X108138767Y-123107105D01*
X108266829Y-123328915D01*
X108276884Y-123342019D01*
X108457991Y-123523126D01*
X108471095Y-123533181D01*
X108692905Y-123661243D01*
X108708165Y-123667564D01*
X108955562Y-123733854D01*
X108971938Y-123736010D01*
X109228062Y-123736010D01*
X109244438Y-123733854D01*
X109491835Y-123667564D01*
X109507095Y-123661243D01*
X109728905Y-123533181D01*
X109742009Y-123523126D01*
X109923116Y-123342019D01*
X109933171Y-123328915D01*
X110061233Y-123107105D01*
X110067554Y-123091845D01*
X110112950Y-122922426D01*
X110155562Y-122933844D01*
X110171938Y-122936000D01*
X110428062Y-122936000D01*
X110444438Y-122933844D01*
X110691835Y-122867554D01*
X110707095Y-122861233D01*
X110928905Y-122733171D01*
X110942009Y-122723116D01*
X111123116Y-122542009D01*
X111133171Y-122528905D01*
X111261233Y-122307095D01*
X111267554Y-122291835D01*
X111333844Y-122044438D01*
X111336000Y-122028062D01*
X111336000Y-121771938D01*
X111333844Y-121755562D01*
X111267554Y-121508165D01*
X111261233Y-121492905D01*
X111133171Y-121271095D01*
X111123116Y-121257991D01*
X110942009Y-121076884D01*
X110928905Y-121066829D01*
X110707095Y-120938767D01*
X110691835Y-120932446D01*
X110444438Y-120866156D01*
X110428062Y-120864000D01*
X110171938Y-120864000D01*
X110155562Y-120866156D01*
X109908165Y-120932446D01*
X109892905Y-120938767D01*
X109671095Y-121066829D01*
X109657991Y-121076884D01*
X109476884Y-121257991D01*
X109466829Y-121271095D01*
X109338767Y-121492905D01*
X109332446Y-121508165D01*
X109287050Y-121677584D01*
X109244438Y-121666166D01*
X109228062Y-121664010D01*
X108971938Y-121664010D01*
X108955562Y-121666166D01*
X108708165Y-121732456D01*
X108692905Y-121738777D01*
X108471095Y-121866839D01*
X108457991Y-121876894D01*
X108276884Y-122058001D01*
X108266829Y-122071105D01*
X108138767Y-122292915D01*
X108132446Y-122308175D01*
X108066156Y-122555572D01*
X108064000Y-122571948D01*
X105972882Y-122571948D01*
X106033844Y-122344438D01*
X106036000Y-122328062D01*
X106036000Y-122071938D01*
X106033844Y-122055562D01*
X105967554Y-121808165D01*
X105961233Y-121792905D01*
X105833171Y-121571095D01*
X105823116Y-121557991D01*
X105642009Y-121376884D01*
X105628905Y-121366829D01*
X105407095Y-121238767D01*
X105391835Y-121232446D01*
X105186083Y-121177315D01*
X105167554Y-121108165D01*
X105161233Y-121092905D01*
X105033171Y-120871095D01*
X105023116Y-120857991D01*
X104842009Y-120676884D01*
X104828905Y-120666829D01*
X104607095Y-120538767D01*
X104591835Y-120532446D01*
X104344438Y-120466156D01*
X104328062Y-120464000D01*
X104071938Y-120464000D01*
X104055562Y-120466156D01*
X103808165Y-120532446D01*
X103792905Y-120538767D01*
X103571095Y-120666829D01*
X103557991Y-120676884D01*
X103376884Y-120857991D01*
X103366829Y-120871095D01*
X103238767Y-121092905D01*
X103232446Y-121108165D01*
X103166156Y-121355562D01*
X103164000Y-121371938D01*
X85634000Y-121371938D01*
X85634000Y-120271938D01*
X105264000Y-120271938D01*
X105264000Y-120528062D01*
X105266156Y-120544438D01*
X105332446Y-120791835D01*
X105338767Y-120807095D01*
X105466829Y-121028905D01*
X105476884Y-121042009D01*
X105657991Y-121223116D01*
X105671095Y-121233171D01*
X105892905Y-121361233D01*
X105908165Y-121367554D01*
X106155562Y-121433844D01*
X106171938Y-121436000D01*
X106428062Y-121436000D01*
X106444438Y-121433844D01*
X106691835Y-121367554D01*
X106707095Y-121361233D01*
X106928905Y-121233171D01*
X106942009Y-121223116D01*
X107123116Y-121042009D01*
X107133171Y-121028905D01*
X107261233Y-120807095D01*
X107267554Y-120791835D01*
X107333844Y-120544438D01*
X107336000Y-120528062D01*
X107336000Y-120271938D01*
X107333844Y-120255562D01*
X107267554Y-120008165D01*
X107261233Y-119992905D01*
X107133171Y-119771095D01*
X107123116Y-119757991D01*
X106942009Y-119576884D01*
X106928905Y-119566829D01*
X106707095Y-119438767D01*
X106691835Y-119432446D01*
X106444438Y-119366156D01*
X106428062Y-119364000D01*
X106171938Y-119364000D01*
X106155562Y-119366156D01*
X105908165Y-119432446D01*
X105892905Y-119438767D01*
X105671095Y-119566829D01*
X105657991Y-119576884D01*
X105476884Y-119757991D01*
X105466829Y-119771095D01*
X105338767Y-119992905D01*
X105332446Y-120008165D01*
X105266156Y-120255562D01*
X105264000Y-120271938D01*
X85634000Y-120271938D01*
X85634000Y-118671938D01*
X87464000Y-118671938D01*
X87464000Y-118928062D01*
X87466156Y-118944438D01*
X87532446Y-119191835D01*
X87538767Y-119207095D01*
X87666829Y-119428905D01*
X87676884Y-119442009D01*
X87857991Y-119623116D01*
X87871095Y-119633171D01*
X88092905Y-119761233D01*
X88108165Y-119767554D01*
X88355562Y-119833844D01*
X88371938Y-119836000D01*
X88628062Y-119836000D01*
X88644438Y-119833844D01*
X88891835Y-119767554D01*
X88907095Y-119761233D01*
X89128905Y-119633171D01*
X89142009Y-119623116D01*
X89323116Y-119442009D01*
X89333171Y-119428905D01*
X89461233Y-119207095D01*
X89467554Y-119191835D01*
X89499680Y-119071938D01*
X102864000Y-119071938D01*
X102864000Y-119328062D01*
X102866156Y-119344438D01*
X102932446Y-119591835D01*
X102938767Y-119607095D01*
X103066829Y-119828905D01*
X103076884Y-119842009D01*
X103257991Y-120023116D01*
X103271095Y-120033171D01*
X103492905Y-120161233D01*
X103508165Y-120167554D01*
X103755562Y-120233844D01*
X103771938Y-120236000D01*
X104028062Y-120236000D01*
X104044438Y-120233844D01*
X104291835Y-120167554D01*
X104307095Y-120161233D01*
X104528905Y-120033171D01*
X104542009Y-120023116D01*
X104723116Y-119842009D01*
X104733171Y-119828905D01*
X104861233Y-119607095D01*
X104867554Y-119591835D01*
X104933844Y-119344438D01*
X104936000Y-119328062D01*
X104936000Y-119071938D01*
X104933844Y-119055562D01*
X104867554Y-118808165D01*
X104861233Y-118792905D01*
X104733171Y-118571095D01*
X104723116Y-118557991D01*
X104637063Y-118471938D01*
X107064000Y-118471938D01*
X107064000Y-118728062D01*
X107066156Y-118744438D01*
X107132446Y-118991835D01*
X107138767Y-119007095D01*
X107266829Y-119228905D01*
X107276884Y-119242009D01*
X107457991Y-119423116D01*
X107471095Y-119433171D01*
X107692905Y-119561233D01*
X107708165Y-119567554D01*
X107955562Y-119633844D01*
X107971938Y-119636000D01*
X108228062Y-119636000D01*
X108244438Y-119633844D01*
X108491835Y-119567554D01*
X108507095Y-119561233D01*
X108728905Y-119433171D01*
X108742009Y-119423116D01*
X108923116Y-119242009D01*
X108933171Y-119228905D01*
X109061233Y-119007095D01*
X109067554Y-118991835D01*
X109133844Y-118744438D01*
X109136000Y-118728062D01*
X109136000Y-118471938D01*
X109133844Y-118455562D01*
X109067554Y-118208165D01*
X109061233Y-118192905D01*
X108933171Y-117971095D01*
X108923116Y-117957991D01*
X108742009Y-117776884D01*
X108728905Y-117766829D01*
X108507095Y-117638767D01*
X108491835Y-117632446D01*
X108244438Y-117566156D01*
X108228062Y-117564000D01*
X107971938Y-117564000D01*
X107955562Y-117566156D01*
X107708165Y-117632446D01*
X107692905Y-117638767D01*
X107471095Y-117766829D01*
X107457991Y-117776884D01*
X107276884Y-117957991D01*
X107266829Y-117971095D01*
X107138767Y-118192905D01*
X107132446Y-118208165D01*
X107066156Y-118455562D01*
X107064000Y-118471938D01*
X104637063Y-118471938D01*
X104542009Y-118376884D01*
X104528905Y-118366829D01*
X104307095Y-118238767D01*
X104291835Y-118232446D01*
X104044438Y-118166156D01*
X104028062Y-118164000D01*
X103771938Y-118164000D01*
X103755562Y-118166156D01*
X103508165Y-118232446D01*
X103492905Y-118238767D01*
X103271095Y-118366829D01*
X103257991Y-118376884D01*
X103076884Y-118557991D01*
X103066829Y-118571095D01*
X102938767Y-118792905D01*
X102932446Y-118808165D01*
X102866156Y-119055562D01*
X102864000Y-119071938D01*
X89499680Y-119071938D01*
X89533844Y-118944438D01*
X89536000Y-118928062D01*
X89536000Y-118671938D01*
X89533844Y-118655562D01*
X89467554Y-118408165D01*
X89461233Y-118392905D01*
X89333171Y-118171095D01*
X89323116Y-118157991D01*
X89142009Y-117976884D01*
X89128905Y-117966829D01*
X88907095Y-117838767D01*
X88891835Y-117832446D01*
X88644438Y-117766156D01*
X88628062Y-117764000D01*
X88371938Y-117764000D01*
X88355562Y-117766156D01*
X88108165Y-117832446D01*
X88092905Y-117838767D01*
X87871095Y-117966829D01*
X87857991Y-117976884D01*
X87676884Y-118157991D01*
X87666829Y-118171095D01*
X87538767Y-118392905D01*
X87532446Y-118408165D01*
X87466156Y-118655562D01*
X87464000Y-118671938D01*
X85634000Y-118671938D01*
X85634000Y-115124598D01*
X85764541Y-115124598D01*
X85765035Y-115133164D01*
X85802133Y-115426832D01*
X85803785Y-115435252D01*
X85880397Y-115721168D01*
X85883176Y-115729285D01*
X85997881Y-116002159D01*
X86001736Y-116009824D01*
X86152413Y-116264606D01*
X86157273Y-116271677D01*
X86341134Y-116503652D01*
X86346909Y-116509998D01*
X86560551Y-116714873D01*
X86567133Y-116720377D01*
X86806605Y-116894363D01*
X86813873Y-116898922D01*
X87074740Y-117038798D01*
X87082560Y-117042329D01*
X87359998Y-117145507D01*
X87368224Y-117147944D01*
X87657098Y-117212514D01*
X87665579Y-117213812D01*
X87960543Y-117238581D01*
X87969122Y-117238716D01*
X88264718Y-117223225D01*
X88273236Y-117222194D01*
X88563996Y-117166728D01*
X88572295Y-117164551D01*
X88852836Y-117070138D01*
X88860762Y-117066855D01*
X89125895Y-116935242D01*
X89133303Y-116930914D01*
X89378121Y-116764536D01*
X89384873Y-116759242D01*
X89604846Y-116561178D01*
X89610816Y-116555016D01*
X89801873Y-116328930D01*
X89806953Y-116322015D01*
X89965559Y-116072093D01*
X89969653Y-116064553D01*
X90092873Y-115795417D01*
X90095905Y-115787391D01*
X90181459Y-115504022D01*
X90183375Y-115495659D01*
X90229731Y-115202974D01*
X90230505Y-115193766D01*
X90234073Y-114852988D01*
X90233493Y-114843766D01*
X90226271Y-114791043D01*
X92331109Y-114791043D01*
X92349188Y-115031497D01*
X92350885Y-115042034D01*
X92409221Y-115276005D01*
X92412669Y-115286104D01*
X92509591Y-115506900D01*
X92514692Y-115516275D01*
X92647430Y-115717584D01*
X92654038Y-115725965D01*
X92818798Y-115902032D01*
X92826722Y-115909180D01*
X93018792Y-116054968D01*
X93027808Y-116060679D01*
X93241696Y-116172021D01*
X93251545Y-116176131D01*
X93481134Y-116249844D01*
X93491535Y-116252236D01*
X93730262Y-116286212D01*
X93740917Y-116286817D01*
X93981956Y-116280084D01*
X93992561Y-116278885D01*
X94229019Y-116231636D01*
X94239270Y-116228667D01*
X94464387Y-116142253D01*
X94473991Y-116137600D01*
X94681330Y-116014491D01*
X94690012Y-116008286D01*
X94873645Y-115852004D01*
X94881158Y-115844424D01*
X95035833Y-115659435D01*
X95041962Y-115650698D01*
X95089486Y-115569043D01*
X95187430Y-115717584D01*
X95194038Y-115725965D01*
X95358798Y-115902032D01*
X95366722Y-115909180D01*
X95558792Y-116054968D01*
X95567808Y-116060679D01*
X95781696Y-116172021D01*
X95791545Y-116176131D01*
X96021134Y-116249844D01*
X96031535Y-116252236D01*
X96270262Y-116286212D01*
X96280917Y-116286817D01*
X96521956Y-116280084D01*
X96532561Y-116278885D01*
X96769019Y-116231636D01*
X96779270Y-116228667D01*
X97004387Y-116142253D01*
X97013991Y-116137600D01*
X97221330Y-116014491D01*
X97230012Y-116008286D01*
X97413645Y-115852004D01*
X97421158Y-115844424D01*
X97575833Y-115659435D01*
X97581962Y-115650698D01*
X97629486Y-115569043D01*
X97727430Y-115717584D01*
X97734038Y-115725965D01*
X97898798Y-115902032D01*
X97906722Y-115909180D01*
X98098792Y-116054968D01*
X98107808Y-116060679D01*
X98321696Y-116172021D01*
X98331545Y-116176131D01*
X98561134Y-116249844D01*
X98571535Y-116252236D01*
X98810262Y-116286212D01*
X98820917Y-116286817D01*
X99061956Y-116280084D01*
X99072561Y-116278885D01*
X99309019Y-116231636D01*
X99319270Y-116228667D01*
X99544387Y-116142253D01*
X99553991Y-116137600D01*
X99761330Y-116014491D01*
X99770012Y-116008286D01*
X99953645Y-115852004D01*
X99961158Y-115844424D01*
X100115833Y-115659435D01*
X100121962Y-115650698D01*
X100169486Y-115569043D01*
X100267430Y-115717584D01*
X100274038Y-115725965D01*
X100438798Y-115902032D01*
X100446722Y-115909180D01*
X100638792Y-116054968D01*
X100647808Y-116060679D01*
X100861696Y-116172021D01*
X100871545Y-116176131D01*
X101101134Y-116249844D01*
X101111535Y-116252236D01*
X101350262Y-116286212D01*
X101360917Y-116286817D01*
X101601956Y-116280084D01*
X101612561Y-116278885D01*
X101849019Y-116231636D01*
X101859270Y-116228667D01*
X102084387Y-116142253D01*
X102093991Y-116137600D01*
X102301330Y-116014491D01*
X102310012Y-116008286D01*
X102493645Y-115852004D01*
X102501158Y-115844424D01*
X102527403Y-115813035D01*
X102565137Y-115953859D01*
X102577880Y-115978339D01*
X102708990Y-116134590D01*
X102725879Y-116148761D01*
X102900120Y-116249359D01*
X102920837Y-116256900D01*
X103113538Y-116290878D01*
X103124499Y-116291837D01*
X104838258Y-116291837D01*
X104854634Y-116289681D01*
X105133859Y-116214863D01*
X105158339Y-116202120D01*
X105314590Y-116071010D01*
X105328761Y-116054121D01*
X105429359Y-115879880D01*
X105436900Y-115859163D01*
X105470878Y-115666462D01*
X105471837Y-115655501D01*
X105471837Y-115124598D01*
X142764541Y-115124598D01*
X142765035Y-115133164D01*
X142802133Y-115426832D01*
X142803785Y-115435252D01*
X142880397Y-115721168D01*
X142883176Y-115729285D01*
X142997881Y-116002159D01*
X143001736Y-116009824D01*
X143152413Y-116264606D01*
X143157273Y-116271677D01*
X143341134Y-116503652D01*
X143346909Y-116509998D01*
X143560551Y-116714873D01*
X143567133Y-116720377D01*
X143806605Y-116894363D01*
X143813873Y-116898922D01*
X144074740Y-117038798D01*
X144082560Y-117042329D01*
X144359998Y-117145507D01*
X144368224Y-117147944D01*
X144657098Y-117212514D01*
X144665579Y-117213812D01*
X144960543Y-117238581D01*
X144969122Y-117238716D01*
X145264718Y-117223225D01*
X145273236Y-117222194D01*
X145563996Y-117166728D01*
X145572295Y-117164551D01*
X145852836Y-117070138D01*
X145860762Y-117066855D01*
X146125895Y-116935242D01*
X146133303Y-116930914D01*
X146378121Y-116764536D01*
X146384873Y-116759242D01*
X146604846Y-116561178D01*
X146610816Y-116555016D01*
X146801873Y-116328930D01*
X146806953Y-116322015D01*
X146965559Y-116072093D01*
X146969653Y-116064553D01*
X147092873Y-115795417D01*
X147095905Y-115787391D01*
X147181459Y-115504022D01*
X147183375Y-115495659D01*
X147229731Y-115202974D01*
X147230505Y-115193766D01*
X147234073Y-114852988D01*
X147233493Y-114843766D01*
X147193276Y-114550176D01*
X147191536Y-114541774D01*
X147111936Y-114256675D01*
X147109072Y-114248588D01*
X146991515Y-113976930D01*
X146987580Y-113969306D01*
X146834243Y-113716116D01*
X146829309Y-113709096D01*
X146643029Y-113479060D01*
X146637188Y-113472775D01*
X146421412Y-113270147D01*
X146414772Y-113264713D01*
X146173493Y-113093244D01*
X146166177Y-113088761D01*
X145903859Y-112951625D01*
X145896003Y-112948176D01*
X145617500Y-112847909D01*
X145609248Y-112845558D01*
X145319715Y-112784016D01*
X145311220Y-112782807D01*
X145016013Y-112761128D01*
X145007433Y-112761083D01*
X144712015Y-112779669D01*
X144703508Y-112780789D01*
X144413346Y-112839297D01*
X144405070Y-112841561D01*
X144125533Y-112938905D01*
X144117641Y-112942272D01*
X143853901Y-113076654D01*
X143846539Y-113081060D01*
X143603476Y-113249992D01*
X143596781Y-113255357D01*
X143378894Y-113455713D01*
X143372988Y-113461937D01*
X143184309Y-113690011D01*
X143179302Y-113696979D01*
X143023323Y-113948549D01*
X143019308Y-113956131D01*
X142898912Y-114226543D01*
X142895964Y-114234601D01*
X142813382Y-114518850D01*
X142811554Y-114527233D01*
X142768313Y-114820059D01*
X142767640Y-114828613D01*
X142764541Y-115124598D01*
X105471837Y-115124598D01*
X105471837Y-113941742D01*
X105469681Y-113925366D01*
X105394863Y-113646142D01*
X105382120Y-113621662D01*
X105251010Y-113465410D01*
X105234121Y-113451239D01*
X105059880Y-113350641D01*
X105039163Y-113343100D01*
X104846462Y-113309122D01*
X104835501Y-113308163D01*
X103121742Y-113308163D01*
X103105366Y-113310319D01*
X102826142Y-113385137D01*
X102801662Y-113397880D01*
X102645410Y-113528990D01*
X102631239Y-113545879D01*
X102530641Y-113720120D01*
X102523100Y-113740837D01*
X102517521Y-113772479D01*
X102513647Y-113768417D01*
X102333049Y-113608638D01*
X102324486Y-113602267D01*
X102119549Y-113475202D01*
X102110036Y-113470365D01*
X101886619Y-113379645D01*
X101876427Y-113376480D01*
X101640919Y-113324700D01*
X101630340Y-113323298D01*
X101389475Y-113311939D01*
X101378809Y-113312339D01*
X101139474Y-113341727D01*
X101129030Y-113343918D01*
X100898068Y-113413210D01*
X100888142Y-113417130D01*
X100672155Y-113524346D01*
X100663032Y-113529882D01*
X100468199Y-113671957D01*
X100460138Y-113678952D01*
X100292029Y-113851822D01*
X100285263Y-113860074D01*
X100169229Y-114028903D01*
X100138067Y-113972916D01*
X100132107Y-113964064D01*
X99981013Y-113776140D01*
X99973647Y-113768417D01*
X99793049Y-113608638D01*
X99784486Y-113602267D01*
X99579549Y-113475202D01*
X99570036Y-113470365D01*
X99346619Y-113379645D01*
X99336427Y-113376480D01*
X99100919Y-113324700D01*
X99090340Y-113323298D01*
X98849475Y-113311939D01*
X98838809Y-113312339D01*
X98599474Y-113341727D01*
X98589030Y-113343918D01*
X98358068Y-113413210D01*
X98348142Y-113417130D01*
X98132155Y-113524346D01*
X98123032Y-113529882D01*
X97928199Y-113671957D01*
X97920138Y-113678952D01*
X97752029Y-113851822D01*
X97745263Y-113860074D01*
X97629229Y-114028903D01*
X97598067Y-113972916D01*
X97592107Y-113964064D01*
X97441013Y-113776140D01*
X97433647Y-113768417D01*
X97253049Y-113608638D01*
X97244486Y-113602267D01*
X97039549Y-113475202D01*
X97030036Y-113470365D01*
X96806619Y-113379645D01*
X96796427Y-113376480D01*
X96560919Y-113324700D01*
X96550340Y-113323298D01*
X96309475Y-113311939D01*
X96298809Y-113312339D01*
X96059474Y-113341727D01*
X96049030Y-113343918D01*
X95818068Y-113413210D01*
X95808142Y-113417130D01*
X95592155Y-113524346D01*
X95583032Y-113529882D01*
X95388199Y-113671957D01*
X95380138Y-113678952D01*
X95212029Y-113851822D01*
X95205263Y-113860074D01*
X95089229Y-114028903D01*
X95058067Y-113972916D01*
X95052107Y-113964064D01*
X94901013Y-113776140D01*
X94893647Y-113768417D01*
X94713049Y-113608638D01*
X94704486Y-113602267D01*
X94499549Y-113475202D01*
X94490036Y-113470365D01*
X94266619Y-113379645D01*
X94256427Y-113376480D01*
X94020919Y-113324700D01*
X94010340Y-113323298D01*
X93769475Y-113311939D01*
X93758809Y-113312339D01*
X93519474Y-113341727D01*
X93509030Y-113343918D01*
X93278068Y-113413210D01*
X93268142Y-113417130D01*
X93052155Y-113524346D01*
X93043032Y-113529882D01*
X92848199Y-113671957D01*
X92840138Y-113678952D01*
X92672029Y-113851822D01*
X92665263Y-113860074D01*
X92528683Y-114058798D01*
X92523403Y-114068073D01*
X92422260Y-114286968D01*
X92418618Y-114297000D01*
X92355802Y-114529807D01*
X92353903Y-114540309D01*
X92331211Y-114780372D01*
X92331109Y-114791043D01*
X90226271Y-114791043D01*
X90193276Y-114550176D01*
X90191536Y-114541774D01*
X90111936Y-114256675D01*
X90109072Y-114248588D01*
X89991515Y-113976930D01*
X89987580Y-113969306D01*
X89834243Y-113716116D01*
X89829309Y-113709096D01*
X89643029Y-113479060D01*
X89637188Y-113472775D01*
X89421412Y-113270147D01*
X89414772Y-113264713D01*
X89173493Y-113093244D01*
X89166177Y-113088761D01*
X88903859Y-112951625D01*
X88896003Y-112948176D01*
X88617500Y-112847909D01*
X88609248Y-112845558D01*
X88319715Y-112784016D01*
X88311220Y-112782807D01*
X88016013Y-112761128D01*
X88007433Y-112761083D01*
X87712015Y-112779669D01*
X87703508Y-112780789D01*
X87413346Y-112839297D01*
X87405070Y-112841561D01*
X87125533Y-112938905D01*
X87117641Y-112942272D01*
X86853901Y-113076654D01*
X86846539Y-113081060D01*
X86603476Y-113249992D01*
X86596781Y-113255357D01*
X86378894Y-113455713D01*
X86372988Y-113461937D01*
X86184309Y-113690011D01*
X86179302Y-113696979D01*
X86023323Y-113948549D01*
X86019308Y-113956131D01*
X85898912Y-114226543D01*
X85895964Y-114234601D01*
X85813382Y-114518850D01*
X85811554Y-114527233D01*
X85768313Y-114820059D01*
X85767640Y-114828613D01*
X85764541Y-115124598D01*
X85634000Y-115124598D01*
X85634000Y-112634000D01*
X147366001Y-112634000D01*
X147366000Y-142366000D01*
M02*
