G04 #@! TF.GenerationSoftware,KiCad,Pcbnew,5.99.0-unknown-acdfeee~88~ubuntu18.04.1*
G04 #@! TF.CreationDate,2020-05-13T21:49:14+03:00*
G04 #@! TF.ProjectId,LoRaNode,4c6f5261-4e6f-4646-952e-6b696361645f,1.1*
G04 #@! TF.SameCoordinates,Original*
G04 #@! TF.FileFunction,Soldermask,Top*
G04 #@! TF.FilePolarity,Negative*
%FSLAX46Y46*%
G04 Gerber Fmt 4.6, Leading zero omitted, Abs format (unit mm)*
G04 Created by KiCad (PCBNEW 5.99.0-unknown-acdfeee~88~ubuntu18.04.1) date 2020-05-13 21:49:14*
%MOMM*%
%LPD*%
G01*
G04 APERTURE LIST*
%ADD10O,1.802000X1.802000*%
%ADD11O,2.100980X2.100980*%
%ADD12O,1.902000X1.202000*%
%ADD13O,2.302000X1.202000*%
%ADD14C,2.000000*%
%ADD15C,3.302000*%
%ADD16C,0.889400*%
G04 APERTURE END LIST*
G36*
G01*
X103130000Y-113899000D02*
X104830000Y-113899000D01*
G75*
G02*
X104881000Y-113950000I0J-51000D01*
G01*
X104881000Y-115650000D01*
G75*
G02*
X104830000Y-115701000I-51000J0D01*
G01*
X103130000Y-115701000D01*
G75*
G02*
X103079000Y-115650000I0J51000D01*
G01*
X103079000Y-113950000D01*
G75*
G02*
X103130000Y-113899000I51000J0D01*
G01*
G37*
D10*
X101440000Y-114800000D03*
X98900000Y-114800000D03*
X96360000Y-114800000D03*
X93820000Y-114800000D03*
D11*
X130120000Y-139600000D03*
G36*
G01*
X126529510Y-140599490D02*
X126529510Y-138600510D01*
G75*
G02*
X126580510Y-138549510I51000J0D01*
G01*
X128579490Y-138549510D01*
G75*
G02*
X128630490Y-138600510I0J-51000D01*
G01*
X128630490Y-140599490D01*
G75*
G02*
X128579490Y-140650490I-51000J0D01*
G01*
X126580510Y-140650490D01*
G75*
G02*
X126529510Y-140599490I0J51000D01*
G01*
G37*
G36*
G01*
X96818250Y-136599000D02*
X97381750Y-136599000D01*
G75*
G02*
X97626000Y-136843250I0J-244250D01*
G01*
X97626000Y-137331750D01*
G75*
G02*
X97381750Y-137576000I-244250J0D01*
G01*
X96818250Y-137576000D01*
G75*
G02*
X96574000Y-137331750I0J244250D01*
G01*
X96574000Y-136843250D01*
G75*
G02*
X96818250Y-136599000I244250J0D01*
G01*
G37*
G36*
G01*
X96818250Y-135024000D02*
X97381750Y-135024000D01*
G75*
G02*
X97626000Y-135268250I0J-244250D01*
G01*
X97626000Y-135756750D01*
G75*
G02*
X97381750Y-136001000I-244250J0D01*
G01*
X96818250Y-136001000D01*
G75*
G02*
X96574000Y-135756750I0J244250D01*
G01*
X96574000Y-135268250D01*
G75*
G02*
X96818250Y-135024000I244250J0D01*
G01*
G37*
X125040000Y-139600000D03*
G36*
G01*
X118470490Y-138600510D02*
X118470490Y-140599490D01*
G75*
G02*
X118419490Y-140650490I-51000J0D01*
G01*
X116420510Y-140650490D01*
G75*
G02*
X116369510Y-140599490I0J51000D01*
G01*
X116369510Y-138600510D01*
G75*
G02*
X116420510Y-138549510I51000J0D01*
G01*
X118419490Y-138549510D01*
G75*
G02*
X118470490Y-138600510I0J-51000D01*
G01*
G37*
X119960000Y-139600000D03*
X122500000Y-139600000D03*
X114880000Y-139600000D03*
G36*
G01*
X108310490Y-138600510D02*
X108310490Y-140599490D01*
G75*
G02*
X108259490Y-140650490I-51000J0D01*
G01*
X106260510Y-140650490D01*
G75*
G02*
X106209510Y-140599490I0J51000D01*
G01*
X106209510Y-138600510D01*
G75*
G02*
X106260510Y-138549510I51000J0D01*
G01*
X108259490Y-138549510D01*
G75*
G02*
X108310490Y-138600510I0J-51000D01*
G01*
G37*
X109800000Y-139600000D03*
X112340000Y-139600000D03*
G36*
G01*
X93026000Y-121039500D02*
X93026000Y-121440500D01*
G75*
G02*
X92825500Y-121641000I-200500J0D01*
G01*
X92174500Y-121641000D01*
G75*
G02*
X91974000Y-121440500I0J200500D01*
G01*
X91974000Y-121039500D01*
G75*
G02*
X92174500Y-120839000I200500J0D01*
G01*
X92825500Y-120839000D01*
G75*
G02*
X93026000Y-121039500I0J-200500D01*
G01*
G37*
G36*
G01*
X93026000Y-122239500D02*
X93026000Y-122640500D01*
G75*
G02*
X92825500Y-122841000I-200500J0D01*
G01*
X92174500Y-122841000D01*
G75*
G02*
X91974000Y-122640500I0J200500D01*
G01*
X91974000Y-122239500D01*
G75*
G02*
X92174500Y-122039000I200500J0D01*
G01*
X92825500Y-122039000D01*
G75*
G02*
X93026000Y-122239500I0J-200500D01*
G01*
G37*
G36*
G01*
X93026000Y-123439500D02*
X93026000Y-123840500D01*
G75*
G02*
X92825500Y-124041000I-200500J0D01*
G01*
X92174500Y-124041000D01*
G75*
G02*
X91974000Y-123840500I0J200500D01*
G01*
X91974000Y-123439500D01*
G75*
G02*
X92174500Y-123239000I200500J0D01*
G01*
X92825500Y-123239000D01*
G75*
G02*
X93026000Y-123439500I0J-200500D01*
G01*
G37*
G36*
G01*
X93026000Y-124639500D02*
X93026000Y-125040500D01*
G75*
G02*
X92825500Y-125241000I-200500J0D01*
G01*
X92174500Y-125241000D01*
G75*
G02*
X91974000Y-125040500I0J200500D01*
G01*
X91974000Y-124639500D01*
G75*
G02*
X92174500Y-124439000I200500J0D01*
G01*
X92825500Y-124439000D01*
G75*
G02*
X93026000Y-124639500I0J-200500D01*
G01*
G37*
G36*
G01*
X93026000Y-125839500D02*
X93026000Y-126240500D01*
G75*
G02*
X92825500Y-126441000I-200500J0D01*
G01*
X92174500Y-126441000D01*
G75*
G02*
X91974000Y-126240500I0J200500D01*
G01*
X91974000Y-125839500D01*
G75*
G02*
X92174500Y-125639000I200500J0D01*
G01*
X92825500Y-125639000D01*
G75*
G02*
X93026000Y-125839500I0J-200500D01*
G01*
G37*
G36*
G01*
X93026000Y-127039500D02*
X93026000Y-127440500D01*
G75*
G02*
X92825500Y-127641000I-200500J0D01*
G01*
X92174500Y-127641000D01*
G75*
G02*
X91974000Y-127440500I0J200500D01*
G01*
X91974000Y-127039500D01*
G75*
G02*
X92174500Y-126839000I200500J0D01*
G01*
X92825500Y-126839000D01*
G75*
G02*
X93026000Y-127039500I0J-200500D01*
G01*
G37*
G36*
G01*
X93026000Y-128239500D02*
X93026000Y-128640500D01*
G75*
G02*
X92825500Y-128841000I-200500J0D01*
G01*
X92174500Y-128841000D01*
G75*
G02*
X91974000Y-128640500I0J200500D01*
G01*
X91974000Y-128239500D01*
G75*
G02*
X92174500Y-128039000I200500J0D01*
G01*
X92825500Y-128039000D01*
G75*
G02*
X93026000Y-128239500I0J-200500D01*
G01*
G37*
G36*
G01*
X93026000Y-129439500D02*
X93026000Y-129840500D01*
G75*
G02*
X92825500Y-130041000I-200500J0D01*
G01*
X92174500Y-130041000D01*
G75*
G02*
X91974000Y-129840500I0J200500D01*
G01*
X91974000Y-129439500D01*
G75*
G02*
X92174500Y-129239000I200500J0D01*
G01*
X92825500Y-129239000D01*
G75*
G02*
X93026000Y-129439500I0J-200500D01*
G01*
G37*
G36*
G01*
X93026000Y-130639500D02*
X93026000Y-131040500D01*
G75*
G02*
X92825500Y-131241000I-200500J0D01*
G01*
X92174500Y-131241000D01*
G75*
G02*
X91974000Y-131040500I0J200500D01*
G01*
X91974000Y-130639500D01*
G75*
G02*
X92174500Y-130439000I200500J0D01*
G01*
X92825500Y-130439000D01*
G75*
G02*
X93026000Y-130639500I0J-200500D01*
G01*
G37*
G36*
G01*
X104049500Y-117274000D02*
X104450500Y-117274000D01*
G75*
G02*
X104651000Y-117474500I0J-200500D01*
G01*
X104651000Y-118125500D01*
G75*
G02*
X104450500Y-118326000I-200500J0D01*
G01*
X104049500Y-118326000D01*
G75*
G02*
X103849000Y-118125500I0J200500D01*
G01*
X103849000Y-117474500D01*
G75*
G02*
X104049500Y-117274000I200500J0D01*
G01*
G37*
G36*
G01*
X102849500Y-117274000D02*
X103250500Y-117274000D01*
G75*
G02*
X103451000Y-117474500I0J-200500D01*
G01*
X103451000Y-118125500D01*
G75*
G02*
X103250500Y-118326000I-200500J0D01*
G01*
X102849500Y-118326000D01*
G75*
G02*
X102649000Y-118125500I0J200500D01*
G01*
X102649000Y-117474500D01*
G75*
G02*
X102849500Y-117274000I200500J0D01*
G01*
G37*
G36*
G01*
X101649500Y-117274000D02*
X102050500Y-117274000D01*
G75*
G02*
X102251000Y-117474500I0J-200500D01*
G01*
X102251000Y-118125500D01*
G75*
G02*
X102050500Y-118326000I-200500J0D01*
G01*
X101649500Y-118326000D01*
G75*
G02*
X101449000Y-118125500I0J200500D01*
G01*
X101449000Y-117474500D01*
G75*
G02*
X101649500Y-117274000I200500J0D01*
G01*
G37*
G36*
G01*
X100449500Y-117274000D02*
X100850500Y-117274000D01*
G75*
G02*
X101051000Y-117474500I0J-200500D01*
G01*
X101051000Y-118125500D01*
G75*
G02*
X100850500Y-118326000I-200500J0D01*
G01*
X100449500Y-118326000D01*
G75*
G02*
X100249000Y-118125500I0J200500D01*
G01*
X100249000Y-117474500D01*
G75*
G02*
X100449500Y-117274000I200500J0D01*
G01*
G37*
G36*
G01*
X99249500Y-117274000D02*
X99650500Y-117274000D01*
G75*
G02*
X99851000Y-117474500I0J-200500D01*
G01*
X99851000Y-118125500D01*
G75*
G02*
X99650500Y-118326000I-200500J0D01*
G01*
X99249500Y-118326000D01*
G75*
G02*
X99049000Y-118125500I0J200500D01*
G01*
X99049000Y-117474500D01*
G75*
G02*
X99249500Y-117274000I200500J0D01*
G01*
G37*
G36*
G01*
X98049500Y-117274000D02*
X98450500Y-117274000D01*
G75*
G02*
X98651000Y-117474500I0J-200500D01*
G01*
X98651000Y-118125500D01*
G75*
G02*
X98450500Y-118326000I-200500J0D01*
G01*
X98049500Y-118326000D01*
G75*
G02*
X97849000Y-118125500I0J200500D01*
G01*
X97849000Y-117474500D01*
G75*
G02*
X98049500Y-117274000I200500J0D01*
G01*
G37*
G36*
G01*
X96849500Y-117274000D02*
X97250500Y-117274000D01*
G75*
G02*
X97451000Y-117474500I0J-200500D01*
G01*
X97451000Y-118125500D01*
G75*
G02*
X97250500Y-118326000I-200500J0D01*
G01*
X96849500Y-118326000D01*
G75*
G02*
X96649000Y-118125500I0J200500D01*
G01*
X96649000Y-117474500D01*
G75*
G02*
X96849500Y-117274000I200500J0D01*
G01*
G37*
G36*
G01*
X95649500Y-117274000D02*
X96050500Y-117274000D01*
G75*
G02*
X96251000Y-117474500I0J-200500D01*
G01*
X96251000Y-118125500D01*
G75*
G02*
X96050500Y-118326000I-200500J0D01*
G01*
X95649500Y-118326000D01*
G75*
G02*
X95449000Y-118125500I0J200500D01*
G01*
X95449000Y-117474500D01*
G75*
G02*
X95649500Y-117274000I200500J0D01*
G01*
G37*
G36*
G01*
X94449500Y-117274000D02*
X94850500Y-117274000D01*
G75*
G02*
X95051000Y-117474500I0J-200500D01*
G01*
X95051000Y-118125500D01*
G75*
G02*
X94850500Y-118326000I-200500J0D01*
G01*
X94449500Y-118326000D01*
G75*
G02*
X94249000Y-118125500I0J200500D01*
G01*
X94249000Y-117474500D01*
G75*
G02*
X94449500Y-117274000I200500J0D01*
G01*
G37*
G36*
G01*
X108026000Y-119699500D02*
X108026000Y-120100500D01*
G75*
G02*
X107825500Y-120301000I-200500J0D01*
G01*
X107174500Y-120301000D01*
G75*
G02*
X106974000Y-120100500I0J200500D01*
G01*
X106974000Y-119699500D01*
G75*
G02*
X107174500Y-119499000I200500J0D01*
G01*
X107825500Y-119499000D01*
G75*
G02*
X108026000Y-119699500I0J-200500D01*
G01*
G37*
G36*
G01*
X108026000Y-120899500D02*
X108026000Y-121300500D01*
G75*
G02*
X107825500Y-121501000I-200500J0D01*
G01*
X107174500Y-121501000D01*
G75*
G02*
X106974000Y-121300500I0J200500D01*
G01*
X106974000Y-120899500D01*
G75*
G02*
X107174500Y-120699000I200500J0D01*
G01*
X107825500Y-120699000D01*
G75*
G02*
X108026000Y-120899500I0J-200500D01*
G01*
G37*
G36*
G01*
X108026000Y-122099500D02*
X108026000Y-122500500D01*
G75*
G02*
X107825500Y-122701000I-200500J0D01*
G01*
X107174500Y-122701000D01*
G75*
G02*
X106974000Y-122500500I0J200500D01*
G01*
X106974000Y-122099500D01*
G75*
G02*
X107174500Y-121899000I200500J0D01*
G01*
X107825500Y-121899000D01*
G75*
G02*
X108026000Y-122099500I0J-200500D01*
G01*
G37*
G36*
G01*
X108026000Y-123299500D02*
X108026000Y-123700500D01*
G75*
G02*
X107825500Y-123901000I-200500J0D01*
G01*
X107174500Y-123901000D01*
G75*
G02*
X106974000Y-123700500I0J200500D01*
G01*
X106974000Y-123299500D01*
G75*
G02*
X107174500Y-123099000I200500J0D01*
G01*
X107825500Y-123099000D01*
G75*
G02*
X108026000Y-123299500I0J-200500D01*
G01*
G37*
G36*
G01*
X108026000Y-124499500D02*
X108026000Y-124900500D01*
G75*
G02*
X107825500Y-125101000I-200500J0D01*
G01*
X107174500Y-125101000D01*
G75*
G02*
X106974000Y-124900500I0J200500D01*
G01*
X106974000Y-124499500D01*
G75*
G02*
X107174500Y-124299000I200500J0D01*
G01*
X107825500Y-124299000D01*
G75*
G02*
X108026000Y-124499500I0J-200500D01*
G01*
G37*
G36*
G01*
X108026000Y-125699500D02*
X108026000Y-126100500D01*
G75*
G02*
X107825500Y-126301000I-200500J0D01*
G01*
X107174500Y-126301000D01*
G75*
G02*
X106974000Y-126100500I0J200500D01*
G01*
X106974000Y-125699500D01*
G75*
G02*
X107174500Y-125499000I200500J0D01*
G01*
X107825500Y-125499000D01*
G75*
G02*
X108026000Y-125699500I0J-200500D01*
G01*
G37*
G36*
G01*
X108026000Y-126899500D02*
X108026000Y-127300500D01*
G75*
G02*
X107825500Y-127501000I-200500J0D01*
G01*
X107174500Y-127501000D01*
G75*
G02*
X106974000Y-127300500I0J200500D01*
G01*
X106974000Y-126899500D01*
G75*
G02*
X107174500Y-126699000I200500J0D01*
G01*
X107825500Y-126699000D01*
G75*
G02*
X108026000Y-126899500I0J-200500D01*
G01*
G37*
G36*
G01*
X108026000Y-128099500D02*
X108026000Y-128500500D01*
G75*
G02*
X107825500Y-128701000I-200500J0D01*
G01*
X107174500Y-128701000D01*
G75*
G02*
X106974000Y-128500500I0J200500D01*
G01*
X106974000Y-128099500D01*
G75*
G02*
X107174500Y-127899000I200500J0D01*
G01*
X107825500Y-127899000D01*
G75*
G02*
X108026000Y-128099500I0J-200500D01*
G01*
G37*
G36*
G01*
X108026000Y-129299500D02*
X108026000Y-129700500D01*
G75*
G02*
X107825500Y-129901000I-200500J0D01*
G01*
X107174500Y-129901000D01*
G75*
G02*
X106974000Y-129700500I0J200500D01*
G01*
X106974000Y-129299500D01*
G75*
G02*
X107174500Y-129099000I200500J0D01*
G01*
X107825500Y-129099000D01*
G75*
G02*
X108026000Y-129299500I0J-200500D01*
G01*
G37*
G36*
G01*
X105580500Y-133326000D02*
X105179500Y-133326000D01*
G75*
G02*
X104979000Y-133125500I0J200500D01*
G01*
X104979000Y-132474500D01*
G75*
G02*
X105179500Y-132274000I200500J0D01*
G01*
X105580500Y-132274000D01*
G75*
G02*
X105781000Y-132474500I0J-200500D01*
G01*
X105781000Y-133125500D01*
G75*
G02*
X105580500Y-133326000I-200500J0D01*
G01*
G37*
G36*
G01*
X104380500Y-133326000D02*
X103979500Y-133326000D01*
G75*
G02*
X103779000Y-133125500I0J200500D01*
G01*
X103779000Y-132474500D01*
G75*
G02*
X103979500Y-132274000I200500J0D01*
G01*
X104380500Y-132274000D01*
G75*
G02*
X104581000Y-132474500I0J-200500D01*
G01*
X104581000Y-133125500D01*
G75*
G02*
X104380500Y-133326000I-200500J0D01*
G01*
G37*
G36*
G01*
X103180500Y-133326000D02*
X102779500Y-133326000D01*
G75*
G02*
X102579000Y-133125500I0J200500D01*
G01*
X102579000Y-132474500D01*
G75*
G02*
X102779500Y-132274000I200500J0D01*
G01*
X103180500Y-132274000D01*
G75*
G02*
X103381000Y-132474500I0J-200500D01*
G01*
X103381000Y-133125500D01*
G75*
G02*
X103180500Y-133326000I-200500J0D01*
G01*
G37*
G36*
G01*
X101980500Y-133326000D02*
X101579500Y-133326000D01*
G75*
G02*
X101379000Y-133125500I0J200500D01*
G01*
X101379000Y-132474500D01*
G75*
G02*
X101579500Y-132274000I200500J0D01*
G01*
X101980500Y-132274000D01*
G75*
G02*
X102181000Y-132474500I0J-200500D01*
G01*
X102181000Y-133125500D01*
G75*
G02*
X101980500Y-133326000I-200500J0D01*
G01*
G37*
G36*
G01*
X100780500Y-133326000D02*
X100379500Y-133326000D01*
G75*
G02*
X100179000Y-133125500I0J200500D01*
G01*
X100179000Y-132474500D01*
G75*
G02*
X100379500Y-132274000I200500J0D01*
G01*
X100780500Y-132274000D01*
G75*
G02*
X100981000Y-132474500I0J-200500D01*
G01*
X100981000Y-133125500D01*
G75*
G02*
X100780500Y-133326000I-200500J0D01*
G01*
G37*
G36*
G01*
X99580500Y-133326000D02*
X99179500Y-133326000D01*
G75*
G02*
X98979000Y-133125500I0J200500D01*
G01*
X98979000Y-132474500D01*
G75*
G02*
X99179500Y-132274000I200500J0D01*
G01*
X99580500Y-132274000D01*
G75*
G02*
X99781000Y-132474500I0J-200500D01*
G01*
X99781000Y-133125500D01*
G75*
G02*
X99580500Y-133326000I-200500J0D01*
G01*
G37*
G36*
G01*
X98380500Y-133326000D02*
X97979500Y-133326000D01*
G75*
G02*
X97779000Y-133125500I0J200500D01*
G01*
X97779000Y-132474500D01*
G75*
G02*
X97979500Y-132274000I200500J0D01*
G01*
X98380500Y-132274000D01*
G75*
G02*
X98581000Y-132474500I0J-200500D01*
G01*
X98581000Y-133125500D01*
G75*
G02*
X98380500Y-133326000I-200500J0D01*
G01*
G37*
G36*
G01*
X97180500Y-133326000D02*
X96779500Y-133326000D01*
G75*
G02*
X96579000Y-133125500I0J200500D01*
G01*
X96579000Y-132474500D01*
G75*
G02*
X96779500Y-132274000I200500J0D01*
G01*
X97180500Y-132274000D01*
G75*
G02*
X97381000Y-132474500I0J-200500D01*
G01*
X97381000Y-133125500D01*
G75*
G02*
X97180500Y-133326000I-200500J0D01*
G01*
G37*
G36*
G01*
X95980500Y-133326000D02*
X95579500Y-133326000D01*
G75*
G02*
X95379000Y-133125500I0J200500D01*
G01*
X95379000Y-132474500D01*
G75*
G02*
X95579500Y-132274000I200500J0D01*
G01*
X95980500Y-132274000D01*
G75*
G02*
X96181000Y-132474500I0J-200500D01*
G01*
X96181000Y-133125500D01*
G75*
G02*
X95980500Y-133326000I-200500J0D01*
G01*
G37*
G36*
G01*
X107230000Y-131951000D02*
X105730000Y-131951000D01*
G75*
G02*
X105679000Y-131900000I0J51000D01*
G01*
X105679000Y-130400000D01*
G75*
G02*
X105730000Y-130349000I51000J0D01*
G01*
X107230000Y-130349000D01*
G75*
G02*
X107281000Y-130400000I0J-51000D01*
G01*
X107281000Y-131900000D01*
G75*
G02*
X107230000Y-131951000I-51000J0D01*
G01*
G37*
G36*
G01*
X106600000Y-119501000D02*
X105100000Y-119501000D01*
G75*
G02*
X105049000Y-119450000I0J51000D01*
G01*
X105049000Y-117950000D01*
G75*
G02*
X105100000Y-117899000I51000J0D01*
G01*
X106600000Y-117899000D01*
G75*
G02*
X106651000Y-117950000I0J-51000D01*
G01*
X106651000Y-119450000D01*
G75*
G02*
X106600000Y-119501000I-51000J0D01*
G01*
G37*
G36*
G01*
X94280000Y-120271000D02*
X92780000Y-120271000D01*
G75*
G02*
X92729000Y-120220000I0J51000D01*
G01*
X92729000Y-118720000D01*
G75*
G02*
X92780000Y-118669000I51000J0D01*
G01*
X94280000Y-118669000D01*
G75*
G02*
X94331000Y-118720000I0J-51000D01*
G01*
X94331000Y-120220000D01*
G75*
G02*
X94280000Y-120271000I-51000J0D01*
G01*
G37*
G36*
G01*
X95040000Y-132711000D02*
X93540000Y-132711000D01*
G75*
G02*
X93489000Y-132660000I0J51000D01*
G01*
X93489000Y-131160000D01*
G75*
G02*
X93540000Y-131109000I51000J0D01*
G01*
X95040000Y-131109000D01*
G75*
G02*
X95091000Y-131160000I0J-51000D01*
G01*
X95091000Y-132660000D01*
G75*
G02*
X95040000Y-132711000I-51000J0D01*
G01*
G37*
G36*
G01*
X137024000Y-140150000D02*
X137024000Y-138650000D01*
G75*
G02*
X137075000Y-138599000I51000J0D01*
G01*
X137525000Y-138599000D01*
G75*
G02*
X137576000Y-138650000I0J-51000D01*
G01*
X137576000Y-140150000D01*
G75*
G02*
X137525000Y-140201000I-51000J0D01*
G01*
X137075000Y-140201000D01*
G75*
G02*
X137024000Y-140150000I0J51000D01*
G01*
G37*
G36*
G01*
X137674000Y-140150000D02*
X137674000Y-138650000D01*
G75*
G02*
X137725000Y-138599000I51000J0D01*
G01*
X138175000Y-138599000D01*
G75*
G02*
X138226000Y-138650000I0J-51000D01*
G01*
X138226000Y-140150000D01*
G75*
G02*
X138175000Y-140201000I-51000J0D01*
G01*
X137725000Y-140201000D01*
G75*
G02*
X137674000Y-140150000I0J51000D01*
G01*
G37*
G36*
G01*
X136374000Y-140150000D02*
X136374000Y-138650000D01*
G75*
G02*
X136425000Y-138599000I51000J0D01*
G01*
X136875000Y-138599000D01*
G75*
G02*
X136926000Y-138650000I0J-51000D01*
G01*
X136926000Y-140150000D01*
G75*
G02*
X136875000Y-140201000I-51000J0D01*
G01*
X136425000Y-140201000D01*
G75*
G02*
X136374000Y-140150000I0J51000D01*
G01*
G37*
G36*
G01*
X138324000Y-140150000D02*
X138324000Y-138650000D01*
G75*
G02*
X138375000Y-138599000I51000J0D01*
G01*
X138825000Y-138599000D01*
G75*
G02*
X138876000Y-138650000I0J-51000D01*
G01*
X138876000Y-140150000D01*
G75*
G02*
X138825000Y-140201000I-51000J0D01*
G01*
X138375000Y-140201000D01*
G75*
G02*
X138324000Y-140150000I0J51000D01*
G01*
G37*
G36*
G01*
X135724000Y-140150000D02*
X135724000Y-138650000D01*
G75*
G02*
X135775000Y-138599000I51000J0D01*
G01*
X136225000Y-138599000D01*
G75*
G02*
X136276000Y-138650000I0J-51000D01*
G01*
X136276000Y-140150000D01*
G75*
G02*
X136225000Y-140201000I-51000J0D01*
G01*
X135775000Y-140201000D01*
G75*
G02*
X135724000Y-140150000I0J51000D01*
G01*
G37*
D12*
X134500000Y-139150000D03*
X140100000Y-139150000D03*
D13*
X137300000Y-141300000D03*
D14*
X86300000Y-141700000D03*
X144100000Y-119100000D03*
G36*
G01*
X93449000Y-143000000D02*
X93449000Y-138800000D01*
G75*
G02*
X93500000Y-138749000I51000J0D01*
G01*
X94850000Y-138749000D01*
G75*
G02*
X94901000Y-138800000I0J-51000D01*
G01*
X94901000Y-143000000D01*
G75*
G02*
X94850000Y-143051000I-51000J0D01*
G01*
X93500000Y-143051000D01*
G75*
G02*
X93449000Y-143000000I0J51000D01*
G01*
G37*
G36*
G01*
X99099000Y-143000000D02*
X99099000Y-138800000D01*
G75*
G02*
X99150000Y-138749000I51000J0D01*
G01*
X100500000Y-138749000D01*
G75*
G02*
X100551000Y-138800000I0J-51000D01*
G01*
X100551000Y-143000000D01*
G75*
G02*
X100500000Y-143051000I-51000J0D01*
G01*
X99150000Y-143051000D01*
G75*
G02*
X99099000Y-143000000I0J51000D01*
G01*
G37*
G36*
G01*
X96314000Y-142900000D02*
X96314000Y-139200000D01*
G75*
G02*
X96365000Y-139149000I51000J0D01*
G01*
X97635000Y-139149000D01*
G75*
G02*
X97686000Y-139200000I0J-51000D01*
G01*
X97686000Y-142900000D01*
G75*
G02*
X97635000Y-142951000I-51000J0D01*
G01*
X96365000Y-142951000D01*
G75*
G02*
X96314000Y-142900000I0J51000D01*
G01*
G37*
G36*
G01*
X141105000Y-128951000D02*
X140655000Y-128951000D01*
G75*
G02*
X140604000Y-128900000I0J51000D01*
G01*
X140604000Y-128300000D01*
G75*
G02*
X140655000Y-128249000I51000J0D01*
G01*
X141105000Y-128249000D01*
G75*
G02*
X141156000Y-128300000I0J-51000D01*
G01*
X141156000Y-128900000D01*
G75*
G02*
X141105000Y-128951000I-51000J0D01*
G01*
G37*
G36*
G01*
X141105000Y-131051000D02*
X140655000Y-131051000D01*
G75*
G02*
X140604000Y-131000000I0J51000D01*
G01*
X140604000Y-130400000D01*
G75*
G02*
X140655000Y-130349000I51000J0D01*
G01*
X141105000Y-130349000D01*
G75*
G02*
X141156000Y-130400000I0J-51000D01*
G01*
X141156000Y-131000000D01*
G75*
G02*
X141105000Y-131051000I-51000J0D01*
G01*
G37*
G36*
G01*
X134480000Y-134849000D02*
X135680000Y-134849000D01*
G75*
G02*
X135731000Y-134900000I0J-51000D01*
G01*
X135731000Y-135800000D01*
G75*
G02*
X135680000Y-135851000I-51000J0D01*
G01*
X134480000Y-135851000D01*
G75*
G02*
X134429000Y-135800000I0J51000D01*
G01*
X134429000Y-134900000D01*
G75*
G02*
X134480000Y-134849000I51000J0D01*
G01*
G37*
G36*
G01*
X134480000Y-131549000D02*
X135680000Y-131549000D01*
G75*
G02*
X135731000Y-131600000I0J-51000D01*
G01*
X135731000Y-132500000D01*
G75*
G02*
X135680000Y-132551000I-51000J0D01*
G01*
X134480000Y-132551000D01*
G75*
G02*
X134429000Y-132500000I0J51000D01*
G01*
X134429000Y-131600000D01*
G75*
G02*
X134480000Y-131549000I51000J0D01*
G01*
G37*
G36*
G01*
X87499000Y-132281750D02*
X87499000Y-131718250D01*
G75*
G02*
X87743250Y-131474000I244250J0D01*
G01*
X88231750Y-131474000D01*
G75*
G02*
X88476000Y-131718250I0J-244250D01*
G01*
X88476000Y-132281750D01*
G75*
G02*
X88231750Y-132526000I-244250J0D01*
G01*
X87743250Y-132526000D01*
G75*
G02*
X87499000Y-132281750I0J244250D01*
G01*
G37*
G36*
G01*
X85924000Y-132281750D02*
X85924000Y-131718250D01*
G75*
G02*
X86168250Y-131474000I244250J0D01*
G01*
X86656750Y-131474000D01*
G75*
G02*
X86901000Y-131718250I0J-244250D01*
G01*
X86901000Y-132281750D01*
G75*
G02*
X86656750Y-132526000I-244250J0D01*
G01*
X86168250Y-132526000D01*
G75*
G02*
X85924000Y-132281750I0J244250D01*
G01*
G37*
G36*
G01*
X130855600Y-132976000D02*
X129544400Y-132976000D01*
G75*
G02*
X129274000Y-132705600I0J270400D01*
G01*
X129274000Y-131894400D01*
G75*
G02*
X129544400Y-131624000I270400J0D01*
G01*
X130855600Y-131624000D01*
G75*
G02*
X131126000Y-131894400I0J-270400D01*
G01*
X131126000Y-132705600D01*
G75*
G02*
X130855600Y-132976000I-270400J0D01*
G01*
G37*
G36*
G01*
X130855600Y-135776000D02*
X129544400Y-135776000D01*
G75*
G02*
X129274000Y-135505600I0J270400D01*
G01*
X129274000Y-134694400D01*
G75*
G02*
X129544400Y-134424000I270400J0D01*
G01*
X130855600Y-134424000D01*
G75*
G02*
X131126000Y-134694400I0J-270400D01*
G01*
X131126000Y-135505600D01*
G75*
G02*
X130855600Y-135776000I-270400J0D01*
G01*
G37*
G36*
G01*
X139901000Y-126918250D02*
X139901000Y-127481750D01*
G75*
G02*
X139656750Y-127726000I-244250J0D01*
G01*
X139168250Y-127726000D01*
G75*
G02*
X138924000Y-127481750I0J244250D01*
G01*
X138924000Y-126918250D01*
G75*
G02*
X139168250Y-126674000I244250J0D01*
G01*
X139656750Y-126674000D01*
G75*
G02*
X139901000Y-126918250I0J-244250D01*
G01*
G37*
G36*
G01*
X141476000Y-126918250D02*
X141476000Y-127481750D01*
G75*
G02*
X141231750Y-127726000I-244250J0D01*
G01*
X140743250Y-127726000D01*
G75*
G02*
X140499000Y-127481750I0J244250D01*
G01*
X140499000Y-126918250D01*
G75*
G02*
X140743250Y-126674000I244250J0D01*
G01*
X141231750Y-126674000D01*
G75*
G02*
X141476000Y-126918250I0J-244250D01*
G01*
G37*
G36*
G01*
X140398250Y-133149000D02*
X140961750Y-133149000D01*
G75*
G02*
X141206000Y-133393250I0J-244250D01*
G01*
X141206000Y-133881750D01*
G75*
G02*
X140961750Y-134126000I-244250J0D01*
G01*
X140398250Y-134126000D01*
G75*
G02*
X140154000Y-133881750I0J244250D01*
G01*
X140154000Y-133393250D01*
G75*
G02*
X140398250Y-133149000I244250J0D01*
G01*
G37*
G36*
G01*
X140398250Y-131574000D02*
X140961750Y-131574000D01*
G75*
G02*
X141206000Y-131818250I0J-244250D01*
G01*
X141206000Y-132306750D01*
G75*
G02*
X140961750Y-132551000I-244250J0D01*
G01*
X140398250Y-132551000D01*
G75*
G02*
X140154000Y-132306750I0J244250D01*
G01*
X140154000Y-131818250D01*
G75*
G02*
X140398250Y-131574000I244250J0D01*
G01*
G37*
G36*
G01*
X136381000Y-128750000D02*
X136381000Y-129550000D01*
G75*
G02*
X136330000Y-129601000I-51000J0D01*
G01*
X135430000Y-129601000D01*
G75*
G02*
X135379000Y-129550000I0J51000D01*
G01*
X135379000Y-128750000D01*
G75*
G02*
X135430000Y-128699000I51000J0D01*
G01*
X136330000Y-128699000D01*
G75*
G02*
X136381000Y-128750000I0J-51000D01*
G01*
G37*
G36*
G01*
X138381000Y-127800000D02*
X138381000Y-128600000D01*
G75*
G02*
X138330000Y-128651000I-51000J0D01*
G01*
X137430000Y-128651000D01*
G75*
G02*
X137379000Y-128600000I0J51000D01*
G01*
X137379000Y-127800000D01*
G75*
G02*
X137430000Y-127749000I51000J0D01*
G01*
X138330000Y-127749000D01*
G75*
G02*
X138381000Y-127800000I0J-51000D01*
G01*
G37*
G36*
G01*
X138381000Y-129700000D02*
X138381000Y-130500000D01*
G75*
G02*
X138330000Y-130551000I-51000J0D01*
G01*
X137430000Y-130551000D01*
G75*
G02*
X137379000Y-130500000I0J51000D01*
G01*
X137379000Y-129700000D01*
G75*
G02*
X137430000Y-129649000I51000J0D01*
G01*
X138330000Y-129649000D01*
G75*
G02*
X138381000Y-129700000I0J-51000D01*
G01*
G37*
G36*
G01*
X137681000Y-132250000D02*
X137681000Y-133050000D01*
G75*
G02*
X137630000Y-133101000I-51000J0D01*
G01*
X136730000Y-133101000D01*
G75*
G02*
X136679000Y-133050000I0J51000D01*
G01*
X136679000Y-132250000D01*
G75*
G02*
X136730000Y-132199000I51000J0D01*
G01*
X137630000Y-132199000D01*
G75*
G02*
X137681000Y-132250000I0J-51000D01*
G01*
G37*
G36*
G01*
X139681000Y-131300000D02*
X139681000Y-132100000D01*
G75*
G02*
X139630000Y-132151000I-51000J0D01*
G01*
X138730000Y-132151000D01*
G75*
G02*
X138679000Y-132100000I0J51000D01*
G01*
X138679000Y-131300000D01*
G75*
G02*
X138730000Y-131249000I51000J0D01*
G01*
X139630000Y-131249000D01*
G75*
G02*
X139681000Y-131300000I0J-51000D01*
G01*
G37*
G36*
G01*
X139681000Y-133200000D02*
X139681000Y-134000000D01*
G75*
G02*
X139630000Y-134051000I-51000J0D01*
G01*
X138730000Y-134051000D01*
G75*
G02*
X138679000Y-134000000I0J51000D01*
G01*
X138679000Y-133200000D01*
G75*
G02*
X138730000Y-133149000I51000J0D01*
G01*
X139630000Y-133149000D01*
G75*
G02*
X139681000Y-133200000I0J-51000D01*
G01*
G37*
G36*
G01*
X132050000Y-134499000D02*
X133150000Y-134499000D01*
G75*
G02*
X133201000Y-134550000I0J-51000D01*
G01*
X133201000Y-135650000D01*
G75*
G02*
X133150000Y-135701000I-51000J0D01*
G01*
X132050000Y-135701000D01*
G75*
G02*
X131999000Y-135650000I0J51000D01*
G01*
X131999000Y-134550000D01*
G75*
G02*
X132050000Y-134499000I51000J0D01*
G01*
G37*
G36*
G01*
X132050000Y-131699000D02*
X133150000Y-131699000D01*
G75*
G02*
X133201000Y-131750000I0J-51000D01*
G01*
X133201000Y-132850000D01*
G75*
G02*
X133150000Y-132901000I-51000J0D01*
G01*
X132050000Y-132901000D01*
G75*
G02*
X131999000Y-132850000I0J51000D01*
G01*
X131999000Y-131750000D01*
G75*
G02*
X132050000Y-131699000I51000J0D01*
G01*
G37*
G36*
G01*
X137349000Y-137976584D02*
X137349000Y-137316584D01*
G75*
G02*
X137400000Y-137265584I51000J0D01*
G01*
X137900000Y-137265584D01*
G75*
G02*
X137951000Y-137316584I0J-51000D01*
G01*
X137951000Y-137976584D01*
G75*
G02*
X137900000Y-138027584I-51000J0D01*
G01*
X137400000Y-138027584D01*
G75*
G02*
X137349000Y-137976584I0J51000D01*
G01*
G37*
G36*
G01*
X136349000Y-137976584D02*
X136349000Y-137316584D01*
G75*
G02*
X136400000Y-137265584I51000J0D01*
G01*
X136900000Y-137265584D01*
G75*
G02*
X136951000Y-137316584I0J-51000D01*
G01*
X136951000Y-137976584D01*
G75*
G02*
X136900000Y-138027584I-51000J0D01*
G01*
X136400000Y-138027584D01*
G75*
G02*
X136349000Y-137976584I0J51000D01*
G01*
G37*
G36*
G01*
X136849000Y-136836584D02*
X136849000Y-136176584D01*
G75*
G02*
X136900000Y-136125584I51000J0D01*
G01*
X137400000Y-136125584D01*
G75*
G02*
X137451000Y-136176584I0J-51000D01*
G01*
X137451000Y-136836584D01*
G75*
G02*
X137400000Y-136887584I-51000J0D01*
G01*
X136900000Y-136887584D01*
G75*
G02*
X136849000Y-136836584I0J51000D01*
G01*
G37*
G36*
G01*
X124781750Y-124601000D02*
X124218250Y-124601000D01*
G75*
G02*
X123974000Y-124356750I0J244250D01*
G01*
X123974000Y-123868250D01*
G75*
G02*
X124218250Y-123624000I244250J0D01*
G01*
X124781750Y-123624000D01*
G75*
G02*
X125026000Y-123868250I0J-244250D01*
G01*
X125026000Y-124356750D01*
G75*
G02*
X124781750Y-124601000I-244250J0D01*
G01*
G37*
G36*
G01*
X124781750Y-126176000D02*
X124218250Y-126176000D01*
G75*
G02*
X123974000Y-125931750I0J244250D01*
G01*
X123974000Y-125443250D01*
G75*
G02*
X124218250Y-125199000I244250J0D01*
G01*
X124781750Y-125199000D01*
G75*
G02*
X125026000Y-125443250I0J-244250D01*
G01*
X125026000Y-125931750D01*
G75*
G02*
X124781750Y-126176000I-244250J0D01*
G01*
G37*
G36*
G01*
X110801000Y-134300000D02*
X110801000Y-134960000D01*
G75*
G02*
X110750000Y-135011000I-51000J0D01*
G01*
X110250000Y-135011000D01*
G75*
G02*
X110199000Y-134960000I0J51000D01*
G01*
X110199000Y-134300000D01*
G75*
G02*
X110250000Y-134249000I51000J0D01*
G01*
X110750000Y-134249000D01*
G75*
G02*
X110801000Y-134300000I0J-51000D01*
G01*
G37*
G36*
G01*
X111801000Y-134300000D02*
X111801000Y-134960000D01*
G75*
G02*
X111750000Y-135011000I-51000J0D01*
G01*
X111250000Y-135011000D01*
G75*
G02*
X111199000Y-134960000I0J51000D01*
G01*
X111199000Y-134300000D01*
G75*
G02*
X111250000Y-134249000I51000J0D01*
G01*
X111750000Y-134249000D01*
G75*
G02*
X111801000Y-134300000I0J-51000D01*
G01*
G37*
G36*
G01*
X111301000Y-135440000D02*
X111301000Y-136100000D01*
G75*
G02*
X111250000Y-136151000I-51000J0D01*
G01*
X110750000Y-136151000D01*
G75*
G02*
X110699000Y-136100000I0J51000D01*
G01*
X110699000Y-135440000D01*
G75*
G02*
X110750000Y-135389000I51000J0D01*
G01*
X111250000Y-135389000D01*
G75*
G02*
X111301000Y-135440000I0J-51000D01*
G01*
G37*
G36*
G01*
X121500000Y-127099000D02*
X122300000Y-127099000D01*
G75*
G02*
X122351000Y-127150000I0J-51000D01*
G01*
X122351000Y-128050000D01*
G75*
G02*
X122300000Y-128101000I-51000J0D01*
G01*
X121500000Y-128101000D01*
G75*
G02*
X121449000Y-128050000I0J51000D01*
G01*
X121449000Y-127150000D01*
G75*
G02*
X121500000Y-127099000I51000J0D01*
G01*
G37*
G36*
G01*
X120550000Y-125099000D02*
X121350000Y-125099000D01*
G75*
G02*
X121401000Y-125150000I0J-51000D01*
G01*
X121401000Y-126050000D01*
G75*
G02*
X121350000Y-126101000I-51000J0D01*
G01*
X120550000Y-126101000D01*
G75*
G02*
X120499000Y-126050000I0J51000D01*
G01*
X120499000Y-125150000D01*
G75*
G02*
X120550000Y-125099000I51000J0D01*
G01*
G37*
G36*
G01*
X122450000Y-125099000D02*
X123250000Y-125099000D01*
G75*
G02*
X123301000Y-125150000I0J-51000D01*
G01*
X123301000Y-126050000D01*
G75*
G02*
X123250000Y-126101000I-51000J0D01*
G01*
X122450000Y-126101000D01*
G75*
G02*
X122399000Y-126050000I0J51000D01*
G01*
X122399000Y-125150000D01*
G75*
G02*
X122450000Y-125099000I51000J0D01*
G01*
G37*
G36*
G01*
X131661000Y-128674999D02*
X131661000Y-129325001D01*
G75*
G02*
X131610001Y-129376000I-50999J0D01*
G01*
X130549999Y-129376000D01*
G75*
G02*
X130499000Y-129325001I0J50999D01*
G01*
X130499000Y-128674999D01*
G75*
G02*
X130549999Y-128624000I50999J0D01*
G01*
X131610001Y-128624000D01*
G75*
G02*
X131661000Y-128674999I0J-50999D01*
G01*
G37*
G36*
G01*
X131661000Y-127724999D02*
X131661000Y-128375001D01*
G75*
G02*
X131610001Y-128426000I-50999J0D01*
G01*
X130549999Y-128426000D01*
G75*
G02*
X130499000Y-128375001I0J50999D01*
G01*
X130499000Y-127724999D01*
G75*
G02*
X130549999Y-127674000I50999J0D01*
G01*
X131610001Y-127674000D01*
G75*
G02*
X131661000Y-127724999I0J-50999D01*
G01*
G37*
G36*
G01*
X131661000Y-126774999D02*
X131661000Y-127425001D01*
G75*
G02*
X131610001Y-127476000I-50999J0D01*
G01*
X130549999Y-127476000D01*
G75*
G02*
X130499000Y-127425001I0J50999D01*
G01*
X130499000Y-126774999D01*
G75*
G02*
X130549999Y-126724000I50999J0D01*
G01*
X131610001Y-126724000D01*
G75*
G02*
X131661000Y-126774999I0J-50999D01*
G01*
G37*
G36*
G01*
X129461000Y-126774999D02*
X129461000Y-127425001D01*
G75*
G02*
X129410001Y-127476000I-50999J0D01*
G01*
X128349999Y-127476000D01*
G75*
G02*
X128299000Y-127425001I0J50999D01*
G01*
X128299000Y-126774999D01*
G75*
G02*
X128349999Y-126724000I50999J0D01*
G01*
X129410001Y-126724000D01*
G75*
G02*
X129461000Y-126774999I0J-50999D01*
G01*
G37*
G36*
G01*
X129461000Y-128674999D02*
X129461000Y-129325001D01*
G75*
G02*
X129410001Y-129376000I-50999J0D01*
G01*
X128349999Y-129376000D01*
G75*
G02*
X128299000Y-129325001I0J50999D01*
G01*
X128299000Y-128674999D01*
G75*
G02*
X128349999Y-128624000I50999J0D01*
G01*
X129410001Y-128624000D01*
G75*
G02*
X129461000Y-128674999I0J-50999D01*
G01*
G37*
G36*
G01*
X121501000Y-123818250D02*
X121501000Y-124381750D01*
G75*
G02*
X121256750Y-124626000I-244250J0D01*
G01*
X120768250Y-124626000D01*
G75*
G02*
X120524000Y-124381750I0J244250D01*
G01*
X120524000Y-123818250D01*
G75*
G02*
X120768250Y-123574000I244250J0D01*
G01*
X121256750Y-123574000D01*
G75*
G02*
X121501000Y-123818250I0J-244250D01*
G01*
G37*
G36*
G01*
X123076000Y-123818250D02*
X123076000Y-124381750D01*
G75*
G02*
X122831750Y-124626000I-244250J0D01*
G01*
X122343250Y-124626000D01*
G75*
G02*
X122099000Y-124381750I0J244250D01*
G01*
X122099000Y-123818250D01*
G75*
G02*
X122343250Y-123574000I244250J0D01*
G01*
X122831750Y-123574000D01*
G75*
G02*
X123076000Y-123818250I0J-244250D01*
G01*
G37*
G36*
G01*
X119837335Y-115701000D02*
X119273835Y-115701000D01*
G75*
G02*
X119029585Y-115456750I0J244250D01*
G01*
X119029585Y-114968250D01*
G75*
G02*
X119273835Y-114724000I244250J0D01*
G01*
X119837335Y-114724000D01*
G75*
G02*
X120081585Y-114968250I0J-244250D01*
G01*
X120081585Y-115456750D01*
G75*
G02*
X119837335Y-115701000I-244250J0D01*
G01*
G37*
G36*
G01*
X119837335Y-117276000D02*
X119273835Y-117276000D01*
G75*
G02*
X119029585Y-117031750I0J244250D01*
G01*
X119029585Y-116543250D01*
G75*
G02*
X119273835Y-116299000I244250J0D01*
G01*
X119837335Y-116299000D01*
G75*
G02*
X120081585Y-116543250I0J-244250D01*
G01*
X120081585Y-117031750D01*
G75*
G02*
X119837335Y-117276000I-244250J0D01*
G01*
G37*
G36*
G01*
X110614635Y-115701000D02*
X110051135Y-115701000D01*
G75*
G02*
X109806885Y-115456750I0J244250D01*
G01*
X109806885Y-114968250D01*
G75*
G02*
X110051135Y-114724000I244250J0D01*
G01*
X110614635Y-114724000D01*
G75*
G02*
X110858885Y-114968250I0J-244250D01*
G01*
X110858885Y-115456750D01*
G75*
G02*
X110614635Y-115701000I-244250J0D01*
G01*
G37*
G36*
G01*
X110614635Y-117276000D02*
X110051135Y-117276000D01*
G75*
G02*
X109806885Y-117031750I0J244250D01*
G01*
X109806885Y-116543250D01*
G75*
G02*
X110051135Y-116299000I244250J0D01*
G01*
X110614635Y-116299000D01*
G75*
G02*
X110858885Y-116543250I0J-244250D01*
G01*
X110858885Y-117031750D01*
G75*
G02*
X110614635Y-117276000I-244250J0D01*
G01*
G37*
G36*
G01*
X115081886Y-115775626D02*
X114518386Y-115775626D01*
G75*
G02*
X114274136Y-115531376I0J244250D01*
G01*
X114274136Y-115042876D01*
G75*
G02*
X114518386Y-114798626I244250J0D01*
G01*
X115081886Y-114798626D01*
G75*
G02*
X115326136Y-115042876I0J-244250D01*
G01*
X115326136Y-115531376D01*
G75*
G02*
X115081886Y-115775626I-244250J0D01*
G01*
G37*
G36*
G01*
X115081886Y-117350626D02*
X114518386Y-117350626D01*
G75*
G02*
X114274136Y-117106376I0J244250D01*
G01*
X114274136Y-116617876D01*
G75*
G02*
X114518386Y-116373626I244250J0D01*
G01*
X115081886Y-116373626D01*
G75*
G02*
X115326136Y-116617876I0J-244250D01*
G01*
X115326136Y-117106376D01*
G75*
G02*
X115081886Y-117350626I-244250J0D01*
G01*
G37*
G36*
G01*
X120919284Y-116299000D02*
X121482784Y-116299000D01*
G75*
G02*
X121727034Y-116543250I0J-244250D01*
G01*
X121727034Y-117031750D01*
G75*
G02*
X121482784Y-117276000I-244250J0D01*
G01*
X120919284Y-117276000D01*
G75*
G02*
X120675034Y-117031750I0J244250D01*
G01*
X120675034Y-116543250D01*
G75*
G02*
X120919284Y-116299000I244250J0D01*
G01*
G37*
G36*
G01*
X120919284Y-114724000D02*
X121482784Y-114724000D01*
G75*
G02*
X121727034Y-114968250I0J-244250D01*
G01*
X121727034Y-115456750D01*
G75*
G02*
X121482784Y-115701000I-244250J0D01*
G01*
X120919284Y-115701000D01*
G75*
G02*
X120675034Y-115456750I0J244250D01*
G01*
X120675034Y-114968250D01*
G75*
G02*
X120919284Y-114724000I244250J0D01*
G01*
G37*
G36*
G01*
X111718250Y-116299000D02*
X112281750Y-116299000D01*
G75*
G02*
X112526000Y-116543250I0J-244250D01*
G01*
X112526000Y-117031750D01*
G75*
G02*
X112281750Y-117276000I-244250J0D01*
G01*
X111718250Y-117276000D01*
G75*
G02*
X111474000Y-117031750I0J244250D01*
G01*
X111474000Y-116543250D01*
G75*
G02*
X111718250Y-116299000I244250J0D01*
G01*
G37*
G36*
G01*
X111718250Y-114724000D02*
X112281750Y-114724000D01*
G75*
G02*
X112526000Y-114968250I0J-244250D01*
G01*
X112526000Y-115456750D01*
G75*
G02*
X112281750Y-115701000I-244250J0D01*
G01*
X111718250Y-115701000D01*
G75*
G02*
X111474000Y-115456750I0J244250D01*
G01*
X111474000Y-114968250D01*
G75*
G02*
X111718250Y-114724000I244250J0D01*
G01*
G37*
G36*
G01*
X116182078Y-116299000D02*
X116745578Y-116299000D01*
G75*
G02*
X116989828Y-116543250I0J-244250D01*
G01*
X116989828Y-117031750D01*
G75*
G02*
X116745578Y-117276000I-244250J0D01*
G01*
X116182078Y-117276000D01*
G75*
G02*
X115937828Y-117031750I0J244250D01*
G01*
X115937828Y-116543250D01*
G75*
G02*
X116182078Y-116299000I244250J0D01*
G01*
G37*
G36*
G01*
X116182078Y-114724000D02*
X116745578Y-114724000D01*
G75*
G02*
X116989828Y-114968250I0J-244250D01*
G01*
X116989828Y-115456750D01*
G75*
G02*
X116745578Y-115701000I-244250J0D01*
G01*
X116182078Y-115701000D01*
G75*
G02*
X115937828Y-115456750I0J244250D01*
G01*
X115937828Y-114968250D01*
G75*
G02*
X116182078Y-114724000I244250J0D01*
G01*
G37*
G36*
G01*
X108918250Y-129399000D02*
X109481750Y-129399000D01*
G75*
G02*
X109726000Y-129643250I0J-244250D01*
G01*
X109726000Y-130131750D01*
G75*
G02*
X109481750Y-130376000I-244250J0D01*
G01*
X108918250Y-130376000D01*
G75*
G02*
X108674000Y-130131750I0J244250D01*
G01*
X108674000Y-129643250D01*
G75*
G02*
X108918250Y-129399000I244250J0D01*
G01*
G37*
G36*
G01*
X108918250Y-127824000D02*
X109481750Y-127824000D01*
G75*
G02*
X109726000Y-128068250I0J-244250D01*
G01*
X109726000Y-128556750D01*
G75*
G02*
X109481750Y-128801000I-244250J0D01*
G01*
X108918250Y-128801000D01*
G75*
G02*
X108674000Y-128556750I0J244250D01*
G01*
X108674000Y-128068250D01*
G75*
G02*
X108918250Y-127824000I244250J0D01*
G01*
G37*
D15*
X88000000Y-139900000D03*
X88000000Y-115000000D03*
X145000000Y-139900000D03*
X145000000Y-115000000D03*
D16*
X90730000Y-135435000D03*
X89460000Y-135435000D03*
X88190000Y-135435000D03*
X88190000Y-134165000D03*
X89460000Y-134165000D03*
X90730000Y-134165000D03*
G36*
G01*
X117518250Y-133399000D02*
X118081750Y-133399000D01*
G75*
G02*
X118326000Y-133643250I0J-244250D01*
G01*
X118326000Y-134131750D01*
G75*
G02*
X118081750Y-134376000I-244250J0D01*
G01*
X117518250Y-134376000D01*
G75*
G02*
X117274000Y-134131750I0J244250D01*
G01*
X117274000Y-133643250D01*
G75*
G02*
X117518250Y-133399000I244250J0D01*
G01*
G37*
G36*
G01*
X117518250Y-131824000D02*
X118081750Y-131824000D01*
G75*
G02*
X118326000Y-132068250I0J-244250D01*
G01*
X118326000Y-132556750D01*
G75*
G02*
X118081750Y-132801000I-244250J0D01*
G01*
X117518250Y-132801000D01*
G75*
G02*
X117274000Y-132556750I0J244250D01*
G01*
X117274000Y-132068250D01*
G75*
G02*
X117518250Y-131824000I244250J0D01*
G01*
G37*
G36*
G01*
X117901000Y-135118250D02*
X117901000Y-135681750D01*
G75*
G02*
X117656750Y-135926000I-244250J0D01*
G01*
X117168250Y-135926000D01*
G75*
G02*
X116924000Y-135681750I0J244250D01*
G01*
X116924000Y-135118250D01*
G75*
G02*
X117168250Y-134874000I244250J0D01*
G01*
X117656750Y-134874000D01*
G75*
G02*
X117901000Y-135118250I0J-244250D01*
G01*
G37*
G36*
G01*
X119476000Y-135118250D02*
X119476000Y-135681750D01*
G75*
G02*
X119231750Y-135926000I-244250J0D01*
G01*
X118743250Y-135926000D01*
G75*
G02*
X118499000Y-135681750I0J244250D01*
G01*
X118499000Y-135118250D01*
G75*
G02*
X118743250Y-134874000I244250J0D01*
G01*
X119231750Y-134874000D01*
G75*
G02*
X119476000Y-135118250I0J-244250D01*
G01*
G37*
G36*
G01*
X116581750Y-132791000D02*
X116018250Y-132791000D01*
G75*
G02*
X115774000Y-132546750I0J244250D01*
G01*
X115774000Y-132058250D01*
G75*
G02*
X116018250Y-131814000I244250J0D01*
G01*
X116581750Y-131814000D01*
G75*
G02*
X116826000Y-132058250I0J-244250D01*
G01*
X116826000Y-132546750D01*
G75*
G02*
X116581750Y-132791000I-244250J0D01*
G01*
G37*
G36*
G01*
X116581750Y-134366000D02*
X116018250Y-134366000D01*
G75*
G02*
X115774000Y-134121750I0J244250D01*
G01*
X115774000Y-133633250D01*
G75*
G02*
X116018250Y-133389000I244250J0D01*
G01*
X116581750Y-133389000D01*
G75*
G02*
X116826000Y-133633250I0J-244250D01*
G01*
X116826000Y-134121750D01*
G75*
G02*
X116581750Y-134366000I-244250J0D01*
G01*
G37*
G36*
G01*
X117601000Y-125818250D02*
X117601000Y-126381750D01*
G75*
G02*
X117356750Y-126626000I-244250J0D01*
G01*
X116868250Y-126626000D01*
G75*
G02*
X116624000Y-126381750I0J244250D01*
G01*
X116624000Y-125818250D01*
G75*
G02*
X116868250Y-125574000I244250J0D01*
G01*
X117356750Y-125574000D01*
G75*
G02*
X117601000Y-125818250I0J-244250D01*
G01*
G37*
G36*
G01*
X119176000Y-125818250D02*
X119176000Y-126381750D01*
G75*
G02*
X118931750Y-126626000I-244250J0D01*
G01*
X118443250Y-126626000D01*
G75*
G02*
X118199000Y-126381750I0J244250D01*
G01*
X118199000Y-125818250D01*
G75*
G02*
X118443250Y-125574000I244250J0D01*
G01*
X118931750Y-125574000D01*
G75*
G02*
X119176000Y-125818250I0J-244250D01*
G01*
G37*
G36*
G01*
X117500000Y-129099000D02*
X118300000Y-129099000D01*
G75*
G02*
X118351000Y-129150000I0J-51000D01*
G01*
X118351000Y-130050000D01*
G75*
G02*
X118300000Y-130101000I-51000J0D01*
G01*
X117500000Y-130101000D01*
G75*
G02*
X117449000Y-130050000I0J51000D01*
G01*
X117449000Y-129150000D01*
G75*
G02*
X117500000Y-129099000I51000J0D01*
G01*
G37*
G36*
G01*
X116550000Y-127099000D02*
X117350000Y-127099000D01*
G75*
G02*
X117401000Y-127150000I0J-51000D01*
G01*
X117401000Y-128050000D01*
G75*
G02*
X117350000Y-128101000I-51000J0D01*
G01*
X116550000Y-128101000D01*
G75*
G02*
X116499000Y-128050000I0J51000D01*
G01*
X116499000Y-127150000D01*
G75*
G02*
X116550000Y-127099000I51000J0D01*
G01*
G37*
G36*
G01*
X118450000Y-127099000D02*
X119250000Y-127099000D01*
G75*
G02*
X119301000Y-127150000I0J-51000D01*
G01*
X119301000Y-128050000D01*
G75*
G02*
X119250000Y-128101000I-51000J0D01*
G01*
X118450000Y-128101000D01*
G75*
G02*
X118399000Y-128050000I0J51000D01*
G01*
X118399000Y-127150000D01*
G75*
G02*
X118450000Y-127099000I51000J0D01*
G01*
G37*
G36*
G01*
X124329500Y-133849000D02*
X124680500Y-133849000D01*
G75*
G02*
X124856000Y-134024500I0J-175500D01*
G01*
X124856000Y-135725500D01*
G75*
G02*
X124680500Y-135901000I-175500J0D01*
G01*
X124329500Y-135901000D01*
G75*
G02*
X124154000Y-135725500I0J175500D01*
G01*
X124154000Y-134024500D01*
G75*
G02*
X124329500Y-133849000I175500J0D01*
G01*
G37*
G36*
G01*
X123059500Y-133849000D02*
X123410500Y-133849000D01*
G75*
G02*
X123586000Y-134024500I0J-175500D01*
G01*
X123586000Y-135725500D01*
G75*
G02*
X123410500Y-135901000I-175500J0D01*
G01*
X123059500Y-135901000D01*
G75*
G02*
X122884000Y-135725500I0J175500D01*
G01*
X122884000Y-134024500D01*
G75*
G02*
X123059500Y-133849000I175500J0D01*
G01*
G37*
G36*
G01*
X121789500Y-133849000D02*
X122140500Y-133849000D01*
G75*
G02*
X122316000Y-134024500I0J-175500D01*
G01*
X122316000Y-135725500D01*
G75*
G02*
X122140500Y-135901000I-175500J0D01*
G01*
X121789500Y-135901000D01*
G75*
G02*
X121614000Y-135725500I0J175500D01*
G01*
X121614000Y-134024500D01*
G75*
G02*
X121789500Y-133849000I175500J0D01*
G01*
G37*
G36*
G01*
X120519500Y-133849000D02*
X120870500Y-133849000D01*
G75*
G02*
X121046000Y-134024500I0J-175500D01*
G01*
X121046000Y-135725500D01*
G75*
G02*
X120870500Y-135901000I-175500J0D01*
G01*
X120519500Y-135901000D01*
G75*
G02*
X120344000Y-135725500I0J175500D01*
G01*
X120344000Y-134024500D01*
G75*
G02*
X120519500Y-133849000I175500J0D01*
G01*
G37*
G36*
G01*
X120519500Y-128899000D02*
X120870500Y-128899000D01*
G75*
G02*
X121046000Y-129074500I0J-175500D01*
G01*
X121046000Y-130775500D01*
G75*
G02*
X120870500Y-130951000I-175500J0D01*
G01*
X120519500Y-130951000D01*
G75*
G02*
X120344000Y-130775500I0J175500D01*
G01*
X120344000Y-129074500D01*
G75*
G02*
X120519500Y-128899000I175500J0D01*
G01*
G37*
G36*
G01*
X121789500Y-128899000D02*
X122140500Y-128899000D01*
G75*
G02*
X122316000Y-129074500I0J-175500D01*
G01*
X122316000Y-130775500D01*
G75*
G02*
X122140500Y-130951000I-175500J0D01*
G01*
X121789500Y-130951000D01*
G75*
G02*
X121614000Y-130775500I0J175500D01*
G01*
X121614000Y-129074500D01*
G75*
G02*
X121789500Y-128899000I175500J0D01*
G01*
G37*
G36*
G01*
X123059500Y-128899000D02*
X123410500Y-128899000D01*
G75*
G02*
X123586000Y-129074500I0J-175500D01*
G01*
X123586000Y-130775500D01*
G75*
G02*
X123410500Y-130951000I-175500J0D01*
G01*
X123059500Y-130951000D01*
G75*
G02*
X122884000Y-130775500I0J175500D01*
G01*
X122884000Y-129074500D01*
G75*
G02*
X123059500Y-128899000I175500J0D01*
G01*
G37*
G36*
G01*
X124329500Y-128899000D02*
X124680500Y-128899000D01*
G75*
G02*
X124856000Y-129074500I0J-175500D01*
G01*
X124856000Y-130775500D01*
G75*
G02*
X124680500Y-130951000I-175500J0D01*
G01*
X124329500Y-130951000D01*
G75*
G02*
X124154000Y-130775500I0J175500D01*
G01*
X124154000Y-129074500D01*
G75*
G02*
X124329500Y-128899000I175500J0D01*
G01*
G37*
G36*
G01*
X91200000Y-122951000D02*
X89900000Y-122951000D01*
G75*
G02*
X89849000Y-122900000I0J51000D01*
G01*
X89849000Y-121350000D01*
G75*
G02*
X89900000Y-121299000I51000J0D01*
G01*
X91200000Y-121299000D01*
G75*
G02*
X91251000Y-121350000I0J-51000D01*
G01*
X91251000Y-122900000D01*
G75*
G02*
X91200000Y-122951000I-51000J0D01*
G01*
G37*
G36*
G01*
X86700000Y-122951000D02*
X85400000Y-122951000D01*
G75*
G02*
X85349000Y-122900000I0J51000D01*
G01*
X85349000Y-121350000D01*
G75*
G02*
X85400000Y-121299000I51000J0D01*
G01*
X86700000Y-121299000D01*
G75*
G02*
X86751000Y-121350000I0J-51000D01*
G01*
X86751000Y-122900000D01*
G75*
G02*
X86700000Y-122951000I-51000J0D01*
G01*
G37*
G36*
G01*
X86700000Y-130901000D02*
X85400000Y-130901000D01*
G75*
G02*
X85349000Y-130850000I0J51000D01*
G01*
X85349000Y-129300000D01*
G75*
G02*
X85400000Y-129249000I51000J0D01*
G01*
X86700000Y-129249000D01*
G75*
G02*
X86751000Y-129300000I0J-51000D01*
G01*
X86751000Y-130850000D01*
G75*
G02*
X86700000Y-130901000I-51000J0D01*
G01*
G37*
G36*
G01*
X91200000Y-130901000D02*
X89900000Y-130901000D01*
G75*
G02*
X89849000Y-130850000I0J51000D01*
G01*
X89849000Y-129300000D01*
G75*
G02*
X89900000Y-129249000I51000J0D01*
G01*
X91200000Y-129249000D01*
G75*
G02*
X91251000Y-129300000I0J-51000D01*
G01*
X91251000Y-130850000D01*
G75*
G02*
X91200000Y-130901000I-51000J0D01*
G01*
G37*
G36*
G01*
X135100000Y-120149000D02*
X136400000Y-120149000D01*
G75*
G02*
X136451000Y-120200000I0J-51000D01*
G01*
X136451000Y-121750000D01*
G75*
G02*
X136400000Y-121801000I-51000J0D01*
G01*
X135100000Y-121801000D01*
G75*
G02*
X135049000Y-121750000I0J51000D01*
G01*
X135049000Y-120200000D01*
G75*
G02*
X135100000Y-120149000I51000J0D01*
G01*
G37*
G36*
G01*
X139600000Y-120149000D02*
X140900000Y-120149000D01*
G75*
G02*
X140951000Y-120200000I0J-51000D01*
G01*
X140951000Y-121750000D01*
G75*
G02*
X140900000Y-121801000I-51000J0D01*
G01*
X139600000Y-121801000D01*
G75*
G02*
X139549000Y-121750000I0J51000D01*
G01*
X139549000Y-120200000D01*
G75*
G02*
X139600000Y-120149000I51000J0D01*
G01*
G37*
G36*
G01*
X139600000Y-112199000D02*
X140900000Y-112199000D01*
G75*
G02*
X140951000Y-112250000I0J-51000D01*
G01*
X140951000Y-113800000D01*
G75*
G02*
X140900000Y-113851000I-51000J0D01*
G01*
X139600000Y-113851000D01*
G75*
G02*
X139549000Y-113800000I0J51000D01*
G01*
X139549000Y-112250000D01*
G75*
G02*
X139600000Y-112199000I51000J0D01*
G01*
G37*
G36*
G01*
X135100000Y-112199000D02*
X136400000Y-112199000D01*
G75*
G02*
X136451000Y-112250000I0J-51000D01*
G01*
X136451000Y-113800000D01*
G75*
G02*
X136400000Y-113851000I-51000J0D01*
G01*
X135100000Y-113851000D01*
G75*
G02*
X135049000Y-113800000I0J51000D01*
G01*
X135049000Y-112250000D01*
G75*
G02*
X135100000Y-112199000I51000J0D01*
G01*
G37*
G36*
G01*
X104999000Y-134881750D02*
X104999000Y-134318250D01*
G75*
G02*
X105243250Y-134074000I244250J0D01*
G01*
X105731750Y-134074000D01*
G75*
G02*
X105976000Y-134318250I0J-244250D01*
G01*
X105976000Y-134881750D01*
G75*
G02*
X105731750Y-135126000I-244250J0D01*
G01*
X105243250Y-135126000D01*
G75*
G02*
X104999000Y-134881750I0J244250D01*
G01*
G37*
G36*
G01*
X103424000Y-134881750D02*
X103424000Y-134318250D01*
G75*
G02*
X103668250Y-134074000I244250J0D01*
G01*
X104156750Y-134074000D01*
G75*
G02*
X104401000Y-134318250I0J-244250D01*
G01*
X104401000Y-134881750D01*
G75*
G02*
X104156750Y-135126000I-244250J0D01*
G01*
X103668250Y-135126000D01*
G75*
G02*
X103424000Y-134881750I0J244250D01*
G01*
G37*
G36*
G01*
X108799000Y-135681750D02*
X108799000Y-135118250D01*
G75*
G02*
X109043250Y-134874000I244250J0D01*
G01*
X109531750Y-134874000D01*
G75*
G02*
X109776000Y-135118250I0J-244250D01*
G01*
X109776000Y-135681750D01*
G75*
G02*
X109531750Y-135926000I-244250J0D01*
G01*
X109043250Y-135926000D01*
G75*
G02*
X108799000Y-135681750I0J244250D01*
G01*
G37*
G36*
G01*
X107224000Y-135681750D02*
X107224000Y-135118250D01*
G75*
G02*
X107468250Y-134874000I244250J0D01*
G01*
X107956750Y-134874000D01*
G75*
G02*
X108201000Y-135118250I0J-244250D01*
G01*
X108201000Y-135681750D01*
G75*
G02*
X107956750Y-135926000I-244250J0D01*
G01*
X107468250Y-135926000D01*
G75*
G02*
X107224000Y-135681750I0J244250D01*
G01*
G37*
G36*
G01*
X108799000Y-134181750D02*
X108799000Y-133618250D01*
G75*
G02*
X109043250Y-133374000I244250J0D01*
G01*
X109531750Y-133374000D01*
G75*
G02*
X109776000Y-133618250I0J-244250D01*
G01*
X109776000Y-134181750D01*
G75*
G02*
X109531750Y-134426000I-244250J0D01*
G01*
X109043250Y-134426000D01*
G75*
G02*
X108799000Y-134181750I0J244250D01*
G01*
G37*
G36*
G01*
X107224000Y-134181750D02*
X107224000Y-133618250D01*
G75*
G02*
X107468250Y-133374000I244250J0D01*
G01*
X107956750Y-133374000D01*
G75*
G02*
X108201000Y-133618250I0J-244250D01*
G01*
X108201000Y-134181750D01*
G75*
G02*
X107956750Y-134426000I-244250J0D01*
G01*
X107468250Y-134426000D01*
G75*
G02*
X107224000Y-134181750I0J244250D01*
G01*
G37*
G36*
G01*
X103401000Y-136618250D02*
X103401000Y-137181750D01*
G75*
G02*
X103156750Y-137426000I-244250J0D01*
G01*
X102668250Y-137426000D01*
G75*
G02*
X102424000Y-137181750I0J244250D01*
G01*
X102424000Y-136618250D01*
G75*
G02*
X102668250Y-136374000I244250J0D01*
G01*
X103156750Y-136374000D01*
G75*
G02*
X103401000Y-136618250I0J-244250D01*
G01*
G37*
G36*
G01*
X104976000Y-136618250D02*
X104976000Y-137181750D01*
G75*
G02*
X104731750Y-137426000I-244250J0D01*
G01*
X104243250Y-137426000D01*
G75*
G02*
X103999000Y-137181750I0J244250D01*
G01*
X103999000Y-136618250D01*
G75*
G02*
X104243250Y-136374000I244250J0D01*
G01*
X104731750Y-136374000D01*
G75*
G02*
X104976000Y-136618250I0J-244250D01*
G01*
G37*
G36*
G01*
X103400999Y-138218249D02*
X103400999Y-138781749D01*
G75*
G02*
X103156749Y-139025999I-244250J0D01*
G01*
X102668249Y-139025999D01*
G75*
G02*
X102423999Y-138781749I0J244250D01*
G01*
X102423999Y-138218249D01*
G75*
G02*
X102668249Y-137973999I244250J0D01*
G01*
X103156749Y-137973999D01*
G75*
G02*
X103400999Y-138218249I0J-244250D01*
G01*
G37*
G36*
G01*
X104975999Y-138218249D02*
X104975999Y-138781749D01*
G75*
G02*
X104731749Y-139025999I-244250J0D01*
G01*
X104243249Y-139025999D01*
G75*
G02*
X103998999Y-138781749I0J244250D01*
G01*
X103998999Y-138218249D01*
G75*
G02*
X104243249Y-137973999I244250J0D01*
G01*
X104731749Y-137973999D01*
G75*
G02*
X104975999Y-138218249I0J-244250D01*
G01*
G37*
G36*
G01*
X126381750Y-130613500D02*
X125818250Y-130613500D01*
G75*
G02*
X125574000Y-130369250I0J244250D01*
G01*
X125574000Y-129880750D01*
G75*
G02*
X125818250Y-129636500I244250J0D01*
G01*
X126381750Y-129636500D01*
G75*
G02*
X126626000Y-129880750I0J-244250D01*
G01*
X126626000Y-130369250D01*
G75*
G02*
X126381750Y-130613500I-244250J0D01*
G01*
G37*
G36*
G01*
X126381750Y-132188500D02*
X125818250Y-132188500D01*
G75*
G02*
X125574000Y-131944250I0J244250D01*
G01*
X125574000Y-131455750D01*
G75*
G02*
X125818250Y-131211500I244250J0D01*
G01*
X126381750Y-131211500D01*
G75*
G02*
X126626000Y-131455750I0J-244250D01*
G01*
X126626000Y-131944250D01*
G75*
G02*
X126381750Y-132188500I-244250J0D01*
G01*
G37*
G36*
G01*
X89118250Y-119899000D02*
X89681750Y-119899000D01*
G75*
G02*
X89926000Y-120143250I0J-244250D01*
G01*
X89926000Y-120631750D01*
G75*
G02*
X89681750Y-120876000I-244250J0D01*
G01*
X89118250Y-120876000D01*
G75*
G02*
X88874000Y-120631750I0J244250D01*
G01*
X88874000Y-120143250D01*
G75*
G02*
X89118250Y-119899000I244250J0D01*
G01*
G37*
G36*
G01*
X89118250Y-118324000D02*
X89681750Y-118324000D01*
G75*
G02*
X89926000Y-118568250I0J-244250D01*
G01*
X89926000Y-119056750D01*
G75*
G02*
X89681750Y-119301000I-244250J0D01*
G01*
X89118250Y-119301000D01*
G75*
G02*
X88874000Y-119056750I0J244250D01*
G01*
X88874000Y-118568250D01*
G75*
G02*
X89118250Y-118324000I244250J0D01*
G01*
G37*
G36*
G01*
X103200000Y-141499000D02*
X104000000Y-141499000D01*
G75*
G02*
X104051000Y-141550000I0J-51000D01*
G01*
X104051000Y-142450000D01*
G75*
G02*
X104000000Y-142501000I-51000J0D01*
G01*
X103200000Y-142501000D01*
G75*
G02*
X103149000Y-142450000I0J51000D01*
G01*
X103149000Y-141550000D01*
G75*
G02*
X103200000Y-141499000I51000J0D01*
G01*
G37*
G36*
G01*
X102250000Y-139499000D02*
X103050000Y-139499000D01*
G75*
G02*
X103101000Y-139550000I0J-51000D01*
G01*
X103101000Y-140450000D01*
G75*
G02*
X103050000Y-140501000I-51000J0D01*
G01*
X102250000Y-140501000D01*
G75*
G02*
X102199000Y-140450000I0J51000D01*
G01*
X102199000Y-139550000D01*
G75*
G02*
X102250000Y-139499000I51000J0D01*
G01*
G37*
G36*
G01*
X104150000Y-139499000D02*
X104950000Y-139499000D01*
G75*
G02*
X105001000Y-139550000I0J-51000D01*
G01*
X105001000Y-140450000D01*
G75*
G02*
X104950000Y-140501000I-51000J0D01*
G01*
X104150000Y-140501000D01*
G75*
G02*
X104099000Y-140450000I0J51000D01*
G01*
X104099000Y-139550000D01*
G75*
G02*
X104150000Y-139499000I51000J0D01*
G01*
G37*
G36*
G01*
X136050000Y-136901000D02*
X135390000Y-136901000D01*
G75*
G02*
X135339000Y-136850000I0J51000D01*
G01*
X135339000Y-136350000D01*
G75*
G02*
X135390000Y-136299000I51000J0D01*
G01*
X136050000Y-136299000D01*
G75*
G02*
X136101000Y-136350000I0J-51000D01*
G01*
X136101000Y-136850000D01*
G75*
G02*
X136050000Y-136901000I-51000J0D01*
G01*
G37*
G36*
G01*
X136050000Y-137901000D02*
X135390000Y-137901000D01*
G75*
G02*
X135339000Y-137850000I0J51000D01*
G01*
X135339000Y-137350000D01*
G75*
G02*
X135390000Y-137299000I51000J0D01*
G01*
X136050000Y-137299000D01*
G75*
G02*
X136101000Y-137350000I0J-51000D01*
G01*
X136101000Y-137850000D01*
G75*
G02*
X136050000Y-137901000I-51000J0D01*
G01*
G37*
G36*
G01*
X134910000Y-137401000D02*
X134250000Y-137401000D01*
G75*
G02*
X134199000Y-137350000I0J51000D01*
G01*
X134199000Y-136850000D01*
G75*
G02*
X134250000Y-136799000I51000J0D01*
G01*
X134910000Y-136799000D01*
G75*
G02*
X134961000Y-136850000I0J-51000D01*
G01*
X134961000Y-137350000D01*
G75*
G02*
X134910000Y-137401000I-51000J0D01*
G01*
G37*
G36*
G01*
X133261750Y-126551000D02*
X132698250Y-126551000D01*
G75*
G02*
X132454000Y-126306750I0J244250D01*
G01*
X132454000Y-125818250D01*
G75*
G02*
X132698250Y-125574000I244250J0D01*
G01*
X133261750Y-125574000D01*
G75*
G02*
X133506000Y-125818250I0J-244250D01*
G01*
X133506000Y-126306750D01*
G75*
G02*
X133261750Y-126551000I-244250J0D01*
G01*
G37*
G36*
G01*
X133261750Y-128126000D02*
X132698250Y-128126000D01*
G75*
G02*
X132454000Y-127881750I0J244250D01*
G01*
X132454000Y-127393250D01*
G75*
G02*
X132698250Y-127149000I244250J0D01*
G01*
X133261750Y-127149000D01*
G75*
G02*
X133506000Y-127393250I0J-244250D01*
G01*
X133506000Y-127881750D01*
G75*
G02*
X133261750Y-128126000I-244250J0D01*
G01*
G37*
G36*
G01*
X126381750Y-133613500D02*
X125818250Y-133613500D01*
G75*
G02*
X125574000Y-133369250I0J244250D01*
G01*
X125574000Y-132880750D01*
G75*
G02*
X125818250Y-132636500I244250J0D01*
G01*
X126381750Y-132636500D01*
G75*
G02*
X126626000Y-132880750I0J-244250D01*
G01*
X126626000Y-133369250D01*
G75*
G02*
X126381750Y-133613500I-244250J0D01*
G01*
G37*
G36*
G01*
X126381750Y-135188500D02*
X125818250Y-135188500D01*
G75*
G02*
X125574000Y-134944250I0J244250D01*
G01*
X125574000Y-134455750D01*
G75*
G02*
X125818250Y-134211500I244250J0D01*
G01*
X126381750Y-134211500D01*
G75*
G02*
X126626000Y-134455750I0J-244250D01*
G01*
X126626000Y-134944250D01*
G75*
G02*
X126381750Y-135188500I-244250J0D01*
G01*
G37*
G36*
G01*
X129879000Y-130881750D02*
X129879000Y-130318250D01*
G75*
G02*
X130123250Y-130074000I244250J0D01*
G01*
X130611750Y-130074000D01*
G75*
G02*
X130856000Y-130318250I0J-244250D01*
G01*
X130856000Y-130881750D01*
G75*
G02*
X130611750Y-131126000I-244250J0D01*
G01*
X130123250Y-131126000D01*
G75*
G02*
X129879000Y-130881750I0J244250D01*
G01*
G37*
G36*
G01*
X128304000Y-130881750D02*
X128304000Y-130318250D01*
G75*
G02*
X128548250Y-130074000I244250J0D01*
G01*
X129036750Y-130074000D01*
G75*
G02*
X129281000Y-130318250I0J-244250D01*
G01*
X129281000Y-130881750D01*
G75*
G02*
X129036750Y-131126000I-244250J0D01*
G01*
X128548250Y-131126000D01*
G75*
G02*
X128304000Y-130881750I0J244250D01*
G01*
G37*
G36*
G01*
X132698250Y-130149000D02*
X133261750Y-130149000D01*
G75*
G02*
X133506000Y-130393250I0J-244250D01*
G01*
X133506000Y-130881750D01*
G75*
G02*
X133261750Y-131126000I-244250J0D01*
G01*
X132698250Y-131126000D01*
G75*
G02*
X132454000Y-130881750I0J244250D01*
G01*
X132454000Y-130393250D01*
G75*
G02*
X132698250Y-130149000I244250J0D01*
G01*
G37*
G36*
G01*
X132698250Y-128574000D02*
X133261750Y-128574000D01*
G75*
G02*
X133506000Y-128818250I0J-244250D01*
G01*
X133506000Y-129306750D01*
G75*
G02*
X133261750Y-129551000I-244250J0D01*
G01*
X132698250Y-129551000D01*
G75*
G02*
X132454000Y-129306750I0J244250D01*
G01*
X132454000Y-128818250D01*
G75*
G02*
X132698250Y-128574000I244250J0D01*
G01*
G37*
G36*
G01*
X110299000Y-127081750D02*
X110299000Y-126518250D01*
G75*
G02*
X110543250Y-126274000I244250J0D01*
G01*
X111031750Y-126274000D01*
G75*
G02*
X111276000Y-126518250I0J-244250D01*
G01*
X111276000Y-127081750D01*
G75*
G02*
X111031750Y-127326000I-244250J0D01*
G01*
X110543250Y-127326000D01*
G75*
G02*
X110299000Y-127081750I0J244250D01*
G01*
G37*
G36*
G01*
X108724000Y-127081750D02*
X108724000Y-126518250D01*
G75*
G02*
X108968250Y-126274000I244250J0D01*
G01*
X109456750Y-126274000D01*
G75*
G02*
X109701000Y-126518250I0J-244250D01*
G01*
X109701000Y-127081750D01*
G75*
G02*
X109456750Y-127326000I-244250J0D01*
G01*
X108968250Y-127326000D01*
G75*
G02*
X108724000Y-127081750I0J244250D01*
G01*
G37*
G36*
G01*
X91281750Y-119301000D02*
X90718250Y-119301000D01*
G75*
G02*
X90474000Y-119056750I0J244250D01*
G01*
X90474000Y-118568250D01*
G75*
G02*
X90718250Y-118324000I244250J0D01*
G01*
X91281750Y-118324000D01*
G75*
G02*
X91526000Y-118568250I0J-244250D01*
G01*
X91526000Y-119056750D01*
G75*
G02*
X91281750Y-119301000I-244250J0D01*
G01*
G37*
G36*
G01*
X91281750Y-120876000D02*
X90718250Y-120876000D01*
G75*
G02*
X90474000Y-120631750I0J244250D01*
G01*
X90474000Y-120143250D01*
G75*
G02*
X90718250Y-119899000I244250J0D01*
G01*
X91281750Y-119899000D01*
G75*
G02*
X91526000Y-120143250I0J-244250D01*
G01*
X91526000Y-120631750D01*
G75*
G02*
X91281750Y-120876000I-244250J0D01*
G01*
G37*
G36*
X87368958Y-141423472D02*
G01*
X87536730Y-141477985D01*
X87538068Y-141479471D01*
X87537450Y-141481373D01*
X87535594Y-141481819D01*
X87448957Y-141458604D01*
X87385053Y-141458604D01*
X87329945Y-141490420D01*
X87298110Y-141545560D01*
X87296298Y-141596182D01*
X87295236Y-141597877D01*
X87293238Y-141597805D01*
X87292340Y-141596512D01*
X87252322Y-141401560D01*
X87233926Y-141358639D01*
X87234163Y-141356653D01*
X87236672Y-141356069D01*
X87368958Y-141423472D01*
G37*
G36*
X86483629Y-140544979D02*
G01*
X86584395Y-140742742D01*
X86584290Y-140744739D01*
X86581916Y-140745525D01*
X86551558Y-140734235D01*
X86370341Y-140706181D01*
X86368782Y-140704928D01*
X86369088Y-140702952D01*
X86370224Y-140702250D01*
X86421075Y-140691255D01*
X86468214Y-140648512D01*
X86487675Y-140587899D01*
X86479881Y-140546255D01*
X86480545Y-140544368D01*
X86482511Y-140544001D01*
X86483629Y-140544979D01*
G37*
G36*
X137039796Y-138613356D02*
G01*
X137040045Y-138615881D01*
X137029767Y-138631262D01*
X137026000Y-138650199D01*
X137026000Y-140149801D01*
X137029767Y-140168738D01*
X137039670Y-140183558D01*
X137039801Y-140185554D01*
X137037364Y-140186563D01*
X136983108Y-140168145D01*
X136912136Y-140187162D01*
X136910204Y-140186644D01*
X136909955Y-140184119D01*
X136920233Y-140168738D01*
X136924000Y-140149801D01*
X136924000Y-138650199D01*
X136920233Y-138631262D01*
X136910330Y-138616442D01*
X136910199Y-138614446D01*
X136912636Y-138613437D01*
X136966892Y-138631855D01*
X137037864Y-138612838D01*
X137039796Y-138613356D01*
G37*
G36*
X137689796Y-138613356D02*
G01*
X137690045Y-138615881D01*
X137679767Y-138631262D01*
X137676000Y-138650199D01*
X137676000Y-140149801D01*
X137679767Y-140168738D01*
X137689670Y-140183558D01*
X137689801Y-140185554D01*
X137687364Y-140186563D01*
X137633108Y-140168145D01*
X137562136Y-140187162D01*
X137560204Y-140186644D01*
X137559955Y-140184119D01*
X137570233Y-140168738D01*
X137574000Y-140149801D01*
X137574000Y-138650199D01*
X137570233Y-138631262D01*
X137560330Y-138616442D01*
X137560199Y-138614446D01*
X137562636Y-138613437D01*
X137616892Y-138631855D01*
X137687864Y-138612838D01*
X137689796Y-138613356D01*
G37*
G36*
X136389796Y-138613356D02*
G01*
X136390045Y-138615881D01*
X136379767Y-138631262D01*
X136376000Y-138650199D01*
X136376000Y-140149801D01*
X136379767Y-140168738D01*
X136389670Y-140183558D01*
X136389801Y-140185554D01*
X136387364Y-140186563D01*
X136333108Y-140168145D01*
X136262136Y-140187162D01*
X136260204Y-140186644D01*
X136259955Y-140184119D01*
X136270233Y-140168738D01*
X136274000Y-140149801D01*
X136274000Y-138650199D01*
X136270233Y-138631262D01*
X136260330Y-138616442D01*
X136260199Y-138614446D01*
X136262636Y-138613437D01*
X136316892Y-138631855D01*
X136387864Y-138612838D01*
X136389796Y-138613356D01*
G37*
G36*
X138339796Y-138613356D02*
G01*
X138340045Y-138615881D01*
X138329767Y-138631262D01*
X138326000Y-138650199D01*
X138326000Y-140149801D01*
X138329767Y-140168738D01*
X138339670Y-140183558D01*
X138339801Y-140185554D01*
X138337364Y-140186563D01*
X138283108Y-140168145D01*
X138212136Y-140187162D01*
X138210204Y-140186644D01*
X138209955Y-140184119D01*
X138220233Y-140168738D01*
X138224000Y-140149801D01*
X138224000Y-138650199D01*
X138220233Y-138631262D01*
X138210330Y-138616442D01*
X138210199Y-138614446D01*
X138212636Y-138613437D01*
X138266892Y-138631855D01*
X138337864Y-138612838D01*
X138339796Y-138613356D01*
G37*
G36*
X136350269Y-137338409D02*
G01*
X136351000Y-137339955D01*
X136351000Y-137860045D01*
X136350000Y-137861777D01*
X136348000Y-137861777D01*
X136347068Y-137860563D01*
X136330459Y-137798580D01*
X136285467Y-137753587D01*
X136224001Y-137737117D01*
X136162536Y-137753587D01*
X136117470Y-137798653D01*
X136103334Y-137836210D01*
X136102962Y-137838080D01*
X136101643Y-137839584D01*
X136099681Y-137839194D01*
X136099000Y-137837690D01*
X136099000Y-137362310D01*
X136100000Y-137360578D01*
X136102000Y-137360578D01*
X136102962Y-137361920D01*
X136103315Y-137363692D01*
X136131579Y-137421007D01*
X136184486Y-137456359D01*
X136247983Y-137460521D01*
X136305053Y-137432377D01*
X136340463Y-137379383D01*
X136347027Y-137339629D01*
X136348296Y-137338083D01*
X136350269Y-137338409D01*
G37*
G36*
X131626572Y-128421684D02*
G01*
X131626572Y-128424322D01*
X131585961Y-128470631D01*
X131573547Y-128533041D01*
X131594023Y-128593362D01*
X131626185Y-128625524D01*
X131626703Y-128627456D01*
X131624381Y-128628900D01*
X131609801Y-128626000D01*
X130550199Y-128626000D01*
X130535322Y-128628959D01*
X130533428Y-128628316D01*
X130533428Y-128625678D01*
X130574039Y-128579369D01*
X130586453Y-128516959D01*
X130565977Y-128456638D01*
X130533815Y-128424476D01*
X130533297Y-128422544D01*
X130535619Y-128421100D01*
X130550199Y-128424000D01*
X131609801Y-128424000D01*
X131624678Y-128421041D01*
X131626572Y-128421684D01*
G37*
G36*
X131626572Y-127471684D02*
G01*
X131626572Y-127474322D01*
X131585961Y-127520631D01*
X131573547Y-127583041D01*
X131594023Y-127643362D01*
X131626185Y-127675524D01*
X131626703Y-127677456D01*
X131624381Y-127678900D01*
X131609801Y-127676000D01*
X130550199Y-127676000D01*
X130535322Y-127678959D01*
X130533428Y-127678316D01*
X130533428Y-127675678D01*
X130574039Y-127629369D01*
X130586453Y-127566959D01*
X130565977Y-127506638D01*
X130533815Y-127474476D01*
X130533297Y-127472544D01*
X130535619Y-127471100D01*
X130550199Y-127474000D01*
X131609801Y-127474000D01*
X131624678Y-127471041D01*
X131626572Y-127471684D01*
G37*
M02*
