G04 #@! TF.GenerationSoftware,KiCad,Pcbnew,5.99.0-unknown-acdfeee~88~ubuntu18.04.1*
G04 #@! TF.CreationDate,2020-05-13T21:49:14+03:00*
G04 #@! TF.ProjectId,LoRaNode,4c6f5261-4e6f-4646-952e-6b696361645f,1.1*
G04 #@! TF.SameCoordinates,Original*
G04 #@! TF.FileFunction,Legend,Bot*
G04 #@! TF.FilePolarity,Positive*
%FSLAX46Y46*%
G04 Gerber Fmt 4.6, Leading zero omitted, Abs format (unit mm)*
G04 Created by KiCad (PCBNEW 5.99.0-unknown-acdfeee~88~ubuntu18.04.1) date 2020-05-13 21:49:14*
%MOMM*%
%LPD*%
G01*
G04 APERTURE LIST*
%ADD10C,0.150000*%
%ADD11C,0.120000*%
%ADD12C,0.010000*%
%ADD13O,1.802000X1.802000*%
%ADD14O,2.100980X2.100980*%
%ADD15O,1.902000X1.202000*%
%ADD16O,2.302000X1.202000*%
%ADD17C,3.302000*%
G04 APERTURE END LIST*
D10*
X103633333Y-117716547D02*
X103633333Y-117240357D01*
X103347619Y-117811785D02*
X104347619Y-117478452D01*
X103347619Y-117145119D01*
X103347619Y-116287976D02*
X103347619Y-116859404D01*
X103347619Y-116573690D02*
X104347619Y-116573690D01*
X104204761Y-116668928D01*
X104109523Y-116764166D01*
X104061904Y-116859404D01*
X98395238Y-117911785D02*
X98347619Y-117768928D01*
X98347619Y-117530833D01*
X98395238Y-117435595D01*
X98442857Y-117387976D01*
X98538095Y-117340357D01*
X98633333Y-117340357D01*
X98728571Y-117387976D01*
X98776190Y-117435595D01*
X98823809Y-117530833D01*
X98871428Y-117721309D01*
X98919047Y-117816547D01*
X98966666Y-117864166D01*
X99061904Y-117911785D01*
X99157142Y-117911785D01*
X99252380Y-117864166D01*
X99300000Y-117816547D01*
X99347619Y-117721309D01*
X99347619Y-117483214D01*
X99300000Y-117340357D01*
X98395238Y-116959404D02*
X98347619Y-116816547D01*
X98347619Y-116578452D01*
X98395238Y-116483214D01*
X98442857Y-116435595D01*
X98538095Y-116387976D01*
X98633333Y-116387976D01*
X98728571Y-116435595D01*
X98776190Y-116483214D01*
X98823809Y-116578452D01*
X98871428Y-116768928D01*
X98919047Y-116864166D01*
X98966666Y-116911785D01*
X99061904Y-116959404D01*
X99157142Y-116959404D01*
X99252380Y-116911785D01*
X99300000Y-116864166D01*
X99347619Y-116768928D01*
X99347619Y-116530833D01*
X99300000Y-116387976D01*
X100847619Y-119578452D02*
X101847619Y-119578452D01*
X101133333Y-119245119D01*
X101847619Y-118911785D01*
X100847619Y-118911785D01*
X101847619Y-118245119D02*
X101847619Y-118054642D01*
X101800000Y-117959404D01*
X101704761Y-117864166D01*
X101514285Y-117816547D01*
X101180952Y-117816547D01*
X100990476Y-117864166D01*
X100895238Y-117959404D01*
X100847619Y-118054642D01*
X100847619Y-118245119D01*
X100895238Y-118340357D01*
X100990476Y-118435595D01*
X101180952Y-118483214D01*
X101514285Y-118483214D01*
X101704761Y-118435595D01*
X101800000Y-118340357D01*
X101847619Y-118245119D01*
X100895238Y-117435595D02*
X100847619Y-117292738D01*
X100847619Y-117054642D01*
X100895238Y-116959404D01*
X100942857Y-116911785D01*
X101038095Y-116864166D01*
X101133333Y-116864166D01*
X101228571Y-116911785D01*
X101276190Y-116959404D01*
X101323809Y-117054642D01*
X101371428Y-117245119D01*
X101419047Y-117340357D01*
X101466666Y-117387976D01*
X101561904Y-117435595D01*
X101657142Y-117435595D01*
X101752380Y-117387976D01*
X101800000Y-117340357D01*
X101847619Y-117245119D01*
X101847619Y-117007023D01*
X101800000Y-116864166D01*
X100847619Y-116435595D02*
X101847619Y-116435595D01*
X95795238Y-118959404D02*
X95747619Y-118816547D01*
X95747619Y-118578452D01*
X95795238Y-118483214D01*
X95842857Y-118435595D01*
X95938095Y-118387976D01*
X96033333Y-118387976D01*
X96128571Y-118435595D01*
X96176190Y-118483214D01*
X96223809Y-118578452D01*
X96271428Y-118768928D01*
X96319047Y-118864166D01*
X96366666Y-118911785D01*
X96461904Y-118959404D01*
X96557142Y-118959404D01*
X96652380Y-118911785D01*
X96700000Y-118864166D01*
X96747619Y-118768928D01*
X96747619Y-118530833D01*
X96700000Y-118387976D01*
X95842857Y-117387976D02*
X95795238Y-117435595D01*
X95747619Y-117578452D01*
X95747619Y-117673690D01*
X95795238Y-117816547D01*
X95890476Y-117911785D01*
X95985714Y-117959404D01*
X96176190Y-118007023D01*
X96319047Y-118007023D01*
X96509523Y-117959404D01*
X96604761Y-117911785D01*
X96700000Y-117816547D01*
X96747619Y-117673690D01*
X96747619Y-117578452D01*
X96700000Y-117435595D01*
X96652380Y-117387976D01*
X95747619Y-116959404D02*
X96747619Y-116959404D01*
X95747619Y-116387976D02*
X96319047Y-116816547D01*
X96747619Y-116387976D02*
X96176190Y-116959404D01*
X93247619Y-119478452D02*
X94247619Y-119478452D01*
X93533333Y-119145119D01*
X94247619Y-118811785D01*
X93247619Y-118811785D01*
X93247619Y-118335595D02*
X94247619Y-118335595D01*
X93295238Y-117907023D02*
X93247619Y-117764166D01*
X93247619Y-117526071D01*
X93295238Y-117430833D01*
X93342857Y-117383214D01*
X93438095Y-117335595D01*
X93533333Y-117335595D01*
X93628571Y-117383214D01*
X93676190Y-117430833D01*
X93723809Y-117526071D01*
X93771428Y-117716547D01*
X93819047Y-117811785D01*
X93866666Y-117859404D01*
X93961904Y-117907023D01*
X94057142Y-117907023D01*
X94152380Y-117859404D01*
X94200000Y-117811785D01*
X94247619Y-117716547D01*
X94247619Y-117478452D01*
X94200000Y-117335595D01*
X94247619Y-116716547D02*
X94247619Y-116526071D01*
X94200000Y-116430833D01*
X94104761Y-116335595D01*
X93914285Y-116287976D01*
X93580952Y-116287976D01*
X93390476Y-116335595D01*
X93295238Y-116430833D01*
X93247619Y-116526071D01*
X93247619Y-116716547D01*
X93295238Y-116811785D01*
X93390476Y-116907023D01*
X93580952Y-116954642D01*
X93914285Y-116954642D01*
X94104761Y-116907023D01*
X94200000Y-116811785D01*
X94247619Y-116716547D01*
X135607023Y-114752619D02*
X135273690Y-115228809D01*
X135035595Y-114752619D02*
X135035595Y-115752619D01*
X135416547Y-115752619D01*
X135511785Y-115705000D01*
X135559404Y-115657380D01*
X135607023Y-115562142D01*
X135607023Y-115419285D01*
X135559404Y-115324047D01*
X135511785Y-115276428D01*
X135416547Y-115228809D01*
X135035595Y-115228809D01*
X136178452Y-114752619D02*
X136083214Y-114800238D01*
X136035595Y-114847857D01*
X135987976Y-114943095D01*
X135987976Y-115228809D01*
X136035595Y-115324047D01*
X136083214Y-115371666D01*
X136178452Y-115419285D01*
X136321309Y-115419285D01*
X136416547Y-115371666D01*
X136464166Y-115324047D01*
X136511785Y-115228809D01*
X136511785Y-114943095D01*
X136464166Y-114847857D01*
X136416547Y-114800238D01*
X136321309Y-114752619D01*
X136178452Y-114752619D01*
X136940357Y-114752619D02*
X136940357Y-115752619D01*
X136940357Y-115276428D02*
X137511785Y-115276428D01*
X137511785Y-114752619D02*
X137511785Y-115752619D01*
X137940357Y-114800238D02*
X138083214Y-114752619D01*
X138321309Y-114752619D01*
X138416547Y-114800238D01*
X138464166Y-114847857D01*
X138511785Y-114943095D01*
X138511785Y-115038333D01*
X138464166Y-115133571D01*
X138416547Y-115181190D01*
X138321309Y-115228809D01*
X138130833Y-115276428D01*
X138035595Y-115324047D01*
X137987976Y-115371666D01*
X137940357Y-115466904D01*
X137940357Y-115562142D01*
X137987976Y-115657380D01*
X138035595Y-115705000D01*
X138130833Y-115752619D01*
X138368928Y-115752619D01*
X138511785Y-115705000D01*
X135464166Y-113190238D02*
X135368928Y-113142619D01*
X135178452Y-113142619D01*
X135083214Y-113190238D01*
X135035595Y-113237857D01*
X134987976Y-113333095D01*
X134987976Y-113618809D01*
X135035595Y-113714047D01*
X135083214Y-113761666D01*
X135178452Y-113809285D01*
X135368928Y-113809285D01*
X135464166Y-113761666D01*
X136035595Y-113142619D02*
X135940357Y-113190238D01*
X135892738Y-113237857D01*
X135845119Y-113333095D01*
X135845119Y-113618809D01*
X135892738Y-113714047D01*
X135940357Y-113761666D01*
X136035595Y-113809285D01*
X136178452Y-113809285D01*
X136273690Y-113761666D01*
X136321309Y-113714047D01*
X136368928Y-113618809D01*
X136368928Y-113333095D01*
X136321309Y-113237857D01*
X136273690Y-113190238D01*
X136178452Y-113142619D01*
X136035595Y-113142619D01*
X136797500Y-113142619D02*
X136797500Y-113809285D01*
X136797500Y-113714047D02*
X136845119Y-113761666D01*
X136940357Y-113809285D01*
X137083214Y-113809285D01*
X137178452Y-113761666D01*
X137226071Y-113666428D01*
X137226071Y-113142619D01*
X137226071Y-113666428D02*
X137273690Y-113761666D01*
X137368928Y-113809285D01*
X137511785Y-113809285D01*
X137607023Y-113761666D01*
X137654642Y-113666428D01*
X137654642Y-113142619D01*
X138130833Y-113809285D02*
X138130833Y-112809285D01*
X138130833Y-113761666D02*
X138226071Y-113809285D01*
X138416547Y-113809285D01*
X138511785Y-113761666D01*
X138559404Y-113714047D01*
X138607023Y-113618809D01*
X138607023Y-113333095D01*
X138559404Y-113237857D01*
X138511785Y-113190238D01*
X138416547Y-113142619D01*
X138226071Y-113142619D01*
X138130833Y-113190238D01*
X139178452Y-113142619D02*
X139083214Y-113190238D01*
X139035595Y-113285476D01*
X139035595Y-114142619D01*
X139559404Y-113142619D02*
X139559404Y-113809285D01*
X139559404Y-114142619D02*
X139511785Y-114095000D01*
X139559404Y-114047380D01*
X139607023Y-114095000D01*
X139559404Y-114142619D01*
X139559404Y-114047380D01*
X140464166Y-113142619D02*
X140464166Y-113666428D01*
X140416547Y-113761666D01*
X140321309Y-113809285D01*
X140130833Y-113809285D01*
X140035595Y-113761666D01*
X140464166Y-113190238D02*
X140368928Y-113142619D01*
X140130833Y-113142619D01*
X140035595Y-113190238D01*
X139987976Y-113285476D01*
X139987976Y-113380714D01*
X140035595Y-113475952D01*
X140130833Y-113523571D01*
X140368928Y-113523571D01*
X140464166Y-113571190D01*
X140940357Y-113809285D02*
X140940357Y-113142619D01*
X140940357Y-113714047D02*
X140987976Y-113761666D01*
X141083214Y-113809285D01*
X141226071Y-113809285D01*
X141321309Y-113761666D01*
X141368928Y-113666428D01*
X141368928Y-113142619D01*
X141702261Y-113809285D02*
X142083214Y-113809285D01*
X141845119Y-114142619D02*
X141845119Y-113285476D01*
X141892738Y-113190238D01*
X141987976Y-113142619D01*
X142083214Y-113142619D01*
D11*
X130100000Y-132200000D02*
X130400000Y-132200000D01*
X127700000Y-132200000D02*
X127400000Y-132200000D01*
X130400000Y-132200000D02*
X130400000Y-135400000D01*
X127400000Y-132200000D02*
X127400000Y-134700000D01*
X114600000Y-132200000D02*
X114900000Y-132200000D01*
X107600000Y-132100000D02*
X107300000Y-132100000D01*
X114900000Y-132200000D02*
X114900000Y-134600000D01*
X107300000Y-132100000D02*
X107300000Y-133900000D01*
X117700000Y-132200000D02*
X117400000Y-132200000D01*
X117400000Y-132200000D02*
X117400000Y-134000000D01*
X125000000Y-132300000D02*
X125000000Y-134700000D01*
X124700000Y-132300000D02*
X125000000Y-132300000D01*
D10*
X95035595Y-124252619D02*
X95035595Y-125252619D01*
X95464166Y-124252619D02*
X95464166Y-124776428D01*
X95416547Y-124871666D01*
X95321309Y-124919285D01*
X95178452Y-124919285D01*
X95083214Y-124871666D01*
X95035595Y-124824047D01*
X95797500Y-124919285D02*
X96178452Y-124919285D01*
X95940357Y-125252619D02*
X95940357Y-124395476D01*
X95987976Y-124300238D01*
X96083214Y-124252619D01*
X96178452Y-124252619D01*
X96368928Y-124919285D02*
X96749880Y-124919285D01*
X96511785Y-125252619D02*
X96511785Y-124395476D01*
X96559404Y-124300238D01*
X96654642Y-124252619D01*
X96749880Y-124252619D01*
X97083214Y-124919285D02*
X97083214Y-123919285D01*
X97083214Y-124871666D02*
X97178452Y-124919285D01*
X97368928Y-124919285D01*
X97464166Y-124871666D01*
X97511785Y-124824047D01*
X97559404Y-124728809D01*
X97559404Y-124443095D01*
X97511785Y-124347857D01*
X97464166Y-124300238D01*
X97368928Y-124252619D01*
X97178452Y-124252619D01*
X97083214Y-124300238D01*
X97940357Y-124300238D02*
X98035595Y-124252619D01*
X98226071Y-124252619D01*
X98321309Y-124300238D01*
X98368928Y-124395476D01*
X98368928Y-124443095D01*
X98321309Y-124538333D01*
X98226071Y-124585952D01*
X98083214Y-124585952D01*
X97987976Y-124633571D01*
X97940357Y-124728809D01*
X97940357Y-124776428D01*
X97987976Y-124871666D01*
X98083214Y-124919285D01*
X98226071Y-124919285D01*
X98321309Y-124871666D01*
X98797500Y-124347857D02*
X98845119Y-124300238D01*
X98797500Y-124252619D01*
X98749880Y-124300238D01*
X98797500Y-124347857D01*
X98797500Y-124252619D01*
X98797500Y-124871666D02*
X98845119Y-124824047D01*
X98797500Y-124776428D01*
X98749880Y-124824047D01*
X98797500Y-124871666D01*
X98797500Y-124776428D01*
X99987976Y-125300238D02*
X99130833Y-124014523D01*
X101035595Y-125300238D02*
X100178452Y-124014523D01*
X101797500Y-124919285D02*
X101797500Y-124109761D01*
X101749880Y-124014523D01*
X101702261Y-123966904D01*
X101607023Y-123919285D01*
X101464166Y-123919285D01*
X101368928Y-123966904D01*
X101797500Y-124300238D02*
X101702261Y-124252619D01*
X101511785Y-124252619D01*
X101416547Y-124300238D01*
X101368928Y-124347857D01*
X101321309Y-124443095D01*
X101321309Y-124728809D01*
X101368928Y-124824047D01*
X101416547Y-124871666D01*
X101511785Y-124919285D01*
X101702261Y-124919285D01*
X101797500Y-124871666D01*
X102273690Y-124252619D02*
X102273690Y-124919285D01*
X102273690Y-125252619D02*
X102226071Y-125205000D01*
X102273690Y-125157380D01*
X102321309Y-125205000D01*
X102273690Y-125252619D01*
X102273690Y-125157380D01*
X102607023Y-124919285D02*
X102987976Y-124919285D01*
X102749880Y-125252619D02*
X102749880Y-124395476D01*
X102797500Y-124300238D01*
X102892738Y-124252619D01*
X102987976Y-124252619D01*
X103321309Y-124252619D02*
X103321309Y-125252619D01*
X103749880Y-124252619D02*
X103749880Y-124776428D01*
X103702261Y-124871666D01*
X103607023Y-124919285D01*
X103464166Y-124919285D01*
X103368928Y-124871666D01*
X103321309Y-124824047D01*
X104654642Y-124919285D02*
X104654642Y-124252619D01*
X104226071Y-124919285D02*
X104226071Y-124395476D01*
X104273690Y-124300238D01*
X104368928Y-124252619D01*
X104511785Y-124252619D01*
X104607023Y-124300238D01*
X104654642Y-124347857D01*
X105130833Y-124252619D02*
X105130833Y-125252619D01*
X105130833Y-124871666D02*
X105226071Y-124919285D01*
X105416547Y-124919285D01*
X105511785Y-124871666D01*
X105559404Y-124824047D01*
X105607023Y-124728809D01*
X105607023Y-124443095D01*
X105559404Y-124347857D01*
X105511785Y-124300238D01*
X105416547Y-124252619D01*
X105226071Y-124252619D01*
X105130833Y-124300238D01*
X106035595Y-124347857D02*
X106083214Y-124300238D01*
X106035595Y-124252619D01*
X105987976Y-124300238D01*
X106035595Y-124347857D01*
X106035595Y-124252619D01*
X106940357Y-124300238D02*
X106845119Y-124252619D01*
X106654642Y-124252619D01*
X106559404Y-124300238D01*
X106511785Y-124347857D01*
X106464166Y-124443095D01*
X106464166Y-124728809D01*
X106511785Y-124824047D01*
X106559404Y-124871666D01*
X106654642Y-124919285D01*
X106845119Y-124919285D01*
X106940357Y-124871666D01*
X107511785Y-124252619D02*
X107416547Y-124300238D01*
X107368928Y-124347857D01*
X107321309Y-124443095D01*
X107321309Y-124728809D01*
X107368928Y-124824047D01*
X107416547Y-124871666D01*
X107511785Y-124919285D01*
X107654642Y-124919285D01*
X107749880Y-124871666D01*
X107797499Y-124824047D01*
X107845119Y-124728809D01*
X107845119Y-124443095D01*
X107797499Y-124347857D01*
X107749880Y-124300238D01*
X107654642Y-124252619D01*
X107511785Y-124252619D01*
X108273690Y-124252619D02*
X108273690Y-124919285D01*
X108273690Y-124824047D02*
X108321309Y-124871666D01*
X108416547Y-124919285D01*
X108559404Y-124919285D01*
X108654642Y-124871666D01*
X108702261Y-124776428D01*
X108702261Y-124252619D01*
X108702261Y-124776428D02*
X108749880Y-124871666D01*
X108845119Y-124919285D01*
X108987976Y-124919285D01*
X109083214Y-124871666D01*
X109130833Y-124776428D01*
X109130833Y-124252619D01*
X110321309Y-125300238D02*
X109464166Y-124014523D01*
X110654642Y-124252619D02*
X110654642Y-124919285D01*
X110654642Y-124824047D02*
X110702261Y-124871666D01*
X110797499Y-124919285D01*
X110940357Y-124919285D01*
X111035595Y-124871666D01*
X111083214Y-124776428D01*
X111083214Y-124252619D01*
X111083214Y-124776428D02*
X111130833Y-124871666D01*
X111226071Y-124919285D01*
X111368928Y-124919285D01*
X111464166Y-124871666D01*
X111511785Y-124776428D01*
X111511785Y-124252619D01*
X111987976Y-124252619D02*
X111987976Y-124919285D01*
X111987976Y-125252619D02*
X111940357Y-125205000D01*
X111987976Y-125157380D01*
X112035595Y-125205000D01*
X111987976Y-125252619D01*
X111987976Y-125157380D01*
X112892738Y-124300238D02*
X112797499Y-124252619D01*
X112607023Y-124252619D01*
X112511785Y-124300238D01*
X112464166Y-124347857D01*
X112416547Y-124443095D01*
X112416547Y-124728809D01*
X112464166Y-124824047D01*
X112511785Y-124871666D01*
X112607023Y-124919285D01*
X112797499Y-124919285D01*
X112892738Y-124871666D01*
X113702261Y-124300238D02*
X113607023Y-124252619D01*
X113416547Y-124252619D01*
X113321309Y-124300238D01*
X113273690Y-124395476D01*
X113273690Y-124776428D01*
X113321309Y-124871666D01*
X113416547Y-124919285D01*
X113607023Y-124919285D01*
X113702261Y-124871666D01*
X113749880Y-124776428D01*
X113749880Y-124681190D01*
X113273690Y-124585952D01*
X114607023Y-124919285D02*
X114607023Y-124252619D01*
X114178452Y-124919285D02*
X114178452Y-124395476D01*
X114226071Y-124300238D01*
X114321309Y-124252619D01*
X114464166Y-124252619D01*
X114559404Y-124300238D01*
X114607023Y-124347857D01*
X114987976Y-124919285D02*
X115511785Y-124919285D01*
X114987976Y-124252619D01*
X115511785Y-124252619D01*
X116607023Y-125300238D02*
X115749880Y-124014523D01*
X117416547Y-124252619D02*
X116940357Y-124252619D01*
X116940357Y-125252619D01*
X117892738Y-124252619D02*
X117797499Y-124300238D01*
X117749880Y-124347857D01*
X117702261Y-124443095D01*
X117702261Y-124728809D01*
X117749880Y-124824047D01*
X117797499Y-124871666D01*
X117892738Y-124919285D01*
X118035595Y-124919285D01*
X118130833Y-124871666D01*
X118178452Y-124824047D01*
X118226071Y-124728809D01*
X118226071Y-124443095D01*
X118178452Y-124347857D01*
X118130833Y-124300238D01*
X118035595Y-124252619D01*
X117892738Y-124252619D01*
X119226071Y-124252619D02*
X118892738Y-124728809D01*
X118654642Y-124252619D02*
X118654642Y-125252619D01*
X119035595Y-125252619D01*
X119130833Y-125205000D01*
X119178452Y-125157380D01*
X119226071Y-125062142D01*
X119226071Y-124919285D01*
X119178452Y-124824047D01*
X119130833Y-124776428D01*
X119035595Y-124728809D01*
X118654642Y-124728809D01*
X120083214Y-124252619D02*
X120083214Y-124776428D01*
X120035595Y-124871666D01*
X119940357Y-124919285D01*
X119749880Y-124919285D01*
X119654642Y-124871666D01*
X120083214Y-124300238D02*
X119987976Y-124252619D01*
X119749880Y-124252619D01*
X119654642Y-124300238D01*
X119607023Y-124395476D01*
X119607023Y-124490714D01*
X119654642Y-124585952D01*
X119749880Y-124633571D01*
X119987976Y-124633571D01*
X120083214Y-124681190D01*
X120559404Y-124252619D02*
X120559404Y-125252619D01*
X121130833Y-124252619D01*
X121130833Y-125252619D01*
X121749880Y-124252619D02*
X121654642Y-124300238D01*
X121607023Y-124347857D01*
X121559404Y-124443095D01*
X121559404Y-124728809D01*
X121607023Y-124824047D01*
X121654642Y-124871666D01*
X121749880Y-124919285D01*
X121892738Y-124919285D01*
X121987976Y-124871666D01*
X122035595Y-124824047D01*
X122083214Y-124728809D01*
X122083214Y-124443095D01*
X122035595Y-124347857D01*
X121987976Y-124300238D01*
X121892738Y-124252619D01*
X121749880Y-124252619D01*
X122940357Y-124252619D02*
X122940357Y-125252619D01*
X122940357Y-124300238D02*
X122845119Y-124252619D01*
X122654642Y-124252619D01*
X122559404Y-124300238D01*
X122511785Y-124347857D01*
X122464166Y-124443095D01*
X122464166Y-124728809D01*
X122511785Y-124824047D01*
X122559404Y-124871666D01*
X122654642Y-124919285D01*
X122845119Y-124919285D01*
X122940357Y-124871666D01*
X123797500Y-124300238D02*
X123702261Y-124252619D01*
X123511785Y-124252619D01*
X123416547Y-124300238D01*
X123368928Y-124395476D01*
X123368928Y-124776428D01*
X123416547Y-124871666D01*
X123511785Y-124919285D01*
X123702261Y-124919285D01*
X123797500Y-124871666D01*
X123845119Y-124776428D01*
X123845119Y-124681190D01*
X123368928Y-124585952D01*
X95035595Y-122642619D02*
X95035595Y-123642619D01*
X95464166Y-122642619D02*
X95464166Y-123166428D01*
X95416547Y-123261666D01*
X95321309Y-123309285D01*
X95178452Y-123309285D01*
X95083214Y-123261666D01*
X95035595Y-123214047D01*
X95797500Y-123309285D02*
X96178452Y-123309285D01*
X95940357Y-123642619D02*
X95940357Y-122785476D01*
X95987976Y-122690238D01*
X96083214Y-122642619D01*
X96178452Y-122642619D01*
X96368928Y-123309285D02*
X96749880Y-123309285D01*
X96511785Y-123642619D02*
X96511785Y-122785476D01*
X96559404Y-122690238D01*
X96654642Y-122642619D01*
X96749880Y-122642619D01*
X97083214Y-123309285D02*
X97083214Y-122309285D01*
X97083214Y-123261666D02*
X97178452Y-123309285D01*
X97368928Y-123309285D01*
X97464166Y-123261666D01*
X97511785Y-123214047D01*
X97559404Y-123118809D01*
X97559404Y-122833095D01*
X97511785Y-122737857D01*
X97464166Y-122690238D01*
X97368928Y-122642619D01*
X97178452Y-122642619D01*
X97083214Y-122690238D01*
X97940357Y-122690238D02*
X98035595Y-122642619D01*
X98226071Y-122642619D01*
X98321309Y-122690238D01*
X98368928Y-122785476D01*
X98368928Y-122833095D01*
X98321309Y-122928333D01*
X98226071Y-122975952D01*
X98083214Y-122975952D01*
X97987976Y-123023571D01*
X97940357Y-123118809D01*
X97940357Y-123166428D01*
X97987976Y-123261666D01*
X98083214Y-123309285D01*
X98226071Y-123309285D01*
X98321309Y-123261666D01*
X98797500Y-122737857D02*
X98845119Y-122690238D01*
X98797500Y-122642619D01*
X98749880Y-122690238D01*
X98797500Y-122737857D01*
X98797500Y-122642619D01*
X98797500Y-123261666D02*
X98845119Y-123214047D01*
X98797500Y-123166428D01*
X98749880Y-123214047D01*
X98797500Y-123261666D01*
X98797500Y-123166428D01*
X99987976Y-123690238D02*
X99130833Y-122404523D01*
X101035595Y-123690238D02*
X100178452Y-122404523D01*
X101273690Y-123309285D02*
X101464166Y-122642619D01*
X101654642Y-123118809D01*
X101845119Y-122642619D01*
X102035595Y-123309285D01*
X102321309Y-123309285D02*
X102511785Y-122642619D01*
X102702261Y-123118809D01*
X102892738Y-122642619D01*
X103083214Y-123309285D01*
X103368928Y-123309285D02*
X103559404Y-122642619D01*
X103749880Y-123118809D01*
X103940357Y-122642619D01*
X104130833Y-123309285D01*
X104511785Y-122737857D02*
X104559404Y-122690238D01*
X104511785Y-122642619D01*
X104464166Y-122690238D01*
X104511785Y-122737857D01*
X104511785Y-122642619D01*
X104845119Y-123309285D02*
X105226071Y-123309285D01*
X104987976Y-123642619D02*
X104987976Y-122785476D01*
X105035595Y-122690238D01*
X105130833Y-122642619D01*
X105226071Y-122642619D01*
X105559404Y-122642619D02*
X105559404Y-123309285D01*
X105559404Y-123642619D02*
X105511785Y-123595000D01*
X105559404Y-123547380D01*
X105607023Y-123595000D01*
X105559404Y-123642619D01*
X105559404Y-123547380D01*
X106035595Y-123309285D02*
X106035595Y-122642619D01*
X106035595Y-123214047D02*
X106083214Y-123261666D01*
X106178452Y-123309285D01*
X106321309Y-123309285D01*
X106416547Y-123261666D01*
X106464166Y-123166428D01*
X106464166Y-122642619D01*
X107368928Y-122642619D02*
X107368928Y-123642619D01*
X107368928Y-122690238D02*
X107273690Y-122642619D01*
X107083214Y-122642619D01*
X106987976Y-122690238D01*
X106940357Y-122737857D01*
X106892738Y-122833095D01*
X106892738Y-123118809D01*
X106940357Y-123214047D01*
X106987976Y-123261666D01*
X107083214Y-123309285D01*
X107273690Y-123309285D01*
X107368928Y-123261666D01*
X107845119Y-122642619D02*
X107845119Y-123309285D01*
X107845119Y-123642619D02*
X107797500Y-123595000D01*
X107845119Y-123547380D01*
X107892738Y-123595000D01*
X107845119Y-123642619D01*
X107845119Y-123547380D01*
X108702261Y-122690238D02*
X108607023Y-122642619D01*
X108416547Y-122642619D01*
X108321309Y-122690238D01*
X108273690Y-122785476D01*
X108273690Y-123166428D01*
X108321309Y-123261666D01*
X108416547Y-123309285D01*
X108607023Y-123309285D01*
X108702261Y-123261666D01*
X108749880Y-123166428D01*
X108749880Y-123071190D01*
X108273690Y-122975952D01*
X109178452Y-122737857D02*
X109226071Y-122690238D01*
X109178452Y-122642619D01*
X109130833Y-122690238D01*
X109178452Y-122737857D01*
X109178452Y-122642619D01*
X110083214Y-122690238D02*
X109987976Y-122642619D01*
X109797500Y-122642619D01*
X109702261Y-122690238D01*
X109654642Y-122737857D01*
X109607023Y-122833095D01*
X109607023Y-123118809D01*
X109654642Y-123214047D01*
X109702261Y-123261666D01*
X109797500Y-123309285D01*
X109987976Y-123309285D01*
X110083214Y-123261666D01*
X110654642Y-122642619D02*
X110559404Y-122690238D01*
X110511785Y-122737857D01*
X110464166Y-122833095D01*
X110464166Y-123118809D01*
X110511785Y-123214047D01*
X110559404Y-123261666D01*
X110654642Y-123309285D01*
X110797500Y-123309285D01*
X110892738Y-123261666D01*
X110940357Y-123214047D01*
X110987976Y-123118809D01*
X110987976Y-122833095D01*
X110940357Y-122737857D01*
X110892738Y-122690238D01*
X110797500Y-122642619D01*
X110654642Y-122642619D01*
X111416547Y-122642619D02*
X111416547Y-123309285D01*
X111416547Y-123214047D02*
X111464166Y-123261666D01*
X111559404Y-123309285D01*
X111702261Y-123309285D01*
X111797500Y-123261666D01*
X111845119Y-123166428D01*
X111845119Y-122642619D01*
X111845119Y-123166428D02*
X111892738Y-123261666D01*
X111987976Y-123309285D01*
X112130833Y-123309285D01*
X112226071Y-123261666D01*
X112273690Y-123166428D01*
X112273690Y-122642619D01*
X113464166Y-123690238D02*
X112607023Y-122404523D01*
X113749880Y-122690238D02*
X113845119Y-122642619D01*
X114035595Y-122642619D01*
X114130833Y-122690238D01*
X114178452Y-122785476D01*
X114178452Y-122833095D01*
X114130833Y-122928333D01*
X114035595Y-122975952D01*
X113892738Y-122975952D01*
X113797500Y-123023571D01*
X113749880Y-123118809D01*
X113749880Y-123166428D01*
X113797500Y-123261666D01*
X113892738Y-123309285D01*
X114035595Y-123309285D01*
X114130833Y-123261666D01*
X114464166Y-123309285D02*
X114845119Y-123309285D01*
X114607023Y-123642619D02*
X114607023Y-122785476D01*
X114654642Y-122690238D01*
X114749880Y-122642619D01*
X114845119Y-122642619D01*
X115321309Y-122642619D02*
X115226071Y-122690238D01*
X115178452Y-122737857D01*
X115130833Y-122833095D01*
X115130833Y-123118809D01*
X115178452Y-123214047D01*
X115226071Y-123261666D01*
X115321309Y-123309285D01*
X115464166Y-123309285D01*
X115559404Y-123261666D01*
X115607023Y-123214047D01*
X115654642Y-123118809D01*
X115654642Y-122833095D01*
X115607023Y-122737857D01*
X115559404Y-122690238D01*
X115464166Y-122642619D01*
X115321309Y-122642619D01*
X116083214Y-122642619D02*
X116083214Y-123309285D01*
X116083214Y-123118809D02*
X116130833Y-123214047D01*
X116178452Y-123261666D01*
X116273690Y-123309285D01*
X116368928Y-123309285D01*
X117083214Y-122690238D02*
X116987976Y-122642619D01*
X116797500Y-122642619D01*
X116702261Y-122690238D01*
X116654642Y-122785476D01*
X116654642Y-123166428D01*
X116702261Y-123261666D01*
X116797500Y-123309285D01*
X116987976Y-123309285D01*
X117083214Y-123261666D01*
X117130833Y-123166428D01*
X117130833Y-123071190D01*
X116654642Y-122975952D01*
X117511785Y-122690238D02*
X117607023Y-122642619D01*
X117797500Y-122642619D01*
X117892738Y-122690238D01*
X117940357Y-122785476D01*
X117940357Y-122833095D01*
X117892738Y-122928333D01*
X117797500Y-122975952D01*
X117654642Y-122975952D01*
X117559404Y-123023571D01*
X117511785Y-123118809D01*
X117511785Y-123166428D01*
X117559404Y-123261666D01*
X117654642Y-123309285D01*
X117797500Y-123309285D01*
X117892738Y-123261666D01*
X119083214Y-123690238D02*
X118226071Y-122404523D01*
X119416547Y-122642619D02*
X119416547Y-123309285D01*
X119416547Y-123214047D02*
X119464166Y-123261666D01*
X119559404Y-123309285D01*
X119702261Y-123309285D01*
X119797500Y-123261666D01*
X119845119Y-123166428D01*
X119845119Y-122642619D01*
X119845119Y-123166428D02*
X119892738Y-123261666D01*
X119987976Y-123309285D01*
X120130833Y-123309285D01*
X120226071Y-123261666D01*
X120273690Y-123166428D01*
X120273690Y-122642619D01*
X120749880Y-122642619D02*
X120749880Y-123309285D01*
X120749880Y-123642619D02*
X120702261Y-123595000D01*
X120749880Y-123547380D01*
X120797500Y-123595000D01*
X120749880Y-123642619D01*
X120749880Y-123547380D01*
X121654642Y-122690238D02*
X121559404Y-122642619D01*
X121368928Y-122642619D01*
X121273690Y-122690238D01*
X121226071Y-122737857D01*
X121178452Y-122833095D01*
X121178452Y-123118809D01*
X121226071Y-123214047D01*
X121273690Y-123261666D01*
X121368928Y-123309285D01*
X121559404Y-123309285D01*
X121654642Y-123261666D01*
X122464166Y-122690238D02*
X122368928Y-122642619D01*
X122178452Y-122642619D01*
X122083214Y-122690238D01*
X122035595Y-122785476D01*
X122035595Y-123166428D01*
X122083214Y-123261666D01*
X122178452Y-123309285D01*
X122368928Y-123309285D01*
X122464166Y-123261666D01*
X122511785Y-123166428D01*
X122511785Y-123071190D01*
X122035595Y-122975952D01*
X123368928Y-123309285D02*
X123368928Y-122642619D01*
X122940357Y-123309285D02*
X122940357Y-122785476D01*
X122987976Y-122690238D01*
X123083214Y-122642619D01*
X123226071Y-122642619D01*
X123321309Y-122690238D01*
X123368928Y-122737857D01*
X123749880Y-123309285D02*
X124273690Y-123309285D01*
X123749880Y-122642619D01*
X124273690Y-122642619D01*
X125368928Y-123690238D02*
X124511785Y-122404523D01*
X133350119Y-124462857D02*
X133302500Y-124415238D01*
X133159642Y-124367619D01*
X133064404Y-124367619D01*
X132921547Y-124415238D01*
X132826309Y-124510476D01*
X132778690Y-124605714D01*
X132731071Y-124796190D01*
X132731071Y-124939047D01*
X132778690Y-125129523D01*
X132826309Y-125224761D01*
X132921547Y-125320000D01*
X133064404Y-125367619D01*
X133159642Y-125367619D01*
X133302500Y-125320000D01*
X133350119Y-125272380D01*
X134207261Y-124367619D02*
X134207261Y-124891428D01*
X134159642Y-124986666D01*
X134064404Y-125034285D01*
X133873928Y-125034285D01*
X133778690Y-124986666D01*
X134207261Y-124415238D02*
X134112023Y-124367619D01*
X133873928Y-124367619D01*
X133778690Y-124415238D01*
X133731071Y-124510476D01*
X133731071Y-124605714D01*
X133778690Y-124700952D01*
X133873928Y-124748571D01*
X134112023Y-124748571D01*
X134207261Y-124796190D01*
X134540595Y-125034285D02*
X134921547Y-125034285D01*
X134683452Y-125367619D02*
X134683452Y-124510476D01*
X134731071Y-124415238D01*
X134826309Y-124367619D01*
X134921547Y-124367619D01*
X135254880Y-125034285D02*
X135254880Y-124367619D01*
X135254880Y-124939047D02*
X135302500Y-124986666D01*
X135397738Y-125034285D01*
X135540595Y-125034285D01*
X135635833Y-124986666D01*
X135683452Y-124891428D01*
X135683452Y-124367619D01*
X136159642Y-124367619D02*
X136159642Y-125034285D01*
X136159642Y-125367619D02*
X136112023Y-125320000D01*
X136159642Y-125272380D01*
X136207261Y-125320000D01*
X136159642Y-125367619D01*
X136159642Y-125272380D01*
X136635833Y-125034285D02*
X136635833Y-124034285D01*
X136635833Y-124986666D02*
X136731071Y-125034285D01*
X136921547Y-125034285D01*
X137016785Y-124986666D01*
X137064404Y-124939047D01*
X137112023Y-124843809D01*
X137112023Y-124558095D01*
X137064404Y-124462857D01*
X137016785Y-124415238D01*
X136921547Y-124367619D01*
X136731071Y-124367619D01*
X136635833Y-124415238D01*
X138683452Y-124415238D02*
X138588214Y-124367619D01*
X138397738Y-124367619D01*
X138302500Y-124415238D01*
X138254880Y-124510476D01*
X138254880Y-124891428D01*
X138302500Y-124986666D01*
X138397738Y-125034285D01*
X138588214Y-125034285D01*
X138683452Y-124986666D01*
X138731071Y-124891428D01*
X138731071Y-124796190D01*
X138254880Y-124700952D01*
X139302500Y-124367619D02*
X139207261Y-124415238D01*
X139159642Y-124510476D01*
X139159642Y-125367619D01*
X140064404Y-124415238D02*
X139969166Y-124367619D01*
X139778690Y-124367619D01*
X139683452Y-124415238D01*
X139635833Y-124510476D01*
X139635833Y-124891428D01*
X139683452Y-124986666D01*
X139778690Y-125034285D01*
X139969166Y-125034285D01*
X140064404Y-124986666D01*
X140112023Y-124891428D01*
X140112023Y-124796190D01*
X139635833Y-124700952D01*
X140969166Y-124415238D02*
X140873928Y-124367619D01*
X140683452Y-124367619D01*
X140588214Y-124415238D01*
X140540595Y-124462857D01*
X140492976Y-124558095D01*
X140492976Y-124843809D01*
X140540595Y-124939047D01*
X140588214Y-124986666D01*
X140683452Y-125034285D01*
X140873928Y-125034285D01*
X140969166Y-124986666D01*
X141254880Y-125034285D02*
X141635833Y-125034285D01*
X141397738Y-125367619D02*
X141397738Y-124510476D01*
X141445357Y-124415238D01*
X141540595Y-124367619D01*
X141635833Y-124367619D01*
X141969166Y-124367619D02*
X141969166Y-125034285D01*
X141969166Y-124843809D02*
X142016785Y-124939047D01*
X142064404Y-124986666D01*
X142159642Y-125034285D01*
X142254880Y-125034285D01*
X142731071Y-124367619D02*
X142635833Y-124415238D01*
X142588214Y-124462857D01*
X142540595Y-124558095D01*
X142540595Y-124843809D01*
X142588214Y-124939047D01*
X142635833Y-124986666D01*
X142731071Y-125034285D01*
X142873928Y-125034285D01*
X142969166Y-124986666D01*
X143016785Y-124939047D01*
X143064404Y-124843809D01*
X143064404Y-124558095D01*
X143016785Y-124462857D01*
X142969166Y-124415238D01*
X142873928Y-124367619D01*
X142731071Y-124367619D01*
X143492976Y-125034285D02*
X143492976Y-124367619D01*
X143492976Y-124939047D02*
X143540595Y-124986666D01*
X143635833Y-125034285D01*
X143778690Y-125034285D01*
X143873928Y-124986666D01*
X143921547Y-124891428D01*
X143921547Y-124367619D01*
X144397738Y-124367619D02*
X144397738Y-125034285D01*
X144397738Y-125367619D02*
X144350119Y-125320000D01*
X144397738Y-125272380D01*
X144445357Y-125320000D01*
X144397738Y-125367619D01*
X144397738Y-125272380D01*
X145302500Y-124415238D02*
X145207261Y-124367619D01*
X145016785Y-124367619D01*
X144921547Y-124415238D01*
X144873928Y-124462857D01*
X144826309Y-124558095D01*
X144826309Y-124843809D01*
X144873928Y-124939047D01*
X144921547Y-124986666D01*
X145016785Y-125034285D01*
X145207261Y-125034285D01*
X145302500Y-124986666D01*
X145683452Y-124415238D02*
X145778690Y-124367619D01*
X145969166Y-124367619D01*
X146064404Y-124415238D01*
X146112023Y-124510476D01*
X146112023Y-124558095D01*
X146064404Y-124653333D01*
X145969166Y-124700952D01*
X145826309Y-124700952D01*
X145731071Y-124748571D01*
X145683452Y-124843809D01*
X145683452Y-124891428D01*
X145731071Y-124986666D01*
X145826309Y-125034285D01*
X145969166Y-125034285D01*
X146064404Y-124986666D01*
X136826309Y-122757619D02*
X136826309Y-123757619D01*
X137159642Y-123043333D01*
X137492976Y-123757619D01*
X137492976Y-122757619D01*
X137969166Y-122757619D02*
X137969166Y-123424285D01*
X137969166Y-123757619D02*
X137921547Y-123710000D01*
X137969166Y-123662380D01*
X138016785Y-123710000D01*
X137969166Y-123757619D01*
X137969166Y-123662380D01*
X138445357Y-123424285D02*
X138445357Y-122757619D01*
X138445357Y-123329047D02*
X138492976Y-123376666D01*
X138588214Y-123424285D01*
X138731071Y-123424285D01*
X138826309Y-123376666D01*
X138873928Y-123281428D01*
X138873928Y-122757619D01*
X139778690Y-122757619D02*
X139778690Y-123757619D01*
X139778690Y-122805238D02*
X139683452Y-122757619D01*
X139492976Y-122757619D01*
X139397738Y-122805238D01*
X139350119Y-122852857D01*
X139302500Y-122948095D01*
X139302500Y-123233809D01*
X139350119Y-123329047D01*
X139397738Y-123376666D01*
X139492976Y-123424285D01*
X139683452Y-123424285D01*
X139778690Y-123376666D01*
X140683452Y-122757619D02*
X140683452Y-123281428D01*
X140635833Y-123376666D01*
X140540595Y-123424285D01*
X140350119Y-123424285D01*
X140254880Y-123376666D01*
X140683452Y-122805238D02*
X140588214Y-122757619D01*
X140350119Y-122757619D01*
X140254880Y-122805238D01*
X140207261Y-122900476D01*
X140207261Y-122995714D01*
X140254880Y-123090952D01*
X140350119Y-123138571D01*
X140588214Y-123138571D01*
X140683452Y-123186190D01*
X141588214Y-123424285D02*
X141588214Y-122757619D01*
X141159642Y-123424285D02*
X141159642Y-122900476D01*
X141207261Y-122805238D01*
X141302500Y-122757619D01*
X141445357Y-122757619D01*
X141540595Y-122805238D01*
X141588214Y-122852857D01*
X142492976Y-123424285D02*
X142492976Y-122614761D01*
X142445357Y-122519523D01*
X142397738Y-122471904D01*
X142302500Y-122424285D01*
X142159642Y-122424285D01*
X142064404Y-122471904D01*
X142492976Y-122805238D02*
X142397738Y-122757619D01*
X142207261Y-122757619D01*
X142112023Y-122805238D01*
X142064404Y-122852857D01*
X142016785Y-122948095D01*
X142016785Y-123233809D01*
X142064404Y-123329047D01*
X142112023Y-123376666D01*
X142207261Y-123424285D01*
X142397738Y-123424285D01*
X142492976Y-123376666D01*
X143112023Y-122757619D02*
X143016785Y-122805238D01*
X142969166Y-122852857D01*
X142921547Y-122948095D01*
X142921547Y-123233809D01*
X142969166Y-123329047D01*
X143016785Y-123376666D01*
X143112023Y-123424285D01*
X143254880Y-123424285D01*
X143350119Y-123376666D01*
X143397738Y-123329047D01*
X143445357Y-123233809D01*
X143445357Y-122948095D01*
X143397738Y-122852857D01*
X143350119Y-122805238D01*
X143254880Y-122757619D01*
X143112023Y-122757619D01*
X144588214Y-123662380D02*
X144635833Y-123710000D01*
X144731071Y-123757619D01*
X144969166Y-123757619D01*
X145064404Y-123710000D01*
X145112023Y-123662380D01*
X145159642Y-123567142D01*
X145159642Y-123471904D01*
X145112023Y-123329047D01*
X144540595Y-122757619D01*
X145159642Y-122757619D01*
X146064404Y-123757619D02*
X145588214Y-123757619D01*
X145540595Y-123281428D01*
X145588214Y-123329047D01*
X145683452Y-123376666D01*
X145921547Y-123376666D01*
X146016785Y-123329047D01*
X146064404Y-123281428D01*
X146112023Y-123186190D01*
X146112023Y-122948095D01*
X146064404Y-122852857D01*
X146016785Y-122805238D01*
X145921547Y-122757619D01*
X145683452Y-122757619D01*
X145588214Y-122805238D01*
X145540595Y-122852857D01*
X136254880Y-122147619D02*
X136350119Y-122147619D01*
X136445357Y-122100000D01*
X136492976Y-122052380D01*
X136540595Y-121957142D01*
X136588214Y-121766666D01*
X136588214Y-121528571D01*
X136540595Y-121338095D01*
X136492976Y-121242857D01*
X136445357Y-121195238D01*
X136350119Y-121147619D01*
X136254880Y-121147619D01*
X136159642Y-121195238D01*
X136112023Y-121242857D01*
X136064404Y-121338095D01*
X136016785Y-121528571D01*
X136016785Y-121766666D01*
X136064404Y-121957142D01*
X136112023Y-122052380D01*
X136159642Y-122100000D01*
X136254880Y-122147619D01*
X136921547Y-122147619D02*
X137540595Y-122147619D01*
X137207261Y-121766666D01*
X137350119Y-121766666D01*
X137445357Y-121719047D01*
X137492976Y-121671428D01*
X137540595Y-121576190D01*
X137540595Y-121338095D01*
X137492976Y-121242857D01*
X137445357Y-121195238D01*
X137350119Y-121147619D01*
X137064404Y-121147619D01*
X136969166Y-121195238D01*
X136921547Y-121242857D01*
X138159642Y-122147619D02*
X138254880Y-122147619D01*
X138350119Y-122100000D01*
X138397738Y-122052380D01*
X138445357Y-121957142D01*
X138492976Y-121766666D01*
X138492976Y-121528571D01*
X138445357Y-121338095D01*
X138397738Y-121242857D01*
X138350119Y-121195238D01*
X138254880Y-121147619D01*
X138159642Y-121147619D01*
X138064404Y-121195238D01*
X138016785Y-121242857D01*
X137969166Y-121338095D01*
X137921547Y-121528571D01*
X137921547Y-121766666D01*
X137969166Y-121957142D01*
X138016785Y-122052380D01*
X138064404Y-122100000D01*
X138159642Y-122147619D01*
X139445357Y-121147619D02*
X138873928Y-121147619D01*
X139159642Y-121147619D02*
X139159642Y-122147619D01*
X139064404Y-122004761D01*
X138969166Y-121909523D01*
X138873928Y-121861904D01*
X140397738Y-121147619D02*
X139826309Y-121147619D01*
X140112023Y-121147619D02*
X140112023Y-122147619D01*
X140016785Y-122004761D01*
X139921547Y-121909523D01*
X139826309Y-121861904D01*
X141445357Y-122147619D02*
X141778690Y-121147619D01*
X142112023Y-122147619D01*
X142445357Y-121147619D02*
X142445357Y-121814285D01*
X142445357Y-122147619D02*
X142397738Y-122100000D01*
X142445357Y-122052380D01*
X142492976Y-122100000D01*
X142445357Y-122147619D01*
X142445357Y-122052380D01*
X143064404Y-121147619D02*
X142969166Y-121195238D01*
X142921547Y-121290476D01*
X142921547Y-122147619D01*
X143445357Y-121814285D02*
X143445357Y-121147619D01*
X143445357Y-121719047D02*
X143492976Y-121766666D01*
X143588214Y-121814285D01*
X143731071Y-121814285D01*
X143826309Y-121766666D01*
X143873928Y-121671428D01*
X143873928Y-121147619D01*
X144350119Y-121147619D02*
X144350119Y-121814285D01*
X144350119Y-122147619D02*
X144302500Y-122100000D01*
X144350119Y-122052380D01*
X144397738Y-122100000D01*
X144350119Y-122147619D01*
X144350119Y-122052380D01*
X145254880Y-121814285D02*
X145254880Y-121147619D01*
X144826309Y-121814285D02*
X144826309Y-121290476D01*
X144873928Y-121195238D01*
X144969166Y-121147619D01*
X145112023Y-121147619D01*
X145207261Y-121195238D01*
X145254880Y-121242857D01*
X145683452Y-121195238D02*
X145778690Y-121147619D01*
X145969166Y-121147619D01*
X146064404Y-121195238D01*
X146112023Y-121290476D01*
X146112023Y-121338095D01*
X146064404Y-121433333D01*
X145969166Y-121480952D01*
X145826309Y-121480952D01*
X145731071Y-121528571D01*
X145683452Y-121623809D01*
X145683452Y-121671428D01*
X145731071Y-121766666D01*
X145826309Y-121814285D01*
X145969166Y-121814285D01*
X146064404Y-121766666D01*
X140159642Y-119537619D02*
X139683452Y-119537619D01*
X139683452Y-120537619D01*
X140492976Y-119537619D02*
X140492976Y-120204285D01*
X140492976Y-120537619D02*
X140445357Y-120490000D01*
X140492976Y-120442380D01*
X140540595Y-120490000D01*
X140492976Y-120537619D01*
X140492976Y-120442380D01*
X140826309Y-120204285D02*
X141207261Y-120204285D01*
X140969166Y-120537619D02*
X140969166Y-119680476D01*
X141016785Y-119585238D01*
X141112023Y-119537619D01*
X141207261Y-119537619D01*
X141540595Y-119537619D02*
X141540595Y-120537619D01*
X141969166Y-119537619D02*
X141969166Y-120061428D01*
X141921547Y-120156666D01*
X141826309Y-120204285D01*
X141683452Y-120204285D01*
X141588214Y-120156666D01*
X141540595Y-120109047D01*
X142873928Y-120204285D02*
X142873928Y-119537619D01*
X142445357Y-120204285D02*
X142445357Y-119680476D01*
X142492976Y-119585238D01*
X142588214Y-119537619D01*
X142731071Y-119537619D01*
X142826309Y-119585238D01*
X142873928Y-119632857D01*
X143778690Y-119537619D02*
X143778690Y-120061428D01*
X143731071Y-120156666D01*
X143635833Y-120204285D01*
X143445357Y-120204285D01*
X143350119Y-120156666D01*
X143778690Y-119585238D02*
X143683452Y-119537619D01*
X143445357Y-119537619D01*
X143350119Y-119585238D01*
X143302500Y-119680476D01*
X143302500Y-119775714D01*
X143350119Y-119870952D01*
X143445357Y-119918571D01*
X143683452Y-119918571D01*
X143778690Y-119966190D01*
X144254880Y-120204285D02*
X144254880Y-119537619D01*
X144254880Y-120109047D02*
X144302500Y-120156666D01*
X144397738Y-120204285D01*
X144540595Y-120204285D01*
X144635833Y-120156666D01*
X144683452Y-120061428D01*
X144683452Y-119537619D01*
X145159642Y-119537619D02*
X145159642Y-120204285D01*
X145159642Y-120537619D02*
X145112023Y-120490000D01*
X145159642Y-120442380D01*
X145207261Y-120490000D01*
X145159642Y-120537619D01*
X145159642Y-120442380D01*
X146064404Y-119537619D02*
X146064404Y-120061428D01*
X146016785Y-120156666D01*
X145921547Y-120204285D01*
X145731071Y-120204285D01*
X145635833Y-120156666D01*
X146064404Y-119585238D02*
X145969166Y-119537619D01*
X145731071Y-119537619D01*
X145635833Y-119585238D01*
X145588214Y-119680476D01*
X145588214Y-119775714D01*
X145635833Y-119870952D01*
X145731071Y-119918571D01*
X145969166Y-119918571D01*
X146064404Y-119966190D01*
X136207261Y-117927619D02*
X136207261Y-118594285D01*
X136207261Y-118927619D02*
X136159642Y-118880000D01*
X136207261Y-118832380D01*
X136254880Y-118880000D01*
X136207261Y-118927619D01*
X136207261Y-118832380D01*
X136683452Y-118594285D02*
X136683452Y-117927619D01*
X136683452Y-118499047D02*
X136731071Y-118546666D01*
X136826309Y-118594285D01*
X136969166Y-118594285D01*
X137064404Y-118546666D01*
X137112023Y-118451428D01*
X137112023Y-117927619D01*
X137445357Y-118594285D02*
X137826309Y-118594285D01*
X137588214Y-117927619D02*
X137588214Y-118784761D01*
X137635833Y-118880000D01*
X137731071Y-118927619D01*
X137826309Y-118927619D01*
X138302500Y-117927619D02*
X138207261Y-117975238D01*
X138159642Y-118022857D01*
X138112023Y-118118095D01*
X138112023Y-118403809D01*
X138159642Y-118499047D01*
X138207261Y-118546666D01*
X138302500Y-118594285D01*
X138445357Y-118594285D01*
X138540595Y-118546666D01*
X138588214Y-118499047D01*
X138635833Y-118403809D01*
X138635833Y-118118095D01*
X138588214Y-118022857D01*
X138540595Y-117975238D01*
X138445357Y-117927619D01*
X138302500Y-117927619D01*
X139683452Y-118403809D02*
X139635833Y-118451428D01*
X139540595Y-118499047D01*
X139445357Y-118499047D01*
X139350119Y-118451428D01*
X139302500Y-118403809D01*
X139254880Y-118308571D01*
X139254880Y-118213333D01*
X139302500Y-118118095D01*
X139350119Y-118070476D01*
X139445357Y-118022857D01*
X139540595Y-118022857D01*
X139635833Y-118070476D01*
X139683452Y-118118095D01*
X139683452Y-118499047D02*
X139683452Y-118118095D01*
X139731071Y-118070476D01*
X139778690Y-118070476D01*
X139873928Y-118118095D01*
X139921547Y-118213333D01*
X139921547Y-118451428D01*
X139826309Y-118594285D01*
X139683452Y-118689523D01*
X139492976Y-118737142D01*
X139302500Y-118689523D01*
X139159642Y-118594285D01*
X139064404Y-118451428D01*
X139016785Y-118260952D01*
X139064404Y-118070476D01*
X139159642Y-117927619D01*
X139302500Y-117832380D01*
X139492976Y-117784761D01*
X139683452Y-117832380D01*
X139826309Y-117927619D01*
X140778690Y-117975238D02*
X140683452Y-117927619D01*
X140492976Y-117927619D01*
X140397738Y-117975238D01*
X140350119Y-118022857D01*
X140302500Y-118118095D01*
X140302500Y-118403809D01*
X140350119Y-118499047D01*
X140397738Y-118546666D01*
X140492976Y-118594285D01*
X140683452Y-118594285D01*
X140778690Y-118546666D01*
X141635833Y-117927619D02*
X141635833Y-118451428D01*
X141588214Y-118546666D01*
X141492976Y-118594285D01*
X141302500Y-118594285D01*
X141207261Y-118546666D01*
X141635833Y-117975238D02*
X141540595Y-117927619D01*
X141302500Y-117927619D01*
X141207261Y-117975238D01*
X141159642Y-118070476D01*
X141159642Y-118165714D01*
X141207261Y-118260952D01*
X141302500Y-118308571D01*
X141540595Y-118308571D01*
X141635833Y-118356190D01*
X141969166Y-118594285D02*
X142350119Y-118594285D01*
X142112023Y-118927619D02*
X142112023Y-118070476D01*
X142159642Y-117975238D01*
X142254880Y-117927619D01*
X142350119Y-117927619D01*
X142683452Y-118594285D02*
X142683452Y-117927619D01*
X142683452Y-118499047D02*
X142731071Y-118546666D01*
X142826309Y-118594285D01*
X142969166Y-118594285D01*
X143064404Y-118546666D01*
X143112023Y-118451428D01*
X143112023Y-117927619D01*
X143588214Y-117927619D02*
X143588214Y-118594285D01*
X143588214Y-118927619D02*
X143540595Y-118880000D01*
X143588214Y-118832380D01*
X143635833Y-118880000D01*
X143588214Y-118927619D01*
X143588214Y-118832380D01*
X144064404Y-118594285D02*
X144064404Y-117594285D01*
X144064404Y-118546666D02*
X144159642Y-118594285D01*
X144350119Y-118594285D01*
X144445357Y-118546666D01*
X144492976Y-118499047D01*
X144540595Y-118403809D01*
X144540595Y-118118095D01*
X144492976Y-118022857D01*
X144445357Y-117975238D01*
X144350119Y-117927619D01*
X144159642Y-117927619D01*
X144064404Y-117975238D01*
X144969166Y-118022857D02*
X145016785Y-117975238D01*
X144969166Y-117927619D01*
X144921547Y-117975238D01*
X144969166Y-118022857D01*
X144969166Y-117927619D01*
X145588214Y-117927619D02*
X145492976Y-117975238D01*
X145445357Y-118070476D01*
X145445357Y-118927619D01*
X145826309Y-118594285D02*
X146207261Y-118594285D01*
X145969166Y-118927619D02*
X145969166Y-118070476D01*
X146016785Y-117975238D01*
X146112023Y-117927619D01*
X146207261Y-117927619D01*
X127804761Y-133652619D02*
X128138095Y-132652619D01*
X128471428Y-133652619D01*
X128804761Y-132652619D02*
X128804761Y-133652619D01*
X129280952Y-132652619D02*
X129280952Y-133652619D01*
X129852380Y-132652619D01*
X129852380Y-133652619D01*
X127090476Y-131709285D02*
X127090476Y-131042619D01*
X126852380Y-132090238D02*
X126614285Y-131375952D01*
X127233333Y-131375952D01*
X127614285Y-131423571D02*
X128376190Y-131423571D01*
X129376190Y-131042619D02*
X128804761Y-131042619D01*
X129090476Y-131042619D02*
X129090476Y-132042619D01*
X128995238Y-131899761D01*
X128900000Y-131804523D01*
X128804761Y-131756904D01*
X129757142Y-131947380D02*
X129804761Y-131995000D01*
X129900000Y-132042619D01*
X130138095Y-132042619D01*
X130233333Y-131995000D01*
X130280952Y-131947380D01*
X130328571Y-131852142D01*
X130328571Y-131756904D01*
X130280952Y-131614047D01*
X129709523Y-131042619D01*
X130328571Y-131042619D01*
X130614285Y-132042619D02*
X130947619Y-131042619D01*
X131280952Y-132042619D01*
X119233333Y-132747857D02*
X119185714Y-132700238D01*
X119042857Y-132652619D01*
X118947619Y-132652619D01*
X118804761Y-132700238D01*
X118709523Y-132795476D01*
X118661904Y-132890714D01*
X118614285Y-133081190D01*
X118614285Y-133224047D01*
X118661904Y-133414523D01*
X118709523Y-133509761D01*
X118804761Y-133605000D01*
X118947619Y-133652619D01*
X119042857Y-133652619D01*
X119185714Y-133605000D01*
X119233333Y-133557380D01*
X120090476Y-133319285D02*
X120090476Y-132652619D01*
X119661904Y-133319285D02*
X119661904Y-132795476D01*
X119709523Y-132700238D01*
X119804761Y-132652619D01*
X119947619Y-132652619D01*
X120042857Y-132700238D01*
X120090476Y-132747857D01*
X120566666Y-132652619D02*
X120566666Y-133319285D01*
X120566666Y-133128809D02*
X120614285Y-133224047D01*
X120661904Y-133271666D01*
X120757142Y-133319285D01*
X120852380Y-133319285D01*
X121185714Y-132652619D02*
X121185714Y-133319285D01*
X121185714Y-133128809D02*
X121233333Y-133224047D01*
X121280952Y-133271666D01*
X121376190Y-133319285D01*
X121471428Y-133319285D01*
X122185714Y-132700238D02*
X122090476Y-132652619D01*
X121900000Y-132652619D01*
X121804761Y-132700238D01*
X121757142Y-132795476D01*
X121757142Y-133176428D01*
X121804761Y-133271666D01*
X121900000Y-133319285D01*
X122090476Y-133319285D01*
X122185714Y-133271666D01*
X122233333Y-133176428D01*
X122233333Y-133081190D01*
X121757142Y-132985952D01*
X122661904Y-133319285D02*
X122661904Y-132652619D01*
X122661904Y-133224047D02*
X122709523Y-133271666D01*
X122804761Y-133319285D01*
X122947619Y-133319285D01*
X123042857Y-133271666D01*
X123090476Y-133176428D01*
X123090476Y-132652619D01*
X123423809Y-133319285D02*
X123804761Y-133319285D01*
X123566666Y-133652619D02*
X123566666Y-132795476D01*
X123614285Y-132700238D01*
X123709523Y-132652619D01*
X123804761Y-132652619D01*
X124138095Y-132747857D02*
X124185714Y-132700238D01*
X124138095Y-132652619D01*
X124090476Y-132700238D01*
X124138095Y-132747857D01*
X124138095Y-132652619D01*
X124138095Y-133271666D02*
X124185714Y-133224047D01*
X124138095Y-133176428D01*
X124090476Y-133224047D01*
X124138095Y-133271666D01*
X124138095Y-133176428D01*
X118304761Y-132042619D02*
X118400000Y-132042619D01*
X118495238Y-131995000D01*
X118542857Y-131947380D01*
X118590476Y-131852142D01*
X118638095Y-131661666D01*
X118638095Y-131423571D01*
X118590476Y-131233095D01*
X118542857Y-131137857D01*
X118495238Y-131090238D01*
X118400000Y-131042619D01*
X118304761Y-131042619D01*
X118209523Y-131090238D01*
X118161904Y-131137857D01*
X118114285Y-131233095D01*
X118066666Y-131423571D01*
X118066666Y-131661666D01*
X118114285Y-131852142D01*
X118161904Y-131947380D01*
X118209523Y-131995000D01*
X118304761Y-132042619D01*
X119066666Y-131137857D02*
X119114285Y-131090238D01*
X119066666Y-131042619D01*
X119019047Y-131090238D01*
X119066666Y-131137857D01*
X119066666Y-131042619D01*
X120019047Y-132042619D02*
X119542857Y-132042619D01*
X119495238Y-131566428D01*
X119542857Y-131614047D01*
X119638095Y-131661666D01*
X119876190Y-131661666D01*
X119971428Y-131614047D01*
X120019047Y-131566428D01*
X120066666Y-131471190D01*
X120066666Y-131233095D01*
X120019047Y-131137857D01*
X119971428Y-131090238D01*
X119876190Y-131042619D01*
X119638095Y-131042619D01*
X119542857Y-131090238D01*
X119495238Y-131137857D01*
X120447619Y-131328333D02*
X120923809Y-131328333D01*
X120352380Y-131042619D02*
X120685714Y-132042619D01*
X121019047Y-131042619D01*
X122114285Y-131042619D02*
X122114285Y-131709285D01*
X122114285Y-131614047D02*
X122161904Y-131661666D01*
X122257142Y-131709285D01*
X122400000Y-131709285D01*
X122495238Y-131661666D01*
X122542857Y-131566428D01*
X122542857Y-131042619D01*
X122542857Y-131566428D02*
X122590476Y-131661666D01*
X122685714Y-131709285D01*
X122828571Y-131709285D01*
X122923809Y-131661666D01*
X122971428Y-131566428D01*
X122971428Y-131042619D01*
X123876190Y-131042619D02*
X123876190Y-131566428D01*
X123828571Y-131661666D01*
X123733333Y-131709285D01*
X123542857Y-131709285D01*
X123447619Y-131661666D01*
X123876190Y-131090238D02*
X123780952Y-131042619D01*
X123542857Y-131042619D01*
X123447619Y-131090238D01*
X123400000Y-131185476D01*
X123400000Y-131280714D01*
X123447619Y-131375952D01*
X123542857Y-131423571D01*
X123780952Y-131423571D01*
X123876190Y-131471190D01*
X124257142Y-131042619D02*
X124780952Y-131709285D01*
X124257142Y-131709285D02*
X124780952Y-131042619D01*
X108933333Y-132747857D02*
X108885714Y-132700238D01*
X108742857Y-132652619D01*
X108647619Y-132652619D01*
X108504761Y-132700238D01*
X108409523Y-132795476D01*
X108361904Y-132890714D01*
X108314285Y-133081190D01*
X108314285Y-133224047D01*
X108361904Y-133414523D01*
X108409523Y-133509761D01*
X108504761Y-133605000D01*
X108647619Y-133652619D01*
X108742857Y-133652619D01*
X108885714Y-133605000D01*
X108933333Y-133557380D01*
X109790476Y-133319285D02*
X109790476Y-132652619D01*
X109361904Y-133319285D02*
X109361904Y-132795476D01*
X109409523Y-132700238D01*
X109504761Y-132652619D01*
X109647619Y-132652619D01*
X109742857Y-132700238D01*
X109790476Y-132747857D01*
X110266666Y-132652619D02*
X110266666Y-133319285D01*
X110266666Y-133128809D02*
X110314285Y-133224047D01*
X110361904Y-133271666D01*
X110457142Y-133319285D01*
X110552380Y-133319285D01*
X110885714Y-132652619D02*
X110885714Y-133319285D01*
X110885714Y-133128809D02*
X110933333Y-133224047D01*
X110980952Y-133271666D01*
X111076190Y-133319285D01*
X111171428Y-133319285D01*
X111885714Y-132700238D02*
X111790476Y-132652619D01*
X111600000Y-132652619D01*
X111504761Y-132700238D01*
X111457142Y-132795476D01*
X111457142Y-133176428D01*
X111504761Y-133271666D01*
X111600000Y-133319285D01*
X111790476Y-133319285D01*
X111885714Y-133271666D01*
X111933333Y-133176428D01*
X111933333Y-133081190D01*
X111457142Y-132985952D01*
X112361904Y-133319285D02*
X112361904Y-132652619D01*
X112361904Y-133224047D02*
X112409523Y-133271666D01*
X112504761Y-133319285D01*
X112647619Y-133319285D01*
X112742857Y-133271666D01*
X112790476Y-133176428D01*
X112790476Y-132652619D01*
X113123809Y-133319285D02*
X113504761Y-133319285D01*
X113266666Y-133652619D02*
X113266666Y-132795476D01*
X113314285Y-132700238D01*
X113409523Y-132652619D01*
X113504761Y-132652619D01*
X113838095Y-132747857D02*
X113885714Y-132700238D01*
X113838095Y-132652619D01*
X113790476Y-132700238D01*
X113838095Y-132747857D01*
X113838095Y-132652619D01*
X113838095Y-133271666D02*
X113885714Y-133224047D01*
X113838095Y-133176428D01*
X113790476Y-133224047D01*
X113838095Y-133271666D01*
X113838095Y-133176428D01*
X108004761Y-132042619D02*
X108100000Y-132042619D01*
X108195238Y-131995000D01*
X108242857Y-131947380D01*
X108290476Y-131852142D01*
X108338095Y-131661666D01*
X108338095Y-131423571D01*
X108290476Y-131233095D01*
X108242857Y-131137857D01*
X108195238Y-131090238D01*
X108100000Y-131042619D01*
X108004761Y-131042619D01*
X107909523Y-131090238D01*
X107861904Y-131137857D01*
X107814285Y-131233095D01*
X107766666Y-131423571D01*
X107766666Y-131661666D01*
X107814285Y-131852142D01*
X107861904Y-131947380D01*
X107909523Y-131995000D01*
X108004761Y-132042619D01*
X108766666Y-131137857D02*
X108814285Y-131090238D01*
X108766666Y-131042619D01*
X108719047Y-131090238D01*
X108766666Y-131137857D01*
X108766666Y-131042619D01*
X109766666Y-131042619D02*
X109195238Y-131042619D01*
X109480952Y-131042619D02*
X109480952Y-132042619D01*
X109385714Y-131899761D01*
X109290476Y-131804523D01*
X109195238Y-131756904D01*
X110147619Y-131328333D02*
X110623809Y-131328333D01*
X110052380Y-131042619D02*
X110385714Y-132042619D01*
X110719047Y-131042619D01*
X111814285Y-131042619D02*
X111814285Y-131709285D01*
X111814285Y-131614047D02*
X111861904Y-131661666D01*
X111957142Y-131709285D01*
X112100000Y-131709285D01*
X112195238Y-131661666D01*
X112242857Y-131566428D01*
X112242857Y-131042619D01*
X112242857Y-131566428D02*
X112290476Y-131661666D01*
X112385714Y-131709285D01*
X112528571Y-131709285D01*
X112623809Y-131661666D01*
X112671428Y-131566428D01*
X112671428Y-131042619D01*
X113576190Y-131042619D02*
X113576190Y-131566428D01*
X113528571Y-131661666D01*
X113433333Y-131709285D01*
X113242857Y-131709285D01*
X113147619Y-131661666D01*
X113576190Y-131090238D02*
X113480952Y-131042619D01*
X113242857Y-131042619D01*
X113147619Y-131090238D01*
X113100000Y-131185476D01*
X113100000Y-131280714D01*
X113147619Y-131375952D01*
X113242857Y-131423571D01*
X113480952Y-131423571D01*
X113576190Y-131471190D01*
X113957142Y-131042619D02*
X114480952Y-131709285D01*
X113957142Y-131709285D02*
X114480952Y-131042619D01*
X124600000Y-135816785D02*
X124552380Y-135721547D01*
X124552380Y-135578690D01*
X124600000Y-135435833D01*
X124695238Y-135340595D01*
X124790476Y-135292976D01*
X124980952Y-135245357D01*
X125123809Y-135245357D01*
X125314285Y-135292976D01*
X125409523Y-135340595D01*
X125504761Y-135435833D01*
X125552380Y-135578690D01*
X125552380Y-135673928D01*
X125504761Y-135816785D01*
X125457142Y-135864404D01*
X125123809Y-135864404D01*
X125123809Y-135673928D01*
X125552380Y-136292976D02*
X124552380Y-136292976D01*
X125552380Y-136864404D01*
X124552380Y-136864404D01*
X125552380Y-137340595D02*
X124552380Y-137340595D01*
X124552380Y-137578690D01*
X124600000Y-137721547D01*
X124695238Y-137816785D01*
X124790476Y-137864404D01*
X124980952Y-137912023D01*
X125123809Y-137912023D01*
X125314285Y-137864404D01*
X125409523Y-137816785D01*
X125504761Y-137721547D01*
X125552380Y-137578690D01*
X125552380Y-137340595D01*
X122428571Y-137673928D02*
X122476190Y-137816785D01*
X122523809Y-137864404D01*
X122619047Y-137912023D01*
X122761904Y-137912023D01*
X122857142Y-137864404D01*
X122904761Y-137816785D01*
X122952380Y-137721547D01*
X122952380Y-137340595D01*
X121952380Y-137340595D01*
X121952380Y-137673928D01*
X122000000Y-137769166D01*
X122047619Y-137816785D01*
X122142857Y-137864404D01*
X122238095Y-137864404D01*
X122333333Y-137816785D01*
X122380952Y-137769166D01*
X122428571Y-137673928D01*
X122428571Y-137340595D01*
X120066666Y-137435833D02*
X120066666Y-137912023D01*
X120352380Y-137340595D02*
X119352380Y-137673928D01*
X120352380Y-138007261D01*
X116852380Y-134483452D02*
X117852380Y-134816785D01*
X116852380Y-135150119D01*
X116852380Y-135673928D02*
X116852380Y-135864404D01*
X116900000Y-135959642D01*
X116995238Y-136054880D01*
X117185714Y-136102500D01*
X117519047Y-136102500D01*
X117709523Y-136054880D01*
X117804761Y-135959642D01*
X117852380Y-135864404D01*
X117852380Y-135673928D01*
X117804761Y-135578690D01*
X117709523Y-135483452D01*
X117519047Y-135435833D01*
X117185714Y-135435833D01*
X116995238Y-135483452D01*
X116900000Y-135578690D01*
X116852380Y-135673928D01*
X116852380Y-136531071D02*
X117661904Y-136531071D01*
X117757142Y-136578690D01*
X117804761Y-136626309D01*
X117852380Y-136721547D01*
X117852380Y-136912023D01*
X117804761Y-137007261D01*
X117757142Y-137054880D01*
X117661904Y-137102500D01*
X116852380Y-137102500D01*
X116852380Y-137435833D02*
X116852380Y-138007261D01*
X117852380Y-137721547D02*
X116852380Y-137721547D01*
X114400000Y-135716785D02*
X114352380Y-135621547D01*
X114352380Y-135478690D01*
X114400000Y-135335833D01*
X114495238Y-135240595D01*
X114590476Y-135192976D01*
X114780952Y-135145357D01*
X114923809Y-135145357D01*
X115114285Y-135192976D01*
X115209523Y-135240595D01*
X115304761Y-135335833D01*
X115352380Y-135478690D01*
X115352380Y-135573928D01*
X115304761Y-135716785D01*
X115257142Y-135764404D01*
X114923809Y-135764404D01*
X114923809Y-135573928D01*
X115352380Y-136192976D02*
X114352380Y-136192976D01*
X115352380Y-136764404D01*
X114352380Y-136764404D01*
X115352380Y-137240595D02*
X114352380Y-137240595D01*
X114352380Y-137478690D01*
X114400000Y-137621547D01*
X114495238Y-137716785D01*
X114590476Y-137764404D01*
X114780952Y-137812023D01*
X114923809Y-137812023D01*
X115114285Y-137764404D01*
X115209523Y-137716785D01*
X115304761Y-137621547D01*
X115352380Y-137478690D01*
X115352380Y-137240595D01*
X110204761Y-135431071D02*
X110252380Y-135573928D01*
X110252380Y-135812023D01*
X110204761Y-135907261D01*
X110157142Y-135954880D01*
X110061904Y-136002500D01*
X109966666Y-136002500D01*
X109871428Y-135954880D01*
X109823809Y-135907261D01*
X109776190Y-135812023D01*
X109728571Y-135621547D01*
X109680952Y-135526309D01*
X109633333Y-135478690D01*
X109538095Y-135431071D01*
X109442857Y-135431071D01*
X109347619Y-135478690D01*
X109300000Y-135526309D01*
X109252380Y-135621547D01*
X109252380Y-135859642D01*
X109300000Y-136002500D01*
X110157142Y-137002500D02*
X110204761Y-136954880D01*
X110252380Y-136812023D01*
X110252380Y-136716785D01*
X110204761Y-136573928D01*
X110109523Y-136478690D01*
X110014285Y-136431071D01*
X109823809Y-136383452D01*
X109680952Y-136383452D01*
X109490476Y-136431071D01*
X109395238Y-136478690D01*
X109300000Y-136573928D01*
X109252380Y-136716785D01*
X109252380Y-136812023D01*
X109300000Y-136954880D01*
X109347619Y-137002500D01*
X110252380Y-137907261D02*
X110252380Y-137431071D01*
X109252380Y-137431071D01*
X112704761Y-135383452D02*
X112752380Y-135526309D01*
X112752380Y-135764404D01*
X112704761Y-135859642D01*
X112657142Y-135907261D01*
X112561904Y-135954880D01*
X112466666Y-135954880D01*
X112371428Y-135907261D01*
X112323809Y-135859642D01*
X112276190Y-135764404D01*
X112228571Y-135573928D01*
X112180952Y-135478690D01*
X112133333Y-135431071D01*
X112038095Y-135383452D01*
X111942857Y-135383452D01*
X111847619Y-135431071D01*
X111800000Y-135478690D01*
X111752380Y-135573928D01*
X111752380Y-135812023D01*
X111800000Y-135954880D01*
X112752380Y-136383452D02*
X111752380Y-136383452D01*
X111752380Y-136621547D01*
X111800000Y-136764404D01*
X111895238Y-136859642D01*
X111990476Y-136907261D01*
X112180952Y-136954880D01*
X112323809Y-136954880D01*
X112514285Y-136907261D01*
X112609523Y-136859642D01*
X112704761Y-136764404D01*
X112752380Y-136621547D01*
X112752380Y-136383452D01*
X112466666Y-137335833D02*
X112466666Y-137812023D01*
X112752380Y-137240595D02*
X111752380Y-137573928D01*
X112752380Y-137907261D01*
X107371428Y-134340595D02*
X107371428Y-135102500D01*
X107752380Y-134721547D02*
X106990476Y-134721547D01*
X106752380Y-135483452D02*
X106752380Y-136102500D01*
X107133333Y-135769166D01*
X107133333Y-135912023D01*
X107180952Y-136007261D01*
X107228571Y-136054880D01*
X107323809Y-136102500D01*
X107561904Y-136102500D01*
X107657142Y-136054880D01*
X107704761Y-136007261D01*
X107752380Y-135912023D01*
X107752380Y-135626309D01*
X107704761Y-135531071D01*
X107657142Y-135483452D01*
X106752380Y-136388214D02*
X107752380Y-136721547D01*
X106752380Y-137054880D01*
X106752380Y-137292976D02*
X106752380Y-137912023D01*
X107133333Y-137578690D01*
X107133333Y-137721547D01*
X107180952Y-137816785D01*
X107228571Y-137864404D01*
X107323809Y-137912023D01*
X107561904Y-137912023D01*
X107657142Y-137864404D01*
X107704761Y-137816785D01*
X107752380Y-137721547D01*
X107752380Y-137435833D01*
X107704761Y-137340595D01*
X107657142Y-137292976D01*
X127100000Y-135816785D02*
X127052380Y-135721547D01*
X127052380Y-135578690D01*
X127100000Y-135435833D01*
X127195238Y-135340595D01*
X127290476Y-135292976D01*
X127480952Y-135245357D01*
X127623809Y-135245357D01*
X127814285Y-135292976D01*
X127909523Y-135340595D01*
X128004761Y-135435833D01*
X128052380Y-135578690D01*
X128052380Y-135673928D01*
X128004761Y-135816785D01*
X127957142Y-135864404D01*
X127623809Y-135864404D01*
X127623809Y-135673928D01*
X128052380Y-136292976D02*
X127052380Y-136292976D01*
X128052380Y-136864404D01*
X127052380Y-136864404D01*
X128052380Y-137340595D02*
X127052380Y-137340595D01*
X127052380Y-137578690D01*
X127100000Y-137721547D01*
X127195238Y-137816785D01*
X127290476Y-137864404D01*
X127480952Y-137912023D01*
X127623809Y-137912023D01*
X127814285Y-137864404D01*
X127909523Y-137816785D01*
X128004761Y-137721547D01*
X128052380Y-137578690D01*
X128052380Y-137340595D01*
X129652380Y-135816785D02*
X130652380Y-136150119D01*
X129652380Y-136483452D01*
X130652380Y-136816785D02*
X129652380Y-136816785D01*
X130652380Y-137292976D02*
X129652380Y-137292976D01*
X130652380Y-137864404D01*
X129652380Y-137864404D01*
G36*
X121534510Y-112972618D02*
G01*
X121598256Y-112973797D01*
X121645251Y-112975862D01*
X121670651Y-112978859D01*
X121700417Y-112986836D01*
X121700417Y-113903814D01*
X121425911Y-113903496D01*
X121370767Y-113903648D01*
X121245258Y-113906320D01*
X121137106Y-113912984D01*
X121039870Y-113924537D01*
X120947107Y-113941871D01*
X120852377Y-113965882D01*
X120749237Y-113997465D01*
X120565748Y-114066664D01*
X120357693Y-114170069D01*
X120164155Y-114294281D01*
X119986421Y-114437832D01*
X119825781Y-114599252D01*
X119683522Y-114777072D01*
X119560931Y-114969823D01*
X119459299Y-115176035D01*
X119379911Y-115394241D01*
X119324057Y-115622969D01*
X119322819Y-115629767D01*
X119310851Y-115719429D01*
X119302884Y-115826163D01*
X119298926Y-115942766D01*
X119298985Y-116062035D01*
X119303066Y-116176766D01*
X119311177Y-116279756D01*
X119323326Y-116363803D01*
X119343485Y-116456371D01*
X119411544Y-116685807D01*
X119502766Y-116903606D01*
X119616473Y-117108480D01*
X119751985Y-117299139D01*
X119908622Y-117474295D01*
X119967901Y-117531592D01*
X120120298Y-117660674D01*
X120282938Y-117772023D01*
X120463489Y-117871121D01*
X120539197Y-117907089D01*
X120721832Y-117981161D01*
X120902420Y-118034925D01*
X121086859Y-118069618D01*
X121281047Y-118086477D01*
X121490881Y-118086741D01*
X121700417Y-118079470D01*
X121700417Y-118999935D01*
X121670651Y-119007912D01*
X121650303Y-119011055D01*
X121603670Y-119014025D01*
X121539187Y-119015685D01*
X121461745Y-119016113D01*
X121376236Y-119015388D01*
X121287550Y-119013587D01*
X121200581Y-119010788D01*
X121120218Y-119007070D01*
X121051354Y-119002510D01*
X120998880Y-118997187D01*
X120808079Y-118965759D01*
X120534377Y-118898847D01*
X120270213Y-118808029D01*
X120016953Y-118694103D01*
X119775959Y-118557867D01*
X119548598Y-118400118D01*
X119336233Y-118221656D01*
X119140230Y-118023277D01*
X118961952Y-117805782D01*
X118883128Y-117694983D01*
X118735646Y-117454363D01*
X118611919Y-117202286D01*
X118512205Y-116939386D01*
X118436759Y-116666294D01*
X118385838Y-116383646D01*
X118382037Y-116351528D01*
X118374666Y-116257986D01*
X118369934Y-116148146D01*
X118367839Y-116029113D01*
X118368382Y-115907991D01*
X118371563Y-115791882D01*
X118377382Y-115687893D01*
X118385838Y-115603125D01*
X118399055Y-115514291D01*
X118457192Y-115237617D01*
X118539042Y-114970930D01*
X118643615Y-114715427D01*
X118769921Y-114472302D01*
X118916970Y-114242753D01*
X119083773Y-114027974D01*
X119269340Y-113829162D01*
X119472680Y-113647513D01*
X119692805Y-113484223D01*
X119928723Y-113340487D01*
X120179447Y-113217502D01*
X120443984Y-113116464D01*
X120525066Y-113091333D01*
X120652662Y-113056917D01*
X120785128Y-113026294D01*
X120912729Y-113001659D01*
X121025729Y-112985211D01*
X121026238Y-112985153D01*
X121071583Y-112981469D01*
X121134091Y-112978337D01*
X121208917Y-112975803D01*
X121291217Y-112973917D01*
X121376146Y-112972726D01*
X121458858Y-112972277D01*
X121534510Y-112972618D01*
G37*
D12*
X121534510Y-112972618D02*
X121598256Y-112973797D01*
X121645251Y-112975862D01*
X121670651Y-112978859D01*
X121700417Y-112986836D01*
X121700417Y-113903814D01*
X121425911Y-113903496D01*
X121370767Y-113903648D01*
X121245258Y-113906320D01*
X121137106Y-113912984D01*
X121039870Y-113924537D01*
X120947107Y-113941871D01*
X120852377Y-113965882D01*
X120749237Y-113997465D01*
X120565748Y-114066664D01*
X120357693Y-114170069D01*
X120164155Y-114294281D01*
X119986421Y-114437832D01*
X119825781Y-114599252D01*
X119683522Y-114777072D01*
X119560931Y-114969823D01*
X119459299Y-115176035D01*
X119379911Y-115394241D01*
X119324057Y-115622969D01*
X119322819Y-115629767D01*
X119310851Y-115719429D01*
X119302884Y-115826163D01*
X119298926Y-115942766D01*
X119298985Y-116062035D01*
X119303066Y-116176766D01*
X119311177Y-116279756D01*
X119323326Y-116363803D01*
X119343485Y-116456371D01*
X119411544Y-116685807D01*
X119502766Y-116903606D01*
X119616473Y-117108480D01*
X119751985Y-117299139D01*
X119908622Y-117474295D01*
X119967901Y-117531592D01*
X120120298Y-117660674D01*
X120282938Y-117772023D01*
X120463489Y-117871121D01*
X120539197Y-117907089D01*
X120721832Y-117981161D01*
X120902420Y-118034925D01*
X121086859Y-118069618D01*
X121281047Y-118086477D01*
X121490881Y-118086741D01*
X121700417Y-118079470D01*
X121700417Y-118999935D01*
X121670651Y-119007912D01*
X121650303Y-119011055D01*
X121603670Y-119014025D01*
X121539187Y-119015685D01*
X121461745Y-119016113D01*
X121376236Y-119015388D01*
X121287550Y-119013587D01*
X121200581Y-119010788D01*
X121120218Y-119007070D01*
X121051354Y-119002510D01*
X120998880Y-118997187D01*
X120808079Y-118965759D01*
X120534377Y-118898847D01*
X120270213Y-118808029D01*
X120016953Y-118694103D01*
X119775959Y-118557867D01*
X119548598Y-118400118D01*
X119336233Y-118221656D01*
X119140230Y-118023277D01*
X118961952Y-117805782D01*
X118883128Y-117694983D01*
X118735646Y-117454363D01*
X118611919Y-117202286D01*
X118512205Y-116939386D01*
X118436759Y-116666294D01*
X118385838Y-116383646D01*
X118382037Y-116351528D01*
X118374666Y-116257986D01*
X118369934Y-116148146D01*
X118367839Y-116029113D01*
X118368382Y-115907991D01*
X118371563Y-115791882D01*
X118377382Y-115687893D01*
X118385838Y-115603125D01*
X118399055Y-115514291D01*
X118457192Y-115237617D01*
X118539042Y-114970930D01*
X118643615Y-114715427D01*
X118769921Y-114472302D01*
X118916970Y-114242753D01*
X119083773Y-114027974D01*
X119269340Y-113829162D01*
X119472680Y-113647513D01*
X119692805Y-113484223D01*
X119928723Y-113340487D01*
X120179447Y-113217502D01*
X120443984Y-113116464D01*
X120525066Y-113091333D01*
X120652662Y-113056917D01*
X120785128Y-113026294D01*
X120912729Y-113001659D01*
X121025729Y-112985211D01*
X121026238Y-112985153D01*
X121071583Y-112981469D01*
X121134091Y-112978337D01*
X121208917Y-112975803D01*
X121291217Y-112973917D01*
X121376146Y-112972726D01*
X121458858Y-112972277D01*
X121534510Y-112972618D01*
G36*
X126833333Y-113903224D02*
G01*
X126545599Y-113903201D01*
X126474859Y-113903336D01*
X126389168Y-113904231D01*
X126320881Y-113906298D01*
X126264609Y-113909922D01*
X126214958Y-113915487D01*
X126166538Y-113923378D01*
X126113956Y-113933979D01*
X126108255Y-113935206D01*
X125874738Y-113998794D01*
X125653691Y-114085376D01*
X125446109Y-114194281D01*
X125252990Y-114324837D01*
X125075333Y-114476370D01*
X124914134Y-114648209D01*
X124770392Y-114839681D01*
X124760936Y-114854033D01*
X124704560Y-114948431D01*
X124648282Y-115056108D01*
X124595185Y-115170122D01*
X124548352Y-115283531D01*
X124510864Y-115389389D01*
X124485804Y-115480756D01*
X124476439Y-115523750D01*
X126238021Y-115523750D01*
X126238021Y-116463021D01*
X124476439Y-116463021D01*
X124485804Y-116506016D01*
X124491898Y-116531612D01*
X124519375Y-116622512D01*
X124557682Y-116726298D01*
X124603836Y-116836134D01*
X124654855Y-116945180D01*
X124707756Y-117046598D01*
X124759554Y-117133551D01*
X124784193Y-117170621D01*
X124924453Y-117353570D01*
X125084049Y-117519582D01*
X125261220Y-117667456D01*
X125454201Y-117795991D01*
X125661232Y-117903988D01*
X125880549Y-117990246D01*
X126110389Y-118053564D01*
X126144289Y-118060692D01*
X126190988Y-118068992D01*
X126238476Y-118075004D01*
X126291888Y-118079086D01*
X126356355Y-118081592D01*
X126437010Y-118082880D01*
X126538985Y-118083305D01*
X126833335Y-118083594D01*
X126833333Y-119016250D01*
X126552213Y-119015992D01*
X126440687Y-119015032D01*
X126307385Y-119010644D01*
X126187520Y-119002019D01*
X126073700Y-118988408D01*
X125958530Y-118969062D01*
X125834619Y-118943231D01*
X125734309Y-118918733D01*
X125477600Y-118837678D01*
X125227509Y-118732483D01*
X124986485Y-118604675D01*
X124756973Y-118455786D01*
X124541422Y-118287344D01*
X124342280Y-118100879D01*
X124161993Y-117897921D01*
X124158573Y-117893675D01*
X123997076Y-117671823D01*
X123856121Y-117434123D01*
X123736391Y-117182191D01*
X123638569Y-116917646D01*
X123563339Y-116642106D01*
X123511383Y-116357188D01*
X123505338Y-116299248D01*
X123500166Y-116212702D01*
X123497019Y-116112075D01*
X123495895Y-116003991D01*
X123496792Y-115895077D01*
X123499708Y-115791954D01*
X123504641Y-115701249D01*
X123511590Y-115629584D01*
X123514135Y-115610845D01*
X123565412Y-115332908D01*
X123640711Y-115061468D01*
X123739025Y-114798911D01*
X123859348Y-114547622D01*
X124000673Y-114309988D01*
X124161993Y-114088393D01*
X124198540Y-114044141D01*
X124332350Y-113898018D01*
X124483427Y-113753569D01*
X124645214Y-113616455D01*
X124811156Y-113492333D01*
X124974697Y-113386865D01*
X125030499Y-113354932D01*
X125243685Y-113247535D01*
X125469425Y-113154716D01*
X125701386Y-113078624D01*
X125933237Y-113021406D01*
X126158646Y-112985211D01*
X126165711Y-112984474D01*
X126214179Y-112981019D01*
X126282158Y-112977874D01*
X126363891Y-112975234D01*
X126453624Y-112973291D01*
X126545599Y-112972238D01*
X126833333Y-112970521D01*
X126833333Y-113903224D01*
G37*
X126833333Y-113903224D02*
X126545599Y-113903201D01*
X126474859Y-113903336D01*
X126389168Y-113904231D01*
X126320881Y-113906298D01*
X126264609Y-113909922D01*
X126214958Y-113915487D01*
X126166538Y-113923378D01*
X126113956Y-113933979D01*
X126108255Y-113935206D01*
X125874738Y-113998794D01*
X125653691Y-114085376D01*
X125446109Y-114194281D01*
X125252990Y-114324837D01*
X125075333Y-114476370D01*
X124914134Y-114648209D01*
X124770392Y-114839681D01*
X124760936Y-114854033D01*
X124704560Y-114948431D01*
X124648282Y-115056108D01*
X124595185Y-115170122D01*
X124548352Y-115283531D01*
X124510864Y-115389389D01*
X124485804Y-115480756D01*
X124476439Y-115523750D01*
X126238021Y-115523750D01*
X126238021Y-116463021D01*
X124476439Y-116463021D01*
X124485804Y-116506016D01*
X124491898Y-116531612D01*
X124519375Y-116622512D01*
X124557682Y-116726298D01*
X124603836Y-116836134D01*
X124654855Y-116945180D01*
X124707756Y-117046598D01*
X124759554Y-117133551D01*
X124784193Y-117170621D01*
X124924453Y-117353570D01*
X125084049Y-117519582D01*
X125261220Y-117667456D01*
X125454201Y-117795991D01*
X125661232Y-117903988D01*
X125880549Y-117990246D01*
X126110389Y-118053564D01*
X126144289Y-118060692D01*
X126190988Y-118068992D01*
X126238476Y-118075004D01*
X126291888Y-118079086D01*
X126356355Y-118081592D01*
X126437010Y-118082880D01*
X126538985Y-118083305D01*
X126833335Y-118083594D01*
X126833333Y-119016250D01*
X126552213Y-119015992D01*
X126440687Y-119015032D01*
X126307385Y-119010644D01*
X126187520Y-119002019D01*
X126073700Y-118988408D01*
X125958530Y-118969062D01*
X125834619Y-118943231D01*
X125734309Y-118918733D01*
X125477600Y-118837678D01*
X125227509Y-118732483D01*
X124986485Y-118604675D01*
X124756973Y-118455786D01*
X124541422Y-118287344D01*
X124342280Y-118100879D01*
X124161993Y-117897921D01*
X124158573Y-117893675D01*
X123997076Y-117671823D01*
X123856121Y-117434123D01*
X123736391Y-117182191D01*
X123638569Y-116917646D01*
X123563339Y-116642106D01*
X123511383Y-116357188D01*
X123505338Y-116299248D01*
X123500166Y-116212702D01*
X123497019Y-116112075D01*
X123495895Y-116003991D01*
X123496792Y-115895077D01*
X123499708Y-115791954D01*
X123504641Y-115701249D01*
X123511590Y-115629584D01*
X123514135Y-115610845D01*
X123565412Y-115332908D01*
X123640711Y-115061468D01*
X123739025Y-114798911D01*
X123859348Y-114547622D01*
X124000673Y-114309988D01*
X124161993Y-114088393D01*
X124198540Y-114044141D01*
X124332350Y-113898018D01*
X124483427Y-113753569D01*
X124645214Y-113616455D01*
X124811156Y-113492333D01*
X124974697Y-113386865D01*
X125030499Y-113354932D01*
X125243685Y-113247535D01*
X125469425Y-113154716D01*
X125701386Y-113078624D01*
X125933237Y-113021406D01*
X126158646Y-112985211D01*
X126165711Y-112984474D01*
X126214179Y-112981019D01*
X126282158Y-112977874D01*
X126363891Y-112975234D01*
X126453624Y-112973291D01*
X126545599Y-112972238D01*
X126833333Y-112970521D01*
X126833333Y-113903224D01*
G36*
X130777079Y-112941841D02*
G01*
X131082500Y-112941958D01*
X131378568Y-112942198D01*
X131663841Y-112942556D01*
X131936877Y-112943024D01*
X132196235Y-112943597D01*
X132440473Y-112944268D01*
X132668151Y-112945032D01*
X132877826Y-112945881D01*
X133068057Y-112946811D01*
X133237403Y-112947814D01*
X133384422Y-112948885D01*
X133507673Y-112950017D01*
X133605714Y-112951204D01*
X133677104Y-112952441D01*
X133720402Y-112953720D01*
X133734165Y-112955037D01*
X133723946Y-112961696D01*
X133688689Y-112982917D01*
X133630779Y-113017080D01*
X133552570Y-113062829D01*
X133456417Y-113118810D01*
X133344677Y-113183667D01*
X133219704Y-113256046D01*
X133083854Y-113334591D01*
X132939482Y-113417946D01*
X132788944Y-113504757D01*
X132634595Y-113593668D01*
X132478790Y-113683324D01*
X132323884Y-113772371D01*
X132172234Y-113859452D01*
X132026194Y-113943212D01*
X131888119Y-114022297D01*
X131760366Y-114095351D01*
X131645289Y-114161019D01*
X131545244Y-114217946D01*
X131462586Y-114264776D01*
X131399671Y-114300154D01*
X131358853Y-114322726D01*
X131342489Y-114331136D01*
X131331811Y-114329051D01*
X131299642Y-114310092D01*
X131253779Y-114274968D01*
X131199260Y-114227331D01*
X131150155Y-114179644D01*
X131087611Y-114114684D01*
X131017632Y-114038845D01*
X130943804Y-113956302D01*
X130869715Y-113871232D01*
X130798952Y-113787810D01*
X130735102Y-113710211D01*
X130681753Y-113642611D01*
X130642491Y-113589186D01*
X130620905Y-113554111D01*
X130606494Y-113528495D01*
X130567357Y-113475484D01*
X130517042Y-113419088D01*
X130462724Y-113366538D01*
X130411576Y-113325070D01*
X130370773Y-113301914D01*
X130325708Y-113296562D01*
X130265574Y-113311355D01*
X130208421Y-113345274D01*
X130164067Y-113393947D01*
X130156387Y-113406575D01*
X130146608Y-113427257D01*
X130140235Y-113452146D01*
X130136858Y-113486591D01*
X130136069Y-113535938D01*
X130137459Y-113605536D01*
X130140619Y-113700732D01*
X130142884Y-113755798D01*
X130147696Y-113842883D01*
X130153375Y-113919101D01*
X130159392Y-113977751D01*
X130165217Y-114012134D01*
X130179321Y-114051412D01*
X130221134Y-114128760D01*
X130286105Y-114220409D01*
X130375030Y-114327433D01*
X130488700Y-114450910D01*
X130538028Y-114502934D01*
X130595062Y-114564304D01*
X130642136Y-114616335D01*
X130675376Y-114654734D01*
X130690911Y-114675204D01*
X130692508Y-114678454D01*
X130694423Y-114692447D01*
X130684855Y-114707961D01*
X130659885Y-114728341D01*
X130615594Y-114756929D01*
X130548062Y-114797068D01*
X130490653Y-114830578D01*
X130385008Y-114891877D01*
X130301829Y-114939491D01*
X130238322Y-114974967D01*
X130191694Y-114999851D01*
X130159150Y-115015687D01*
X130137896Y-115024023D01*
X130115903Y-115033272D01*
X130103049Y-115045693D01*
X130101846Y-115048622D01*
X130083039Y-115064916D01*
X130048665Y-115085902D01*
X129994281Y-115115190D01*
X129954126Y-115077808D01*
X129939943Y-115062664D01*
X129906945Y-115021507D01*
X129866654Y-114966555D01*
X129824818Y-114905469D01*
X129735664Y-114770511D01*
X129739163Y-114420638D01*
X129742661Y-114070765D01*
X129793607Y-114021267D01*
X129810726Y-114003621D01*
X129865624Y-113924340D01*
X129897670Y-113830065D01*
X129908588Y-113716220D01*
X129905877Y-113655221D01*
X129886739Y-113547622D01*
X129851859Y-113449417D01*
X129804258Y-113370618D01*
X129771205Y-113341886D01*
X129712451Y-113320063D01*
X129645939Y-113317546D01*
X129580184Y-113333172D01*
X129523699Y-113365780D01*
X129484997Y-113414207D01*
X129483730Y-113416832D01*
X129460337Y-113464775D01*
X129435561Y-113514878D01*
X129414528Y-113561913D01*
X129384356Y-113641190D01*
X129351068Y-113738928D01*
X129315821Y-113850772D01*
X129279771Y-113972366D01*
X129244075Y-114099355D01*
X129209890Y-114227384D01*
X129178373Y-114352098D01*
X129150680Y-114469141D01*
X129127968Y-114574157D01*
X129111394Y-114662791D01*
X129102115Y-114730688D01*
X129101286Y-114773493D01*
X129103153Y-114783218D01*
X129121342Y-114832444D01*
X129155093Y-114898301D01*
X129201445Y-114974835D01*
X129219236Y-115002415D01*
X129290718Y-115114878D01*
X129351480Y-115213228D01*
X129400183Y-115295168D01*
X129435486Y-115358395D01*
X129456048Y-115400610D01*
X129460531Y-115419513D01*
X129460012Y-115420180D01*
X129441455Y-115433795D01*
X129401798Y-115458681D01*
X129346474Y-115491524D01*
X129280916Y-115529012D01*
X129275374Y-115532124D01*
X129204193Y-115571288D01*
X129154619Y-115596264D01*
X129122094Y-115608842D01*
X129102058Y-115610811D01*
X129089953Y-115603960D01*
X129084198Y-115595375D01*
X129063635Y-115561654D01*
X129029821Y-115504800D01*
X128984050Y-115427032D01*
X128927617Y-115330568D01*
X128861816Y-115217629D01*
X128787942Y-115090432D01*
X128707289Y-114951197D01*
X128621152Y-114802143D01*
X128530825Y-114645488D01*
X128506053Y-114602479D01*
X128408100Y-114432425D01*
X128309491Y-114261246D01*
X128212240Y-114092438D01*
X128118362Y-113929497D01*
X128029869Y-113775918D01*
X127948778Y-113635199D01*
X127877102Y-113510834D01*
X127816856Y-113406320D01*
X127770053Y-113325153D01*
X127548970Y-112941829D01*
X130648924Y-112941829D01*
X130777079Y-112941841D01*
G37*
X130777079Y-112941841D02*
X131082500Y-112941958D01*
X131378568Y-112942198D01*
X131663841Y-112942556D01*
X131936877Y-112943024D01*
X132196235Y-112943597D01*
X132440473Y-112944268D01*
X132668151Y-112945032D01*
X132877826Y-112945881D01*
X133068057Y-112946811D01*
X133237403Y-112947814D01*
X133384422Y-112948885D01*
X133507673Y-112950017D01*
X133605714Y-112951204D01*
X133677104Y-112952441D01*
X133720402Y-112953720D01*
X133734165Y-112955037D01*
X133723946Y-112961696D01*
X133688689Y-112982917D01*
X133630779Y-113017080D01*
X133552570Y-113062829D01*
X133456417Y-113118810D01*
X133344677Y-113183667D01*
X133219704Y-113256046D01*
X133083854Y-113334591D01*
X132939482Y-113417946D01*
X132788944Y-113504757D01*
X132634595Y-113593668D01*
X132478790Y-113683324D01*
X132323884Y-113772371D01*
X132172234Y-113859452D01*
X132026194Y-113943212D01*
X131888119Y-114022297D01*
X131760366Y-114095351D01*
X131645289Y-114161019D01*
X131545244Y-114217946D01*
X131462586Y-114264776D01*
X131399671Y-114300154D01*
X131358853Y-114322726D01*
X131342489Y-114331136D01*
X131331811Y-114329051D01*
X131299642Y-114310092D01*
X131253779Y-114274968D01*
X131199260Y-114227331D01*
X131150155Y-114179644D01*
X131087611Y-114114684D01*
X131017632Y-114038845D01*
X130943804Y-113956302D01*
X130869715Y-113871232D01*
X130798952Y-113787810D01*
X130735102Y-113710211D01*
X130681753Y-113642611D01*
X130642491Y-113589186D01*
X130620905Y-113554111D01*
X130606494Y-113528495D01*
X130567357Y-113475484D01*
X130517042Y-113419088D01*
X130462724Y-113366538D01*
X130411576Y-113325070D01*
X130370773Y-113301914D01*
X130325708Y-113296562D01*
X130265574Y-113311355D01*
X130208421Y-113345274D01*
X130164067Y-113393947D01*
X130156387Y-113406575D01*
X130146608Y-113427257D01*
X130140235Y-113452146D01*
X130136858Y-113486591D01*
X130136069Y-113535938D01*
X130137459Y-113605536D01*
X130140619Y-113700732D01*
X130142884Y-113755798D01*
X130147696Y-113842883D01*
X130153375Y-113919101D01*
X130159392Y-113977751D01*
X130165217Y-114012134D01*
X130179321Y-114051412D01*
X130221134Y-114128760D01*
X130286105Y-114220409D01*
X130375030Y-114327433D01*
X130488700Y-114450910D01*
X130538028Y-114502934D01*
X130595062Y-114564304D01*
X130642136Y-114616335D01*
X130675376Y-114654734D01*
X130690911Y-114675204D01*
X130692508Y-114678454D01*
X130694423Y-114692447D01*
X130684855Y-114707961D01*
X130659885Y-114728341D01*
X130615594Y-114756929D01*
X130548062Y-114797068D01*
X130490653Y-114830578D01*
X130385008Y-114891877D01*
X130301829Y-114939491D01*
X130238322Y-114974967D01*
X130191694Y-114999851D01*
X130159150Y-115015687D01*
X130137896Y-115024023D01*
X130115903Y-115033272D01*
X130103049Y-115045693D01*
X130101846Y-115048622D01*
X130083039Y-115064916D01*
X130048665Y-115085902D01*
X129994281Y-115115190D01*
X129954126Y-115077808D01*
X129939943Y-115062664D01*
X129906945Y-115021507D01*
X129866654Y-114966555D01*
X129824818Y-114905469D01*
X129735664Y-114770511D01*
X129739163Y-114420638D01*
X129742661Y-114070765D01*
X129793607Y-114021267D01*
X129810726Y-114003621D01*
X129865624Y-113924340D01*
X129897670Y-113830065D01*
X129908588Y-113716220D01*
X129905877Y-113655221D01*
X129886739Y-113547622D01*
X129851859Y-113449417D01*
X129804258Y-113370618D01*
X129771205Y-113341886D01*
X129712451Y-113320063D01*
X129645939Y-113317546D01*
X129580184Y-113333172D01*
X129523699Y-113365780D01*
X129484997Y-113414207D01*
X129483730Y-113416832D01*
X129460337Y-113464775D01*
X129435561Y-113514878D01*
X129414528Y-113561913D01*
X129384356Y-113641190D01*
X129351068Y-113738928D01*
X129315821Y-113850772D01*
X129279771Y-113972366D01*
X129244075Y-114099355D01*
X129209890Y-114227384D01*
X129178373Y-114352098D01*
X129150680Y-114469141D01*
X129127968Y-114574157D01*
X129111394Y-114662791D01*
X129102115Y-114730688D01*
X129101286Y-114773493D01*
X129103153Y-114783218D01*
X129121342Y-114832444D01*
X129155093Y-114898301D01*
X129201445Y-114974835D01*
X129219236Y-115002415D01*
X129290718Y-115114878D01*
X129351480Y-115213228D01*
X129400183Y-115295168D01*
X129435486Y-115358395D01*
X129456048Y-115400610D01*
X129460531Y-115419513D01*
X129460012Y-115420180D01*
X129441455Y-115433795D01*
X129401798Y-115458681D01*
X129346474Y-115491524D01*
X129280916Y-115529012D01*
X129275374Y-115532124D01*
X129204193Y-115571288D01*
X129154619Y-115596264D01*
X129122094Y-115608842D01*
X129102058Y-115610811D01*
X129089953Y-115603960D01*
X129084198Y-115595375D01*
X129063635Y-115561654D01*
X129029821Y-115504800D01*
X128984050Y-115427032D01*
X128927617Y-115330568D01*
X128861816Y-115217629D01*
X128787942Y-115090432D01*
X128707289Y-114951197D01*
X128621152Y-114802143D01*
X128530825Y-114645488D01*
X128506053Y-114602479D01*
X128408100Y-114432425D01*
X128309491Y-114261246D01*
X128212240Y-114092438D01*
X128118362Y-113929497D01*
X128029869Y-113775918D01*
X127948778Y-113635199D01*
X127877102Y-113510834D01*
X127816856Y-113406320D01*
X127770053Y-113325153D01*
X127548970Y-112941829D01*
X130648924Y-112941829D01*
X130777079Y-112941841D01*
G36*
X134033925Y-113504169D02*
G01*
X134022507Y-113527670D01*
X134001507Y-113565214D01*
X133988624Y-113587436D01*
X133961228Y-113634827D01*
X133920913Y-113704623D01*
X133868991Y-113794556D01*
X133806769Y-113902358D01*
X133735557Y-114025760D01*
X133656665Y-114162494D01*
X133571402Y-114310291D01*
X133481076Y-114466883D01*
X133386998Y-114630000D01*
X133294879Y-114789677D01*
X133205320Y-114944813D01*
X133121107Y-115090588D01*
X133043503Y-115224817D01*
X132973775Y-115345315D01*
X132913186Y-115449898D01*
X132863002Y-115536381D01*
X132824488Y-115602579D01*
X132798908Y-115646307D01*
X132787528Y-115665381D01*
X132764180Y-115701799D01*
X132717164Y-115657637D01*
X132702977Y-115643968D01*
X132661608Y-115602281D01*
X132606893Y-115545528D01*
X132541490Y-115476603D01*
X132468057Y-115398401D01*
X132389254Y-115313818D01*
X132307740Y-115225747D01*
X132226173Y-115137084D01*
X132147212Y-115050724D01*
X132073517Y-114969561D01*
X132007746Y-114896490D01*
X131952559Y-114834406D01*
X131910614Y-114786205D01*
X131884569Y-114754780D01*
X131877085Y-114743026D01*
X131879654Y-114741728D01*
X131904215Y-114728022D01*
X131952796Y-114700387D01*
X132023348Y-114660002D01*
X132113827Y-114608045D01*
X132222185Y-114545695D01*
X132346376Y-114474129D01*
X132484355Y-114394525D01*
X132634074Y-114308062D01*
X132793487Y-114215917D01*
X132960549Y-114119268D01*
X133022992Y-114083133D01*
X133187117Y-113988194D01*
X133342642Y-113898286D01*
X133487546Y-113814576D01*
X133619805Y-113738229D01*
X133737396Y-113670411D01*
X133838298Y-113612289D01*
X133920487Y-113565029D01*
X133981941Y-113529797D01*
X134020636Y-113507758D01*
X134034551Y-113500080D01*
X134033925Y-113504169D01*
G37*
X134033925Y-113504169D02*
X134022507Y-113527670D01*
X134001507Y-113565214D01*
X133988624Y-113587436D01*
X133961228Y-113634827D01*
X133920913Y-113704623D01*
X133868991Y-113794556D01*
X133806769Y-113902358D01*
X133735557Y-114025760D01*
X133656665Y-114162494D01*
X133571402Y-114310291D01*
X133481076Y-114466883D01*
X133386998Y-114630000D01*
X133294879Y-114789677D01*
X133205320Y-114944813D01*
X133121107Y-115090588D01*
X133043503Y-115224817D01*
X132973775Y-115345315D01*
X132913186Y-115449898D01*
X132863002Y-115536381D01*
X132824488Y-115602579D01*
X132798908Y-115646307D01*
X132787528Y-115665381D01*
X132764180Y-115701799D01*
X132717164Y-115657637D01*
X132702977Y-115643968D01*
X132661608Y-115602281D01*
X132606893Y-115545528D01*
X132541490Y-115476603D01*
X132468057Y-115398401D01*
X132389254Y-115313818D01*
X132307740Y-115225747D01*
X132226173Y-115137084D01*
X132147212Y-115050724D01*
X132073517Y-114969561D01*
X132007746Y-114896490D01*
X131952559Y-114834406D01*
X131910614Y-114786205D01*
X131884569Y-114754780D01*
X131877085Y-114743026D01*
X131879654Y-114741728D01*
X131904215Y-114728022D01*
X131952796Y-114700387D01*
X132023348Y-114660002D01*
X132113827Y-114608045D01*
X132222185Y-114545695D01*
X132346376Y-114474129D01*
X132484355Y-114394525D01*
X132634074Y-114308062D01*
X132793487Y-114215917D01*
X132960549Y-114119268D01*
X133022992Y-114083133D01*
X133187117Y-113988194D01*
X133342642Y-113898286D01*
X133487546Y-113814576D01*
X133619805Y-113738229D01*
X133737396Y-113670411D01*
X133838298Y-113612289D01*
X133920487Y-113565029D01*
X133981941Y-113529797D01*
X134020636Y-113507758D01*
X134034551Y-113500080D01*
X134033925Y-113504169D01*
G36*
X129819680Y-115950194D02*
G01*
X129824268Y-115960703D01*
X129824618Y-115962417D01*
X129837732Y-115983318D01*
X129866000Y-116018861D01*
X129904214Y-116062417D01*
X129921845Y-116081125D01*
X129976518Y-116131488D01*
X130036978Y-116174535D01*
X130106818Y-116211527D01*
X130189630Y-116243727D01*
X130289008Y-116272398D01*
X130408545Y-116298802D01*
X130551834Y-116324200D01*
X130722469Y-116349855D01*
X130918866Y-116378773D01*
X131108726Y-116409827D01*
X131274740Y-116440956D01*
X131420618Y-116473058D01*
X131550073Y-116507031D01*
X131666817Y-116543774D01*
X131774560Y-116584183D01*
X131877015Y-116629157D01*
X131952312Y-116666246D01*
X132024235Y-116705275D01*
X132081114Y-116740118D01*
X132118501Y-116768035D01*
X132131951Y-116786286D01*
X132131554Y-116787630D01*
X132120720Y-116809138D01*
X132096155Y-116854178D01*
X132059315Y-116920228D01*
X132011653Y-117004767D01*
X131954624Y-117105273D01*
X131889682Y-117219224D01*
X131818281Y-117344099D01*
X131741876Y-117477376D01*
X131661921Y-117616533D01*
X131579870Y-117759049D01*
X131497178Y-117902402D01*
X131415299Y-118044070D01*
X131335687Y-118181532D01*
X131259796Y-118312266D01*
X131189081Y-118433750D01*
X131124996Y-118543462D01*
X131068996Y-118638882D01*
X131022534Y-118717486D01*
X130987065Y-118776755D01*
X130964043Y-118814165D01*
X130954923Y-118827195D01*
X130954440Y-118826825D01*
X130942907Y-118809489D01*
X130917500Y-118767838D01*
X130879493Y-118704089D01*
X130830163Y-118620455D01*
X130770787Y-118519151D01*
X130702641Y-118402391D01*
X130627000Y-118272392D01*
X130545141Y-118131367D01*
X130458340Y-117981532D01*
X130367874Y-117825100D01*
X130275018Y-117664287D01*
X130181049Y-117501307D01*
X130087243Y-117338376D01*
X129994876Y-117177708D01*
X129905224Y-117021518D01*
X129819564Y-116872020D01*
X129739172Y-116731429D01*
X129665323Y-116601960D01*
X129599295Y-116485828D01*
X129542363Y-116385248D01*
X129495803Y-116302433D01*
X129460892Y-116239600D01*
X129438906Y-116198963D01*
X129431121Y-116182736D01*
X129431113Y-116182612D01*
X129443667Y-116165584D01*
X129479742Y-116136721D01*
X129535583Y-116098753D01*
X129607439Y-116054413D01*
X129655627Y-116026048D01*
X129724968Y-115986604D01*
X129773266Y-115961746D01*
X129803758Y-115950076D01*
X129819680Y-115950194D01*
G37*
X129819680Y-115950194D02*
X129824268Y-115960703D01*
X129824618Y-115962417D01*
X129837732Y-115983318D01*
X129866000Y-116018861D01*
X129904214Y-116062417D01*
X129921845Y-116081125D01*
X129976518Y-116131488D01*
X130036978Y-116174535D01*
X130106818Y-116211527D01*
X130189630Y-116243727D01*
X130289008Y-116272398D01*
X130408545Y-116298802D01*
X130551834Y-116324200D01*
X130722469Y-116349855D01*
X130918866Y-116378773D01*
X131108726Y-116409827D01*
X131274740Y-116440956D01*
X131420618Y-116473058D01*
X131550073Y-116507031D01*
X131666817Y-116543774D01*
X131774560Y-116584183D01*
X131877015Y-116629157D01*
X131952312Y-116666246D01*
X132024235Y-116705275D01*
X132081114Y-116740118D01*
X132118501Y-116768035D01*
X132131951Y-116786286D01*
X132131554Y-116787630D01*
X132120720Y-116809138D01*
X132096155Y-116854178D01*
X132059315Y-116920228D01*
X132011653Y-117004767D01*
X131954624Y-117105273D01*
X131889682Y-117219224D01*
X131818281Y-117344099D01*
X131741876Y-117477376D01*
X131661921Y-117616533D01*
X131579870Y-117759049D01*
X131497178Y-117902402D01*
X131415299Y-118044070D01*
X131335687Y-118181532D01*
X131259796Y-118312266D01*
X131189081Y-118433750D01*
X131124996Y-118543462D01*
X131068996Y-118638882D01*
X131022534Y-118717486D01*
X130987065Y-118776755D01*
X130964043Y-118814165D01*
X130954923Y-118827195D01*
X130954440Y-118826825D01*
X130942907Y-118809489D01*
X130917500Y-118767838D01*
X130879493Y-118704089D01*
X130830163Y-118620455D01*
X130770787Y-118519151D01*
X130702641Y-118402391D01*
X130627000Y-118272392D01*
X130545141Y-118131367D01*
X130458340Y-117981532D01*
X130367874Y-117825100D01*
X130275018Y-117664287D01*
X130181049Y-117501307D01*
X130087243Y-117338376D01*
X129994876Y-117177708D01*
X129905224Y-117021518D01*
X129819564Y-116872020D01*
X129739172Y-116731429D01*
X129665323Y-116601960D01*
X129599295Y-116485828D01*
X129542363Y-116385248D01*
X129495803Y-116302433D01*
X129460892Y-116239600D01*
X129438906Y-116198963D01*
X129431121Y-116182736D01*
X129431113Y-116182612D01*
X129443667Y-116165584D01*
X129479742Y-116136721D01*
X129535583Y-116098753D01*
X129607439Y-116054413D01*
X129655627Y-116026048D01*
X129724968Y-115986604D01*
X129773266Y-115961746D01*
X129803758Y-115950076D01*
X129819680Y-115950194D01*
G36*
X86150237Y-122651731D02*
G01*
X86149700Y-122608198D01*
X86147981Y-122462656D01*
X86147635Y-122351289D01*
X86149723Y-122270196D01*
X86155302Y-122215478D01*
X86165433Y-122183239D01*
X86181174Y-122169578D01*
X86203583Y-122170597D01*
X86233720Y-122182397D01*
X86272645Y-122201080D01*
X86280962Y-122205067D01*
X86315598Y-122224581D01*
X86333686Y-122247798D01*
X86340608Y-122286508D01*
X86341744Y-122352503D01*
X86341795Y-122471000D01*
X86463859Y-122471000D01*
X86538945Y-122474288D01*
X86597985Y-122487623D01*
X86647014Y-122514577D01*
X86650670Y-122517212D01*
X86700419Y-122561714D01*
X86735041Y-122615477D01*
X86756877Y-122685846D01*
X86768263Y-122780170D01*
X86771538Y-122905794D01*
X86770813Y-122997464D01*
X86767510Y-123066902D01*
X86760172Y-123115055D01*
X86747345Y-123151134D01*
X86727577Y-123184352D01*
X86709431Y-123209739D01*
X86643539Y-123278273D01*
X86568886Y-123315495D01*
X86475096Y-123327278D01*
X86367760Y-123315533D01*
X86274969Y-123273405D01*
X86201579Y-123199102D01*
X86196046Y-123191236D01*
X86183143Y-123170332D01*
X86173258Y-123146445D01*
X86165907Y-123114418D01*
X86160606Y-123069095D01*
X86156873Y-123005321D01*
X86154222Y-122917940D01*
X86153904Y-122899958D01*
X86341692Y-122899958D01*
X86342606Y-122950402D01*
X86352523Y-123042143D01*
X86375158Y-123102248D01*
X86412762Y-123135100D01*
X86467584Y-123145077D01*
X86490683Y-123142950D01*
X86530650Y-123121853D01*
X86557074Y-123074839D01*
X86571670Y-122997825D01*
X86576154Y-122886729D01*
X86576120Y-122868869D01*
X86574265Y-122788252D01*
X86568307Y-122735553D01*
X86556494Y-122701332D01*
X86537077Y-122676154D01*
X86535867Y-122674951D01*
X86488142Y-122642372D01*
X86441890Y-122645583D01*
X86389650Y-122685035D01*
X86376872Y-122698518D01*
X86358051Y-122726163D01*
X86347438Y-122762120D01*
X86342748Y-122816636D01*
X86341692Y-122899958D01*
X86153904Y-122899958D01*
X86152172Y-122801795D01*
X86150237Y-122651731D01*
G37*
X86150237Y-122651731D02*
X86149700Y-122608198D01*
X86147981Y-122462656D01*
X86147635Y-122351289D01*
X86149723Y-122270196D01*
X86155302Y-122215478D01*
X86165433Y-122183239D01*
X86181174Y-122169578D01*
X86203583Y-122170597D01*
X86233720Y-122182397D01*
X86272645Y-122201080D01*
X86280962Y-122205067D01*
X86315598Y-122224581D01*
X86333686Y-122247798D01*
X86340608Y-122286508D01*
X86341744Y-122352503D01*
X86341795Y-122471000D01*
X86463859Y-122471000D01*
X86538945Y-122474288D01*
X86597985Y-122487623D01*
X86647014Y-122514577D01*
X86650670Y-122517212D01*
X86700419Y-122561714D01*
X86735041Y-122615477D01*
X86756877Y-122685846D01*
X86768263Y-122780170D01*
X86771538Y-122905794D01*
X86770813Y-122997464D01*
X86767510Y-123066902D01*
X86760172Y-123115055D01*
X86747345Y-123151134D01*
X86727577Y-123184352D01*
X86709431Y-123209739D01*
X86643539Y-123278273D01*
X86568886Y-123315495D01*
X86475096Y-123327278D01*
X86367760Y-123315533D01*
X86274969Y-123273405D01*
X86201579Y-123199102D01*
X86196046Y-123191236D01*
X86183143Y-123170332D01*
X86173258Y-123146445D01*
X86165907Y-123114418D01*
X86160606Y-123069095D01*
X86156873Y-123005321D01*
X86154222Y-122917940D01*
X86153904Y-122899958D01*
X86341692Y-122899958D01*
X86342606Y-122950402D01*
X86352523Y-123042143D01*
X86375158Y-123102248D01*
X86412762Y-123135100D01*
X86467584Y-123145077D01*
X86490683Y-123142950D01*
X86530650Y-123121853D01*
X86557074Y-123074839D01*
X86571670Y-122997825D01*
X86576154Y-122886729D01*
X86576120Y-122868869D01*
X86574265Y-122788252D01*
X86568307Y-122735553D01*
X86556494Y-122701332D01*
X86537077Y-122676154D01*
X86535867Y-122674951D01*
X86488142Y-122642372D01*
X86441890Y-122645583D01*
X86389650Y-122685035D01*
X86376872Y-122698518D01*
X86358051Y-122726163D01*
X86347438Y-122762120D01*
X86342748Y-122816636D01*
X86341692Y-122899958D01*
X86153904Y-122899958D01*
X86152172Y-122801795D01*
X86150237Y-122651731D01*
G36*
X87699697Y-122461262D02*
G01*
X87746754Y-122479213D01*
X87781985Y-122496489D01*
X87804983Y-122518758D01*
X87818345Y-122552835D01*
X87824672Y-122605537D01*
X87826563Y-122683677D01*
X87826615Y-122794072D01*
X87826883Y-122882065D01*
X87828479Y-122966498D01*
X87832288Y-123024166D01*
X87839180Y-123062012D01*
X87850025Y-123086976D01*
X87865692Y-123106000D01*
X87904208Y-123132847D01*
X87968909Y-123142966D01*
X88032919Y-123117394D01*
X88037144Y-123114120D01*
X88050311Y-123098993D01*
X88060025Y-123074732D01*
X88067097Y-123035350D01*
X88072344Y-122974859D01*
X88076579Y-122887271D01*
X88080615Y-122766598D01*
X88090385Y-122443485D01*
X88256461Y-122517935D01*
X88256461Y-122812938D01*
X88256117Y-122893081D01*
X88253153Y-123004569D01*
X88245649Y-123087579D01*
X88231810Y-123148801D01*
X88209845Y-123194925D01*
X88177961Y-123232642D01*
X88134367Y-123268642D01*
X88071664Y-123304911D01*
X87972883Y-123328588D01*
X87873628Y-123318316D01*
X87782371Y-123275431D01*
X87707584Y-123201271D01*
X87692083Y-123178056D01*
X87679226Y-123151744D01*
X87670107Y-123118580D01*
X87663898Y-123072119D01*
X87659767Y-123005918D01*
X87656884Y-122913532D01*
X87654421Y-122788515D01*
X87648303Y-122441722D01*
X87699697Y-122461262D01*
G37*
X87699697Y-122461262D02*
X87746754Y-122479213D01*
X87781985Y-122496489D01*
X87804983Y-122518758D01*
X87818345Y-122552835D01*
X87824672Y-122605537D01*
X87826563Y-122683677D01*
X87826615Y-122794072D01*
X87826883Y-122882065D01*
X87828479Y-122966498D01*
X87832288Y-123024166D01*
X87839180Y-123062012D01*
X87850025Y-123086976D01*
X87865692Y-123106000D01*
X87904208Y-123132847D01*
X87968909Y-123142966D01*
X88032919Y-123117394D01*
X88037144Y-123114120D01*
X88050311Y-123098993D01*
X88060025Y-123074732D01*
X88067097Y-123035350D01*
X88072344Y-122974859D01*
X88076579Y-122887271D01*
X88080615Y-122766598D01*
X88090385Y-122443485D01*
X88256461Y-122517935D01*
X88256461Y-122812938D01*
X88256117Y-122893081D01*
X88253153Y-123004569D01*
X88245649Y-123087579D01*
X88231810Y-123148801D01*
X88209845Y-123194925D01*
X88177961Y-123232642D01*
X88134367Y-123268642D01*
X88071664Y-123304911D01*
X87972883Y-123328588D01*
X87873628Y-123318316D01*
X87782371Y-123275431D01*
X87707584Y-123201271D01*
X87692083Y-123178056D01*
X87679226Y-123151744D01*
X87670107Y-123118580D01*
X87663898Y-123072119D01*
X87659767Y-123005918D01*
X87656884Y-122913532D01*
X87654421Y-122788515D01*
X87648303Y-122441722D01*
X87699697Y-122461262D01*
G36*
X85403865Y-122869895D02*
G01*
X85404924Y-122775416D01*
X85408564Y-122709586D01*
X85416108Y-122663606D01*
X85428878Y-122628679D01*
X85448197Y-122596005D01*
X85452950Y-122589225D01*
X85503241Y-122535769D01*
X85560543Y-122495453D01*
X85589968Y-122482371D01*
X85695701Y-122460550D01*
X85800266Y-122474664D01*
X85896632Y-122522895D01*
X85977765Y-122603421D01*
X85984615Y-122614209D01*
X86006903Y-122676847D01*
X86021921Y-122764065D01*
X86029208Y-122864790D01*
X86028301Y-122967948D01*
X86018738Y-123062467D01*
X86000057Y-123137273D01*
X85976049Y-123187095D01*
X85908464Y-123264591D01*
X85816886Y-123312744D01*
X85704787Y-123329297D01*
X85674849Y-123328401D01*
X85586685Y-123310071D01*
X85514267Y-123263896D01*
X85447808Y-123184352D01*
X85443853Y-123178452D01*
X85425960Y-123146712D01*
X85414322Y-123110837D01*
X85407629Y-123062094D01*
X85404574Y-122991751D01*
X85403894Y-122897818D01*
X85599231Y-122897818D01*
X85601178Y-122981336D01*
X85610895Y-123060905D01*
X85630953Y-123111192D01*
X85663760Y-123137487D01*
X85711720Y-123145077D01*
X85729984Y-123143568D01*
X85781152Y-123115893D01*
X85814965Y-123053828D01*
X85831204Y-122957963D01*
X85829651Y-122828886D01*
X85829026Y-122820580D01*
X85819923Y-122749357D01*
X85803712Y-122704191D01*
X85776340Y-122673248D01*
X85730447Y-122644263D01*
X85685058Y-122642739D01*
X85638308Y-122676154D01*
X85630176Y-122684947D01*
X85614246Y-122711259D01*
X85604841Y-122749480D01*
X85600368Y-122808651D01*
X85599231Y-122897818D01*
X85403894Y-122897818D01*
X85403846Y-122891077D01*
X85403865Y-122869895D01*
G37*
X85403865Y-122869895D02*
X85404924Y-122775416D01*
X85408564Y-122709586D01*
X85416108Y-122663606D01*
X85428878Y-122628679D01*
X85448197Y-122596005D01*
X85452950Y-122589225D01*
X85503241Y-122535769D01*
X85560543Y-122495453D01*
X85589968Y-122482371D01*
X85695701Y-122460550D01*
X85800266Y-122474664D01*
X85896632Y-122522895D01*
X85977765Y-122603421D01*
X85984615Y-122614209D01*
X86006903Y-122676847D01*
X86021921Y-122764065D01*
X86029208Y-122864790D01*
X86028301Y-122967948D01*
X86018738Y-123062467D01*
X86000057Y-123137273D01*
X85976049Y-123187095D01*
X85908464Y-123264591D01*
X85816886Y-123312744D01*
X85704787Y-123329297D01*
X85674849Y-123328401D01*
X85586685Y-123310071D01*
X85514267Y-123263896D01*
X85447808Y-123184352D01*
X85443853Y-123178452D01*
X85425960Y-123146712D01*
X85414322Y-123110837D01*
X85407629Y-123062094D01*
X85404574Y-122991751D01*
X85403894Y-122897818D01*
X85599231Y-122897818D01*
X85601178Y-122981336D01*
X85610895Y-123060905D01*
X85630953Y-123111192D01*
X85663760Y-123137487D01*
X85711720Y-123145077D01*
X85729984Y-123143568D01*
X85781152Y-123115893D01*
X85814965Y-123053828D01*
X85831204Y-122957963D01*
X85829651Y-122828886D01*
X85829026Y-122820580D01*
X85819923Y-122749357D01*
X85803712Y-122704191D01*
X85776340Y-122673248D01*
X85730447Y-122644263D01*
X85685058Y-122642739D01*
X85638308Y-122676154D01*
X85630176Y-122684947D01*
X85614246Y-122711259D01*
X85604841Y-122749480D01*
X85600368Y-122808651D01*
X85599231Y-122897818D01*
X85403894Y-122897818D01*
X85403846Y-122891077D01*
X85403865Y-122869895D01*
G36*
X86895426Y-122798357D02*
G01*
X86898934Y-122766979D01*
X86925073Y-122655295D01*
X86972306Y-122570358D01*
X87044138Y-122505259D01*
X87048198Y-122502572D01*
X87139513Y-122464366D01*
X87234856Y-122460966D01*
X87326726Y-122490061D01*
X87407621Y-122549340D01*
X87470038Y-122636490D01*
X87471086Y-122638591D01*
X87491827Y-122692711D01*
X87507020Y-122754219D01*
X87515079Y-122811961D01*
X87514418Y-122854785D01*
X87503452Y-122871538D01*
X87493710Y-122870520D01*
X87447123Y-122851991D01*
X87394318Y-122817919D01*
X87349397Y-122778478D01*
X87326465Y-122743845D01*
X87302627Y-122696867D01*
X87253770Y-122654138D01*
X87197037Y-122637077D01*
X87176242Y-122642010D01*
X87135196Y-122666843D01*
X87099443Y-122701315D01*
X87084154Y-122732589D01*
X87084158Y-122732705D01*
X87101505Y-122747067D01*
X87147753Y-122772975D01*
X87215933Y-122806790D01*
X87299077Y-122844871D01*
X87299534Y-122845073D01*
X87389862Y-122885291D01*
X87450408Y-122914267D01*
X87487112Y-122936526D01*
X87505914Y-122956593D01*
X87512754Y-122978991D01*
X87513571Y-123008244D01*
X87506378Y-123078346D01*
X87470816Y-123173588D01*
X87411286Y-123248433D01*
X87334254Y-123300255D01*
X87246185Y-123326427D01*
X87153546Y-123324324D01*
X87062802Y-123291319D01*
X86980421Y-123224785D01*
X86934778Y-123158945D01*
X86901992Y-123064964D01*
X86896661Y-123015532D01*
X87084154Y-123015532D01*
X87094276Y-123069153D01*
X87129369Y-123117881D01*
X87180177Y-123143144D01*
X87236819Y-123140594D01*
X87289416Y-123105880D01*
X87310090Y-123081893D01*
X87315000Y-123063637D01*
X87295089Y-123046223D01*
X87245479Y-123020128D01*
X87244024Y-123019390D01*
X87185494Y-122991517D01*
X87133132Y-122969281D01*
X87099914Y-122959874D01*
X87086590Y-122972448D01*
X87084154Y-123015532D01*
X86896661Y-123015532D01*
X86889213Y-122946464D01*
X86895426Y-122798357D01*
G37*
X86895426Y-122798357D02*
X86898934Y-122766979D01*
X86925073Y-122655295D01*
X86972306Y-122570358D01*
X87044138Y-122505259D01*
X87048198Y-122502572D01*
X87139513Y-122464366D01*
X87234856Y-122460966D01*
X87326726Y-122490061D01*
X87407621Y-122549340D01*
X87470038Y-122636490D01*
X87471086Y-122638591D01*
X87491827Y-122692711D01*
X87507020Y-122754219D01*
X87515079Y-122811961D01*
X87514418Y-122854785D01*
X87503452Y-122871538D01*
X87493710Y-122870520D01*
X87447123Y-122851991D01*
X87394318Y-122817919D01*
X87349397Y-122778478D01*
X87326465Y-122743845D01*
X87302627Y-122696867D01*
X87253770Y-122654138D01*
X87197037Y-122637077D01*
X87176242Y-122642010D01*
X87135196Y-122666843D01*
X87099443Y-122701315D01*
X87084154Y-122732589D01*
X87084158Y-122732705D01*
X87101505Y-122747067D01*
X87147753Y-122772975D01*
X87215933Y-122806790D01*
X87299077Y-122844871D01*
X87299534Y-122845073D01*
X87389862Y-122885291D01*
X87450408Y-122914267D01*
X87487112Y-122936526D01*
X87505914Y-122956593D01*
X87512754Y-122978991D01*
X87513571Y-123008244D01*
X87506378Y-123078346D01*
X87470816Y-123173588D01*
X87411286Y-123248433D01*
X87334254Y-123300255D01*
X87246185Y-123326427D01*
X87153546Y-123324324D01*
X87062802Y-123291319D01*
X86980421Y-123224785D01*
X86934778Y-123158945D01*
X86901992Y-123064964D01*
X86896661Y-123015532D01*
X87084154Y-123015532D01*
X87094276Y-123069153D01*
X87129369Y-123117881D01*
X87180177Y-123143144D01*
X87236819Y-123140594D01*
X87289416Y-123105880D01*
X87310090Y-123081893D01*
X87315000Y-123063637D01*
X87295089Y-123046223D01*
X87245479Y-123020128D01*
X87244024Y-123019390D01*
X87185494Y-122991517D01*
X87133132Y-122969281D01*
X87099914Y-122959874D01*
X87086590Y-122972448D01*
X87084154Y-123015532D01*
X86896661Y-123015532D01*
X86889213Y-122946464D01*
X86895426Y-122798357D01*
G36*
X89260482Y-122461294D02*
G01*
X89284459Y-122468088D01*
X89328161Y-122482680D01*
X89389692Y-122504130D01*
X89389662Y-122780642D01*
X89389616Y-122805258D01*
X89387030Y-122933581D01*
X89379087Y-123030616D01*
X89363845Y-123102943D01*
X89339364Y-123157145D01*
X89303702Y-123199802D01*
X89254918Y-123237495D01*
X89207339Y-123261090D01*
X89131268Y-123279328D01*
X89056444Y-123280364D01*
X88998923Y-123262622D01*
X88994598Y-123260171D01*
X88981262Y-123260434D01*
X88972149Y-123280961D01*
X88965572Y-123328020D01*
X88959846Y-123407880D01*
X88950077Y-123571764D01*
X88823077Y-123518194D01*
X88823077Y-122983545D01*
X88823340Y-122844906D01*
X88824042Y-122720195D01*
X88825117Y-122614443D01*
X88826500Y-122532678D01*
X88828126Y-122479931D01*
X88829930Y-122461231D01*
X88830636Y-122461294D01*
X88854613Y-122468088D01*
X88898315Y-122482680D01*
X88959846Y-122504130D01*
X88959846Y-122779383D01*
X88960237Y-122887534D01*
X88962054Y-122965974D01*
X88966233Y-123019353D01*
X88973714Y-123054744D01*
X88985433Y-123079221D01*
X89002329Y-123099856D01*
X89013848Y-123110830D01*
X89076136Y-123141225D01*
X89144789Y-123138534D01*
X89207702Y-123102594D01*
X89216861Y-123093675D01*
X89231529Y-123075156D01*
X89241567Y-123050674D01*
X89247849Y-123013607D01*
X89251252Y-122957333D01*
X89252651Y-122875229D01*
X89252923Y-122760671D01*
X89253053Y-122702570D01*
X89253901Y-122607007D01*
X89255406Y-122530474D01*
X89257415Y-122479655D01*
X89259777Y-122461231D01*
X89260482Y-122461294D01*
G37*
X89260482Y-122461294D02*
X89284459Y-122468088D01*
X89328161Y-122482680D01*
X89389692Y-122504130D01*
X89389662Y-122780642D01*
X89389616Y-122805258D01*
X89387030Y-122933581D01*
X89379087Y-123030616D01*
X89363845Y-123102943D01*
X89339364Y-123157145D01*
X89303702Y-123199802D01*
X89254918Y-123237495D01*
X89207339Y-123261090D01*
X89131268Y-123279328D01*
X89056444Y-123280364D01*
X88998923Y-123262622D01*
X88994598Y-123260171D01*
X88981262Y-123260434D01*
X88972149Y-123280961D01*
X88965572Y-123328020D01*
X88959846Y-123407880D01*
X88950077Y-123571764D01*
X88823077Y-123518194D01*
X88823077Y-122983545D01*
X88823340Y-122844906D01*
X88824042Y-122720195D01*
X88825117Y-122614443D01*
X88826500Y-122532678D01*
X88828126Y-122479931D01*
X88829930Y-122461231D01*
X88830636Y-122461294D01*
X88854613Y-122468088D01*
X88898315Y-122482680D01*
X88959846Y-122504130D01*
X88959846Y-122779383D01*
X88960237Y-122887534D01*
X88962054Y-122965974D01*
X88966233Y-123019353D01*
X88973714Y-123054744D01*
X88985433Y-123079221D01*
X89002329Y-123099856D01*
X89013848Y-123110830D01*
X89076136Y-123141225D01*
X89144789Y-123138534D01*
X89207702Y-123102594D01*
X89216861Y-123093675D01*
X89231529Y-123075156D01*
X89241567Y-123050674D01*
X89247849Y-123013607D01*
X89251252Y-122957333D01*
X89252651Y-122875229D01*
X89252923Y-122760671D01*
X89253053Y-122702570D01*
X89253901Y-122607007D01*
X89255406Y-122530474D01*
X89257415Y-122479655D01*
X89259777Y-122461231D01*
X89260482Y-122461294D01*
G36*
X89948710Y-122461354D02*
G01*
X89974681Y-122471198D01*
X90017695Y-122491972D01*
X90077141Y-122522713D01*
X90070077Y-122799702D01*
X90069586Y-122818072D01*
X90063975Y-122947008D01*
X90054062Y-123044186D01*
X90037825Y-123116075D01*
X90013241Y-123169148D01*
X89978285Y-123209873D01*
X89930936Y-123244721D01*
X89930060Y-123245267D01*
X89853501Y-123273697D01*
X89764956Y-123278500D01*
X89679542Y-123260772D01*
X89612378Y-123221611D01*
X89582831Y-123191098D01*
X89526052Y-123099890D01*
X89506923Y-123000452D01*
X89506923Y-122932040D01*
X89569809Y-122958482D01*
X89613300Y-122985163D01*
X89647574Y-123040554D01*
X89651093Y-123051976D01*
X89688972Y-123110162D01*
X89746064Y-123141593D01*
X89811617Y-123142942D01*
X89874883Y-123110884D01*
X89884328Y-123102617D01*
X89915913Y-123066689D01*
X89921129Y-123035365D01*
X89897235Y-123004609D01*
X89841490Y-122970383D01*
X89751154Y-122928650D01*
X89745044Y-122926007D01*
X89644759Y-122879245D01*
X89576265Y-122837819D01*
X89534101Y-122796458D01*
X89512807Y-122749889D01*
X89506923Y-122692840D01*
X89514634Y-122629592D01*
X89553570Y-122548636D01*
X89622068Y-122490478D01*
X89671612Y-122473017D01*
X89741531Y-122463463D01*
X89809425Y-122465504D01*
X89857907Y-122479918D01*
X89863057Y-122483507D01*
X89876733Y-122508584D01*
X89867243Y-122552782D01*
X89850754Y-122587473D01*
X89824313Y-122601916D01*
X89774166Y-122601197D01*
X89704547Y-122605340D01*
X89659057Y-122633946D01*
X89643692Y-122686896D01*
X89643706Y-122688418D01*
X89653017Y-122719155D01*
X89684689Y-122747357D01*
X89746269Y-122779864D01*
X89830014Y-122819002D01*
X89885482Y-122840294D01*
X89917503Y-122838921D01*
X89932466Y-122810797D01*
X89936758Y-122751830D01*
X89936769Y-122657932D01*
X89937248Y-122599969D01*
X89939444Y-122528388D01*
X89943014Y-122479394D01*
X89947509Y-122461231D01*
X89948710Y-122461354D01*
G37*
X89948710Y-122461354D02*
X89974681Y-122471198D01*
X90017695Y-122491972D01*
X90077141Y-122522713D01*
X90070077Y-122799702D01*
X90069586Y-122818072D01*
X90063975Y-122947008D01*
X90054062Y-123044186D01*
X90037825Y-123116075D01*
X90013241Y-123169148D01*
X89978285Y-123209873D01*
X89930936Y-123244721D01*
X89930060Y-123245267D01*
X89853501Y-123273697D01*
X89764956Y-123278500D01*
X89679542Y-123260772D01*
X89612378Y-123221611D01*
X89582831Y-123191098D01*
X89526052Y-123099890D01*
X89506923Y-123000452D01*
X89506923Y-122932040D01*
X89569809Y-122958482D01*
X89613300Y-122985163D01*
X89647574Y-123040554D01*
X89651093Y-123051976D01*
X89688972Y-123110162D01*
X89746064Y-123141593D01*
X89811617Y-123142942D01*
X89874883Y-123110884D01*
X89884328Y-123102617D01*
X89915913Y-123066689D01*
X89921129Y-123035365D01*
X89897235Y-123004609D01*
X89841490Y-122970383D01*
X89751154Y-122928650D01*
X89745044Y-122926007D01*
X89644759Y-122879245D01*
X89576265Y-122837819D01*
X89534101Y-122796458D01*
X89512807Y-122749889D01*
X89506923Y-122692840D01*
X89514634Y-122629592D01*
X89553570Y-122548636D01*
X89622068Y-122490478D01*
X89671612Y-122473017D01*
X89741531Y-122463463D01*
X89809425Y-122465504D01*
X89857907Y-122479918D01*
X89863057Y-122483507D01*
X89876733Y-122508584D01*
X89867243Y-122552782D01*
X89850754Y-122587473D01*
X89824313Y-122601916D01*
X89774166Y-122601197D01*
X89704547Y-122605340D01*
X89659057Y-122633946D01*
X89643692Y-122686896D01*
X89643706Y-122688418D01*
X89653017Y-122719155D01*
X89684689Y-122747357D01*
X89746269Y-122779864D01*
X89830014Y-122819002D01*
X89885482Y-122840294D01*
X89917503Y-122838921D01*
X89932466Y-122810797D01*
X89936758Y-122751830D01*
X89936769Y-122657932D01*
X89937248Y-122599969D01*
X89939444Y-122528388D01*
X89943014Y-122479394D01*
X89947509Y-122461231D01*
X89948710Y-122461354D01*
G36*
X90213406Y-122466699D02*
G01*
X90256834Y-122483267D01*
X90267060Y-122488112D01*
X90283033Y-122499080D01*
X90294046Y-122517110D01*
X90301250Y-122548604D01*
X90305792Y-122599964D01*
X90308820Y-122677590D01*
X90311484Y-122787885D01*
X90312215Y-122820125D01*
X90315035Y-122921950D01*
X90318696Y-122993212D01*
X90324306Y-123040668D01*
X90332971Y-123071075D01*
X90345798Y-123091190D01*
X90363895Y-123107771D01*
X90417475Y-123136839D01*
X90483388Y-123142436D01*
X90542365Y-123120193D01*
X90584797Y-123074141D01*
X90601077Y-123008308D01*
X90601530Y-122990413D01*
X90610422Y-122958018D01*
X90636675Y-122953075D01*
X90688081Y-122972367D01*
X90699987Y-122978554D01*
X90732165Y-123014942D01*
X90732802Y-123069046D01*
X90702144Y-123143872D01*
X90674022Y-123184650D01*
X90602117Y-123242579D01*
X90513362Y-123275330D01*
X90418458Y-123279788D01*
X90328108Y-123252833D01*
X90321940Y-123249419D01*
X90271553Y-123210308D01*
X90226502Y-123160025D01*
X90218645Y-123148661D01*
X90203624Y-123122140D01*
X90192893Y-123090664D01*
X90185514Y-123047409D01*
X90180548Y-122985551D01*
X90177058Y-122898267D01*
X90174107Y-122778731D01*
X90173689Y-122758522D01*
X90172346Y-122627501D01*
X90174239Y-122534704D01*
X90179395Y-122479493D01*
X90187842Y-122461231D01*
X90213406Y-122466699D01*
G37*
X90213406Y-122466699D02*
X90256834Y-122483267D01*
X90267060Y-122488112D01*
X90283033Y-122499080D01*
X90294046Y-122517110D01*
X90301250Y-122548604D01*
X90305792Y-122599964D01*
X90308820Y-122677590D01*
X90311484Y-122787885D01*
X90312215Y-122820125D01*
X90315035Y-122921950D01*
X90318696Y-122993212D01*
X90324306Y-123040668D01*
X90332971Y-123071075D01*
X90345798Y-123091190D01*
X90363895Y-123107771D01*
X90417475Y-123136839D01*
X90483388Y-123142436D01*
X90542365Y-123120193D01*
X90584797Y-123074141D01*
X90601077Y-123008308D01*
X90601530Y-122990413D01*
X90610422Y-122958018D01*
X90636675Y-122953075D01*
X90688081Y-122972367D01*
X90699987Y-122978554D01*
X90732165Y-123014942D01*
X90732802Y-123069046D01*
X90702144Y-123143872D01*
X90674022Y-123184650D01*
X90602117Y-123242579D01*
X90513362Y-123275330D01*
X90418458Y-123279788D01*
X90328108Y-123252833D01*
X90321940Y-123249419D01*
X90271553Y-123210308D01*
X90226502Y-123160025D01*
X90218645Y-123148661D01*
X90203624Y-123122140D01*
X90192893Y-123090664D01*
X90185514Y-123047409D01*
X90180548Y-122985551D01*
X90177058Y-122898267D01*
X90174107Y-122778731D01*
X90173689Y-122758522D01*
X90172346Y-122627501D01*
X90174239Y-122534704D01*
X90179395Y-122479493D01*
X90187842Y-122461231D01*
X90213406Y-122466699D01*
G36*
X90837161Y-122795348D02*
G01*
X90848190Y-122691493D01*
X90872186Y-122613667D01*
X90911957Y-122554240D01*
X90970312Y-122505582D01*
X91025900Y-122477454D01*
X91119249Y-122461801D01*
X91212470Y-122478916D01*
X91296728Y-122526612D01*
X91363182Y-122602706D01*
X91371207Y-122616738D01*
X91381804Y-122641321D01*
X91389665Y-122672691D01*
X91395193Y-122716231D01*
X91398794Y-122777322D01*
X91400872Y-122861345D01*
X91401833Y-122973680D01*
X91402081Y-123119711D01*
X91402154Y-123573037D01*
X91338654Y-123546436D01*
X91321864Y-123539155D01*
X91295141Y-123522713D01*
X91279844Y-123497813D01*
X91271437Y-123454268D01*
X91265385Y-123381894D01*
X91259856Y-123316911D01*
X91252550Y-123274250D01*
X91242082Y-123258330D01*
X91226308Y-123262600D01*
X91186110Y-123277603D01*
X91114272Y-123281322D01*
X91036990Y-123267428D01*
X90970312Y-123237495D01*
X90933629Y-123209789D01*
X90886528Y-123155731D01*
X90856362Y-123086423D01*
X90840322Y-122994235D01*
X90835809Y-122877014D01*
X90972308Y-122877014D01*
X90972719Y-122943681D01*
X90975566Y-123008755D01*
X90982744Y-123050749D01*
X90996111Y-123078937D01*
X91017528Y-123102594D01*
X91030110Y-123113247D01*
X91095301Y-123141943D01*
X91163600Y-123137425D01*
X91222902Y-123099856D01*
X91235667Y-123084960D01*
X91251236Y-123056911D01*
X91260238Y-123017742D01*
X91264383Y-122958142D01*
X91265385Y-122868800D01*
X91264923Y-122797684D01*
X91262001Y-122733359D01*
X91254779Y-122691834D01*
X91241439Y-122663933D01*
X91220164Y-122640483D01*
X91215179Y-122635975D01*
X91151137Y-122602705D01*
X91083375Y-122606110D01*
X91020266Y-122645958D01*
X91001474Y-122666602D01*
X90985746Y-122693971D01*
X90976961Y-122731808D01*
X90973141Y-122789645D01*
X90972308Y-122877014D01*
X90835809Y-122877014D01*
X90835599Y-122871538D01*
X90837161Y-122795348D01*
G37*
X90837161Y-122795348D02*
X90848190Y-122691493D01*
X90872186Y-122613667D01*
X90911957Y-122554240D01*
X90970312Y-122505582D01*
X91025900Y-122477454D01*
X91119249Y-122461801D01*
X91212470Y-122478916D01*
X91296728Y-122526612D01*
X91363182Y-122602706D01*
X91371207Y-122616738D01*
X91381804Y-122641321D01*
X91389665Y-122672691D01*
X91395193Y-122716231D01*
X91398794Y-122777322D01*
X91400872Y-122861345D01*
X91401833Y-122973680D01*
X91402081Y-123119711D01*
X91402154Y-123573037D01*
X91338654Y-123546436D01*
X91321864Y-123539155D01*
X91295141Y-123522713D01*
X91279844Y-123497813D01*
X91271437Y-123454268D01*
X91265385Y-123381894D01*
X91259856Y-123316911D01*
X91252550Y-123274250D01*
X91242082Y-123258330D01*
X91226308Y-123262600D01*
X91186110Y-123277603D01*
X91114272Y-123281322D01*
X91036990Y-123267428D01*
X90970312Y-123237495D01*
X90933629Y-123209789D01*
X90886528Y-123155731D01*
X90856362Y-123086423D01*
X90840322Y-122994235D01*
X90835809Y-122877014D01*
X90972308Y-122877014D01*
X90972719Y-122943681D01*
X90975566Y-123008755D01*
X90982744Y-123050749D01*
X90996111Y-123078937D01*
X91017528Y-123102594D01*
X91030110Y-123113247D01*
X91095301Y-123141943D01*
X91163600Y-123137425D01*
X91222902Y-123099856D01*
X91235667Y-123084960D01*
X91251236Y-123056911D01*
X91260238Y-123017742D01*
X91264383Y-122958142D01*
X91265385Y-122868800D01*
X91264923Y-122797684D01*
X91262001Y-122733359D01*
X91254779Y-122691834D01*
X91241439Y-122663933D01*
X91220164Y-122640483D01*
X91215179Y-122635975D01*
X91151137Y-122602705D01*
X91083375Y-122606110D01*
X91020266Y-122645958D01*
X91001474Y-122666602D01*
X90985746Y-122693971D01*
X90976961Y-122731808D01*
X90973141Y-122789645D01*
X90972308Y-122877014D01*
X90835809Y-122877014D01*
X90835599Y-122871538D01*
X90837161Y-122795348D01*
G36*
X91732638Y-122469567D02*
G01*
X91756544Y-122472538D01*
X91818199Y-122478824D01*
X91861308Y-122481328D01*
X91874095Y-122480945D01*
X91926554Y-122476800D01*
X91989978Y-122469567D01*
X92010270Y-122467082D01*
X92061390Y-122466105D01*
X92098793Y-122481538D01*
X92141401Y-122519637D01*
X92203231Y-122581467D01*
X92203231Y-122931657D01*
X92202749Y-123035143D01*
X92201247Y-123133808D01*
X92198911Y-123211932D01*
X92195929Y-123263338D01*
X92192491Y-123281846D01*
X92191770Y-123281796D01*
X92166797Y-123272587D01*
X92124601Y-123252293D01*
X92067451Y-123222739D01*
X92062072Y-122915254D01*
X92056692Y-122607769D01*
X91939461Y-122607769D01*
X91934115Y-122944808D01*
X91932421Y-123036426D01*
X91929995Y-123134351D01*
X91927366Y-123212094D01*
X91924754Y-123263358D01*
X91922377Y-123281846D01*
X91921694Y-123281781D01*
X91898004Y-123274980D01*
X91854454Y-123260396D01*
X91792923Y-123238946D01*
X91792624Y-122942896D01*
X91792324Y-122891468D01*
X91790246Y-122791534D01*
X91786530Y-122708075D01*
X91781570Y-122648623D01*
X91775760Y-122620713D01*
X91754976Y-122605786D01*
X91712560Y-122601175D01*
X91665923Y-122607769D01*
X91660577Y-122944808D01*
X91658664Y-123030454D01*
X91654697Y-123131828D01*
X91649509Y-123211345D01*
X91643501Y-123263264D01*
X91637073Y-123281846D01*
X91612002Y-123275966D01*
X91569150Y-123259171D01*
X91519385Y-123236497D01*
X91519385Y-122581467D01*
X91581215Y-122519637D01*
X91595338Y-122505772D01*
X91634464Y-122474954D01*
X91673922Y-122464972D01*
X91732638Y-122469567D01*
G37*
X91732638Y-122469567D02*
X91756544Y-122472538D01*
X91818199Y-122478824D01*
X91861308Y-122481328D01*
X91874095Y-122480945D01*
X91926554Y-122476800D01*
X91989978Y-122469567D01*
X92010270Y-122467082D01*
X92061390Y-122466105D01*
X92098793Y-122481538D01*
X92141401Y-122519637D01*
X92203231Y-122581467D01*
X92203231Y-122931657D01*
X92202749Y-123035143D01*
X92201247Y-123133808D01*
X92198911Y-123211932D01*
X92195929Y-123263338D01*
X92192491Y-123281846D01*
X92191770Y-123281796D01*
X92166797Y-123272587D01*
X92124601Y-123252293D01*
X92067451Y-123222739D01*
X92062072Y-122915254D01*
X92056692Y-122607769D01*
X91939461Y-122607769D01*
X91934115Y-122944808D01*
X91932421Y-123036426D01*
X91929995Y-123134351D01*
X91927366Y-123212094D01*
X91924754Y-123263358D01*
X91922377Y-123281846D01*
X91921694Y-123281781D01*
X91898004Y-123274980D01*
X91854454Y-123260396D01*
X91792923Y-123238946D01*
X91792624Y-122942896D01*
X91792324Y-122891468D01*
X91790246Y-122791534D01*
X91786530Y-122708075D01*
X91781570Y-122648623D01*
X91775760Y-122620713D01*
X91754976Y-122605786D01*
X91712560Y-122601175D01*
X91665923Y-122607769D01*
X91660577Y-122944808D01*
X91658664Y-123030454D01*
X91654697Y-123131828D01*
X91649509Y-123211345D01*
X91643501Y-123263264D01*
X91637073Y-123281846D01*
X91612002Y-123275966D01*
X91569150Y-123259171D01*
X91519385Y-123236497D01*
X91519385Y-122581467D01*
X91581215Y-122519637D01*
X91595338Y-122505772D01*
X91634464Y-122474954D01*
X91673922Y-122464972D01*
X91732638Y-122469567D01*
G36*
X92778576Y-122467333D02*
G01*
X92817773Y-122483905D01*
X92867538Y-122506580D01*
X92867538Y-122797491D01*
X92867220Y-122872060D01*
X92864211Y-122985299D01*
X92856546Y-123069308D01*
X92842438Y-123130480D01*
X92820101Y-123175205D01*
X92787747Y-123209876D01*
X92743590Y-123240883D01*
X92687333Y-123266472D01*
X92583460Y-123281846D01*
X92536064Y-123280089D01*
X92494193Y-123269453D01*
X92455209Y-123242938D01*
X92405035Y-123193580D01*
X92372768Y-123158721D01*
X92339156Y-123113466D01*
X92323997Y-123071049D01*
X92320461Y-123017232D01*
X92320461Y-122929150D01*
X92380530Y-122960213D01*
X92428133Y-122998064D01*
X92460739Y-123049050D01*
X92466339Y-123062912D01*
X92509008Y-123116642D01*
X92568293Y-123143583D01*
X92632939Y-123140961D01*
X92691692Y-123106000D01*
X92716550Y-123077606D01*
X92731030Y-123041282D01*
X92715530Y-123008954D01*
X92667333Y-122976435D01*
X92583726Y-122939539D01*
X92571038Y-122934443D01*
X92494922Y-122901093D01*
X92429604Y-122868207D01*
X92388047Y-122842231D01*
X92346424Y-122795833D01*
X92318753Y-122721789D01*
X92321690Y-122642330D01*
X92354429Y-122567132D01*
X92416159Y-122505869D01*
X92466142Y-122479790D01*
X92562697Y-122461530D01*
X92616353Y-122463993D01*
X92666024Y-122477313D01*
X92685081Y-122505261D01*
X92677955Y-122551290D01*
X92675882Y-122557376D01*
X92659444Y-122589651D01*
X92632074Y-122601867D01*
X92579932Y-122601050D01*
X92543116Y-122599939D01*
X92500039Y-122609472D01*
X92470525Y-122637974D01*
X92453714Y-122673065D01*
X92451839Y-122709825D01*
X92451926Y-122710039D01*
X92473721Y-122729902D01*
X92520368Y-122758808D01*
X92580722Y-122791114D01*
X92643640Y-122821177D01*
X92697977Y-122843354D01*
X92732590Y-122852000D01*
X92737740Y-122843533D01*
X92744222Y-122803691D01*
X92748661Y-122738629D01*
X92750308Y-122656615D01*
X92750691Y-122599847D01*
X92752495Y-122528352D01*
X92755442Y-122479390D01*
X92759157Y-122461231D01*
X92778576Y-122467333D01*
G37*
X92778576Y-122467333D02*
X92817773Y-122483905D01*
X92867538Y-122506580D01*
X92867538Y-122797491D01*
X92867220Y-122872060D01*
X92864211Y-122985299D01*
X92856546Y-123069308D01*
X92842438Y-123130480D01*
X92820101Y-123175205D01*
X92787747Y-123209876D01*
X92743590Y-123240883D01*
X92687333Y-123266472D01*
X92583460Y-123281846D01*
X92536064Y-123280089D01*
X92494193Y-123269453D01*
X92455209Y-123242938D01*
X92405035Y-123193580D01*
X92372768Y-123158721D01*
X92339156Y-123113466D01*
X92323997Y-123071049D01*
X92320461Y-123017232D01*
X92320461Y-122929150D01*
X92380530Y-122960213D01*
X92428133Y-122998064D01*
X92460739Y-123049050D01*
X92466339Y-123062912D01*
X92509008Y-123116642D01*
X92568293Y-123143583D01*
X92632939Y-123140961D01*
X92691692Y-123106000D01*
X92716550Y-123077606D01*
X92731030Y-123041282D01*
X92715530Y-123008954D01*
X92667333Y-122976435D01*
X92583726Y-122939539D01*
X92571038Y-122934443D01*
X92494922Y-122901093D01*
X92429604Y-122868207D01*
X92388047Y-122842231D01*
X92346424Y-122795833D01*
X92318753Y-122721789D01*
X92321690Y-122642330D01*
X92354429Y-122567132D01*
X92416159Y-122505869D01*
X92466142Y-122479790D01*
X92562697Y-122461530D01*
X92616353Y-122463993D01*
X92666024Y-122477313D01*
X92685081Y-122505261D01*
X92677955Y-122551290D01*
X92675882Y-122557376D01*
X92659444Y-122589651D01*
X92632074Y-122601867D01*
X92579932Y-122601050D01*
X92543116Y-122599939D01*
X92500039Y-122609472D01*
X92470525Y-122637974D01*
X92453714Y-122673065D01*
X92451839Y-122709825D01*
X92451926Y-122710039D01*
X92473721Y-122729902D01*
X92520368Y-122758808D01*
X92580722Y-122791114D01*
X92643640Y-122821177D01*
X92697977Y-122843354D01*
X92732590Y-122852000D01*
X92737740Y-122843533D01*
X92744222Y-122803691D01*
X92748661Y-122738629D01*
X92750308Y-122656615D01*
X92750691Y-122599847D01*
X92752495Y-122528352D01*
X92755442Y-122479390D01*
X92759157Y-122461231D01*
X92778576Y-122467333D01*
G36*
X93013038Y-122467333D02*
G01*
X93052234Y-122483905D01*
X93053411Y-122484442D01*
X93073765Y-122495097D01*
X93087454Y-122509718D01*
X93095801Y-122535327D01*
X93100126Y-122578946D01*
X93101752Y-122647597D01*
X93102000Y-122748302D01*
X93102500Y-122812187D01*
X93107836Y-122932249D01*
X93120055Y-123020191D01*
X93140448Y-123080625D01*
X93170305Y-123118164D01*
X93210918Y-123137419D01*
X93216552Y-123138761D01*
X93292622Y-123139809D01*
X93351948Y-123105729D01*
X93392923Y-123037402D01*
X93400230Y-123017649D01*
X93416886Y-122973934D01*
X93425321Y-122953845D01*
X93442644Y-122956613D01*
X93480475Y-122971635D01*
X93515760Y-122996444D01*
X93531846Y-123043330D01*
X93527048Y-123076913D01*
X93497569Y-123145033D01*
X93449902Y-123208866D01*
X93394161Y-123253012D01*
X93370807Y-123263218D01*
X93282381Y-123280282D01*
X93188499Y-123273524D01*
X93107833Y-123243560D01*
X93074286Y-123221046D01*
X93040313Y-123188788D01*
X93016081Y-123147754D01*
X92999999Y-123091892D01*
X92990479Y-123015149D01*
X92985932Y-122911475D01*
X92984769Y-122774816D01*
X92984997Y-122704195D01*
X92986140Y-122607692D01*
X92988081Y-122530677D01*
X92990635Y-122479681D01*
X92993619Y-122461231D01*
X93013038Y-122467333D01*
G37*
X93013038Y-122467333D02*
X93052234Y-122483905D01*
X93053411Y-122484442D01*
X93073765Y-122495097D01*
X93087454Y-122509718D01*
X93095801Y-122535327D01*
X93100126Y-122578946D01*
X93101752Y-122647597D01*
X93102000Y-122748302D01*
X93102500Y-122812187D01*
X93107836Y-122932249D01*
X93120055Y-123020191D01*
X93140448Y-123080625D01*
X93170305Y-123118164D01*
X93210918Y-123137419D01*
X93216552Y-123138761D01*
X93292622Y-123139809D01*
X93351948Y-123105729D01*
X93392923Y-123037402D01*
X93400230Y-123017649D01*
X93416886Y-122973934D01*
X93425321Y-122953845D01*
X93442644Y-122956613D01*
X93480475Y-122971635D01*
X93515760Y-122996444D01*
X93531846Y-123043330D01*
X93527048Y-123076913D01*
X93497569Y-123145033D01*
X93449902Y-123208866D01*
X93394161Y-123253012D01*
X93370807Y-123263218D01*
X93282381Y-123280282D01*
X93188499Y-123273524D01*
X93107833Y-123243560D01*
X93074286Y-123221046D01*
X93040313Y-123188788D01*
X93016081Y-123147754D01*
X92999999Y-123091892D01*
X92990479Y-123015149D01*
X92985932Y-122911475D01*
X92984769Y-122774816D01*
X92984997Y-122704195D01*
X92986140Y-122607692D01*
X92988081Y-122530677D01*
X92990635Y-122479681D01*
X92993619Y-122461231D01*
X93013038Y-122467333D01*
G36*
X93649587Y-122815551D02*
G01*
X93654359Y-122712953D01*
X93666850Y-122637874D01*
X93689879Y-122582252D01*
X93726268Y-122538025D01*
X93778838Y-122497131D01*
X93812286Y-122478534D01*
X93865902Y-122466009D01*
X93941220Y-122466997D01*
X93983328Y-122470965D01*
X94034121Y-122483080D01*
X94074720Y-122509415D01*
X94121951Y-122558486D01*
X94128262Y-122565654D01*
X94170723Y-122620811D01*
X94190982Y-122668850D01*
X94196154Y-122725816D01*
X94196154Y-122809529D01*
X94137654Y-122787448D01*
X94095006Y-122761636D01*
X94057936Y-122701072D01*
X94050197Y-122681680D01*
X94006926Y-122626765D01*
X93948024Y-122599121D01*
X93883889Y-122601607D01*
X93824923Y-122637077D01*
X93804658Y-122659195D01*
X93786280Y-122692564D01*
X93792029Y-122722883D01*
X93825113Y-122754087D01*
X93888739Y-122790113D01*
X93986115Y-122834897D01*
X94186385Y-122922555D01*
X94191699Y-123009393D01*
X94189353Y-123074337D01*
X94159814Y-123156410D01*
X94122528Y-123201639D01*
X94045224Y-123252162D01*
X93953522Y-123277684D01*
X93858726Y-123275664D01*
X93772141Y-123243560D01*
X93753080Y-123231233D01*
X93709360Y-123193088D01*
X93679460Y-123144833D01*
X93661032Y-123079290D01*
X93651730Y-122989280D01*
X93650501Y-122930052D01*
X93768471Y-122930052D01*
X93773349Y-122983884D01*
X93785636Y-123036527D01*
X93823959Y-123102849D01*
X93879280Y-123140220D01*
X93945360Y-123145279D01*
X94015960Y-123114661D01*
X94035526Y-123099352D01*
X94059217Y-123064704D01*
X94049312Y-123030462D01*
X94004244Y-122993904D01*
X93922443Y-122952308D01*
X93908908Y-122946282D01*
X93844182Y-122918247D01*
X93795753Y-122898528D01*
X93773249Y-122891077D01*
X93769839Y-122896562D01*
X93768471Y-122930052D01*
X93650501Y-122930052D01*
X93649206Y-122867624D01*
X93649587Y-122815551D01*
G37*
X93649587Y-122815551D02*
X93654359Y-122712953D01*
X93666850Y-122637874D01*
X93689879Y-122582252D01*
X93726268Y-122538025D01*
X93778838Y-122497131D01*
X93812286Y-122478534D01*
X93865902Y-122466009D01*
X93941220Y-122466997D01*
X93983328Y-122470965D01*
X94034121Y-122483080D01*
X94074720Y-122509415D01*
X94121951Y-122558486D01*
X94128262Y-122565654D01*
X94170723Y-122620811D01*
X94190982Y-122668850D01*
X94196154Y-122725816D01*
X94196154Y-122809529D01*
X94137654Y-122787448D01*
X94095006Y-122761636D01*
X94057936Y-122701072D01*
X94050197Y-122681680D01*
X94006926Y-122626765D01*
X93948024Y-122599121D01*
X93883889Y-122601607D01*
X93824923Y-122637077D01*
X93804658Y-122659195D01*
X93786280Y-122692564D01*
X93792029Y-122722883D01*
X93825113Y-122754087D01*
X93888739Y-122790113D01*
X93986115Y-122834897D01*
X94186385Y-122922555D01*
X94191699Y-123009393D01*
X94189353Y-123074337D01*
X94159814Y-123156410D01*
X94122528Y-123201639D01*
X94045224Y-123252162D01*
X93953522Y-123277684D01*
X93858726Y-123275664D01*
X93772141Y-123243560D01*
X93753080Y-123231233D01*
X93709360Y-123193088D01*
X93679460Y-123144833D01*
X93661032Y-123079290D01*
X93651730Y-122989280D01*
X93650501Y-122930052D01*
X93768471Y-122930052D01*
X93773349Y-122983884D01*
X93785636Y-123036527D01*
X93823959Y-123102849D01*
X93879280Y-123140220D01*
X93945360Y-123145279D01*
X94015960Y-123114661D01*
X94035526Y-123099352D01*
X94059217Y-123064704D01*
X94049312Y-123030462D01*
X94004244Y-122993904D01*
X93922443Y-122952308D01*
X93908908Y-122946282D01*
X93844182Y-122918247D01*
X93795753Y-122898528D01*
X93773249Y-122891077D01*
X93769839Y-122896562D01*
X93768471Y-122930052D01*
X93650501Y-122930052D01*
X93649206Y-122867624D01*
X93649587Y-122815551D01*
G36*
X91678794Y-124064730D02*
G01*
X91708908Y-124085944D01*
X91760360Y-124129763D01*
X91828625Y-124192091D01*
X91909180Y-124268830D01*
X91997500Y-124355884D01*
X92289512Y-124648383D01*
X91834640Y-125317475D01*
X91903792Y-125467084D01*
X91903997Y-125467527D01*
X91945523Y-125562899D01*
X91987956Y-125669104D01*
X92022142Y-125763231D01*
X92027316Y-125778412D01*
X92053399Y-125848891D01*
X92076919Y-125903658D01*
X92093323Y-125931921D01*
X92100004Y-125935912D01*
X92140108Y-125949303D01*
X92208205Y-125966627D01*
X92296855Y-125986083D01*
X92398615Y-126005868D01*
X92429096Y-126011449D01*
X92539372Y-126031767D01*
X92642269Y-126050905D01*
X92727431Y-126066930D01*
X92784500Y-126077909D01*
X92887077Y-126098155D01*
X92887077Y-126525299D01*
X92887054Y-126577820D01*
X92886621Y-126705953D01*
X92885341Y-126801580D01*
X92882832Y-126869589D01*
X92878714Y-126914867D01*
X92872605Y-126942303D01*
X92864122Y-126956782D01*
X92852885Y-126963193D01*
X92842006Y-126965791D01*
X92797653Y-126974978D01*
X92726894Y-126989009D01*
X92636926Y-127006514D01*
X92534944Y-127026126D01*
X92428143Y-127046475D01*
X92323719Y-127066193D01*
X92228868Y-127083911D01*
X92150786Y-127098262D01*
X92096668Y-127107876D01*
X92073709Y-127111384D01*
X92072158Y-127113503D01*
X92059675Y-127140994D01*
X92038073Y-127193594D01*
X92010877Y-127262808D01*
X91973134Y-127356063D01*
X91926672Y-127463841D01*
X91883122Y-127558828D01*
X91873142Y-127580149D01*
X91845138Y-127646914D01*
X91828359Y-127698410D01*
X91826146Y-127724905D01*
X91827287Y-127726782D01*
X91845416Y-127754435D01*
X91881356Y-127808151D01*
X91931582Y-127882697D01*
X91992570Y-127972838D01*
X92060795Y-128073343D01*
X92137670Y-128187530D01*
X92195337Y-128276230D01*
X92234574Y-128341279D01*
X92257650Y-128386705D01*
X92266834Y-128416537D01*
X92264396Y-128434805D01*
X92263576Y-128436175D01*
X92241523Y-128462795D01*
X92196564Y-128511303D01*
X92133327Y-128576892D01*
X92056441Y-128654753D01*
X91970535Y-128740078D01*
X91881421Y-128826666D01*
X91794128Y-128908053D01*
X91729982Y-128962965D01*
X91687321Y-128992810D01*
X91664479Y-128998996D01*
X91661495Y-128997606D01*
X91630064Y-128978873D01*
X91573003Y-128942267D01*
X91495657Y-128891303D01*
X91403374Y-128829496D01*
X91301498Y-128760361D01*
X90969407Y-128533580D01*
X90819434Y-128601647D01*
X90815077Y-128603619D01*
X90723000Y-128643509D01*
X90625317Y-128683182D01*
X90542461Y-128714326D01*
X90542095Y-128714455D01*
X90476315Y-128738544D01*
X90425677Y-128758890D01*
X90401116Y-128771099D01*
X90400718Y-128771542D01*
X90392381Y-128796544D01*
X90378659Y-128853402D01*
X90360877Y-128935986D01*
X90340359Y-129038169D01*
X90318429Y-129153822D01*
X90317664Y-129157967D01*
X90295771Y-129275981D01*
X90275719Y-129382849D01*
X90258808Y-129471748D01*
X90246333Y-129535855D01*
X90239594Y-129568346D01*
X90239163Y-129570147D01*
X90234727Y-129584056D01*
X90225737Y-129594511D01*
X90207263Y-129602004D01*
X90174372Y-129607028D01*
X90122132Y-129610078D01*
X90045612Y-129611645D01*
X89939878Y-129612224D01*
X89800000Y-129612308D01*
X89782425Y-129612307D01*
X89646629Y-129612193D01*
X89544424Y-129611528D01*
X89470878Y-129609818D01*
X89421058Y-129606571D01*
X89390033Y-129601294D01*
X89372871Y-129593493D01*
X89364639Y-129582675D01*
X89360406Y-129568346D01*
X89360284Y-129567832D01*
X89353328Y-129534149D01*
X89340680Y-129469083D01*
X89323640Y-129379458D01*
X89303504Y-129272096D01*
X89281571Y-129153822D01*
X89279782Y-129144144D01*
X89257917Y-129029350D01*
X89237570Y-128928520D01*
X89220066Y-128847783D01*
X89206729Y-128793266D01*
X89198884Y-128771099D01*
X89198842Y-128771064D01*
X89174116Y-128758800D01*
X89123369Y-128738424D01*
X89057538Y-128714326D01*
X89053831Y-128713017D01*
X88969669Y-128681209D01*
X88871770Y-128641315D01*
X88780565Y-128601647D01*
X88630593Y-128533580D01*
X88298501Y-128760361D01*
X88275111Y-128776312D01*
X88174920Y-128844110D01*
X88085520Y-128903792D01*
X88012255Y-128951844D01*
X87960473Y-128984750D01*
X87935520Y-128998996D01*
X87918423Y-128995730D01*
X87879605Y-128970429D01*
X87819615Y-128920325D01*
X87736790Y-128844011D01*
X87629465Y-128740078D01*
X87619861Y-128730618D01*
X87534698Y-128645855D01*
X87459051Y-128569063D01*
X87397551Y-128505053D01*
X87354827Y-128458639D01*
X87335511Y-128434631D01*
X87335448Y-128434515D01*
X87332994Y-128416237D01*
X87342044Y-128386589D01*
X87364881Y-128341514D01*
X87403787Y-128276956D01*
X87461046Y-128188860D01*
X87538941Y-128073170D01*
X87552215Y-128053643D01*
X87619348Y-127954722D01*
X87678590Y-127867152D01*
X87726412Y-127796169D01*
X87759285Y-127747009D01*
X87773682Y-127724905D01*
X87774768Y-127720223D01*
X87767956Y-127685290D01*
X87747550Y-127628247D01*
X87716877Y-127558828D01*
X87675192Y-127468041D01*
X87628648Y-127360314D01*
X87589123Y-127262808D01*
X87579324Y-127237570D01*
X87553660Y-127173130D01*
X87534807Y-127128237D01*
X87526290Y-127111384D01*
X87516889Y-127110125D01*
X87474637Y-127102841D01*
X87405479Y-127090261D01*
X87316613Y-127073754D01*
X87215232Y-127054688D01*
X87108533Y-127034431D01*
X87003712Y-127014353D01*
X86907964Y-126995821D01*
X86828484Y-126980205D01*
X86772470Y-126968873D01*
X86747115Y-126963193D01*
X86742912Y-126961592D01*
X86732666Y-126952955D01*
X86725043Y-126934567D01*
X86719662Y-126901540D01*
X86716141Y-126848987D01*
X86714099Y-126772021D01*
X86713153Y-126665754D01*
X86712923Y-126525299D01*
X86712923Y-126098155D01*
X86815500Y-126077909D01*
X86827908Y-126075482D01*
X86893801Y-126062912D01*
X86984916Y-126045830D01*
X87090896Y-126026171D01*
X87201385Y-126005868D01*
X87244895Y-125997701D01*
X87342118Y-125977833D01*
X87423142Y-125959046D01*
X87480523Y-125943141D01*
X87506813Y-125931921D01*
X87518727Y-125913589D01*
X87540417Y-125865084D01*
X87562605Y-125802308D01*
X87570415Y-125778800D01*
X87599165Y-125701634D01*
X87636248Y-125610306D01*
X87675625Y-125519907D01*
X87696685Y-125472690D01*
X87726689Y-125402163D01*
X87747308Y-125349345D01*
X87754974Y-125323088D01*
X87754548Y-125321106D01*
X87740007Y-125293249D01*
X87707217Y-125239490D01*
X87659507Y-125165037D01*
X87600202Y-125075103D01*
X87532631Y-124974896D01*
X87310287Y-124648584D01*
X87602399Y-124355984D01*
X87630651Y-124327829D01*
X87717039Y-124243551D01*
X87794244Y-124170872D01*
X87857742Y-124113888D01*
X87903010Y-124076693D01*
X87925526Y-124063384D01*
X87949977Y-124073510D01*
X88001181Y-124102579D01*
X88073253Y-124147104D01*
X88160540Y-124203589D01*
X88257388Y-124268538D01*
X88352514Y-124332686D01*
X88438331Y-124389173D01*
X88508348Y-124433816D01*
X88557124Y-124463145D01*
X88579217Y-124473692D01*
X88580512Y-124473596D01*
X88609861Y-124463198D01*
X88661907Y-124438988D01*
X88726292Y-124405751D01*
X88726968Y-124405387D01*
X88812479Y-124362559D01*
X88871074Y-124341635D01*
X88907429Y-124341577D01*
X88926225Y-124361346D01*
X88934181Y-124380805D01*
X88955653Y-124432920D01*
X88988727Y-124513036D01*
X89031644Y-124616893D01*
X89082644Y-124740233D01*
X89139967Y-124878799D01*
X89201854Y-125028330D01*
X89257948Y-125164364D01*
X89315023Y-125303950D01*
X89365521Y-125428685D01*
X89407746Y-125534328D01*
X89440005Y-125616635D01*
X89460603Y-125671365D01*
X89467846Y-125694274D01*
X89454014Y-125715282D01*
X89415588Y-125750358D01*
X89361193Y-125791113D01*
X89230605Y-125897733D01*
X89113740Y-126033975D01*
X89028220Y-126183882D01*
X88974569Y-126343029D01*
X88953316Y-126506988D01*
X88964986Y-126671333D01*
X89010106Y-126831639D01*
X89089203Y-126983480D01*
X89202803Y-127122428D01*
X89262035Y-127176540D01*
X89403946Y-127272218D01*
X89555794Y-127334595D01*
X89713139Y-127365156D01*
X89871544Y-127365385D01*
X90026571Y-127336768D01*
X90173780Y-127280790D01*
X90308734Y-127198936D01*
X90426995Y-127092691D01*
X90524123Y-126963541D01*
X90595682Y-126812969D01*
X90637231Y-126642461D01*
X90644857Y-126560278D01*
X90634366Y-126382225D01*
X90587118Y-126213296D01*
X90504511Y-126056478D01*
X90387941Y-125914755D01*
X90238807Y-125791113D01*
X90186439Y-125752018D01*
X90147168Y-125716557D01*
X90132154Y-125694308D01*
X90138141Y-125674912D01*
X90157568Y-125622941D01*
X90188806Y-125542998D01*
X90230161Y-125439327D01*
X90279939Y-125316168D01*
X90336447Y-125177766D01*
X90397991Y-125028363D01*
X90453992Y-124892980D01*
X90511816Y-124753148D01*
X90563500Y-124628128D01*
X90607282Y-124522178D01*
X90641403Y-124439559D01*
X90664102Y-124384528D01*
X90673620Y-124361346D01*
X90673731Y-124361072D01*
X90692772Y-124341497D01*
X90729306Y-124341721D01*
X90788046Y-124362790D01*
X90873708Y-124405751D01*
X90880451Y-124409369D01*
X90944062Y-124441913D01*
X90994293Y-124464950D01*
X91020782Y-124473692D01*
X91042494Y-124463361D01*
X91091016Y-124434212D01*
X91160837Y-124389713D01*
X91246516Y-124333332D01*
X91342612Y-124268538D01*
X91437294Y-124205016D01*
X91524868Y-124148295D01*
X91597358Y-124103453D01*
X91649111Y-124073984D01*
X91674474Y-124063384D01*
X91678794Y-124064730D01*
G37*
X91678794Y-124064730D02*
X91708908Y-124085944D01*
X91760360Y-124129763D01*
X91828625Y-124192091D01*
X91909180Y-124268830D01*
X91997500Y-124355884D01*
X92289512Y-124648383D01*
X91834640Y-125317475D01*
X91903792Y-125467084D01*
X91903997Y-125467527D01*
X91945523Y-125562899D01*
X91987956Y-125669104D01*
X92022142Y-125763231D01*
X92027316Y-125778412D01*
X92053399Y-125848891D01*
X92076919Y-125903658D01*
X92093323Y-125931921D01*
X92100004Y-125935912D01*
X92140108Y-125949303D01*
X92208205Y-125966627D01*
X92296855Y-125986083D01*
X92398615Y-126005868D01*
X92429096Y-126011449D01*
X92539372Y-126031767D01*
X92642269Y-126050905D01*
X92727431Y-126066930D01*
X92784500Y-126077909D01*
X92887077Y-126098155D01*
X92887077Y-126525299D01*
X92887054Y-126577820D01*
X92886621Y-126705953D01*
X92885341Y-126801580D01*
X92882832Y-126869589D01*
X92878714Y-126914867D01*
X92872605Y-126942303D01*
X92864122Y-126956782D01*
X92852885Y-126963193D01*
X92842006Y-126965791D01*
X92797653Y-126974978D01*
X92726894Y-126989009D01*
X92636926Y-127006514D01*
X92534944Y-127026126D01*
X92428143Y-127046475D01*
X92323719Y-127066193D01*
X92228868Y-127083911D01*
X92150786Y-127098262D01*
X92096668Y-127107876D01*
X92073709Y-127111384D01*
X92072158Y-127113503D01*
X92059675Y-127140994D01*
X92038073Y-127193594D01*
X92010877Y-127262808D01*
X91973134Y-127356063D01*
X91926672Y-127463841D01*
X91883122Y-127558828D01*
X91873142Y-127580149D01*
X91845138Y-127646914D01*
X91828359Y-127698410D01*
X91826146Y-127724905D01*
X91827287Y-127726782D01*
X91845416Y-127754435D01*
X91881356Y-127808151D01*
X91931582Y-127882697D01*
X91992570Y-127972838D01*
X92060795Y-128073343D01*
X92137670Y-128187530D01*
X92195337Y-128276230D01*
X92234574Y-128341279D01*
X92257650Y-128386705D01*
X92266834Y-128416537D01*
X92264396Y-128434805D01*
X92263576Y-128436175D01*
X92241523Y-128462795D01*
X92196564Y-128511303D01*
X92133327Y-128576892D01*
X92056441Y-128654753D01*
X91970535Y-128740078D01*
X91881421Y-128826666D01*
X91794128Y-128908053D01*
X91729982Y-128962965D01*
X91687321Y-128992810D01*
X91664479Y-128998996D01*
X91661495Y-128997606D01*
X91630064Y-128978873D01*
X91573003Y-128942267D01*
X91495657Y-128891303D01*
X91403374Y-128829496D01*
X91301498Y-128760361D01*
X90969407Y-128533580D01*
X90819434Y-128601647D01*
X90815077Y-128603619D01*
X90723000Y-128643509D01*
X90625317Y-128683182D01*
X90542461Y-128714326D01*
X90542095Y-128714455D01*
X90476315Y-128738544D01*
X90425677Y-128758890D01*
X90401116Y-128771099D01*
X90400718Y-128771542D01*
X90392381Y-128796544D01*
X90378659Y-128853402D01*
X90360877Y-128935986D01*
X90340359Y-129038169D01*
X90318429Y-129153822D01*
X90317664Y-129157967D01*
X90295771Y-129275981D01*
X90275719Y-129382849D01*
X90258808Y-129471748D01*
X90246333Y-129535855D01*
X90239594Y-129568346D01*
X90239163Y-129570147D01*
X90234727Y-129584056D01*
X90225737Y-129594511D01*
X90207263Y-129602004D01*
X90174372Y-129607028D01*
X90122132Y-129610078D01*
X90045612Y-129611645D01*
X89939878Y-129612224D01*
X89800000Y-129612308D01*
X89782425Y-129612307D01*
X89646629Y-129612193D01*
X89544424Y-129611528D01*
X89470878Y-129609818D01*
X89421058Y-129606571D01*
X89390033Y-129601294D01*
X89372871Y-129593493D01*
X89364639Y-129582675D01*
X89360406Y-129568346D01*
X89360284Y-129567832D01*
X89353328Y-129534149D01*
X89340680Y-129469083D01*
X89323640Y-129379458D01*
X89303504Y-129272096D01*
X89281571Y-129153822D01*
X89279782Y-129144144D01*
X89257917Y-129029350D01*
X89237570Y-128928520D01*
X89220066Y-128847783D01*
X89206729Y-128793266D01*
X89198884Y-128771099D01*
X89198842Y-128771064D01*
X89174116Y-128758800D01*
X89123369Y-128738424D01*
X89057538Y-128714326D01*
X89053831Y-128713017D01*
X88969669Y-128681209D01*
X88871770Y-128641315D01*
X88780565Y-128601647D01*
X88630593Y-128533580D01*
X88298501Y-128760361D01*
X88275111Y-128776312D01*
X88174920Y-128844110D01*
X88085520Y-128903792D01*
X88012255Y-128951844D01*
X87960473Y-128984750D01*
X87935520Y-128998996D01*
X87918423Y-128995730D01*
X87879605Y-128970429D01*
X87819615Y-128920325D01*
X87736790Y-128844011D01*
X87629465Y-128740078D01*
X87619861Y-128730618D01*
X87534698Y-128645855D01*
X87459051Y-128569063D01*
X87397551Y-128505053D01*
X87354827Y-128458639D01*
X87335511Y-128434631D01*
X87335448Y-128434515D01*
X87332994Y-128416237D01*
X87342044Y-128386589D01*
X87364881Y-128341514D01*
X87403787Y-128276956D01*
X87461046Y-128188860D01*
X87538941Y-128073170D01*
X87552215Y-128053643D01*
X87619348Y-127954722D01*
X87678590Y-127867152D01*
X87726412Y-127796169D01*
X87759285Y-127747009D01*
X87773682Y-127724905D01*
X87774768Y-127720223D01*
X87767956Y-127685290D01*
X87747550Y-127628247D01*
X87716877Y-127558828D01*
X87675192Y-127468041D01*
X87628648Y-127360314D01*
X87589123Y-127262808D01*
X87579324Y-127237570D01*
X87553660Y-127173130D01*
X87534807Y-127128237D01*
X87526290Y-127111384D01*
X87516889Y-127110125D01*
X87474637Y-127102841D01*
X87405479Y-127090261D01*
X87316613Y-127073754D01*
X87215232Y-127054688D01*
X87108533Y-127034431D01*
X87003712Y-127014353D01*
X86907964Y-126995821D01*
X86828484Y-126980205D01*
X86772470Y-126968873D01*
X86747115Y-126963193D01*
X86742912Y-126961592D01*
X86732666Y-126952955D01*
X86725043Y-126934567D01*
X86719662Y-126901540D01*
X86716141Y-126848987D01*
X86714099Y-126772021D01*
X86713153Y-126665754D01*
X86712923Y-126525299D01*
X86712923Y-126098155D01*
X86815500Y-126077909D01*
X86827908Y-126075482D01*
X86893801Y-126062912D01*
X86984916Y-126045830D01*
X87090896Y-126026171D01*
X87201385Y-126005868D01*
X87244895Y-125997701D01*
X87342118Y-125977833D01*
X87423142Y-125959046D01*
X87480523Y-125943141D01*
X87506813Y-125931921D01*
X87518727Y-125913589D01*
X87540417Y-125865084D01*
X87562605Y-125802308D01*
X87570415Y-125778800D01*
X87599165Y-125701634D01*
X87636248Y-125610306D01*
X87675625Y-125519907D01*
X87696685Y-125472690D01*
X87726689Y-125402163D01*
X87747308Y-125349345D01*
X87754974Y-125323088D01*
X87754548Y-125321106D01*
X87740007Y-125293249D01*
X87707217Y-125239490D01*
X87659507Y-125165037D01*
X87600202Y-125075103D01*
X87532631Y-124974896D01*
X87310287Y-124648584D01*
X87602399Y-124355984D01*
X87630651Y-124327829D01*
X87717039Y-124243551D01*
X87794244Y-124170872D01*
X87857742Y-124113888D01*
X87903010Y-124076693D01*
X87925526Y-124063384D01*
X87949977Y-124073510D01*
X88001181Y-124102579D01*
X88073253Y-124147104D01*
X88160540Y-124203589D01*
X88257388Y-124268538D01*
X88352514Y-124332686D01*
X88438331Y-124389173D01*
X88508348Y-124433816D01*
X88557124Y-124463145D01*
X88579217Y-124473692D01*
X88580512Y-124473596D01*
X88609861Y-124463198D01*
X88661907Y-124438988D01*
X88726292Y-124405751D01*
X88726968Y-124405387D01*
X88812479Y-124362559D01*
X88871074Y-124341635D01*
X88907429Y-124341577D01*
X88926225Y-124361346D01*
X88934181Y-124380805D01*
X88955653Y-124432920D01*
X88988727Y-124513036D01*
X89031644Y-124616893D01*
X89082644Y-124740233D01*
X89139967Y-124878799D01*
X89201854Y-125028330D01*
X89257948Y-125164364D01*
X89315023Y-125303950D01*
X89365521Y-125428685D01*
X89407746Y-125534328D01*
X89440005Y-125616635D01*
X89460603Y-125671365D01*
X89467846Y-125694274D01*
X89454014Y-125715282D01*
X89415588Y-125750358D01*
X89361193Y-125791113D01*
X89230605Y-125897733D01*
X89113740Y-126033975D01*
X89028220Y-126183882D01*
X88974569Y-126343029D01*
X88953316Y-126506988D01*
X88964986Y-126671333D01*
X89010106Y-126831639D01*
X89089203Y-126983480D01*
X89202803Y-127122428D01*
X89262035Y-127176540D01*
X89403946Y-127272218D01*
X89555794Y-127334595D01*
X89713139Y-127365156D01*
X89871544Y-127365385D01*
X90026571Y-127336768D01*
X90173780Y-127280790D01*
X90308734Y-127198936D01*
X90426995Y-127092691D01*
X90524123Y-126963541D01*
X90595682Y-126812969D01*
X90637231Y-126642461D01*
X90644857Y-126560278D01*
X90634366Y-126382225D01*
X90587118Y-126213296D01*
X90504511Y-126056478D01*
X90387941Y-125914755D01*
X90238807Y-125791113D01*
X90186439Y-125752018D01*
X90147168Y-125716557D01*
X90132154Y-125694308D01*
X90138141Y-125674912D01*
X90157568Y-125622941D01*
X90188806Y-125542998D01*
X90230161Y-125439327D01*
X90279939Y-125316168D01*
X90336447Y-125177766D01*
X90397991Y-125028363D01*
X90453992Y-124892980D01*
X90511816Y-124753148D01*
X90563500Y-124628128D01*
X90607282Y-124522178D01*
X90641403Y-124439559D01*
X90664102Y-124384528D01*
X90673620Y-124361346D01*
X90673731Y-124361072D01*
X90692772Y-124341497D01*
X90729306Y-124341721D01*
X90788046Y-124362790D01*
X90873708Y-124405751D01*
X90880451Y-124409369D01*
X90944062Y-124441913D01*
X90994293Y-124464950D01*
X91020782Y-124473692D01*
X91042494Y-124463361D01*
X91091016Y-124434212D01*
X91160837Y-124389713D01*
X91246516Y-124333332D01*
X91342612Y-124268538D01*
X91437294Y-124205016D01*
X91524868Y-124148295D01*
X91597358Y-124103453D01*
X91649111Y-124073984D01*
X91674474Y-124063384D01*
X91678794Y-124064730D01*
%LPC*%
G36*
G01*
X103130000Y-113899000D02*
X104830000Y-113899000D01*
G75*
G02*
X104881000Y-113950000I0J-51000D01*
G01*
X104881000Y-115650000D01*
G75*
G02*
X104830000Y-115701000I-51000J0D01*
G01*
X103130000Y-115701000D01*
G75*
G02*
X103079000Y-115650000I0J51000D01*
G01*
X103079000Y-113950000D01*
G75*
G02*
X103130000Y-113899000I51000J0D01*
G01*
G37*
D13*
X101440000Y-114800000D03*
X98900000Y-114800000D03*
X96360000Y-114800000D03*
X93820000Y-114800000D03*
D14*
X130120000Y-139600000D03*
G36*
G01*
X126529510Y-140599490D02*
X126529510Y-138600510D01*
G75*
G02*
X126580510Y-138549510I51000J0D01*
G01*
X128579490Y-138549510D01*
G75*
G02*
X128630490Y-138600510I0J-51000D01*
G01*
X128630490Y-140599490D01*
G75*
G02*
X128579490Y-140650490I-51000J0D01*
G01*
X126580510Y-140650490D01*
G75*
G02*
X126529510Y-140599490I0J51000D01*
G01*
G37*
X125040000Y-139600000D03*
G36*
G01*
X118470490Y-138600510D02*
X118470490Y-140599490D01*
G75*
G02*
X118419490Y-140650490I-51000J0D01*
G01*
X116420510Y-140650490D01*
G75*
G02*
X116369510Y-140599490I0J51000D01*
G01*
X116369510Y-138600510D01*
G75*
G02*
X116420510Y-138549510I51000J0D01*
G01*
X118419490Y-138549510D01*
G75*
G02*
X118470490Y-138600510I0J-51000D01*
G01*
G37*
X119960000Y-139600000D03*
X122500000Y-139600000D03*
X114880000Y-139600000D03*
G36*
G01*
X108310490Y-138600510D02*
X108310490Y-140599490D01*
G75*
G02*
X108259490Y-140650490I-51000J0D01*
G01*
X106260510Y-140650490D01*
G75*
G02*
X106209510Y-140599490I0J51000D01*
G01*
X106209510Y-138600510D01*
G75*
G02*
X106260510Y-138549510I51000J0D01*
G01*
X108259490Y-138549510D01*
G75*
G02*
X108310490Y-138600510I0J-51000D01*
G01*
G37*
X109800000Y-139600000D03*
X112340000Y-139600000D03*
D15*
X134500000Y-139150000D03*
X140100000Y-139150000D03*
D16*
X137300000Y-141300000D03*
G36*
G01*
X93449000Y-143000000D02*
X93449000Y-138800000D01*
G75*
G02*
X93500000Y-138749000I51000J0D01*
G01*
X94850000Y-138749000D01*
G75*
G02*
X94901000Y-138800000I0J-51000D01*
G01*
X94901000Y-143000000D01*
G75*
G02*
X94850000Y-143051000I-51000J0D01*
G01*
X93500000Y-143051000D01*
G75*
G02*
X93449000Y-143000000I0J51000D01*
G01*
G37*
G36*
G01*
X99099000Y-143000000D02*
X99099000Y-138800000D01*
G75*
G02*
X99150000Y-138749000I51000J0D01*
G01*
X100500000Y-138749000D01*
G75*
G02*
X100551000Y-138800000I0J-51000D01*
G01*
X100551000Y-143000000D01*
G75*
G02*
X100500000Y-143051000I-51000J0D01*
G01*
X99150000Y-143051000D01*
G75*
G02*
X99099000Y-143000000I0J51000D01*
G01*
G37*
D17*
X88000000Y-139900000D03*
X88000000Y-115000000D03*
X145000000Y-139900000D03*
X145000000Y-115000000D03*
M02*
