M48
; DRILL file {KiCad 5.99.0-unknown-acdfeee~88~ubuntu18.04.1} date Wed May 13 21:49:36 2020
; FORMAT={-:-/ absolute / metric / decimal}
; #@! TF.CreationDate,2020-05-13T21:49:36+03:00
; #@! TF.GenerationSoftware,Kicad,Pcbnew,5.99.0-unknown-acdfeee~88~ubuntu18.04.1
FMAT,2
METRIC
T1C0.400
T2C0.500
T3C1.000
T4C1.097
T5C0.889
T6C3.200
%
G90
G05
T1
X85.8Y-134.9
X86.0Y-113.0
X86.0Y-118.0
X86.0Y-120.0
X86.0Y-124.0
X86.0Y-126.0
X86.0Y-128.0
X86.0Y-138.0
X87.297Y-130.91
X88.5Y-118.8
X90.2Y-133.1
X90.73Y-135.435
X91.0Y-113.0
X91.0Y-117.0
X91.0Y-142.0
X92.044Y-118.812
X92.5Y-131.9
X92.5Y-137.6
X92.5Y-138.6
X92.5Y-139.6
X92.5Y-140.6
X92.6Y-142.4
X93.0Y-113.0
X93.5Y-121.2
X93.5Y-137.6
X93.6Y-129.6
X94.5Y-137.6
X95.0Y-113.0
X95.6Y-134.1
X95.6Y-135.1
X95.6Y-136.1
X95.6Y-137.2
X95.6Y-138.4
X95.6Y-139.4
X95.6Y-140.4
X95.6Y-141.4
X95.6Y-142.4
X95.7Y-131.7
X97.0Y-113.0
X98.2Y-131.7
X98.4Y-134.1
X98.4Y-135.1
X98.4Y-136.1
X98.4Y-137.2
X98.4Y-138.4
X98.4Y-139.4
X98.4Y-140.4
X98.4Y-141.4
X98.4Y-142.4
X99.0Y-113.0
X99.4Y-137.6
X100.4Y-137.6
X101.0Y-113.0
X101.4Y-137.6
X101.4Y-138.6
X101.4Y-139.6
X101.4Y-140.6
X101.4Y-142.4
X102.6Y-140.9
X103.0Y-113.0
X103.0Y-131.7
X103.9Y-119.2
X104.2Y-121.5
X104.2Y-131.7
X105.0Y-113.0
X105.0Y-122.2
X105.2Y-124.5
X105.2Y-125.7
X106.3Y-120.4
X106.4Y-129.5
X106.4Y-133.6
X106.5Y-135.7
X107.0Y-113.0
X107.0Y-142.0
X108.1Y-118.6
X108.5Y-119.9
X108.5Y-121.1
X109.0Y-113.0
X109.0Y-142.0
X109.1Y-122.7
X109.2Y-125.8
X109.2Y-131.0
X110.1Y-128.3
X110.3Y-121.9
X110.8Y-126.0
X111.0Y-113.0
X111.0Y-136.7
X111.0Y-137.8
X111.0Y-142.0
X112.5Y-133.9
X112.6Y-124.5
X113.0Y-113.0
X113.0Y-142.0
X113.9Y-125.3
X115.0Y-113.0
X115.0Y-142.0
X116.0Y-127.5
X116.3Y-131.1
X117.0Y-113.0
X117.0Y-142.0
X117.8Y-127.5
X117.8Y-131.1
X119.0Y-113.0
X119.0Y-142.0
X119.9Y-124.1
X120.6Y-136.5
X120.8Y-131.7
X121.0Y-113.0
X121.0Y-142.0
X122.0Y-131.7
X123.0Y-113.0
X123.0Y-142.0
X125.0Y-113.0
X125.0Y-142.0
X127.0Y-113.0
X127.0Y-142.0
X127.6Y-131.5
X127.6Y-132.3
X128.4Y-131.9
X128.4Y-132.7
X129.0Y-113.0
X129.0Y-142.0
X131.0Y-113.0
X131.0Y-142.0
X131.565Y-130.25
X131.6Y-131.0
X133.0Y-113.0
X133.0Y-142.0
X133.8Y-131.6
X134.0Y-126.1
X134.2Y-130.4
X134.65Y-129.15
X135.0Y-142.0
X137.3Y-135.774
X138.0Y-113.0
X138.3Y-126.8
X139.0Y-142.0
X141.0Y-142.0
X142.0Y-113.0
X143.0Y-142.0
X147.0Y-113.0
X147.0Y-118.0
X147.0Y-120.0
X147.0Y-122.0
X147.0Y-124.0
X147.0Y-126.0
X147.0Y-128.0
X147.0Y-130.0
X147.0Y-132.0
X147.0Y-134.0
X147.0Y-136.0
X147.0Y-138.0
X147.0Y-142.0
T3
X93.82Y-114.8
X96.36Y-114.8
X98.9Y-114.8
X101.44Y-114.8
X103.98Y-114.8
T4
X117.42Y-139.6
X119.96Y-139.6
X122.5Y-139.6
X125.04Y-139.6
X107.26Y-139.6
X109.8Y-139.6
X112.34Y-139.6
X114.88Y-139.6
X127.58Y-139.6
X130.12Y-139.6
T5
X86.92Y-133.784
X86.92Y-135.816
X92.0Y-134.8
T6
X88.0Y-115.0
X145.0Y-139.9
X88.0Y-139.9
X145.0Y-115.0
T2
G00X134.15Y-139.15
M15
G01X134.85Y-139.15
M16
G05
G00X136.75Y-141.3
M15
G01X137.85Y-141.3
M16
G05
G00X139.75Y-139.15
M15
G01X140.45Y-139.15
M16
G05
T0
M30
