G04 #@! TF.GenerationSoftware,KiCad,Pcbnew,5.99.0-unknown-acdfeee~88~ubuntu18.04.1*
G04 #@! TF.CreationDate,2020-05-13T21:49:14+03:00*
G04 #@! TF.ProjectId,LoRaNode,4c6f5261-4e6f-4646-952e-6b696361645f,1.1*
G04 #@! TF.SameCoordinates,Original*
G04 #@! TF.FileFunction,Paste,Top*
G04 #@! TF.FilePolarity,Positive*
%FSLAX46Y46*%
G04 Gerber Fmt 4.6, Leading zero omitted, Abs format (unit mm)*
G04 Created by KiCad (PCBNEW 5.99.0-unknown-acdfeee~88~ubuntu18.04.1) date 2020-05-13 21:49:14*
%MOMM*%
%LPD*%
G01*
G04 APERTURE LIST*
%ADD10R,1.300000X1.300000*%
%ADD11R,0.450000X1.500000*%
%ADD12O,1.800000X1.100000*%
%ADD13O,2.200000X1.100000*%
%ADD14R,0.450000X0.600000*%
%ADD15R,1.200000X0.900000*%
%ADD16R,0.900000X0.800000*%
%ADD17R,1.100000X1.100000*%
%ADD18R,0.500000X0.660000*%
%ADD19R,0.800000X0.900000*%
%ADD20R,1.060000X0.650000*%
%ADD21R,1.300000X1.550000*%
%ADD22R,0.660000X0.500000*%
G04 APERTURE END LIST*
G36*
G01*
X96843750Y-136650000D02*
X97356250Y-136650000D01*
G75*
G02*
X97575000Y-136868750I0J-218750D01*
G01*
X97575000Y-137306250D01*
G75*
G02*
X97356250Y-137525000I-218750J0D01*
G01*
X96843750Y-137525000D01*
G75*
G02*
X96625000Y-137306250I0J218750D01*
G01*
X96625000Y-136868750D01*
G75*
G02*
X96843750Y-136650000I218750J0D01*
G01*
G37*
G36*
G01*
X96843750Y-135075000D02*
X97356250Y-135075000D01*
G75*
G02*
X97575000Y-135293750I0J-218750D01*
G01*
X97575000Y-135731250D01*
G75*
G02*
X97356250Y-135950000I-218750J0D01*
G01*
X96843750Y-135950000D01*
G75*
G02*
X96625000Y-135731250I0J218750D01*
G01*
X96625000Y-135293750D01*
G75*
G02*
X96843750Y-135075000I218750J0D01*
G01*
G37*
G36*
G01*
X92975000Y-121065000D02*
X92975000Y-121415000D01*
G75*
G02*
X92800000Y-121590000I-175000J0D01*
G01*
X92200000Y-121590000D01*
G75*
G02*
X92025000Y-121415000I0J175000D01*
G01*
X92025000Y-121065000D01*
G75*
G02*
X92200000Y-120890000I175000J0D01*
G01*
X92800000Y-120890000D01*
G75*
G02*
X92975000Y-121065000I0J-175000D01*
G01*
G37*
G36*
G01*
X92975000Y-122265000D02*
X92975000Y-122615000D01*
G75*
G02*
X92800000Y-122790000I-175000J0D01*
G01*
X92200000Y-122790000D01*
G75*
G02*
X92025000Y-122615000I0J175000D01*
G01*
X92025000Y-122265000D01*
G75*
G02*
X92200000Y-122090000I175000J0D01*
G01*
X92800000Y-122090000D01*
G75*
G02*
X92975000Y-122265000I0J-175000D01*
G01*
G37*
G36*
G01*
X92975000Y-123465000D02*
X92975000Y-123815000D01*
G75*
G02*
X92800000Y-123990000I-175000J0D01*
G01*
X92200000Y-123990000D01*
G75*
G02*
X92025000Y-123815000I0J175000D01*
G01*
X92025000Y-123465000D01*
G75*
G02*
X92200000Y-123290000I175000J0D01*
G01*
X92800000Y-123290000D01*
G75*
G02*
X92975000Y-123465000I0J-175000D01*
G01*
G37*
G36*
G01*
X92975000Y-124665000D02*
X92975000Y-125015000D01*
G75*
G02*
X92800000Y-125190000I-175000J0D01*
G01*
X92200000Y-125190000D01*
G75*
G02*
X92025000Y-125015000I0J175000D01*
G01*
X92025000Y-124665000D01*
G75*
G02*
X92200000Y-124490000I175000J0D01*
G01*
X92800000Y-124490000D01*
G75*
G02*
X92975000Y-124665000I0J-175000D01*
G01*
G37*
G36*
G01*
X92975000Y-125865000D02*
X92975000Y-126215000D01*
G75*
G02*
X92800000Y-126390000I-175000J0D01*
G01*
X92200000Y-126390000D01*
G75*
G02*
X92025000Y-126215000I0J175000D01*
G01*
X92025000Y-125865000D01*
G75*
G02*
X92200000Y-125690000I175000J0D01*
G01*
X92800000Y-125690000D01*
G75*
G02*
X92975000Y-125865000I0J-175000D01*
G01*
G37*
G36*
G01*
X92975000Y-127065000D02*
X92975000Y-127415000D01*
G75*
G02*
X92800000Y-127590000I-175000J0D01*
G01*
X92200000Y-127590000D01*
G75*
G02*
X92025000Y-127415000I0J175000D01*
G01*
X92025000Y-127065000D01*
G75*
G02*
X92200000Y-126890000I175000J0D01*
G01*
X92800000Y-126890000D01*
G75*
G02*
X92975000Y-127065000I0J-175000D01*
G01*
G37*
G36*
G01*
X92975000Y-128265000D02*
X92975000Y-128615000D01*
G75*
G02*
X92800000Y-128790000I-175000J0D01*
G01*
X92200000Y-128790000D01*
G75*
G02*
X92025000Y-128615000I0J175000D01*
G01*
X92025000Y-128265000D01*
G75*
G02*
X92200000Y-128090000I175000J0D01*
G01*
X92800000Y-128090000D01*
G75*
G02*
X92975000Y-128265000I0J-175000D01*
G01*
G37*
G36*
G01*
X92975000Y-129465000D02*
X92975000Y-129815000D01*
G75*
G02*
X92800000Y-129990000I-175000J0D01*
G01*
X92200000Y-129990000D01*
G75*
G02*
X92025000Y-129815000I0J175000D01*
G01*
X92025000Y-129465000D01*
G75*
G02*
X92200000Y-129290000I175000J0D01*
G01*
X92800000Y-129290000D01*
G75*
G02*
X92975000Y-129465000I0J-175000D01*
G01*
G37*
G36*
G01*
X92975000Y-130665000D02*
X92975000Y-131015000D01*
G75*
G02*
X92800000Y-131190000I-175000J0D01*
G01*
X92200000Y-131190000D01*
G75*
G02*
X92025000Y-131015000I0J175000D01*
G01*
X92025000Y-130665000D01*
G75*
G02*
X92200000Y-130490000I175000J0D01*
G01*
X92800000Y-130490000D01*
G75*
G02*
X92975000Y-130665000I0J-175000D01*
G01*
G37*
G36*
G01*
X104075000Y-117325000D02*
X104425000Y-117325000D01*
G75*
G02*
X104600000Y-117500000I0J-175000D01*
G01*
X104600000Y-118100000D01*
G75*
G02*
X104425000Y-118275000I-175000J0D01*
G01*
X104075000Y-118275000D01*
G75*
G02*
X103900000Y-118100000I0J175000D01*
G01*
X103900000Y-117500000D01*
G75*
G02*
X104075000Y-117325000I175000J0D01*
G01*
G37*
G36*
G01*
X102875000Y-117325000D02*
X103225000Y-117325000D01*
G75*
G02*
X103400000Y-117500000I0J-175000D01*
G01*
X103400000Y-118100000D01*
G75*
G02*
X103225000Y-118275000I-175000J0D01*
G01*
X102875000Y-118275000D01*
G75*
G02*
X102700000Y-118100000I0J175000D01*
G01*
X102700000Y-117500000D01*
G75*
G02*
X102875000Y-117325000I175000J0D01*
G01*
G37*
G36*
G01*
X101675000Y-117325000D02*
X102025000Y-117325000D01*
G75*
G02*
X102200000Y-117500000I0J-175000D01*
G01*
X102200000Y-118100000D01*
G75*
G02*
X102025000Y-118275000I-175000J0D01*
G01*
X101675000Y-118275000D01*
G75*
G02*
X101500000Y-118100000I0J175000D01*
G01*
X101500000Y-117500000D01*
G75*
G02*
X101675000Y-117325000I175000J0D01*
G01*
G37*
G36*
G01*
X100475000Y-117325000D02*
X100825000Y-117325000D01*
G75*
G02*
X101000000Y-117500000I0J-175000D01*
G01*
X101000000Y-118100000D01*
G75*
G02*
X100825000Y-118275000I-175000J0D01*
G01*
X100475000Y-118275000D01*
G75*
G02*
X100300000Y-118100000I0J175000D01*
G01*
X100300000Y-117500000D01*
G75*
G02*
X100475000Y-117325000I175000J0D01*
G01*
G37*
G36*
G01*
X99275000Y-117325000D02*
X99625000Y-117325000D01*
G75*
G02*
X99800000Y-117500000I0J-175000D01*
G01*
X99800000Y-118100000D01*
G75*
G02*
X99625000Y-118275000I-175000J0D01*
G01*
X99275000Y-118275000D01*
G75*
G02*
X99100000Y-118100000I0J175000D01*
G01*
X99100000Y-117500000D01*
G75*
G02*
X99275000Y-117325000I175000J0D01*
G01*
G37*
G36*
G01*
X98075000Y-117325000D02*
X98425000Y-117325000D01*
G75*
G02*
X98600000Y-117500000I0J-175000D01*
G01*
X98600000Y-118100000D01*
G75*
G02*
X98425000Y-118275000I-175000J0D01*
G01*
X98075000Y-118275000D01*
G75*
G02*
X97900000Y-118100000I0J175000D01*
G01*
X97900000Y-117500000D01*
G75*
G02*
X98075000Y-117325000I175000J0D01*
G01*
G37*
G36*
G01*
X96875000Y-117325000D02*
X97225000Y-117325000D01*
G75*
G02*
X97400000Y-117500000I0J-175000D01*
G01*
X97400000Y-118100000D01*
G75*
G02*
X97225000Y-118275000I-175000J0D01*
G01*
X96875000Y-118275000D01*
G75*
G02*
X96700000Y-118100000I0J175000D01*
G01*
X96700000Y-117500000D01*
G75*
G02*
X96875000Y-117325000I175000J0D01*
G01*
G37*
G36*
G01*
X95675000Y-117325000D02*
X96025000Y-117325000D01*
G75*
G02*
X96200000Y-117500000I0J-175000D01*
G01*
X96200000Y-118100000D01*
G75*
G02*
X96025000Y-118275000I-175000J0D01*
G01*
X95675000Y-118275000D01*
G75*
G02*
X95500000Y-118100000I0J175000D01*
G01*
X95500000Y-117500000D01*
G75*
G02*
X95675000Y-117325000I175000J0D01*
G01*
G37*
G36*
G01*
X94475000Y-117325000D02*
X94825000Y-117325000D01*
G75*
G02*
X95000000Y-117500000I0J-175000D01*
G01*
X95000000Y-118100000D01*
G75*
G02*
X94825000Y-118275000I-175000J0D01*
G01*
X94475000Y-118275000D01*
G75*
G02*
X94300000Y-118100000I0J175000D01*
G01*
X94300000Y-117500000D01*
G75*
G02*
X94475000Y-117325000I175000J0D01*
G01*
G37*
G36*
G01*
X107975000Y-119725000D02*
X107975000Y-120075000D01*
G75*
G02*
X107800000Y-120250000I-175000J0D01*
G01*
X107200000Y-120250000D01*
G75*
G02*
X107025000Y-120075000I0J175000D01*
G01*
X107025000Y-119725000D01*
G75*
G02*
X107200000Y-119550000I175000J0D01*
G01*
X107800000Y-119550000D01*
G75*
G02*
X107975000Y-119725000I0J-175000D01*
G01*
G37*
G36*
G01*
X107975000Y-120925000D02*
X107975000Y-121275000D01*
G75*
G02*
X107800000Y-121450000I-175000J0D01*
G01*
X107200000Y-121450000D01*
G75*
G02*
X107025000Y-121275000I0J175000D01*
G01*
X107025000Y-120925000D01*
G75*
G02*
X107200000Y-120750000I175000J0D01*
G01*
X107800000Y-120750000D01*
G75*
G02*
X107975000Y-120925000I0J-175000D01*
G01*
G37*
G36*
G01*
X107975000Y-122125000D02*
X107975000Y-122475000D01*
G75*
G02*
X107800000Y-122650000I-175000J0D01*
G01*
X107200000Y-122650000D01*
G75*
G02*
X107025000Y-122475000I0J175000D01*
G01*
X107025000Y-122125000D01*
G75*
G02*
X107200000Y-121950000I175000J0D01*
G01*
X107800000Y-121950000D01*
G75*
G02*
X107975000Y-122125000I0J-175000D01*
G01*
G37*
G36*
G01*
X107975000Y-123325000D02*
X107975000Y-123675000D01*
G75*
G02*
X107800000Y-123850000I-175000J0D01*
G01*
X107200000Y-123850000D01*
G75*
G02*
X107025000Y-123675000I0J175000D01*
G01*
X107025000Y-123325000D01*
G75*
G02*
X107200000Y-123150000I175000J0D01*
G01*
X107800000Y-123150000D01*
G75*
G02*
X107975000Y-123325000I0J-175000D01*
G01*
G37*
G36*
G01*
X107975000Y-124525000D02*
X107975000Y-124875000D01*
G75*
G02*
X107800000Y-125050000I-175000J0D01*
G01*
X107200000Y-125050000D01*
G75*
G02*
X107025000Y-124875000I0J175000D01*
G01*
X107025000Y-124525000D01*
G75*
G02*
X107200000Y-124350000I175000J0D01*
G01*
X107800000Y-124350000D01*
G75*
G02*
X107975000Y-124525000I0J-175000D01*
G01*
G37*
G36*
G01*
X107975000Y-125725000D02*
X107975000Y-126075000D01*
G75*
G02*
X107800000Y-126250000I-175000J0D01*
G01*
X107200000Y-126250000D01*
G75*
G02*
X107025000Y-126075000I0J175000D01*
G01*
X107025000Y-125725000D01*
G75*
G02*
X107200000Y-125550000I175000J0D01*
G01*
X107800000Y-125550000D01*
G75*
G02*
X107975000Y-125725000I0J-175000D01*
G01*
G37*
G36*
G01*
X107975000Y-126925000D02*
X107975000Y-127275000D01*
G75*
G02*
X107800000Y-127450000I-175000J0D01*
G01*
X107200000Y-127450000D01*
G75*
G02*
X107025000Y-127275000I0J175000D01*
G01*
X107025000Y-126925000D01*
G75*
G02*
X107200000Y-126750000I175000J0D01*
G01*
X107800000Y-126750000D01*
G75*
G02*
X107975000Y-126925000I0J-175000D01*
G01*
G37*
G36*
G01*
X107975000Y-128125000D02*
X107975000Y-128475000D01*
G75*
G02*
X107800000Y-128650000I-175000J0D01*
G01*
X107200000Y-128650000D01*
G75*
G02*
X107025000Y-128475000I0J175000D01*
G01*
X107025000Y-128125000D01*
G75*
G02*
X107200000Y-127950000I175000J0D01*
G01*
X107800000Y-127950000D01*
G75*
G02*
X107975000Y-128125000I0J-175000D01*
G01*
G37*
G36*
G01*
X107975000Y-129325000D02*
X107975000Y-129675000D01*
G75*
G02*
X107800000Y-129850000I-175000J0D01*
G01*
X107200000Y-129850000D01*
G75*
G02*
X107025000Y-129675000I0J175000D01*
G01*
X107025000Y-129325000D01*
G75*
G02*
X107200000Y-129150000I175000J0D01*
G01*
X107800000Y-129150000D01*
G75*
G02*
X107975000Y-129325000I0J-175000D01*
G01*
G37*
G36*
G01*
X105555000Y-133275000D02*
X105205000Y-133275000D01*
G75*
G02*
X105030000Y-133100000I0J175000D01*
G01*
X105030000Y-132500000D01*
G75*
G02*
X105205000Y-132325000I175000J0D01*
G01*
X105555000Y-132325000D01*
G75*
G02*
X105730000Y-132500000I0J-175000D01*
G01*
X105730000Y-133100000D01*
G75*
G02*
X105555000Y-133275000I-175000J0D01*
G01*
G37*
G36*
G01*
X104355000Y-133275000D02*
X104005000Y-133275000D01*
G75*
G02*
X103830000Y-133100000I0J175000D01*
G01*
X103830000Y-132500000D01*
G75*
G02*
X104005000Y-132325000I175000J0D01*
G01*
X104355000Y-132325000D01*
G75*
G02*
X104530000Y-132500000I0J-175000D01*
G01*
X104530000Y-133100000D01*
G75*
G02*
X104355000Y-133275000I-175000J0D01*
G01*
G37*
G36*
G01*
X103155000Y-133275000D02*
X102805000Y-133275000D01*
G75*
G02*
X102630000Y-133100000I0J175000D01*
G01*
X102630000Y-132500000D01*
G75*
G02*
X102805000Y-132325000I175000J0D01*
G01*
X103155000Y-132325000D01*
G75*
G02*
X103330000Y-132500000I0J-175000D01*
G01*
X103330000Y-133100000D01*
G75*
G02*
X103155000Y-133275000I-175000J0D01*
G01*
G37*
G36*
G01*
X101955000Y-133275000D02*
X101605000Y-133275000D01*
G75*
G02*
X101430000Y-133100000I0J175000D01*
G01*
X101430000Y-132500000D01*
G75*
G02*
X101605000Y-132325000I175000J0D01*
G01*
X101955000Y-132325000D01*
G75*
G02*
X102130000Y-132500000I0J-175000D01*
G01*
X102130000Y-133100000D01*
G75*
G02*
X101955000Y-133275000I-175000J0D01*
G01*
G37*
G36*
G01*
X100755000Y-133275000D02*
X100405000Y-133275000D01*
G75*
G02*
X100230000Y-133100000I0J175000D01*
G01*
X100230000Y-132500000D01*
G75*
G02*
X100405000Y-132325000I175000J0D01*
G01*
X100755000Y-132325000D01*
G75*
G02*
X100930000Y-132500000I0J-175000D01*
G01*
X100930000Y-133100000D01*
G75*
G02*
X100755000Y-133275000I-175000J0D01*
G01*
G37*
G36*
G01*
X99555000Y-133275000D02*
X99205000Y-133275000D01*
G75*
G02*
X99030000Y-133100000I0J175000D01*
G01*
X99030000Y-132500000D01*
G75*
G02*
X99205000Y-132325000I175000J0D01*
G01*
X99555000Y-132325000D01*
G75*
G02*
X99730000Y-132500000I0J-175000D01*
G01*
X99730000Y-133100000D01*
G75*
G02*
X99555000Y-133275000I-175000J0D01*
G01*
G37*
G36*
G01*
X98355000Y-133275000D02*
X98005000Y-133275000D01*
G75*
G02*
X97830000Y-133100000I0J175000D01*
G01*
X97830000Y-132500000D01*
G75*
G02*
X98005000Y-132325000I175000J0D01*
G01*
X98355000Y-132325000D01*
G75*
G02*
X98530000Y-132500000I0J-175000D01*
G01*
X98530000Y-133100000D01*
G75*
G02*
X98355000Y-133275000I-175000J0D01*
G01*
G37*
G36*
G01*
X97155000Y-133275000D02*
X96805000Y-133275000D01*
G75*
G02*
X96630000Y-133100000I0J175000D01*
G01*
X96630000Y-132500000D01*
G75*
G02*
X96805000Y-132325000I175000J0D01*
G01*
X97155000Y-132325000D01*
G75*
G02*
X97330000Y-132500000I0J-175000D01*
G01*
X97330000Y-133100000D01*
G75*
G02*
X97155000Y-133275000I-175000J0D01*
G01*
G37*
G36*
G01*
X95955000Y-133275000D02*
X95605000Y-133275000D01*
G75*
G02*
X95430000Y-133100000I0J175000D01*
G01*
X95430000Y-132500000D01*
G75*
G02*
X95605000Y-132325000I175000J0D01*
G01*
X95955000Y-132325000D01*
G75*
G02*
X96130000Y-132500000I0J-175000D01*
G01*
X96130000Y-133100000D01*
G75*
G02*
X95955000Y-133275000I-175000J0D01*
G01*
G37*
D10*
X106480000Y-131150000D03*
X105850000Y-118700000D03*
X93530000Y-119470000D03*
X94290000Y-131910000D03*
D11*
X137300000Y-139400000D03*
X137950000Y-139400000D03*
X136650000Y-139400000D03*
X138600000Y-139400000D03*
X136000000Y-139400000D03*
D12*
X134500000Y-139150000D03*
X140100000Y-139150000D03*
D13*
X137300000Y-141300000D03*
D14*
X140880000Y-128600000D03*
X140880000Y-130700000D03*
D15*
X135080000Y-135350000D03*
X135080000Y-132050000D03*
G36*
G01*
X87550000Y-132256250D02*
X87550000Y-131743750D01*
G75*
G02*
X87768750Y-131525000I218750J0D01*
G01*
X88206250Y-131525000D01*
G75*
G02*
X88425000Y-131743750I0J-218750D01*
G01*
X88425000Y-132256250D01*
G75*
G02*
X88206250Y-132475000I-218750J0D01*
G01*
X87768750Y-132475000D01*
G75*
G02*
X87550000Y-132256250I0J218750D01*
G01*
G37*
G36*
G01*
X85975000Y-132256250D02*
X85975000Y-131743750D01*
G75*
G02*
X86193750Y-131525000I218750J0D01*
G01*
X86631250Y-131525000D01*
G75*
G02*
X86850000Y-131743750I0J-218750D01*
G01*
X86850000Y-132256250D01*
G75*
G02*
X86631250Y-132475000I-218750J0D01*
G01*
X86193750Y-132475000D01*
G75*
G02*
X85975000Y-132256250I0J218750D01*
G01*
G37*
G36*
G01*
X130825000Y-132925000D02*
X129575000Y-132925000D01*
G75*
G02*
X129325000Y-132675000I0J250000D01*
G01*
X129325000Y-131925000D01*
G75*
G02*
X129575000Y-131675000I250000J0D01*
G01*
X130825000Y-131675000D01*
G75*
G02*
X131075000Y-131925000I0J-250000D01*
G01*
X131075000Y-132675000D01*
G75*
G02*
X130825000Y-132925000I-250000J0D01*
G01*
G37*
G36*
G01*
X130825000Y-135725000D02*
X129575000Y-135725000D01*
G75*
G02*
X129325000Y-135475000I0J250000D01*
G01*
X129325000Y-134725000D01*
G75*
G02*
X129575000Y-134475000I250000J0D01*
G01*
X130825000Y-134475000D01*
G75*
G02*
X131075000Y-134725000I0J-250000D01*
G01*
X131075000Y-135475000D01*
G75*
G02*
X130825000Y-135725000I-250000J0D01*
G01*
G37*
G36*
G01*
X139850000Y-126943750D02*
X139850000Y-127456250D01*
G75*
G02*
X139631250Y-127675000I-218750J0D01*
G01*
X139193750Y-127675000D01*
G75*
G02*
X138975000Y-127456250I0J218750D01*
G01*
X138975000Y-126943750D01*
G75*
G02*
X139193750Y-126725000I218750J0D01*
G01*
X139631250Y-126725000D01*
G75*
G02*
X139850000Y-126943750I0J-218750D01*
G01*
G37*
G36*
G01*
X141425000Y-126943750D02*
X141425000Y-127456250D01*
G75*
G02*
X141206250Y-127675000I-218750J0D01*
G01*
X140768750Y-127675000D01*
G75*
G02*
X140550000Y-127456250I0J218750D01*
G01*
X140550000Y-126943750D01*
G75*
G02*
X140768750Y-126725000I218750J0D01*
G01*
X141206250Y-126725000D01*
G75*
G02*
X141425000Y-126943750I0J-218750D01*
G01*
G37*
G36*
G01*
X140423750Y-133200000D02*
X140936250Y-133200000D01*
G75*
G02*
X141155000Y-133418750I0J-218750D01*
G01*
X141155000Y-133856250D01*
G75*
G02*
X140936250Y-134075000I-218750J0D01*
G01*
X140423750Y-134075000D01*
G75*
G02*
X140205000Y-133856250I0J218750D01*
G01*
X140205000Y-133418750D01*
G75*
G02*
X140423750Y-133200000I218750J0D01*
G01*
G37*
G36*
G01*
X140423750Y-131625000D02*
X140936250Y-131625000D01*
G75*
G02*
X141155000Y-131843750I0J-218750D01*
G01*
X141155000Y-132281250D01*
G75*
G02*
X140936250Y-132500000I-218750J0D01*
G01*
X140423750Y-132500000D01*
G75*
G02*
X140205000Y-132281250I0J218750D01*
G01*
X140205000Y-131843750D01*
G75*
G02*
X140423750Y-131625000I218750J0D01*
G01*
G37*
D16*
X135880000Y-129150000D03*
X137880000Y-128200000D03*
X137880000Y-130100000D03*
X137180000Y-132650000D03*
X139180000Y-131700000D03*
X139180000Y-133600000D03*
D17*
X132600000Y-135100000D03*
X132600000Y-132300000D03*
D18*
X137650000Y-137646584D03*
X136650000Y-137646584D03*
X137150000Y-136506584D03*
G36*
G01*
X124756250Y-124550000D02*
X124243750Y-124550000D01*
G75*
G02*
X124025000Y-124331250I0J218750D01*
G01*
X124025000Y-123893750D01*
G75*
G02*
X124243750Y-123675000I218750J0D01*
G01*
X124756250Y-123675000D01*
G75*
G02*
X124975000Y-123893750I0J-218750D01*
G01*
X124975000Y-124331250D01*
G75*
G02*
X124756250Y-124550000I-218750J0D01*
G01*
G37*
G36*
G01*
X124756250Y-126125000D02*
X124243750Y-126125000D01*
G75*
G02*
X124025000Y-125906250I0J218750D01*
G01*
X124025000Y-125468750D01*
G75*
G02*
X124243750Y-125250000I218750J0D01*
G01*
X124756250Y-125250000D01*
G75*
G02*
X124975000Y-125468750I0J-218750D01*
G01*
X124975000Y-125906250D01*
G75*
G02*
X124756250Y-126125000I-218750J0D01*
G01*
G37*
X110500000Y-134630000D03*
X111500000Y-134630000D03*
X111000000Y-135770000D03*
D19*
X121900000Y-127600000D03*
X120950000Y-125600000D03*
X122850000Y-125600000D03*
D20*
X131080000Y-129000000D03*
X131080000Y-128050000D03*
X131080000Y-127100000D03*
X128880000Y-127100000D03*
X128880000Y-129000000D03*
G36*
G01*
X121450000Y-123843750D02*
X121450000Y-124356250D01*
G75*
G02*
X121231250Y-124575000I-218750J0D01*
G01*
X120793750Y-124575000D01*
G75*
G02*
X120575000Y-124356250I0J218750D01*
G01*
X120575000Y-123843750D01*
G75*
G02*
X120793750Y-123625000I218750J0D01*
G01*
X121231250Y-123625000D01*
G75*
G02*
X121450000Y-123843750I0J-218750D01*
G01*
G37*
G36*
G01*
X123025000Y-123843750D02*
X123025000Y-124356250D01*
G75*
G02*
X122806250Y-124575000I-218750J0D01*
G01*
X122368750Y-124575000D01*
G75*
G02*
X122150000Y-124356250I0J218750D01*
G01*
X122150000Y-123843750D01*
G75*
G02*
X122368750Y-123625000I218750J0D01*
G01*
X122806250Y-123625000D01*
G75*
G02*
X123025000Y-123843750I0J-218750D01*
G01*
G37*
G36*
G01*
X119811835Y-115650000D02*
X119299335Y-115650000D01*
G75*
G02*
X119080585Y-115431250I0J218750D01*
G01*
X119080585Y-114993750D01*
G75*
G02*
X119299335Y-114775000I218750J0D01*
G01*
X119811835Y-114775000D01*
G75*
G02*
X120030585Y-114993750I0J-218750D01*
G01*
X120030585Y-115431250D01*
G75*
G02*
X119811835Y-115650000I-218750J0D01*
G01*
G37*
G36*
G01*
X119811835Y-117225000D02*
X119299335Y-117225000D01*
G75*
G02*
X119080585Y-117006250I0J218750D01*
G01*
X119080585Y-116568750D01*
G75*
G02*
X119299335Y-116350000I218750J0D01*
G01*
X119811835Y-116350000D01*
G75*
G02*
X120030585Y-116568750I0J-218750D01*
G01*
X120030585Y-117006250D01*
G75*
G02*
X119811835Y-117225000I-218750J0D01*
G01*
G37*
G36*
G01*
X110589135Y-115650000D02*
X110076635Y-115650000D01*
G75*
G02*
X109857885Y-115431250I0J218750D01*
G01*
X109857885Y-114993750D01*
G75*
G02*
X110076635Y-114775000I218750J0D01*
G01*
X110589135Y-114775000D01*
G75*
G02*
X110807885Y-114993750I0J-218750D01*
G01*
X110807885Y-115431250D01*
G75*
G02*
X110589135Y-115650000I-218750J0D01*
G01*
G37*
G36*
G01*
X110589135Y-117225000D02*
X110076635Y-117225000D01*
G75*
G02*
X109857885Y-117006250I0J218750D01*
G01*
X109857885Y-116568750D01*
G75*
G02*
X110076635Y-116350000I218750J0D01*
G01*
X110589135Y-116350000D01*
G75*
G02*
X110807885Y-116568750I0J-218750D01*
G01*
X110807885Y-117006250D01*
G75*
G02*
X110589135Y-117225000I-218750J0D01*
G01*
G37*
G36*
G01*
X115056386Y-115724626D02*
X114543886Y-115724626D01*
G75*
G02*
X114325136Y-115505876I0J218750D01*
G01*
X114325136Y-115068376D01*
G75*
G02*
X114543886Y-114849626I218750J0D01*
G01*
X115056386Y-114849626D01*
G75*
G02*
X115275136Y-115068376I0J-218750D01*
G01*
X115275136Y-115505876D01*
G75*
G02*
X115056386Y-115724626I-218750J0D01*
G01*
G37*
G36*
G01*
X115056386Y-117299626D02*
X114543886Y-117299626D01*
G75*
G02*
X114325136Y-117080876I0J218750D01*
G01*
X114325136Y-116643376D01*
G75*
G02*
X114543886Y-116424626I218750J0D01*
G01*
X115056386Y-116424626D01*
G75*
G02*
X115275136Y-116643376I0J-218750D01*
G01*
X115275136Y-117080876D01*
G75*
G02*
X115056386Y-117299626I-218750J0D01*
G01*
G37*
G36*
G01*
X120944784Y-116350000D02*
X121457284Y-116350000D01*
G75*
G02*
X121676034Y-116568750I0J-218750D01*
G01*
X121676034Y-117006250D01*
G75*
G02*
X121457284Y-117225000I-218750J0D01*
G01*
X120944784Y-117225000D01*
G75*
G02*
X120726034Y-117006250I0J218750D01*
G01*
X120726034Y-116568750D01*
G75*
G02*
X120944784Y-116350000I218750J0D01*
G01*
G37*
G36*
G01*
X120944784Y-114775000D02*
X121457284Y-114775000D01*
G75*
G02*
X121676034Y-114993750I0J-218750D01*
G01*
X121676034Y-115431250D01*
G75*
G02*
X121457284Y-115650000I-218750J0D01*
G01*
X120944784Y-115650000D01*
G75*
G02*
X120726034Y-115431250I0J218750D01*
G01*
X120726034Y-114993750D01*
G75*
G02*
X120944784Y-114775000I218750J0D01*
G01*
G37*
G36*
G01*
X111743750Y-116350000D02*
X112256250Y-116350000D01*
G75*
G02*
X112475000Y-116568750I0J-218750D01*
G01*
X112475000Y-117006250D01*
G75*
G02*
X112256250Y-117225000I-218750J0D01*
G01*
X111743750Y-117225000D01*
G75*
G02*
X111525000Y-117006250I0J218750D01*
G01*
X111525000Y-116568750D01*
G75*
G02*
X111743750Y-116350000I218750J0D01*
G01*
G37*
G36*
G01*
X111743750Y-114775000D02*
X112256250Y-114775000D01*
G75*
G02*
X112475000Y-114993750I0J-218750D01*
G01*
X112475000Y-115431250D01*
G75*
G02*
X112256250Y-115650000I-218750J0D01*
G01*
X111743750Y-115650000D01*
G75*
G02*
X111525000Y-115431250I0J218750D01*
G01*
X111525000Y-114993750D01*
G75*
G02*
X111743750Y-114775000I218750J0D01*
G01*
G37*
G36*
G01*
X116207578Y-116350000D02*
X116720078Y-116350000D01*
G75*
G02*
X116938828Y-116568750I0J-218750D01*
G01*
X116938828Y-117006250D01*
G75*
G02*
X116720078Y-117225000I-218750J0D01*
G01*
X116207578Y-117225000D01*
G75*
G02*
X115988828Y-117006250I0J218750D01*
G01*
X115988828Y-116568750D01*
G75*
G02*
X116207578Y-116350000I218750J0D01*
G01*
G37*
G36*
G01*
X116207578Y-114775000D02*
X116720078Y-114775000D01*
G75*
G02*
X116938828Y-114993750I0J-218750D01*
G01*
X116938828Y-115431250D01*
G75*
G02*
X116720078Y-115650000I-218750J0D01*
G01*
X116207578Y-115650000D01*
G75*
G02*
X115988828Y-115431250I0J218750D01*
G01*
X115988828Y-114993750D01*
G75*
G02*
X116207578Y-114775000I218750J0D01*
G01*
G37*
G36*
G01*
X108943750Y-129450000D02*
X109456250Y-129450000D01*
G75*
G02*
X109675000Y-129668750I0J-218750D01*
G01*
X109675000Y-130106250D01*
G75*
G02*
X109456250Y-130325000I-218750J0D01*
G01*
X108943750Y-130325000D01*
G75*
G02*
X108725000Y-130106250I0J218750D01*
G01*
X108725000Y-129668750D01*
G75*
G02*
X108943750Y-129450000I218750J0D01*
G01*
G37*
G36*
G01*
X108943750Y-127875000D02*
X109456250Y-127875000D01*
G75*
G02*
X109675000Y-128093750I0J-218750D01*
G01*
X109675000Y-128531250D01*
G75*
G02*
X109456250Y-128750000I-218750J0D01*
G01*
X108943750Y-128750000D01*
G75*
G02*
X108725000Y-128531250I0J218750D01*
G01*
X108725000Y-128093750D01*
G75*
G02*
X108943750Y-127875000I218750J0D01*
G01*
G37*
G36*
G01*
X117543750Y-133450000D02*
X118056250Y-133450000D01*
G75*
G02*
X118275000Y-133668750I0J-218750D01*
G01*
X118275000Y-134106250D01*
G75*
G02*
X118056250Y-134325000I-218750J0D01*
G01*
X117543750Y-134325000D01*
G75*
G02*
X117325000Y-134106250I0J218750D01*
G01*
X117325000Y-133668750D01*
G75*
G02*
X117543750Y-133450000I218750J0D01*
G01*
G37*
G36*
G01*
X117543750Y-131875000D02*
X118056250Y-131875000D01*
G75*
G02*
X118275000Y-132093750I0J-218750D01*
G01*
X118275000Y-132531250D01*
G75*
G02*
X118056250Y-132750000I-218750J0D01*
G01*
X117543750Y-132750000D01*
G75*
G02*
X117325000Y-132531250I0J218750D01*
G01*
X117325000Y-132093750D01*
G75*
G02*
X117543750Y-131875000I218750J0D01*
G01*
G37*
G36*
G01*
X117850000Y-135143750D02*
X117850000Y-135656250D01*
G75*
G02*
X117631250Y-135875000I-218750J0D01*
G01*
X117193750Y-135875000D01*
G75*
G02*
X116975000Y-135656250I0J218750D01*
G01*
X116975000Y-135143750D01*
G75*
G02*
X117193750Y-134925000I218750J0D01*
G01*
X117631250Y-134925000D01*
G75*
G02*
X117850000Y-135143750I0J-218750D01*
G01*
G37*
G36*
G01*
X119425000Y-135143750D02*
X119425000Y-135656250D01*
G75*
G02*
X119206250Y-135875000I-218750J0D01*
G01*
X118768750Y-135875000D01*
G75*
G02*
X118550000Y-135656250I0J218750D01*
G01*
X118550000Y-135143750D01*
G75*
G02*
X118768750Y-134925000I218750J0D01*
G01*
X119206250Y-134925000D01*
G75*
G02*
X119425000Y-135143750I0J-218750D01*
G01*
G37*
G36*
G01*
X116556250Y-132740000D02*
X116043750Y-132740000D01*
G75*
G02*
X115825000Y-132521250I0J218750D01*
G01*
X115825000Y-132083750D01*
G75*
G02*
X116043750Y-131865000I218750J0D01*
G01*
X116556250Y-131865000D01*
G75*
G02*
X116775000Y-132083750I0J-218750D01*
G01*
X116775000Y-132521250D01*
G75*
G02*
X116556250Y-132740000I-218750J0D01*
G01*
G37*
G36*
G01*
X116556250Y-134315000D02*
X116043750Y-134315000D01*
G75*
G02*
X115825000Y-134096250I0J218750D01*
G01*
X115825000Y-133658750D01*
G75*
G02*
X116043750Y-133440000I218750J0D01*
G01*
X116556250Y-133440000D01*
G75*
G02*
X116775000Y-133658750I0J-218750D01*
G01*
X116775000Y-134096250D01*
G75*
G02*
X116556250Y-134315000I-218750J0D01*
G01*
G37*
G36*
G01*
X117550000Y-125843750D02*
X117550000Y-126356250D01*
G75*
G02*
X117331250Y-126575000I-218750J0D01*
G01*
X116893750Y-126575000D01*
G75*
G02*
X116675000Y-126356250I0J218750D01*
G01*
X116675000Y-125843750D01*
G75*
G02*
X116893750Y-125625000I218750J0D01*
G01*
X117331250Y-125625000D01*
G75*
G02*
X117550000Y-125843750I0J-218750D01*
G01*
G37*
G36*
G01*
X119125000Y-125843750D02*
X119125000Y-126356250D01*
G75*
G02*
X118906250Y-126575000I-218750J0D01*
G01*
X118468750Y-126575000D01*
G75*
G02*
X118250000Y-126356250I0J218750D01*
G01*
X118250000Y-125843750D01*
G75*
G02*
X118468750Y-125625000I218750J0D01*
G01*
X118906250Y-125625000D01*
G75*
G02*
X119125000Y-125843750I0J-218750D01*
G01*
G37*
D19*
X117900000Y-129600000D03*
X116950000Y-127600000D03*
X118850000Y-127600000D03*
G36*
G01*
X124355000Y-133900000D02*
X124655000Y-133900000D01*
G75*
G02*
X124805000Y-134050000I0J-150000D01*
G01*
X124805000Y-135700000D01*
G75*
G02*
X124655000Y-135850000I-150000J0D01*
G01*
X124355000Y-135850000D01*
G75*
G02*
X124205000Y-135700000I0J150000D01*
G01*
X124205000Y-134050000D01*
G75*
G02*
X124355000Y-133900000I150000J0D01*
G01*
G37*
G36*
G01*
X123085000Y-133900000D02*
X123385000Y-133900000D01*
G75*
G02*
X123535000Y-134050000I0J-150000D01*
G01*
X123535000Y-135700000D01*
G75*
G02*
X123385000Y-135850000I-150000J0D01*
G01*
X123085000Y-135850000D01*
G75*
G02*
X122935000Y-135700000I0J150000D01*
G01*
X122935000Y-134050000D01*
G75*
G02*
X123085000Y-133900000I150000J0D01*
G01*
G37*
G36*
G01*
X121815000Y-133900000D02*
X122115000Y-133900000D01*
G75*
G02*
X122265000Y-134050000I0J-150000D01*
G01*
X122265000Y-135700000D01*
G75*
G02*
X122115000Y-135850000I-150000J0D01*
G01*
X121815000Y-135850000D01*
G75*
G02*
X121665000Y-135700000I0J150000D01*
G01*
X121665000Y-134050000D01*
G75*
G02*
X121815000Y-133900000I150000J0D01*
G01*
G37*
G36*
G01*
X120545000Y-133900000D02*
X120845000Y-133900000D01*
G75*
G02*
X120995000Y-134050000I0J-150000D01*
G01*
X120995000Y-135700000D01*
G75*
G02*
X120845000Y-135850000I-150000J0D01*
G01*
X120545000Y-135850000D01*
G75*
G02*
X120395000Y-135700000I0J150000D01*
G01*
X120395000Y-134050000D01*
G75*
G02*
X120545000Y-133900000I150000J0D01*
G01*
G37*
G36*
G01*
X120545000Y-128950000D02*
X120845000Y-128950000D01*
G75*
G02*
X120995000Y-129100000I0J-150000D01*
G01*
X120995000Y-130750000D01*
G75*
G02*
X120845000Y-130900000I-150000J0D01*
G01*
X120545000Y-130900000D01*
G75*
G02*
X120395000Y-130750000I0J150000D01*
G01*
X120395000Y-129100000D01*
G75*
G02*
X120545000Y-128950000I150000J0D01*
G01*
G37*
G36*
G01*
X121815000Y-128950000D02*
X122115000Y-128950000D01*
G75*
G02*
X122265000Y-129100000I0J-150000D01*
G01*
X122265000Y-130750000D01*
G75*
G02*
X122115000Y-130900000I-150000J0D01*
G01*
X121815000Y-130900000D01*
G75*
G02*
X121665000Y-130750000I0J150000D01*
G01*
X121665000Y-129100000D01*
G75*
G02*
X121815000Y-128950000I150000J0D01*
G01*
G37*
G36*
G01*
X123085000Y-128950000D02*
X123385000Y-128950000D01*
G75*
G02*
X123535000Y-129100000I0J-150000D01*
G01*
X123535000Y-130750000D01*
G75*
G02*
X123385000Y-130900000I-150000J0D01*
G01*
X123085000Y-130900000D01*
G75*
G02*
X122935000Y-130750000I0J150000D01*
G01*
X122935000Y-129100000D01*
G75*
G02*
X123085000Y-128950000I150000J0D01*
G01*
G37*
G36*
G01*
X124355000Y-128950000D02*
X124655000Y-128950000D01*
G75*
G02*
X124805000Y-129100000I0J-150000D01*
G01*
X124805000Y-130750000D01*
G75*
G02*
X124655000Y-130900000I-150000J0D01*
G01*
X124355000Y-130900000D01*
G75*
G02*
X124205000Y-130750000I0J150000D01*
G01*
X124205000Y-129100000D01*
G75*
G02*
X124355000Y-128950000I150000J0D01*
G01*
G37*
D21*
X90550000Y-122125000D03*
X86050000Y-122125000D03*
X86050000Y-130075000D03*
X90550000Y-130075000D03*
X135750000Y-120975000D03*
X140250000Y-120975000D03*
X140250000Y-113025000D03*
X135750000Y-113025000D03*
G36*
G01*
X105050000Y-134856250D02*
X105050000Y-134343750D01*
G75*
G02*
X105268750Y-134125000I218750J0D01*
G01*
X105706250Y-134125000D01*
G75*
G02*
X105925000Y-134343750I0J-218750D01*
G01*
X105925000Y-134856250D01*
G75*
G02*
X105706250Y-135075000I-218750J0D01*
G01*
X105268750Y-135075000D01*
G75*
G02*
X105050000Y-134856250I0J218750D01*
G01*
G37*
G36*
G01*
X103475000Y-134856250D02*
X103475000Y-134343750D01*
G75*
G02*
X103693750Y-134125000I218750J0D01*
G01*
X104131250Y-134125000D01*
G75*
G02*
X104350000Y-134343750I0J-218750D01*
G01*
X104350000Y-134856250D01*
G75*
G02*
X104131250Y-135075000I-218750J0D01*
G01*
X103693750Y-135075000D01*
G75*
G02*
X103475000Y-134856250I0J218750D01*
G01*
G37*
G36*
G01*
X108850000Y-135656250D02*
X108850000Y-135143750D01*
G75*
G02*
X109068750Y-134925000I218750J0D01*
G01*
X109506250Y-134925000D01*
G75*
G02*
X109725000Y-135143750I0J-218750D01*
G01*
X109725000Y-135656250D01*
G75*
G02*
X109506250Y-135875000I-218750J0D01*
G01*
X109068750Y-135875000D01*
G75*
G02*
X108850000Y-135656250I0J218750D01*
G01*
G37*
G36*
G01*
X107275000Y-135656250D02*
X107275000Y-135143750D01*
G75*
G02*
X107493750Y-134925000I218750J0D01*
G01*
X107931250Y-134925000D01*
G75*
G02*
X108150000Y-135143750I0J-218750D01*
G01*
X108150000Y-135656250D01*
G75*
G02*
X107931250Y-135875000I-218750J0D01*
G01*
X107493750Y-135875000D01*
G75*
G02*
X107275000Y-135656250I0J218750D01*
G01*
G37*
G36*
G01*
X108850000Y-134156250D02*
X108850000Y-133643750D01*
G75*
G02*
X109068750Y-133425000I218750J0D01*
G01*
X109506250Y-133425000D01*
G75*
G02*
X109725000Y-133643750I0J-218750D01*
G01*
X109725000Y-134156250D01*
G75*
G02*
X109506250Y-134375000I-218750J0D01*
G01*
X109068750Y-134375000D01*
G75*
G02*
X108850000Y-134156250I0J218750D01*
G01*
G37*
G36*
G01*
X107275000Y-134156250D02*
X107275000Y-133643750D01*
G75*
G02*
X107493750Y-133425000I218750J0D01*
G01*
X107931250Y-133425000D01*
G75*
G02*
X108150000Y-133643750I0J-218750D01*
G01*
X108150000Y-134156250D01*
G75*
G02*
X107931250Y-134375000I-218750J0D01*
G01*
X107493750Y-134375000D01*
G75*
G02*
X107275000Y-134156250I0J218750D01*
G01*
G37*
G36*
G01*
X103350000Y-136643750D02*
X103350000Y-137156250D01*
G75*
G02*
X103131250Y-137375000I-218750J0D01*
G01*
X102693750Y-137375000D01*
G75*
G02*
X102475000Y-137156250I0J218750D01*
G01*
X102475000Y-136643750D01*
G75*
G02*
X102693750Y-136425000I218750J0D01*
G01*
X103131250Y-136425000D01*
G75*
G02*
X103350000Y-136643750I0J-218750D01*
G01*
G37*
G36*
G01*
X104925000Y-136643750D02*
X104925000Y-137156250D01*
G75*
G02*
X104706250Y-137375000I-218750J0D01*
G01*
X104268750Y-137375000D01*
G75*
G02*
X104050000Y-137156250I0J218750D01*
G01*
X104050000Y-136643750D01*
G75*
G02*
X104268750Y-136425000I218750J0D01*
G01*
X104706250Y-136425000D01*
G75*
G02*
X104925000Y-136643750I0J-218750D01*
G01*
G37*
G36*
G01*
X103349999Y-138243749D02*
X103349999Y-138756249D01*
G75*
G02*
X103131249Y-138974999I-218750J0D01*
G01*
X102693749Y-138974999D01*
G75*
G02*
X102474999Y-138756249I0J218750D01*
G01*
X102474999Y-138243749D01*
G75*
G02*
X102693749Y-138024999I218750J0D01*
G01*
X103131249Y-138024999D01*
G75*
G02*
X103349999Y-138243749I0J-218750D01*
G01*
G37*
G36*
G01*
X104924999Y-138243749D02*
X104924999Y-138756249D01*
G75*
G02*
X104706249Y-138974999I-218750J0D01*
G01*
X104268749Y-138974999D01*
G75*
G02*
X104049999Y-138756249I0J218750D01*
G01*
X104049999Y-138243749D01*
G75*
G02*
X104268749Y-138024999I218750J0D01*
G01*
X104706249Y-138024999D01*
G75*
G02*
X104924999Y-138243749I0J-218750D01*
G01*
G37*
G36*
G01*
X126356250Y-130562500D02*
X125843750Y-130562500D01*
G75*
G02*
X125625000Y-130343750I0J218750D01*
G01*
X125625000Y-129906250D01*
G75*
G02*
X125843750Y-129687500I218750J0D01*
G01*
X126356250Y-129687500D01*
G75*
G02*
X126575000Y-129906250I0J-218750D01*
G01*
X126575000Y-130343750D01*
G75*
G02*
X126356250Y-130562500I-218750J0D01*
G01*
G37*
G36*
G01*
X126356250Y-132137500D02*
X125843750Y-132137500D01*
G75*
G02*
X125625000Y-131918750I0J218750D01*
G01*
X125625000Y-131481250D01*
G75*
G02*
X125843750Y-131262500I218750J0D01*
G01*
X126356250Y-131262500D01*
G75*
G02*
X126575000Y-131481250I0J-218750D01*
G01*
X126575000Y-131918750D01*
G75*
G02*
X126356250Y-132137500I-218750J0D01*
G01*
G37*
G36*
G01*
X89143750Y-119950000D02*
X89656250Y-119950000D01*
G75*
G02*
X89875000Y-120168750I0J-218750D01*
G01*
X89875000Y-120606250D01*
G75*
G02*
X89656250Y-120825000I-218750J0D01*
G01*
X89143750Y-120825000D01*
G75*
G02*
X88925000Y-120606250I0J218750D01*
G01*
X88925000Y-120168750D01*
G75*
G02*
X89143750Y-119950000I218750J0D01*
G01*
G37*
G36*
G01*
X89143750Y-118375000D02*
X89656250Y-118375000D01*
G75*
G02*
X89875000Y-118593750I0J-218750D01*
G01*
X89875000Y-119031250D01*
G75*
G02*
X89656250Y-119250000I-218750J0D01*
G01*
X89143750Y-119250000D01*
G75*
G02*
X88925000Y-119031250I0J218750D01*
G01*
X88925000Y-118593750D01*
G75*
G02*
X89143750Y-118375000I218750J0D01*
G01*
G37*
D19*
X103600000Y-142000000D03*
X102650000Y-140000000D03*
X104550000Y-140000000D03*
D22*
X135720000Y-136600000D03*
X135720000Y-137600000D03*
X134580000Y-137100000D03*
G36*
G01*
X133236250Y-126500000D02*
X132723750Y-126500000D01*
G75*
G02*
X132505000Y-126281250I0J218750D01*
G01*
X132505000Y-125843750D01*
G75*
G02*
X132723750Y-125625000I218750J0D01*
G01*
X133236250Y-125625000D01*
G75*
G02*
X133455000Y-125843750I0J-218750D01*
G01*
X133455000Y-126281250D01*
G75*
G02*
X133236250Y-126500000I-218750J0D01*
G01*
G37*
G36*
G01*
X133236250Y-128075000D02*
X132723750Y-128075000D01*
G75*
G02*
X132505000Y-127856250I0J218750D01*
G01*
X132505000Y-127418750D01*
G75*
G02*
X132723750Y-127200000I218750J0D01*
G01*
X133236250Y-127200000D01*
G75*
G02*
X133455000Y-127418750I0J-218750D01*
G01*
X133455000Y-127856250D01*
G75*
G02*
X133236250Y-128075000I-218750J0D01*
G01*
G37*
G36*
G01*
X126356250Y-133562500D02*
X125843750Y-133562500D01*
G75*
G02*
X125625000Y-133343750I0J218750D01*
G01*
X125625000Y-132906250D01*
G75*
G02*
X125843750Y-132687500I218750J0D01*
G01*
X126356250Y-132687500D01*
G75*
G02*
X126575000Y-132906250I0J-218750D01*
G01*
X126575000Y-133343750D01*
G75*
G02*
X126356250Y-133562500I-218750J0D01*
G01*
G37*
G36*
G01*
X126356250Y-135137500D02*
X125843750Y-135137500D01*
G75*
G02*
X125625000Y-134918750I0J218750D01*
G01*
X125625000Y-134481250D01*
G75*
G02*
X125843750Y-134262500I218750J0D01*
G01*
X126356250Y-134262500D01*
G75*
G02*
X126575000Y-134481250I0J-218750D01*
G01*
X126575000Y-134918750D01*
G75*
G02*
X126356250Y-135137500I-218750J0D01*
G01*
G37*
G36*
G01*
X129930000Y-130856250D02*
X129930000Y-130343750D01*
G75*
G02*
X130148750Y-130125000I218750J0D01*
G01*
X130586250Y-130125000D01*
G75*
G02*
X130805000Y-130343750I0J-218750D01*
G01*
X130805000Y-130856250D01*
G75*
G02*
X130586250Y-131075000I-218750J0D01*
G01*
X130148750Y-131075000D01*
G75*
G02*
X129930000Y-130856250I0J218750D01*
G01*
G37*
G36*
G01*
X128355000Y-130856250D02*
X128355000Y-130343750D01*
G75*
G02*
X128573750Y-130125000I218750J0D01*
G01*
X129011250Y-130125000D01*
G75*
G02*
X129230000Y-130343750I0J-218750D01*
G01*
X129230000Y-130856250D01*
G75*
G02*
X129011250Y-131075000I-218750J0D01*
G01*
X128573750Y-131075000D01*
G75*
G02*
X128355000Y-130856250I0J218750D01*
G01*
G37*
G36*
G01*
X132723750Y-130200000D02*
X133236250Y-130200000D01*
G75*
G02*
X133455000Y-130418750I0J-218750D01*
G01*
X133455000Y-130856250D01*
G75*
G02*
X133236250Y-131075000I-218750J0D01*
G01*
X132723750Y-131075000D01*
G75*
G02*
X132505000Y-130856250I0J218750D01*
G01*
X132505000Y-130418750D01*
G75*
G02*
X132723750Y-130200000I218750J0D01*
G01*
G37*
G36*
G01*
X132723750Y-128625000D02*
X133236250Y-128625000D01*
G75*
G02*
X133455000Y-128843750I0J-218750D01*
G01*
X133455000Y-129281250D01*
G75*
G02*
X133236250Y-129500000I-218750J0D01*
G01*
X132723750Y-129500000D01*
G75*
G02*
X132505000Y-129281250I0J218750D01*
G01*
X132505000Y-128843750D01*
G75*
G02*
X132723750Y-128625000I218750J0D01*
G01*
G37*
G36*
G01*
X110350000Y-127056250D02*
X110350000Y-126543750D01*
G75*
G02*
X110568750Y-126325000I218750J0D01*
G01*
X111006250Y-126325000D01*
G75*
G02*
X111225000Y-126543750I0J-218750D01*
G01*
X111225000Y-127056250D01*
G75*
G02*
X111006250Y-127275000I-218750J0D01*
G01*
X110568750Y-127275000D01*
G75*
G02*
X110350000Y-127056250I0J218750D01*
G01*
G37*
G36*
G01*
X108775000Y-127056250D02*
X108775000Y-126543750D01*
G75*
G02*
X108993750Y-126325000I218750J0D01*
G01*
X109431250Y-126325000D01*
G75*
G02*
X109650000Y-126543750I0J-218750D01*
G01*
X109650000Y-127056250D01*
G75*
G02*
X109431250Y-127275000I-218750J0D01*
G01*
X108993750Y-127275000D01*
G75*
G02*
X108775000Y-127056250I0J218750D01*
G01*
G37*
G36*
G01*
X91256250Y-119250000D02*
X90743750Y-119250000D01*
G75*
G02*
X90525000Y-119031250I0J218750D01*
G01*
X90525000Y-118593750D01*
G75*
G02*
X90743750Y-118375000I218750J0D01*
G01*
X91256250Y-118375000D01*
G75*
G02*
X91475000Y-118593750I0J-218750D01*
G01*
X91475000Y-119031250D01*
G75*
G02*
X91256250Y-119250000I-218750J0D01*
G01*
G37*
G36*
G01*
X91256250Y-120825000D02*
X90743750Y-120825000D01*
G75*
G02*
X90525000Y-120606250I0J218750D01*
G01*
X90525000Y-120168750D01*
G75*
G02*
X90743750Y-119950000I218750J0D01*
G01*
X91256250Y-119950000D01*
G75*
G02*
X91475000Y-120168750I0J-218750D01*
G01*
X91475000Y-120606250D01*
G75*
G02*
X91256250Y-120825000I-218750J0D01*
G01*
G37*
M02*
